<svg width="40" height="40" viewBox="0 0 40 40" fill="none" xmlns="http://www.w3.org/2000/svg">
<path d="M23.5499 18.9009C24.1999 16.1675 21.8166 13.7842 19.0832 14.4342C17.7999 14.7509 16.7499 15.8009 16.4332 17.0842C15.7832 19.8175 18.1666 22.2009 20.8999 21.5509C22.1999 21.2342 23.2499 20.1842 23.5499 18.9009Z" fill="#573CFF"/>
<path d="M10.0334 29.9487C9.73343 29.9487 9.41676 29.832 9.18343 29.6154C5.9501 26.6154 4.1001 22.382 4.1001 17.982C4.1001 9.21536 11.2334 2.08203 20.0001 2.08203C28.7668 2.08203 35.9001 9.21536 35.9001 17.982C35.9001 22.4154 34.1168 26.5154 30.8834 29.5654C30.3834 30.032 29.5834 30.0154 29.1168 29.5154C28.6501 29.0154 28.6668 28.2154 29.1668 27.7487C31.9001 25.182 33.4001 21.732 33.4001 17.9987C33.4001 10.6154 27.3834 4.5987 20.0001 4.5987C12.6168 4.5987 6.6001 10.6154 6.6001 17.9987C6.6001 21.7654 8.11676 25.232 10.8834 27.7987C11.3834 28.2654 11.4168 29.0654 10.9501 29.5654C10.7001 29.8154 10.3668 29.9487 10.0334 29.9487Z" fill="#573CFF"/>
<path d="M26.6667 25.4996C26.3667 25.4996 26.05 25.3829 25.8167 25.1663C25.3167 24.6996 25.2834 23.8996 25.7667 23.3996C27.15 21.9329 27.9167 19.9996 27.9167 17.9996C27.9167 13.6329 24.3667 10.0996 20.0167 10.0996C15.6667 10.0996 12.1167 13.6496 12.1167 17.9996C12.1167 20.0163 12.8834 21.9329 14.2667 23.3996C14.7334 23.8996 14.7167 24.6996 14.2167 25.1663C13.7167 25.6496 12.9167 25.6163 12.45 25.1163C10.6334 23.1829 9.6167 20.6496 9.6167 17.9996C9.6167 12.2663 14.2834 7.59961 20.0167 7.59961C25.75 7.59961 30.4167 12.2663 30.4167 17.9996C30.4167 20.6496 29.4167 23.1829 27.5834 25.1163C27.3334 25.3663 27 25.4996 26.6667 25.4996Z" fill="#573CFF"/>
<path d="M17.1668 27.7667L14.7668 30.75C12.8668 33.1333 14.5668 36.6667 17.6001 36.6667H22.3835C25.4335 36.6667 27.1335 33.1333 25.2168 30.7667L22.8168 27.7833C21.3835 25.95 18.6168 25.95 17.1668 27.7667Z" fill="#573CFF"/>
</svg>
