<svg width="40" height="40" viewBox="0 0 40 40" fill="none" xmlns="http://www.w3.org/2000/svg">
<path d="M18.6595 9.96916L18.6595 9.96911L18.6535 9.96311L12.4702 3.77978L12.1172 4.13275L12.4702 3.77978C12.3049 3.61448 12.0976 3.47718 11.869 3.38576L11.7796 3.35H11.7673C11.608 3.2937 11.4265 3.25 11.2167 3.25C10.7493 3.25 10.3059 3.43702 9.97992 3.76296C9.97987 3.76301 9.97982 3.76306 9.97976 3.76311L3.76357 9.96264L3.7631 9.96311C3.0845 10.6417 3.0845 11.7583 3.7631 12.4369C4.44169 13.1155 5.55827 13.1155 6.23687 12.4369L9.46665 9.20711V35C9.46665 35.9595 10.2572 36.75 11.2167 36.75C12.1761 36.75 12.9667 35.9595 12.9667 35V9.22377L16.1798 12.4369C16.5285 12.7856 16.9745 12.95 17.4167 12.95C17.8588 12.95 18.3048 12.7856 18.6535 12.4369C19.3354 11.755 19.3269 10.6596 18.6595 9.96916ZM11.6833 3.35C11.677 3.35 11.6797 3.3497 11.6886 3.35H11.6833Z" fill="white" stroke="white"/>
<path d="M28.1309 36.6142L28.2203 36.65H28.2329C28.4012 36.7086 28.5956 36.75 28.7999 36.75C29.2673 36.75 29.7108 36.5629 30.0368 36.2369L36.2368 30.0369L36.2368 30.0369L36.2427 30.0308C36.9102 29.3404 36.9186 28.2449 36.2368 27.5631C35.5582 26.8845 34.4416 26.8845 33.763 27.5631L30.5332 30.7929V5C30.5332 4.04052 29.7427 3.25 28.7832 3.25C27.8238 3.25 27.0332 4.04052 27.0332 5V30.7762L23.8201 27.5631C23.1415 26.8845 22.0249 26.8845 21.3463 27.5631C20.6678 28.2417 20.6678 29.3583 21.3463 30.0369L27.5297 36.2202C27.695 36.3855 27.9023 36.5228 28.1309 36.6142ZM28.3166 36.65C28.3229 36.65 28.3201 36.6503 28.3113 36.65H28.3166Z" fill="white" stroke="white"/>
</svg>
