<svg width="214" height="50" viewBox="0 0 214 50" fill="none" xmlns="http://www.w3.org/2000/svg">
<mask id="path-1-outside-1_268_484" maskUnits="userSpaceOnUse" x="63" y="17" width="150" height="26" fill="black">
<rect fill="white" x="63" y="17" width="150" height="26"/>
<path d="M83.3867 28.207C83.7578 28.9883 83.9434 29.7793 83.9434 30.5801C83.9434 31.3613 83.748 32.1426 83.3574 32.9238C82.9668 33.6855 82.332 34.3691 81.4531 34.9746C80.5742 35.5605 79.4512 35.8535 78.084 35.8535H77.9082C77.791 35.873 77.6738 35.8828 77.5566 35.8828H65.7793C65.252 35.8633 64.8027 35.6777 64.4316 35.3262C64.0801 34.9551 63.8945 34.5059 63.875 33.9785V20.5605C63.8945 20.0332 64.0801 19.5938 64.4316 19.2422C64.8027 18.8711 65.252 18.6758 65.7793 18.6562H75.8574C75.9746 18.6562 76.0918 18.666 76.209 18.6855H76.3848C77.752 18.7246 78.875 19.0371 79.7539 19.623C80.6328 20.209 81.2676 20.8828 81.6582 21.6445C82.0488 22.3867 82.2441 23.1387 82.2441 23.9004C82.2441 24.6816 82.0586 25.4434 81.6875 26.1855C81.668 26.2246 81.6484 26.2539 81.6289 26.2734C82.4297 26.8398 83.0156 27.4844 83.3867 28.207ZM78.2598 31.957C78.6309 31.9766 78.9336 31.9082 79.168 31.752C79.4219 31.5957 79.6074 31.4199 79.7246 31.2246C79.8418 31.0098 79.9004 30.7949 79.9004 30.5801C79.9004 30.4434 79.8418 30.2578 79.7246 30.0234C79.6074 29.7695 79.4219 29.5645 79.168 29.4082C78.9336 29.252 78.6309 29.1641 78.2598 29.1445H76.3848H67.8301V31.166C67.8301 31.6934 68.1035 31.957 68.6504 31.957H68.8848H78.2598ZM77.498 24.9551C77.7324 24.8184 77.9082 24.6621 78.0254 24.4863C78.1426 24.291 78.2012 24.0957 78.2012 23.9004C78.2012 23.7051 78.1426 23.5195 78.0254 23.3438C77.9082 23.1484 77.7227 22.9824 77.4688 22.8457C77.2344 22.6895 76.9316 22.6016 76.5605 22.582H68.6504C68.1035 22.582 67.8301 22.8457 67.8301 23.373V25.2188H76.5605C76.9316 25.1992 77.2441 25.1113 77.498 24.9551ZM96.3066 36.4395C95.291 36.4395 94.2852 36.3223 93.2891 36.0879C92.3125 35.8535 91.375 35.5117 90.4766 35.0625C89.5781 34.5938 88.7871 33.9785 88.1035 33.2168C87.4199 32.4551 87.0488 31.5469 86.9902 30.4922V29.2617V24.252C86.9902 23.7051 87.1855 23.2559 87.5762 22.9043C87.9863 22.5332 88.4648 22.3477 89.0117 22.3477C90.1836 22.4453 90.8184 23.0801 90.916 24.252V25.541V29.584C90.9551 30.1895 91.1797 30.6973 91.5898 31.1074C92.0195 31.498 92.4883 31.8105 92.9961 32.0449C93.5234 32.2793 94.0605 32.4551 94.6074 32.5723C95.1738 32.6895 95.7402 32.748 96.3066 32.748C96.873 32.748 97.4297 32.6895 97.9766 32.5723C98.543 32.4551 99.0801 32.2793 99.5879 32.0449C100.115 31.8105 100.584 31.498 100.994 31.1074C101.424 30.6973 101.658 30.1895 101.697 29.584V25.541V24.252C101.697 23.7051 101.893 23.2559 102.283 22.9043C102.693 22.5332 103.172 22.3477 103.719 22.3477C104.891 22.4453 105.535 23.0801 105.652 24.252V29.2617V30.4922C105.594 31.5469 105.213 32.4551 104.51 33.2168C103.826 33.9785 103.035 34.5938 102.137 35.0625C101.238 35.5117 100.291 35.8535 99.2949 36.0879C98.3184 36.3223 97.3223 36.4395 96.3066 36.4395ZM111.424 18.1875C111.951 18.207 112.4 18.4023 112.771 18.7734C113.143 19.125 113.338 19.5645 113.357 20.0918V34.4473C113.24 35.6191 112.596 36.2539 111.424 36.3516C110.877 36.3516 110.398 36.1758 109.988 35.8242C109.598 35.4531 109.402 34.9941 109.402 34.4473V20.0918C109.422 19.5449 109.627 19.0957 110.018 18.7441C110.408 18.373 110.877 18.1875 111.424 18.1875ZM119.1 18.1875C119.627 18.207 120.076 18.4023 120.447 18.7734C120.818 19.125 121.014 19.5645 121.033 20.0918V34.4473C120.916 35.6191 120.271 36.2539 119.1 36.3516C118.553 36.3516 118.074 36.1758 117.664 35.8242C117.273 35.4531 117.078 34.9941 117.078 34.4473V20.0918C117.098 19.5449 117.303 19.0957 117.693 18.7441C118.084 18.373 118.553 18.1875 119.1 18.1875ZM144.295 28.207C144.666 28.9883 144.852 29.7793 144.852 30.5801C144.852 31.3613 144.656 32.1426 144.266 32.9238C143.875 33.6855 143.24 34.3691 142.361 34.9746C141.482 35.5605 140.359 35.8535 138.992 35.8535H138.816C138.699 35.873 138.582 35.8828 138.465 35.8828H126.688C126.16 35.8633 125.711 35.6777 125.34 35.3262C124.988 34.9551 124.803 34.5059 124.783 33.9785V20.5605C124.803 20.0332 124.988 19.5938 125.34 19.2422C125.711 18.8711 126.16 18.6758 126.688 18.6562H136.766C136.883 18.6562 137 18.666 137.117 18.6855H137.293C138.66 18.7246 139.783 19.0371 140.662 19.623C141.541 20.209 142.176 20.8828 142.566 21.6445C142.957 22.3867 143.152 23.1387 143.152 23.9004C143.152 24.6816 142.967 25.4434 142.596 26.1855C142.576 26.2246 142.557 26.2539 142.537 26.2734C143.338 26.8398 143.924 27.4844 144.295 28.207ZM139.168 31.957C139.539 31.9766 139.842 31.9082 140.076 31.752C140.33 31.5957 140.516 31.4199 140.633 31.2246C140.75 31.0098 140.809 30.7949 140.809 30.5801C140.809 30.4434 140.75 30.2578 140.633 30.0234C140.516 29.7695 140.33 29.5645 140.076 29.4082C139.842 29.252 139.539 29.1641 139.168 29.1445H137.293H128.738V31.166C128.738 31.6934 129.012 31.957 129.559 31.957H129.793H139.168ZM138.406 24.9551C138.641 24.8184 138.816 24.6621 138.934 24.4863C139.051 24.291 139.109 24.0957 139.109 23.9004C139.109 23.7051 139.051 23.5195 138.934 23.3438C138.816 23.1484 138.631 22.9824 138.377 22.8457C138.143 22.6895 137.84 22.6016 137.469 22.582H129.559C129.012 22.582 128.738 22.8457 128.738 23.373V25.2188H137.469C137.84 25.1992 138.152 25.1113 138.406 24.9551ZM149.832 22.2891C150.379 22.2891 150.848 22.4746 151.238 22.8457C151.629 23.1973 151.834 23.6465 151.854 24.1934V27.1523C151.834 27.9531 151.883 28.6953 152 29.3789C152.137 30.043 152.449 30.6387 152.938 31.166C153.426 31.6934 154.041 31.9766 154.783 32.0156H162.605V24.252C162.605 23.7051 162.801 23.2559 163.191 22.9043C163.602 22.5332 164.08 22.3477 164.627 22.3477C165.799 22.4453 166.443 23.0801 166.561 24.252V33.8027C166.561 35.3652 166.346 36.8398 165.916 38.2266C165.525 39.457 164.881 40.4922 163.982 41.332C163.104 42.1914 161.98 42.6602 160.613 42.7383H150.477C149.949 42.7188 149.5 42.5234 149.129 42.1523C148.777 41.8008 148.592 41.3613 148.572 40.834C148.572 40.2871 148.748 39.8184 149.1 39.4277C149.471 39.0371 149.93 38.832 150.477 38.8125H159.617C160.359 38.7734 160.975 38.4902 161.463 37.9629C161.951 37.4355 162.264 36.8203 162.4 36.1172C162.42 36.0586 162.43 36 162.43 35.9414H153.787C152.42 35.8633 151.287 35.4043 150.389 34.5645C149.51 33.7051 148.875 32.6602 148.484 31.4297C148.113 30.1992 147.918 28.8906 147.898 27.5039V24.1934C147.918 23.666 148.113 23.2266 148.484 22.875C148.855 22.5039 149.305 22.3086 149.832 22.2891ZM176.756 18.1875C177.303 18.1875 177.771 18.373 178.162 18.7441C178.553 19.0957 178.758 19.5449 178.777 20.0918V22.6406H188.738C189.285 22.6406 189.754 22.8262 190.145 23.1973C190.516 23.5879 190.701 24.0566 190.701 24.6035C190.701 25.1504 190.506 25.6191 190.115 26.0098C189.744 26.3809 189.285 26.5664 188.738 26.5664H178.777V27.1523C178.758 27.9531 178.807 28.6953 178.924 29.3789C179.061 30.043 179.373 30.6387 179.861 31.166C180.35 31.6934 180.965 31.9766 181.707 32.0156H188.855C189.402 32.0352 189.852 32.2402 190.203 32.6309C190.574 33.0215 190.76 33.4902 190.76 34.0371C190.74 34.5645 190.545 35.0137 190.174 35.3848C189.822 35.7363 189.383 35.9219 188.855 35.9414H180.711C179.344 35.8633 178.211 35.4043 177.312 34.5645C176.434 33.7051 175.799 32.6602 175.408 31.4297C175.037 30.1992 174.842 28.8906 174.822 27.5039V26.5664H171.453C170.906 26.5664 170.447 26.3711 170.076 25.9805C169.686 25.6094 169.49 25.1504 169.49 24.6035C169.49 24.0566 169.676 23.5977 170.047 23.2266C170.438 22.8359 170.906 22.6406 171.453 22.6406H174.822V20.0918C174.842 19.5645 175.037 19.125 175.408 18.7734C175.779 18.4023 176.229 18.207 176.756 18.1875ZM199.578 35.9414C197.859 35.8828 196.561 35.4824 195.682 34.7402C194.803 33.9785 194.168 33.1289 193.777 32.1914C193.387 31.2344 193.191 30.2676 193.191 29.291C193.191 28.2754 193.377 27.2988 193.748 26.3613C194.139 25.4043 194.773 24.5547 195.652 23.8125C196.551 23.0508 197.684 22.6602 199.051 22.6406H210.184C210.73 22.6406 211.189 22.8262 211.561 23.1973C211.951 23.5488 212.146 23.9785 212.146 24.4863C212.146 25.0137 211.951 25.4629 211.561 25.834C211.189 26.1855 210.73 26.3613 210.184 26.3613H199.227C198.797 26.3613 198.416 26.5078 198.084 26.8008C197.771 27.0938 197.537 27.4746 197.381 27.9434C197.244 28.4121 197.176 28.8711 197.176 29.3203C197.176 29.8086 197.244 30.2871 197.381 30.7559C197.537 31.2246 197.771 31.6055 198.084 31.8984C198.416 32.1719 198.797 32.3184 199.227 32.3379H210.184C210.73 32.3379 211.189 32.5137 211.561 32.8652C211.951 33.2168 212.146 33.6367 212.146 34.125C212.146 34.6328 211.951 35.0625 211.561 35.4141C211.189 35.7656 210.73 35.9414 210.184 35.9414H199.578ZM211.795 29.2324C211.795 29.6035 211.629 29.9258 211.297 30.1992C211.004 30.4531 210.633 30.5801 210.184 30.5801H200.604C200.154 30.5801 199.773 30.4531 199.461 30.1992C199.148 29.9258 198.992 29.6035 198.992 29.2324C198.992 28.8809 199.148 28.5684 199.461 28.2949C199.773 28.041 200.154 27.9141 200.604 27.9141H210.184C210.633 27.9141 211.014 28.0508 211.326 28.3242C211.639 28.5781 211.795 28.8809 211.795 29.2324Z"/>
</mask>
<path d="M83.3867 28.207C83.7578 28.9883 83.9434 29.7793 83.9434 30.5801C83.9434 31.3613 83.748 32.1426 83.3574 32.9238C82.9668 33.6855 82.332 34.3691 81.4531 34.9746C80.5742 35.5605 79.4512 35.8535 78.084 35.8535H77.9082C77.791 35.873 77.6738 35.8828 77.5566 35.8828H65.7793C65.252 35.8633 64.8027 35.6777 64.4316 35.3262C64.0801 34.9551 63.8945 34.5059 63.875 33.9785V20.5605C63.8945 20.0332 64.0801 19.5938 64.4316 19.2422C64.8027 18.8711 65.252 18.6758 65.7793 18.6562H75.8574C75.9746 18.6562 76.0918 18.666 76.209 18.6855H76.3848C77.752 18.7246 78.875 19.0371 79.7539 19.623C80.6328 20.209 81.2676 20.8828 81.6582 21.6445C82.0488 22.3867 82.2441 23.1387 82.2441 23.9004C82.2441 24.6816 82.0586 25.4434 81.6875 26.1855C81.668 26.2246 81.6484 26.2539 81.6289 26.2734C82.4297 26.8398 83.0156 27.4844 83.3867 28.207ZM78.2598 31.957C78.6309 31.9766 78.9336 31.9082 79.168 31.752C79.4219 31.5957 79.6074 31.4199 79.7246 31.2246C79.8418 31.0098 79.9004 30.7949 79.9004 30.5801C79.9004 30.4434 79.8418 30.2578 79.7246 30.0234C79.6074 29.7695 79.4219 29.5645 79.168 29.4082C78.9336 29.252 78.6309 29.1641 78.2598 29.1445H76.3848H67.8301V31.166C67.8301 31.6934 68.1035 31.957 68.6504 31.957H68.8848H78.2598ZM77.498 24.9551C77.7324 24.8184 77.9082 24.6621 78.0254 24.4863C78.1426 24.291 78.2012 24.0957 78.2012 23.9004C78.2012 23.7051 78.1426 23.5195 78.0254 23.3438C77.9082 23.1484 77.7227 22.9824 77.4688 22.8457C77.2344 22.6895 76.9316 22.6016 76.5605 22.582H68.6504C68.1035 22.582 67.8301 22.8457 67.8301 23.373V25.2188H76.5605C76.9316 25.1992 77.2441 25.1113 77.498 24.9551ZM96.3066 36.4395C95.291 36.4395 94.2852 36.3223 93.2891 36.0879C92.3125 35.8535 91.375 35.5117 90.4766 35.0625C89.5781 34.5938 88.7871 33.9785 88.1035 33.2168C87.4199 32.4551 87.0488 31.5469 86.9902 30.4922V29.2617V24.252C86.9902 23.7051 87.1855 23.2559 87.5762 22.9043C87.9863 22.5332 88.4648 22.3477 89.0117 22.3477C90.1836 22.4453 90.8184 23.0801 90.916 24.252V25.541V29.584C90.9551 30.1895 91.1797 30.6973 91.5898 31.1074C92.0195 31.498 92.4883 31.8105 92.9961 32.0449C93.5234 32.2793 94.0605 32.4551 94.6074 32.5723C95.1738 32.6895 95.7402 32.748 96.3066 32.748C96.873 32.748 97.4297 32.6895 97.9766 32.5723C98.543 32.4551 99.0801 32.2793 99.5879 32.0449C100.115 31.8105 100.584 31.498 100.994 31.1074C101.424 30.6973 101.658 30.1895 101.697 29.584V25.541V24.252C101.697 23.7051 101.893 23.2559 102.283 22.9043C102.693 22.5332 103.172 22.3477 103.719 22.3477C104.891 22.4453 105.535 23.0801 105.652 24.252V29.2617V30.4922C105.594 31.5469 105.213 32.4551 104.51 33.2168C103.826 33.9785 103.035 34.5938 102.137 35.0625C101.238 35.5117 100.291 35.8535 99.2949 36.0879C98.3184 36.3223 97.3223 36.4395 96.3066 36.4395ZM111.424 18.1875C111.951 18.207 112.4 18.4023 112.771 18.7734C113.143 19.125 113.338 19.5645 113.357 20.0918V34.4473C113.24 35.6191 112.596 36.2539 111.424 36.3516C110.877 36.3516 110.398 36.1758 109.988 35.8242C109.598 35.4531 109.402 34.9941 109.402 34.4473V20.0918C109.422 19.5449 109.627 19.0957 110.018 18.7441C110.408 18.373 110.877 18.1875 111.424 18.1875ZM119.1 18.1875C119.627 18.207 120.076 18.4023 120.447 18.7734C120.818 19.125 121.014 19.5645 121.033 20.0918V34.4473C120.916 35.6191 120.271 36.2539 119.1 36.3516C118.553 36.3516 118.074 36.1758 117.664 35.8242C117.273 35.4531 117.078 34.9941 117.078 34.4473V20.0918C117.098 19.5449 117.303 19.0957 117.693 18.7441C118.084 18.373 118.553 18.1875 119.1 18.1875ZM144.295 28.207C144.666 28.9883 144.852 29.7793 144.852 30.5801C144.852 31.3613 144.656 32.1426 144.266 32.9238C143.875 33.6855 143.24 34.3691 142.361 34.9746C141.482 35.5605 140.359 35.8535 138.992 35.8535H138.816C138.699 35.873 138.582 35.8828 138.465 35.8828H126.688C126.16 35.8633 125.711 35.6777 125.34 35.3262C124.988 34.9551 124.803 34.5059 124.783 33.9785V20.5605C124.803 20.0332 124.988 19.5938 125.34 19.2422C125.711 18.8711 126.16 18.6758 126.688 18.6562H136.766C136.883 18.6562 137 18.666 137.117 18.6855H137.293C138.66 18.7246 139.783 19.0371 140.662 19.623C141.541 20.209 142.176 20.8828 142.566 21.6445C142.957 22.3867 143.152 23.1387 143.152 23.9004C143.152 24.6816 142.967 25.4434 142.596 26.1855C142.576 26.2246 142.557 26.2539 142.537 26.2734C143.338 26.8398 143.924 27.4844 144.295 28.207ZM139.168 31.957C139.539 31.9766 139.842 31.9082 140.076 31.752C140.33 31.5957 140.516 31.4199 140.633 31.2246C140.75 31.0098 140.809 30.7949 140.809 30.5801C140.809 30.4434 140.75 30.2578 140.633 30.0234C140.516 29.7695 140.33 29.5645 140.076 29.4082C139.842 29.252 139.539 29.1641 139.168 29.1445H137.293H128.738V31.166C128.738 31.6934 129.012 31.957 129.559 31.957H129.793H139.168ZM138.406 24.9551C138.641 24.8184 138.816 24.6621 138.934 24.4863C139.051 24.291 139.109 24.0957 139.109 23.9004C139.109 23.7051 139.051 23.5195 138.934 23.3438C138.816 23.1484 138.631 22.9824 138.377 22.8457C138.143 22.6895 137.84 22.6016 137.469 22.582H129.559C129.012 22.582 128.738 22.8457 128.738 23.373V25.2188H137.469C137.84 25.1992 138.152 25.1113 138.406 24.9551ZM149.832 22.2891C150.379 22.2891 150.848 22.4746 151.238 22.8457C151.629 23.1973 151.834 23.6465 151.854 24.1934V27.1523C151.834 27.9531 151.883 28.6953 152 29.3789C152.137 30.043 152.449 30.6387 152.938 31.166C153.426 31.6934 154.041 31.9766 154.783 32.0156H162.605V24.252C162.605 23.7051 162.801 23.2559 163.191 22.9043C163.602 22.5332 164.08 22.3477 164.627 22.3477C165.799 22.4453 166.443 23.0801 166.561 24.252V33.8027C166.561 35.3652 166.346 36.8398 165.916 38.2266C165.525 39.457 164.881 40.4922 163.982 41.332C163.104 42.1914 161.98 42.6602 160.613 42.7383H150.477C149.949 42.7188 149.5 42.5234 149.129 42.1523C148.777 41.8008 148.592 41.3613 148.572 40.834C148.572 40.2871 148.748 39.8184 149.1 39.4277C149.471 39.0371 149.93 38.832 150.477 38.8125H159.617C160.359 38.7734 160.975 38.4902 161.463 37.9629C161.951 37.4355 162.264 36.8203 162.4 36.1172C162.42 36.0586 162.43 36 162.43 35.9414H153.787C152.42 35.8633 151.287 35.4043 150.389 34.5645C149.51 33.7051 148.875 32.6602 148.484 31.4297C148.113 30.1992 147.918 28.8906 147.898 27.5039V24.1934C147.918 23.666 148.113 23.2266 148.484 22.875C148.855 22.5039 149.305 22.3086 149.832 22.2891ZM176.756 18.1875C177.303 18.1875 177.771 18.373 178.162 18.7441C178.553 19.0957 178.758 19.5449 178.777 20.0918V22.6406H188.738C189.285 22.6406 189.754 22.8262 190.145 23.1973C190.516 23.5879 190.701 24.0566 190.701 24.6035C190.701 25.1504 190.506 25.6191 190.115 26.0098C189.744 26.3809 189.285 26.5664 188.738 26.5664H178.777V27.1523C178.758 27.9531 178.807 28.6953 178.924 29.3789C179.061 30.043 179.373 30.6387 179.861 31.166C180.35 31.6934 180.965 31.9766 181.707 32.0156H188.855C189.402 32.0352 189.852 32.2402 190.203 32.6309C190.574 33.0215 190.76 33.4902 190.76 34.0371C190.74 34.5645 190.545 35.0137 190.174 35.3848C189.822 35.7363 189.383 35.9219 188.855 35.9414H180.711C179.344 35.8633 178.211 35.4043 177.312 34.5645C176.434 33.7051 175.799 32.6602 175.408 31.4297C175.037 30.1992 174.842 28.8906 174.822 27.5039V26.5664H171.453C170.906 26.5664 170.447 26.3711 170.076 25.9805C169.686 25.6094 169.49 25.1504 169.49 24.6035C169.49 24.0566 169.676 23.5977 170.047 23.2266C170.438 22.8359 170.906 22.6406 171.453 22.6406H174.822V20.0918C174.842 19.5645 175.037 19.125 175.408 18.7734C175.779 18.4023 176.229 18.207 176.756 18.1875ZM199.578 35.9414C197.859 35.8828 196.561 35.4824 195.682 34.7402C194.803 33.9785 194.168 33.1289 193.777 32.1914C193.387 31.2344 193.191 30.2676 193.191 29.291C193.191 28.2754 193.377 27.2988 193.748 26.3613C194.139 25.4043 194.773 24.5547 195.652 23.8125C196.551 23.0508 197.684 22.6602 199.051 22.6406H210.184C210.73 22.6406 211.189 22.8262 211.561 23.1973C211.951 23.5488 212.146 23.9785 212.146 24.4863C212.146 25.0137 211.951 25.4629 211.561 25.834C211.189 26.1855 210.73 26.3613 210.184 26.3613H199.227C198.797 26.3613 198.416 26.5078 198.084 26.8008C197.771 27.0938 197.537 27.4746 197.381 27.9434C197.244 28.4121 197.176 28.8711 197.176 29.3203C197.176 29.8086 197.244 30.2871 197.381 30.7559C197.537 31.2246 197.771 31.6055 198.084 31.8984C198.416 32.1719 198.797 32.3184 199.227 32.3379H210.184C210.73 32.3379 211.189 32.5137 211.561 32.8652C211.951 33.2168 212.146 33.6367 212.146 34.125C212.146 34.6328 211.951 35.0625 211.561 35.4141C211.189 35.7656 210.73 35.9414 210.184 35.9414H199.578ZM211.795 29.2324C211.795 29.6035 211.629 29.9258 211.297 30.1992C211.004 30.4531 210.633 30.5801 210.184 30.5801H200.604C200.154 30.5801 199.773 30.4531 199.461 30.1992C199.148 29.9258 198.992 29.6035 198.992 29.2324C198.992 28.8809 199.148 28.5684 199.461 28.2949C199.773 28.041 200.154 27.9141 200.604 27.9141H210.184C210.633 27.9141 211.014 28.0508 211.326 28.3242C211.639 28.5781 211.795 28.8809 211.795 29.2324Z" fill="black"/>
<path d="M83.3867 28.207L83.5675 28.1212L83.5646 28.1157L83.3867 28.207ZM83.3574 32.9238L83.5354 33.0151L83.5363 33.0133L83.3574 32.9238ZM81.4531 34.9746L81.5641 35.141L81.5666 35.1393L81.4531 34.9746ZM77.9082 35.8535V35.6535H77.8917L77.8753 35.6562L77.9082 35.8535ZM65.7793 35.8828L65.7719 36.0828H65.7793V35.8828ZM64.4316 35.3262L64.2862 35.4639L64.2941 35.4714L64.4316 35.3262ZM63.875 33.9785H63.6749L63.6751 33.9859L63.875 33.9785ZM63.875 20.5605L63.675 20.5531V20.5605H63.875ZM65.7793 18.6562V18.4561L65.7719 18.4564L65.7793 18.6562ZM76.209 18.6855L76.1761 18.8828L76.1924 18.8855H76.209V18.6855ZM76.3848 18.6855L76.3905 18.4855H76.3848V18.6855ZM81.6582 21.6445L81.4802 21.7358L81.4812 21.7377L81.6582 21.6445ZM81.6289 26.2734L81.4875 26.132L81.3198 26.2997L81.5134 26.4367L81.6289 26.2734ZM78.2598 31.957L78.2703 31.757H78.2598V31.957ZM79.168 31.752L79.0631 31.5815L79.057 31.5855L79.168 31.752ZM79.7246 31.2246L79.8963 31.3276L79.9002 31.3204L79.7246 31.2246ZM79.7246 30.0234L79.5429 30.1073L79.5457 30.1129L79.7246 30.0234ZM79.168 29.4082L79.057 29.5747L79.0631 29.5785L79.168 29.4082ZM78.2598 29.1445L78.2703 28.9445H78.2598V29.1445ZM67.8301 29.1445V28.9445H67.6301V29.1445H67.8301ZM77.498 24.9551L77.3972 24.7823L77.3932 24.7847L77.498 24.9551ZM78.0254 24.4863L78.192 24.5974L78.1969 24.5892L78.0254 24.4863ZM78.0254 23.3438L77.8537 23.4468L77.859 23.4547L78.0254 23.3438ZM77.4688 22.8457L77.3578 23.0121L77.3656 23.0173L77.3739 23.0218L77.4688 22.8457ZM76.5605 22.582L76.5711 22.382H76.5605V22.582ZM67.8301 25.2188H67.6301V25.4187H67.8301V25.2188ZM76.5605 25.2188V25.419L76.5711 25.4185L76.5605 25.2188ZM83.2061 28.2928C83.5655 29.0495 83.7434 29.8113 83.7434 30.5801H84.1434C84.1434 29.7473 83.9502 28.9271 83.5674 28.1212L83.2061 28.2928ZM83.7434 30.5801C83.7434 31.3268 83.5569 32.0776 83.1785 32.8344L83.5363 33.0133C83.9392 32.2076 84.1434 31.3959 84.1434 30.5801H83.7434ZM83.1795 32.8326C82.8072 33.5584 82.1979 34.2187 81.3397 34.8099L81.5666 35.1393C82.4661 34.5196 83.1264 33.8126 83.5354 33.0151L83.1795 32.8326ZM81.3422 34.8082C80.5046 35.3666 79.4232 35.6535 78.084 35.6535V36.0535C79.4792 36.0535 80.6439 35.7545 81.5641 35.141L81.3422 34.8082ZM78.084 35.6535H77.9082V36.0535H78.084V35.6535ZM77.8753 35.6562C77.7689 35.674 77.6627 35.6828 77.5566 35.6828V36.0828C77.685 36.0828 77.8132 36.0721 77.9411 36.0508L77.8753 35.6562ZM77.5566 35.6828H65.7793V36.0828H77.5566V35.6828ZM65.7867 35.6829C65.3062 35.6652 64.9038 35.4979 64.5692 35.181L64.2941 35.4714C64.7017 35.8575 65.1977 36.0614 65.7719 36.0827L65.7867 35.6829ZM64.5768 35.1886C64.2599 34.8541 64.0927 34.4516 64.0749 33.9711L63.6751 33.9859C63.6964 34.5601 63.9003 35.0561 64.2865 35.4637L64.5768 35.1886ZM64.075 33.9785V20.5605H63.675V33.9785H64.075ZM64.0749 20.5679C64.0927 20.0877 64.2595 19.6971 64.5731 19.3836L64.2902 19.1008C63.9006 19.4904 63.6964 19.9788 63.6751 20.5531L64.0749 20.5679ZM64.5731 19.3836C64.9082 19.0484 65.3095 18.8738 65.7867 18.8561L65.7719 18.4564C65.1944 18.4778 64.6972 18.6938 64.2902 19.1008L64.5731 19.3836ZM65.7793 18.8563H75.8574V18.4562H65.7793V18.8563ZM75.8574 18.8563C75.9634 18.8563 76.0696 18.8651 76.1761 18.8828L76.2419 18.4883C76.114 18.467 75.9858 18.4562 75.8574 18.4562V18.8563ZM76.209 18.8855H76.3848V18.4855H76.209V18.8855ZM76.3791 18.8855C77.7196 18.9238 78.8033 19.2297 79.643 19.7895L79.8648 19.4566C78.9467 18.8446 77.7843 18.5255 76.3905 18.4856L76.3791 18.8855ZM79.643 19.7895C80.5001 20.3609 81.1084 21.0108 81.4802 21.7358L81.8362 21.5533C81.4267 20.7549 80.7656 20.0571 79.8648 19.4566L79.643 19.7895ZM81.4812 21.7377C81.8583 22.4541 82.0441 23.1743 82.0441 23.9004H82.4441C82.4441 23.103 82.2394 22.3193 81.8352 21.5514L81.4812 21.7377ZM82.0441 23.9004C82.0441 24.6487 81.8667 25.3799 81.5086 26.0961L81.8664 26.275C82.2505 25.5068 82.4441 24.7146 82.4441 23.9004H82.0441ZM81.5086 26.0961C81.5017 26.1099 81.496 26.1195 81.4918 26.1259C81.4874 26.1324 81.4858 26.1337 81.4875 26.132L81.7703 26.4149C81.8112 26.3739 81.8421 26.3235 81.8664 26.275L81.5086 26.0961ZM81.5134 26.4367C82.2933 26.9884 82.8552 27.6097 83.2088 28.2984L83.5646 28.1157C83.1761 27.359 82.5661 26.6913 81.7444 26.1102L81.5134 26.4367ZM78.2493 32.1568C78.6497 32.1778 78.9988 32.1051 79.2789 31.9184L79.057 31.5855C78.8684 31.7113 78.612 31.7753 78.2703 31.7573L78.2493 32.1568ZM79.2728 31.9223C79.5459 31.7542 79.7581 31.5575 79.8961 31.3275L79.5531 31.1217C79.4567 31.2824 79.2979 31.4372 79.0631 31.5816L79.2728 31.9223ZM79.9002 31.3204C80.0311 31.0803 80.1004 30.8328 80.1004 30.5801H79.7004C79.7004 30.757 79.6524 30.9392 79.549 31.1288L79.9002 31.3204ZM80.1004 30.5801C80.1004 30.3952 80.0241 30.1752 79.9035 29.934L79.5457 30.1129C79.6595 30.3405 79.7004 30.4915 79.7004 30.5801H80.1004ZM79.9062 29.9396C79.7714 29.6475 79.5579 29.4133 79.2728 29.2379L79.0631 29.5785C79.2858 29.7156 79.4435 29.8915 79.543 30.1072L79.9062 29.9396ZM79.2789 29.2418C79.0066 29.0602 78.6661 28.9656 78.2703 28.9448L78.2493 29.3443C78.5956 29.3625 78.8606 29.4437 79.057 29.5746L79.2789 29.2418ZM78.2598 28.9445H76.3848V29.3445H78.2598V28.9445ZM76.3848 28.9445H67.8301V29.3445H76.3848V28.9445ZM67.6301 29.1445V31.166H68.0301V29.1445H67.6301ZM67.6301 31.166C67.6301 31.4624 67.7073 31.721 67.8963 31.9032C68.084 32.0842 68.3479 32.157 68.6504 32.157V31.757C68.406 31.757 68.2598 31.698 68.174 31.6153C68.0896 31.5339 68.0301 31.397 68.0301 31.166H67.6301ZM68.6504 32.157H68.8848V31.757H68.6504V32.157ZM68.8848 32.157H78.2598V31.757H68.8848V32.157ZM77.5988 25.1278C77.8523 24.98 78.0536 24.8045 78.1918 24.5973L77.859 24.3754C77.7628 24.5197 77.6126 24.6567 77.3973 24.7823L77.5988 25.1278ZM78.1969 24.5892C78.3296 24.3681 78.4012 24.1376 78.4012 23.9004H78.0012C78.0012 24.0538 77.9556 24.214 77.8539 24.3834L78.1969 24.5892ZM78.4012 23.9004C78.4012 23.6623 78.329 23.4386 78.1918 23.2328L77.859 23.4547C77.9561 23.6004 78.0012 23.7478 78.0012 23.9004H78.4012ZM78.1969 23.2409C78.0569 23.0075 77.8408 22.8189 77.5636 22.6696L77.3739 23.0218C77.6045 23.1459 77.7595 23.2894 77.8539 23.4466L78.1969 23.2409ZM77.5797 22.6793C77.3074 22.4977 76.9669 22.4031 76.5711 22.3823L76.55 22.7818C76.8964 22.8 77.1614 22.8812 77.3578 23.0121L77.5797 22.6793ZM76.5605 22.382H68.6504V22.782H76.5605V22.382ZM68.6504 22.382C68.3479 22.382 68.084 22.4549 67.8963 22.6358C67.7073 22.8181 67.6301 23.0767 67.6301 23.373H68.0301C68.0301 23.1421 68.0896 23.0052 68.174 22.9238C68.2598 22.841 68.406 22.782 68.6504 22.782V22.382ZM67.6301 23.373V25.2188H68.0301V23.373H67.6301ZM67.8301 25.4187H76.5605V25.0188H67.8301V25.4187ZM76.5711 25.4185C76.9675 25.3976 77.3143 25.303 77.6029 25.1254L77.3932 24.7847C77.174 24.9197 76.8958 25.0008 76.55 25.019L76.5711 25.4185ZM93.2891 36.0879L93.2424 36.2824L93.2433 36.2826L93.2891 36.0879ZM90.4766 35.0625L90.384 35.2398L90.3871 35.2414L90.4766 35.0625ZM86.9902 30.4922H86.7899L86.7905 30.5033L86.9902 30.4922ZM87.5762 22.9043L87.71 23.053L87.7104 23.0526L87.5762 22.9043ZM89.0117 22.3477L89.0283 22.1483L89.02 22.1477H89.0117V22.3477ZM90.916 24.252H91.116V24.2436L91.1153 24.2353L90.916 24.252ZM90.916 29.584H90.7156L90.7164 29.5969L90.916 29.584ZM91.5898 31.1074L91.4483 31.249L91.4553 31.2554L91.5898 31.1074ZM92.9961 32.0449L92.9123 32.2265L92.9149 32.2277L92.9961 32.0449ZM94.6074 32.5723L94.5655 32.7678L94.5669 32.7681L94.6074 32.5723ZM97.9766 32.5723L97.936 32.3764L97.9347 32.3767L97.9766 32.5723ZM99.5879 32.0449L99.5067 31.8621L99.5041 31.8633L99.5879 32.0449ZM100.994 31.1074L101.132 31.2522L101.132 31.2521L100.994 31.1074ZM101.697 29.584L101.897 29.5969V29.584H101.697ZM102.283 22.9043L102.417 23.053L102.417 23.0526L102.283 22.9043ZM103.719 22.3477L103.735 22.1483L103.727 22.1477H103.719V22.3477ZM105.652 24.252H105.852V24.242L105.851 24.2321L105.652 24.252ZM105.652 30.4922L105.852 30.5033V30.4922H105.652ZM104.51 33.2168L104.363 33.0811L104.361 33.0832L104.51 33.2168ZM102.137 35.0625L102.226 35.2414L102.229 35.2398L102.137 35.0625ZM99.2949 36.0879L99.2491 35.8932L99.2482 35.8934L99.2949 36.0879ZM96.3066 36.2395C95.3066 36.2395 94.3161 36.1241 93.3349 35.8932L93.2433 36.2826C94.2542 36.5205 95.2755 36.6395 96.3066 36.6395V36.2395ZM93.3357 35.8934C92.374 35.6626 91.4508 35.326 90.566 34.8836L90.3871 35.2414C91.2992 35.6974 92.251 36.0444 93.2424 36.2824L93.3357 35.8934ZM90.5691 34.8852C89.6921 34.4276 88.9201 33.8273 88.2524 33.0832L87.9547 33.3504C88.6541 34.1298 89.4641 34.7599 90.384 35.2398L90.5691 34.8852ZM88.2524 33.0832C87.6002 32.3565 87.2461 31.4919 87.1899 30.4811L86.7905 30.5033C86.8516 31.6018 87.2396 32.5536 87.9547 33.3504L88.2524 33.0832ZM87.1902 30.4922V29.2617H86.7902V30.4922H87.1902ZM87.1902 29.2617V24.252H86.7902V29.2617H87.1902ZM87.1902 24.252C87.1902 23.7592 87.3634 23.3649 87.71 23.053L87.4424 22.7556C87.0077 23.1468 86.7902 23.651 86.7902 24.252H87.1902ZM87.7104 23.0526C88.0842 22.7144 88.5151 22.5477 89.0117 22.5477V22.1477C88.4146 22.1477 87.8885 22.352 87.442 22.756L87.7104 23.0526ZM88.9951 22.547C89.5487 22.5931 89.9505 22.7637 90.2253 23.0384C90.5 23.3131 90.6706 23.7149 90.7167 24.2686L91.1153 24.2353C91.0638 23.6171 90.8682 23.1156 90.5081 22.7556C90.1481 22.3955 89.6466 22.1999 89.0283 22.1483L88.9951 22.547ZM90.716 24.252V25.541H91.116V24.252H90.716ZM90.716 25.541V29.584H91.116V25.541H90.716ZM90.7164 29.5969C90.7585 30.2484 91.0022 30.8026 91.4484 31.2488L91.7313 30.966C91.3572 30.5919 91.1517 30.1305 91.1156 29.5711L90.7164 29.5969ZM91.4553 31.2554C91.8995 31.6592 92.3852 31.9833 92.9123 32.2265L93.0799 31.8633C92.5913 31.6378 92.1396 31.3369 91.7244 30.9594L91.4553 31.2554ZM92.9149 32.2277C93.4544 32.4675 94.0047 32.6477 94.5655 32.7678L94.6493 32.3767C94.1164 32.2625 93.5924 32.0911 93.0773 31.8622L92.9149 32.2277ZM94.5669 32.7681C95.1464 32.888 95.7263 32.948 96.3066 32.948V32.548C95.7541 32.548 95.2013 32.4909 94.6479 32.3764L94.5669 32.7681ZM96.3066 32.948C96.887 32.948 97.4576 32.888 98.0185 32.7678L97.9347 32.3767C97.4017 32.4909 96.8591 32.548 96.3066 32.548V32.948ZM98.0171 32.7681C98.5979 32.6479 99.1496 32.4675 99.6717 32.2265L99.5041 31.8633C99.0106 32.0911 98.488 32.2622 97.936 32.3764L98.0171 32.7681ZM99.6691 32.2277C100.217 31.9842 100.705 31.659 101.132 31.2522L100.856 30.9626C100.463 31.3371 100.013 31.6369 99.5067 31.8622L99.6691 32.2277ZM101.132 31.2521C101.599 30.8065 101.855 30.2512 101.897 29.5969L101.498 29.5711C101.462 30.1277 101.249 30.5881 100.856 30.9628L101.132 31.2521ZM101.897 29.584V25.541H101.497V29.584H101.897ZM101.897 25.541V24.252H101.497V25.541H101.897ZM101.897 24.252C101.897 23.7592 102.07 23.3649 102.417 23.053L102.149 22.7556C101.715 23.1468 101.497 23.651 101.497 24.252H101.897ZM102.417 23.0526C102.791 22.7144 103.222 22.5477 103.719 22.5477V22.1477C103.122 22.1477 102.595 22.352 102.149 22.756L102.417 23.0526ZM103.702 22.547C104.256 22.5931 104.661 22.7637 104.941 23.0395C105.221 23.3153 105.398 23.7182 105.453 24.2719L105.851 24.2321C105.79 23.6139 105.586 23.1134 105.221 22.7545C104.857 22.3955 104.354 22.1999 103.735 22.1483L103.702 22.547ZM105.452 24.252V29.2617H105.852V24.252H105.452ZM105.452 29.2617V30.4922H105.852V29.2617H105.452ZM105.453 30.4811C105.397 31.4904 105.034 32.3543 104.363 33.0811L104.657 33.3525C105.392 32.5559 105.791 31.6034 105.852 30.5033L105.453 30.4811ZM104.361 33.0832C103.693 33.8273 102.921 34.4276 102.044 34.8852L102.229 35.2398C103.149 34.7599 103.959 34.1298 104.659 33.3504L104.361 33.0832ZM102.047 34.8836C101.163 35.3258 100.23 35.6623 99.2491 35.8932L99.3407 36.2826C100.352 36.0447 101.314 35.6977 102.226 35.2414L102.047 34.8836ZM99.2482 35.8934C98.2871 36.1241 97.3067 36.2395 96.3066 36.2395V36.6395C97.3378 36.6395 98.3496 36.5205 99.3416 36.2824L99.2482 35.8934ZM111.424 18.1875L111.431 17.9875H111.424V18.1875ZM112.771 18.7734L112.63 18.9149L112.634 18.9186L112.771 18.7734ZM113.357 20.0918H113.558L113.557 20.0844L113.357 20.0918ZM113.357 34.4473L113.556 34.4672L113.557 34.4572V34.4473H113.357ZM111.424 36.3516V36.5516H111.432L111.44 36.5509L111.424 36.3516ZM109.988 35.8242L109.85 35.9694L109.858 35.9761L109.988 35.8242ZM109.402 20.0918L109.202 20.0847V20.0918H109.402ZM110.018 18.7441L110.151 18.8929L110.155 18.8891L110.018 18.7441ZM111.416 18.3874C111.894 18.405 112.295 18.5797 112.63 18.9149L112.913 18.632C112.506 18.225 112.009 18.009 111.431 17.9876L111.416 18.3874ZM112.634 18.9186C112.966 19.2329 113.14 19.6223 113.158 20.0992L113.557 20.0844C113.536 19.5066 113.319 19.0171 112.909 18.6282L112.634 18.9186ZM113.157 20.0918V34.4473H113.557V20.0918H113.157ZM113.158 34.4274C113.103 34.9811 112.926 35.3839 112.646 35.6597C112.366 35.9355 111.961 36.1061 111.407 36.1523L111.44 36.5509C112.059 36.4993 112.562 36.3037 112.926 35.9447C113.291 35.5858 113.495 35.0853 113.556 34.4672L113.158 34.4274ZM111.424 36.1516C110.924 36.1516 110.492 35.9924 110.118 35.6724L109.858 35.9761C110.305 36.3591 110.83 36.5516 111.424 36.5516V36.1516ZM110.126 35.6792C109.776 35.3465 109.602 34.9402 109.602 34.4473H109.202C109.202 35.048 109.419 35.5597 109.851 35.9692L110.126 35.6792ZM109.602 34.4473V20.0918H109.202V34.4473H109.602ZM109.602 20.0989C109.62 19.6037 109.803 19.2064 110.151 18.8928L109.884 18.5955C109.451 18.985 109.224 19.4861 109.202 20.0847L109.602 20.0989ZM110.155 18.8891C110.508 18.5539 110.927 18.3875 111.424 18.3875V17.9875C110.827 17.9875 110.308 18.1921 109.88 18.5991L110.155 18.8891ZM119.1 18.1875L119.107 17.9875H119.1V18.1875ZM120.447 18.7734L120.306 18.9149L120.31 18.9186L120.447 18.7734ZM121.033 20.0918H121.233L121.233 20.0844L121.033 20.0918ZM121.033 34.4473L121.232 34.4672L121.233 34.4572V34.4473H121.033ZM119.1 36.3516V36.5516H119.108L119.116 36.5509L119.1 36.3516ZM117.664 35.8242L117.526 35.9694L117.534 35.9761L117.664 35.8242ZM117.078 20.0918L116.878 20.0847V20.0918H117.078ZM117.693 18.7441L117.827 18.8929L117.831 18.8891L117.693 18.7441ZM119.092 18.3874C119.569 18.405 119.971 18.5797 120.306 18.9149L120.589 18.632C120.182 18.225 119.684 18.009 119.107 17.9876L119.092 18.3874ZM120.31 18.9186C120.641 19.2329 120.816 19.6223 120.833 20.0992L121.233 20.0844C121.212 19.5066 120.995 19.0171 120.585 18.6282L120.31 18.9186ZM120.833 20.0918V34.4473H121.233V20.0918H120.833ZM120.834 34.4274C120.779 34.9811 120.602 35.3839 120.322 35.6597C120.042 35.9355 119.637 36.1061 119.083 36.1523L119.116 36.5509C119.735 36.4993 120.238 36.3037 120.602 35.9447C120.967 35.5858 121.17 35.0853 121.232 34.4672L120.834 34.4274ZM119.1 36.1516C118.6 36.1516 118.168 35.9924 117.794 35.6724L117.534 35.9761C117.981 36.3591 118.506 36.5516 119.1 36.5516V36.1516ZM117.802 35.6792C117.452 35.3465 117.278 34.9402 117.278 34.4473H116.878C116.878 35.048 117.095 35.5597 117.526 35.9692L117.802 35.6792ZM117.278 34.4473V20.0918H116.878V34.4473H117.278ZM117.278 20.0989C117.296 19.6037 117.479 19.2064 117.827 18.8928L117.56 18.5955C117.127 18.985 116.9 19.4861 116.878 20.0847L117.278 20.0989ZM117.831 18.8891C118.184 18.5539 118.603 18.3875 119.1 18.3875V17.9875C118.502 17.9875 117.984 18.1921 117.556 18.5991L117.831 18.8891ZM144.295 28.207L144.476 28.1212L144.473 28.1157L144.295 28.207ZM144.266 32.9238L144.444 33.0151L144.445 33.0133L144.266 32.9238ZM142.361 34.9746L142.472 35.141L142.475 35.1393L142.361 34.9746ZM138.816 35.8535V35.6535H138.8L138.784 35.6562L138.816 35.8535ZM126.688 35.8828L126.68 36.0828H126.688V35.8828ZM125.34 35.3262L125.194 35.4639L125.202 35.4714L125.34 35.3262ZM124.783 33.9785H124.583L124.583 33.9859L124.783 33.9785ZM124.783 20.5605L124.583 20.5531V20.5605H124.783ZM126.688 18.6562V18.4561L126.68 18.4564L126.688 18.6562ZM137.117 18.6855L137.084 18.8828L137.101 18.8855H137.117V18.6855ZM137.293 18.6855L137.299 18.4855H137.293V18.6855ZM142.566 21.6445L142.388 21.7358L142.389 21.7377L142.566 21.6445ZM142.537 26.2734L142.396 26.132L142.228 26.2997L142.422 26.4367L142.537 26.2734ZM139.168 31.957L139.178 31.757H139.168V31.957ZM140.076 31.752L139.971 31.5815L139.965 31.5855L140.076 31.752ZM140.633 31.2246L140.804 31.3276L140.808 31.3204L140.633 31.2246ZM140.633 30.0234L140.451 30.1073L140.454 30.1129L140.633 30.0234ZM140.076 29.4082L139.965 29.5747L139.971 29.5785L140.076 29.4082ZM139.168 29.1445L139.178 28.9445H139.168V29.1445ZM128.738 29.1445V28.9445H128.538V29.1445H128.738ZM138.406 24.9551L138.305 24.7823L138.301 24.7847L138.406 24.9551ZM138.934 24.4863L139.1 24.5974L139.105 24.5892L138.934 24.4863ZM138.934 23.3438L138.762 23.4468L138.767 23.4547L138.934 23.3438ZM138.377 22.8457L138.266 23.0121L138.274 23.0173L138.282 23.0218L138.377 22.8457ZM137.469 22.582L137.479 22.382H137.469V22.582ZM128.738 25.2188H128.538V25.4187H128.738V25.2188ZM137.469 25.2188V25.419L137.479 25.4185L137.469 25.2188ZM144.114 28.2928C144.474 29.0495 144.652 29.8113 144.652 30.5801H145.052C145.052 29.7473 144.858 28.9271 144.476 28.1212L144.114 28.2928ZM144.652 30.5801C144.652 31.3268 144.465 32.0776 144.087 32.8344L144.445 33.0133C144.847 32.2076 145.052 31.3959 145.052 30.5801H144.652ZM144.088 32.8326C143.715 33.5584 143.106 34.2187 142.248 34.8099L142.475 35.1393C143.374 34.5196 144.035 33.8126 144.444 33.0151L144.088 32.8326ZM142.25 34.8082C141.413 35.3666 140.331 35.6535 138.992 35.6535V36.0535C140.387 36.0535 141.552 35.7545 142.472 35.141L142.25 34.8082ZM138.992 35.6535H138.816V36.0535H138.992V35.6535ZM138.784 35.6562C138.677 35.674 138.571 35.6828 138.465 35.6828V36.0828C138.593 36.0828 138.721 36.0721 138.849 36.0508L138.784 35.6562ZM138.465 35.6828H126.688V36.0828H138.465V35.6828ZM126.695 35.6829C126.214 35.6652 125.812 35.4979 125.477 35.181L125.202 35.4714C125.61 35.8575 126.106 36.0614 126.68 36.0827L126.695 35.6829ZM125.485 35.1886C125.168 34.8541 125.001 34.4516 124.983 33.9711L124.583 33.9859C124.605 34.5601 124.808 35.0561 125.195 35.4637L125.485 35.1886ZM124.983 33.9785V20.5605H124.583V33.9785H124.983ZM124.983 20.5679C125.001 20.0877 125.168 19.6971 125.481 19.3836L125.198 19.1008C124.809 19.4904 124.605 19.9788 124.583 20.5531L124.983 20.5679ZM125.481 19.3836C125.816 19.0484 126.218 18.8738 126.695 18.8561L126.68 18.4564C126.103 18.4778 125.605 18.6938 125.198 19.1008L125.481 19.3836ZM126.688 18.8563H136.766V18.4562H126.688V18.8563ZM136.766 18.8563C136.872 18.8563 136.978 18.8651 137.084 18.8828L137.15 18.4883C137.022 18.467 136.894 18.4562 136.766 18.4562V18.8563ZM137.117 18.8855H137.293V18.4855H137.117V18.8855ZM137.287 18.8855C138.628 18.9238 139.711 19.2297 140.551 19.7895L140.773 19.4566C139.855 18.8446 138.693 18.5255 137.299 18.4856L137.287 18.8855ZM140.551 19.7895C141.408 20.3609 142.017 21.0108 142.388 21.7358L142.744 21.5533C142.335 20.7549 141.674 20.0571 140.773 19.4566L140.551 19.7895ZM142.389 21.7377C142.766 22.4541 142.952 23.1743 142.952 23.9004H143.352C143.352 23.103 143.148 22.3193 142.743 21.5514L142.389 21.7377ZM142.952 23.9004C142.952 24.6487 142.775 25.3799 142.417 26.0961L142.775 26.275C143.159 25.5068 143.352 24.7146 143.352 23.9004H142.952ZM142.417 26.0961C142.41 26.1099 142.404 26.1195 142.4 26.1259C142.396 26.1324 142.394 26.1337 142.396 26.132L142.679 26.4149C142.719 26.3739 142.75 26.3235 142.775 26.275L142.417 26.0961ZM142.422 26.4367C143.202 26.9884 143.763 27.6097 144.117 28.2984L144.473 28.1157C144.084 27.359 143.474 26.6913 142.653 26.1102L142.422 26.4367ZM139.157 32.1568C139.558 32.1778 139.907 32.1051 140.187 31.9184L139.965 31.5855C139.777 31.7113 139.52 31.7753 139.178 31.7573L139.157 32.1568ZM140.181 31.9223C140.454 31.7542 140.666 31.5575 140.804 31.3275L140.461 31.1217C140.365 31.2824 140.206 31.4372 139.971 31.5816L140.181 31.9223ZM140.808 31.3204C140.939 31.0803 141.009 30.8328 141.009 30.5801H140.609C140.609 30.757 140.561 30.9392 140.457 31.1288L140.808 31.3204ZM141.009 30.5801C141.009 30.3952 140.932 30.1752 140.812 29.934L140.454 30.1129C140.568 30.3405 140.609 30.4915 140.609 30.5801H141.009ZM140.814 29.9396C140.68 29.6475 140.466 29.4133 140.181 29.2379L139.971 29.5785C140.194 29.7156 140.352 29.8915 140.451 30.1072L140.814 29.9396ZM140.187 29.2418C139.915 29.0602 139.574 28.9656 139.178 28.9448L139.157 29.3443C139.504 29.3625 139.769 29.4437 139.965 29.5746L140.187 29.2418ZM139.168 28.9445H137.293V29.3445H139.168V28.9445ZM137.293 28.9445H128.738V29.3445H137.293V28.9445ZM128.538 29.1445V31.166H128.938V29.1445H128.538ZM128.538 31.166C128.538 31.4624 128.616 31.721 128.805 31.9032C128.992 32.0842 129.256 32.157 129.559 32.157V31.757C129.314 31.757 129.168 31.698 129.082 31.6153C128.998 31.5339 128.938 31.397 128.938 31.166H128.538ZM129.559 32.157H129.793V31.757H129.559V32.157ZM129.793 32.157H139.168V31.757H129.793V32.157ZM138.507 25.1278C138.76 24.98 138.962 24.8045 139.1 24.5973L138.767 24.3754C138.671 24.5197 138.521 24.6567 138.305 24.7823L138.507 25.1278ZM139.105 24.5892C139.238 24.3681 139.309 24.1376 139.309 23.9004H138.909C138.909 24.0538 138.864 24.214 138.762 24.3834L139.105 24.5892ZM139.309 23.9004C139.309 23.6623 139.237 23.4386 139.1 23.2328L138.767 23.4547C138.864 23.6004 138.909 23.7478 138.909 23.9004H139.309ZM139.105 23.2409C138.965 23.0075 138.749 22.8189 138.472 22.6696L138.282 23.0218C138.513 23.1459 138.668 23.2894 138.762 23.4466L139.105 23.2409ZM138.488 22.6793C138.216 22.4977 137.875 22.4031 137.479 22.3823L137.458 22.7818C137.805 22.8 138.07 22.8812 138.266 23.0121L138.488 22.6793ZM137.469 22.382H129.559V22.782H137.469V22.382ZM129.559 22.382C129.256 22.382 128.992 22.4549 128.805 22.6358C128.616 22.8181 128.538 23.0767 128.538 23.373H128.938C128.938 23.1421 128.998 23.0052 129.082 22.9238C129.168 22.841 129.314 22.782 129.559 22.782V22.382ZM128.538 23.373V25.2188H128.938V23.373H128.538ZM128.738 25.4187H137.469V25.0188H128.738V25.4187ZM137.479 25.4185C137.876 25.3976 138.222 25.303 138.511 25.1254L138.301 24.7847C138.082 24.9197 137.804 25.0008 137.458 25.019L137.479 25.4185ZM149.832 22.2891V22.0889L149.825 22.0892L149.832 22.2891ZM151.238 22.8457L151.1 22.9908L151.104 22.9944L151.238 22.8457ZM151.854 24.1934H152.054L152.053 24.1862L151.854 24.1934ZM151.854 27.1523L152.054 27.1572V27.1523H151.854ZM152 29.3789L151.803 29.4127L151.804 29.4192L152 29.3789ZM154.783 32.0156L154.773 32.2156H154.783V32.0156ZM162.605 32.0156V32.2156H162.805V32.0156H162.605ZM163.191 22.9043L163.325 23.053L163.326 23.0526L163.191 22.9043ZM164.627 22.3477L164.644 22.1483L164.635 22.1477H164.627V22.3477ZM166.561 24.252H166.761V24.242L166.76 24.2321L166.561 24.252ZM165.916 38.2266L166.107 38.2871L166.107 38.2858L165.916 38.2266ZM163.982 41.332L163.846 41.1859L163.843 41.189L163.982 41.332ZM160.613 42.7383V42.9386L160.625 42.938L160.613 42.7383ZM150.477 42.7383L150.469 42.9383H150.477V42.7383ZM148.572 40.834H148.372L148.372 40.8414L148.572 40.834ZM149.1 39.4277L148.955 39.2899L148.951 39.2939L149.1 39.4277ZM150.477 38.8125V38.6124L150.469 38.6126L150.477 38.8125ZM159.617 38.8125V39.0128L159.628 39.0122L159.617 38.8125ZM161.463 37.9629L161.61 38.0988L161.463 37.9629ZM162.4 36.1172L162.211 36.0539L162.207 36.0663L162.204 36.079L162.4 36.1172ZM162.43 35.9414H162.63V35.7414H162.43V35.9414ZM153.787 35.9414L153.776 36.1414H153.787V35.9414ZM150.389 34.5645L150.249 34.7075L150.252 34.7106L150.389 34.5645ZM148.484 31.4297L148.293 31.4874L148.294 31.4902L148.484 31.4297ZM147.898 27.5039H147.698L147.698 27.5067L147.898 27.5039ZM147.898 24.1934L147.698 24.186V24.1934H147.898ZM148.484 22.875L148.622 23.0202L148.626 23.0164L148.484 22.875ZM149.832 22.4891C150.328 22.4891 150.748 22.6555 151.101 22.9907L151.376 22.7007C150.948 22.2937 150.429 22.0891 149.832 22.0891V22.4891ZM151.104 22.9944C151.453 23.308 151.636 23.7053 151.654 24.2005L152.053 24.1862C152.032 23.5877 151.805 23.0865 151.372 22.697L151.104 22.9944ZM151.654 24.1934V27.1523H152.054V24.1934H151.654ZM151.654 27.1475C151.634 27.9593 151.683 28.7146 151.803 29.4127L152.197 29.3451C152.082 28.6761 152.034 27.947 152.053 27.1572L151.654 27.1475ZM151.804 29.4192C151.949 30.1212 152.279 30.7495 152.791 31.3019L153.084 31.0301C152.619 30.5279 152.325 29.9647 152.196 29.3386L151.804 29.4192ZM152.791 31.3019C153.316 31.8689 153.98 32.1737 154.773 32.2153L154.794 31.8159C154.102 31.7795 153.536 31.5178 153.084 31.0301L152.791 31.3019ZM154.783 32.2156H162.605V31.8156H154.783V32.2156ZM162.805 32.0156V24.252H162.405V32.0156H162.805ZM162.805 24.252C162.805 23.7592 162.979 23.3649 163.325 23.053L163.058 22.7556C162.623 23.1468 162.405 23.651 162.405 24.252H162.805ZM163.326 23.0526C163.699 22.7144 164.13 22.5477 164.627 22.5477V22.1477C164.03 22.1477 163.504 22.352 163.057 22.756L163.326 23.0526ZM164.61 22.547C165.164 22.5931 165.569 22.7637 165.849 23.0395C166.129 23.3153 166.306 23.7182 166.362 24.2719L166.76 24.2321C166.698 23.6139 166.494 23.1134 166.13 22.7545C165.765 22.3955 165.262 22.1999 164.644 22.1483L164.61 22.547ZM166.361 24.252V33.8027H166.761V24.252H166.361ZM166.361 33.8027C166.361 35.3467 166.148 36.8012 165.725 38.1674L166.107 38.2858C166.543 36.8785 166.761 35.3838 166.761 33.8027H166.361ZM165.725 38.166C165.345 39.3655 164.718 40.3707 163.846 41.1859L164.119 41.4781C165.044 40.6137 165.706 39.5486 166.107 38.2871L165.725 38.166ZM163.843 41.189C163.002 42.0107 161.927 42.4629 160.602 42.5386L160.625 42.938C162.034 42.8574 163.205 42.3721 164.122 41.475L163.843 41.189ZM160.613 42.5383H150.477V42.9383H160.613V42.5383ZM150.484 42.5384C150.007 42.5207 149.606 42.3461 149.27 42.0109L148.987 42.2938C149.394 42.7008 149.892 42.9168 150.469 42.9381L150.484 42.5384ZM149.27 42.0109C148.957 41.6974 148.79 41.3069 148.772 40.8266L148.372 40.8414C148.394 41.4158 148.598 41.9042 148.987 42.2938L149.27 42.0109ZM148.772 40.834C148.772 40.3343 148.931 39.9138 149.248 39.5615L148.951 39.2939C148.565 39.7229 148.372 40.2399 148.372 40.834H148.772ZM149.245 39.5655C149.579 39.2135 149.988 39.0301 150.484 39.0124L150.469 38.6126C149.871 38.634 149.362 38.8607 148.955 39.29L149.245 39.5655ZM150.477 39.0125H159.617V38.6125H150.477V39.0125ZM159.628 39.0122C160.42 38.9705 161.085 38.6657 161.61 38.0988L161.316 37.827C160.865 38.3147 160.299 38.5763 159.607 38.6128L159.628 39.0122ZM161.61 38.0988C162.123 37.5442 162.453 36.8952 162.597 36.1554L162.204 36.079C162.074 36.7455 161.779 37.3269 161.316 37.827L161.61 38.0988ZM162.59 36.1804C162.616 36.1026 162.63 36.0226 162.63 35.9414H162.23C162.23 35.9774 162.224 36.0146 162.211 36.0539L162.59 36.1804ZM162.43 35.7414H153.787V36.1414H162.43V35.7414ZM153.799 35.7417C152.472 35.666 151.386 35.2226 150.525 34.4183L150.252 34.7106C151.189 35.586 152.367 36.0606 153.776 36.1411L153.799 35.7417ZM150.528 34.4215C149.674 33.5862 149.056 32.57 148.675 31.3692L148.294 31.4902C148.694 32.7503 149.345 33.824 150.249 34.7075L150.528 34.4215ZM148.676 31.3719C148.311 30.1606 148.118 28.8707 148.098 27.5011L147.698 27.5067C147.718 28.9106 147.916 30.2378 148.293 31.4874L148.676 31.3719ZM148.098 27.5039V24.1934H147.698V27.5039H148.098ZM148.098 24.2008C148.116 23.7238 148.29 23.3345 148.622 23.0202L148.347 22.7298C147.936 23.1187 147.72 23.6082 147.699 24.186L148.098 24.2008ZM148.626 23.0164C148.961 22.6812 149.362 22.5066 149.839 22.4889L149.825 22.0892C149.247 22.1106 148.75 22.3266 148.343 22.7336L148.626 23.0164ZM176.756 18.1875V17.9874L176.748 17.9876L176.756 18.1875ZM178.162 18.7441L178.024 18.8892L178.028 18.8928L178.162 18.7441ZM178.777 20.0918H178.977L178.977 20.0847L178.777 20.0918ZM178.777 22.6406H178.577V22.8406H178.777V22.6406ZM190.145 23.1973L190.29 23.0593L190.282 23.0523L190.145 23.1973ZM178.777 26.5664V26.3664H178.577V26.5664H178.777ZM178.777 27.1523L178.977 27.1572V27.1523H178.777ZM178.924 29.3789L178.727 29.4127L178.728 29.4192L178.924 29.3789ZM181.707 32.0156L181.697 32.2156H181.707V32.0156ZM188.855 32.0156L188.863 31.8156H188.855V32.0156ZM190.203 32.6309L190.054 32.7647L190.058 32.7686L190.203 32.6309ZM190.76 34.0371L190.96 34.0445V34.0371H190.76ZM188.855 35.9414V36.1415L188.863 36.1413L188.855 35.9414ZM180.711 35.9414L180.7 36.1414H180.711V35.9414ZM177.312 34.5645L177.173 34.7075L177.176 34.7106L177.312 34.5645ZM175.408 31.4297L175.217 31.4874L175.218 31.4902L175.408 31.4297ZM174.822 27.5039H174.622L174.622 27.5067L174.822 27.5039ZM174.822 26.5664H175.022V26.3664H174.822V26.5664ZM170.076 25.9805L170.221 25.8425L170.214 25.8355L170.076 25.9805ZM174.822 22.6406V22.8406H175.022V22.6406H174.822ZM174.822 20.0918L174.622 20.0844V20.0918H174.822ZM175.408 18.7734L175.546 18.9187L175.55 18.9149L175.408 18.7734ZM176.756 18.3875C177.252 18.3875 177.672 18.5539 178.024 18.8891L178.3 18.5991C177.871 18.1921 177.353 17.9875 176.756 17.9875V18.3875ZM178.028 18.8928C178.377 19.2064 178.56 19.6037 178.577 20.0989L178.977 20.0847C178.956 19.4861 178.729 18.985 178.296 18.5955L178.028 18.8928ZM178.577 20.0918V22.6406H178.977V20.0918H178.577ZM178.777 22.8406H188.738V22.4406H178.777V22.8406ZM188.738 22.8406C189.235 22.8406 189.654 23.0071 190.007 23.3423L190.282 23.0523C189.854 22.6453 189.336 22.4406 188.738 22.4406V22.8406ZM190 23.335C190.335 23.6879 190.501 24.1071 190.501 24.6035H190.901C190.901 24.0062 190.697 23.4879 190.29 23.0595L190 23.335ZM190.501 24.6035C190.501 25.0967 190.327 25.5148 189.974 25.8683L190.257 26.1512C190.684 25.7235 190.901 25.204 190.901 24.6035H190.501ZM189.974 25.8683C189.642 26.2002 189.235 26.3664 188.738 26.3664V26.7664C189.336 26.7664 189.846 26.5615 190.257 26.1512L189.974 25.8683ZM188.738 26.3664H178.777V26.7664H188.738V26.3664ZM178.577 26.5664V27.1523H178.977V26.5664H178.577ZM178.577 27.1475C178.558 27.9593 178.607 28.7146 178.727 29.4127L179.121 29.3451C179.006 28.6761 178.958 27.947 178.977 27.1572L178.577 27.1475ZM178.728 29.4192C178.872 30.1212 179.203 30.7495 179.715 31.3019L180.008 31.0301C179.543 30.5279 179.249 29.9647 179.12 29.3386L178.728 29.4192ZM179.715 31.3019C180.24 31.8689 180.904 32.1737 181.697 32.2153L181.718 31.8159C181.025 31.7795 180.46 31.5178 180.008 31.0301L179.715 31.3019ZM181.707 32.2156H188.855V31.8156H181.707V32.2156ZM188.848 32.2155C189.344 32.2332 189.741 32.4162 190.054 32.7647L190.352 32.4971C189.962 32.0643 189.461 31.8371 188.863 31.8158L188.848 32.2155ZM190.058 32.7686C190.393 33.1214 190.56 33.5406 190.56 34.0371H190.96C190.96 33.4398 190.755 32.9215 190.348 32.4931L190.058 32.7686ZM190.56 34.0297C190.542 34.5069 190.368 34.9082 190.032 35.2433L190.315 35.5262C190.722 35.1192 190.938 34.622 190.96 34.0445L190.56 34.0297ZM190.032 35.2433C189.719 35.5569 189.328 35.7238 188.848 35.7415L188.863 36.1413C189.437 36.12 189.926 35.9158 190.315 35.5262L190.032 35.2433ZM188.855 35.7414H180.711V36.1414H188.855V35.7414ZM180.722 35.7417C179.396 35.666 178.309 35.2226 177.449 34.4183L177.176 34.7106C178.112 35.586 179.291 36.0606 180.7 36.1411L180.722 35.7417ZM177.452 34.4215C176.598 33.5862 175.98 32.57 175.599 31.3692L175.218 31.4902C175.618 32.7503 176.269 33.824 177.173 34.7075L177.452 34.4215ZM175.6 31.3719C175.234 30.1606 175.042 28.8707 175.022 27.5011L174.622 27.5067C174.642 28.9106 174.84 30.2378 175.217 31.4874L175.6 31.3719ZM175.022 27.5039V26.5664H174.622V27.5039H175.022ZM174.822 26.3664H171.453V26.7664H174.822V26.3664ZM171.453 26.3664C170.96 26.3664 170.554 26.1929 170.221 25.8427L169.931 26.1182C170.341 26.5493 170.852 26.7664 171.453 26.7664V26.3664ZM170.214 25.8355C169.864 25.5028 169.69 25.0965 169.69 24.6035H169.29C169.29 25.2043 169.507 25.716 169.938 26.1255L170.214 25.8355ZM169.69 24.6035C169.69 24.1072 169.856 23.6998 170.188 23.368L169.905 23.0851C169.495 23.4955 169.29 24.0061 169.29 24.6035H169.69ZM170.188 23.368C170.542 23.0144 170.96 22.8406 171.453 22.8406V22.4406C170.853 22.4406 170.333 22.6574 169.905 23.0851L170.188 23.368ZM171.453 22.8406H174.822V22.4406H171.453V22.8406ZM175.022 22.6406V20.0918H174.622V22.6406H175.022ZM175.022 20.0992C175.04 19.6223 175.214 19.2329 175.546 18.9186L175.271 18.6282C174.86 19.0171 174.644 19.5066 174.622 20.0844L175.022 20.0992ZM175.55 18.9149C175.885 18.5797 176.286 18.405 176.763 18.3874L176.748 17.9876C176.171 18.009 175.674 18.225 175.267 18.632L175.55 18.9149ZM199.578 35.9414L199.571 36.1414H199.578V35.9414ZM195.682 34.7402L195.551 34.8914L195.553 34.893L195.682 34.7402ZM193.777 32.1914L193.592 32.267L193.593 32.2683L193.777 32.1914ZM193.748 26.3613L193.563 26.2857L193.562 26.2877L193.748 26.3613ZM195.652 23.8125L195.781 23.9653L195.782 23.9651L195.652 23.8125ZM199.051 22.6406V22.4406L199.048 22.4406L199.051 22.6406ZM211.561 23.1973L211.419 23.3389L211.427 23.3459L211.561 23.1973ZM211.561 25.834L211.698 25.9792L211.698 25.979L211.561 25.834ZM198.084 26.8008L197.952 26.6507L197.947 26.6549L198.084 26.8008ZM197.381 27.9434L197.191 27.8801L197.189 27.8874L197.381 27.9434ZM197.381 30.7559L197.189 30.8119L197.191 30.8191L197.381 30.7559ZM198.084 31.8984L197.947 32.0446L197.957 32.0528L198.084 31.8984ZM199.227 32.3379L199.217 32.5379H199.227V32.3379ZM211.561 32.8652L211.423 33.0105L211.427 33.0139L211.561 32.8652ZM211.561 35.4141L211.427 35.2654L211.423 35.2689L211.561 35.4141ZM211.297 30.1992L211.17 30.0448L211.166 30.0481L211.297 30.1992ZM199.461 30.1992L199.329 30.3498L199.335 30.3544L199.461 30.1992ZM199.461 28.2949L199.335 28.1396L199.329 28.1444L199.461 28.2949ZM211.326 28.3242L211.194 28.4748L211.2 28.4794L211.326 28.3242ZM199.585 35.7415C197.89 35.6837 196.642 35.2894 195.811 34.5874L195.553 34.893C196.479 35.6754 197.829 36.0819 199.571 36.1413L199.585 35.7415ZM195.813 34.5891C194.954 33.8447 194.339 33.0195 193.962 32.1145L193.593 32.2683C193.997 33.2383 194.652 34.1123 195.551 34.8914L195.813 34.5891ZM193.963 32.1158C193.581 31.1814 193.391 30.2402 193.391 29.291H192.991C192.991 30.295 193.192 31.2874 193.592 32.267L193.963 32.1158ZM193.391 29.291C193.391 28.3004 193.572 27.3488 193.934 26.4349L193.562 26.2877C193.182 27.2488 192.991 28.2504 192.991 29.291H193.391ZM193.933 26.4369C194.31 25.513 194.924 24.689 195.781 23.9653L195.523 23.6597C194.623 24.4203 193.967 25.2956 193.563 26.2857L193.933 26.4369ZM195.782 23.9651C196.639 23.238 197.725 22.8596 199.054 22.8406L199.048 22.4406C197.642 22.4607 196.462 22.8635 195.523 23.6599L195.782 23.9651ZM199.051 22.8406H210.184V22.4406H199.051V22.8406ZM210.184 22.8406C210.68 22.8406 211.087 23.0068 211.419 23.3387L211.702 23.0558C211.292 22.6455 210.781 22.4406 210.184 22.4406V22.8406ZM211.427 23.3459C211.777 23.6611 211.946 24.0374 211.946 24.4863H212.346C212.346 23.9196 212.125 23.4366 211.694 23.0486L211.427 23.3459ZM211.946 24.4863C211.946 24.9575 211.775 25.3547 211.423 25.689L211.698 25.979C212.128 25.5711 212.346 25.0698 212.346 24.4863H211.946ZM211.423 25.6888C211.092 26.0026 210.683 26.1613 210.184 26.1613V26.5613C210.778 26.5613 211.287 26.3685 211.698 25.9792L211.423 25.6888ZM210.184 26.1613H199.227V26.5613H210.184V26.1613ZM199.227 26.1613C198.747 26.1613 198.319 26.3267 197.952 26.6508L198.216 26.9507C198.513 26.6889 198.847 26.5613 199.227 26.5613V26.1613ZM197.947 26.6549C197.607 26.9738 197.356 27.3847 197.191 27.8801L197.571 28.0066C197.718 27.5645 197.936 27.2137 198.221 26.9467L197.947 26.6549ZM197.189 27.8874C197.047 28.3727 196.976 28.8506 196.976 29.3203H197.376C197.376 28.8916 197.441 28.4515 197.573 27.9994L197.189 27.8874ZM196.976 29.3203C196.976 29.8275 197.047 30.3249 197.189 30.8119L197.573 30.6999C197.441 30.2493 197.376 29.7896 197.376 29.3203H196.976ZM197.191 30.8191C197.356 31.3145 197.607 31.7254 197.947 32.0443L198.221 31.7525C197.936 31.4856 197.718 31.1347 197.571 30.6926L197.191 30.8191ZM197.957 32.0528C198.322 32.3538 198.745 32.5162 199.217 32.5377L199.236 32.1381C198.849 32.1205 198.51 31.99 198.211 31.7441L197.957 32.0528ZM199.227 32.5379H210.184V32.1379H199.227V32.5379ZM210.184 32.5379C210.683 32.5379 211.092 32.6967 211.423 33.0104L211.698 32.72C211.287 32.3307 210.778 32.1379 210.184 32.1379V32.5379ZM211.427 33.0139C211.779 33.3308 211.946 33.6981 211.946 34.125H212.346C212.346 33.5753 212.123 33.1028 211.694 32.7166L211.427 33.0139ZM211.946 34.125C211.946 34.5739 211.777 34.9503 211.427 35.2654L211.694 35.5627C212.125 35.1747 212.346 34.6917 212.346 34.125H211.946ZM211.423 35.2689C211.092 35.5826 210.683 35.7414 210.184 35.7414V36.1414C210.778 36.1414 211.287 35.9486 211.698 35.5593L211.423 35.2689ZM210.184 35.7414H199.578V36.1414H210.184V35.7414ZM211.595 29.2324C211.595 29.5339 211.464 29.8026 211.17 30.0448L211.424 30.3536C211.794 30.0489 211.995 29.6731 211.995 29.2324H211.595ZM211.166 30.0481C210.915 30.2656 210.593 30.3801 210.184 30.3801V30.7801C210.673 30.7801 211.093 30.6407 211.428 30.3504L211.166 30.0481ZM210.184 30.3801H200.604V30.7801H210.184V30.3801ZM200.604 30.3801C200.195 30.3801 199.86 30.2656 199.587 30.044L199.335 30.3544C199.687 30.6407 200.114 30.7801 200.604 30.7801V30.3801ZM199.593 30.0487C199.318 29.8082 199.192 29.5386 199.192 29.2324H198.792C198.792 29.6684 198.979 30.0434 199.329 30.3497L199.593 30.0487ZM199.192 29.2324C199.192 28.9491 199.315 28.6885 199.593 28.4454L199.329 28.1444C198.982 28.4483 198.792 28.8126 198.792 29.2324H199.192ZM199.587 28.4501C199.86 28.2286 200.195 28.1141 200.604 28.1141V27.7141C200.114 27.7141 199.687 27.8535 199.335 28.1397L199.587 28.4501ZM200.604 28.1141H210.184V27.7141H200.604V28.1141ZM210.184 28.1141C210.589 28.1141 210.922 28.2359 211.194 28.4747L211.458 28.1737C211.106 27.8656 210.677 27.7141 210.184 27.7141V28.1141ZM211.2 28.4794C211.473 28.7016 211.595 28.9503 211.595 29.2324H211.995C211.995 28.8114 211.804 28.4547 211.452 28.169L211.2 28.4794Z" fill="#232133" mask="url(#path-1-outside-1_268_484)"/>
<path d="M42.5781 0H7.42188C3.32289 0 0 3.32289 0 7.42188V42.5781C0 46.6771 3.32289 50 7.42188 50H42.5781C46.6771 50 50 46.6771 50 42.5781V7.42188C50 3.32289 46.6771 0 42.5781 0Z" fill="url(#paint0_linear_268_484)"/>
<path d="M12.0603 9.26953C6.06941 12.7681 8.53711 18.7208 20.5772 18.7208L20.7729 13.8577C15.8658 14.8244 9.09687 14.9328 12.0604 9.2696L12.0603 9.26953ZM38.1911 9.26953C41.1546 14.9328 34.3857 14.8243 29.4786 13.8576L29.6744 18.7208C41.7145 18.7208 44.1821 12.7682 38.1912 9.26953H38.1911ZM19.3523 22.5668C19.09 22.574 18.8166 22.621 18.5364 22.7109C18.4061 24.77 19.3394 26.1845 21.8863 25.4645C21.8544 23.6513 20.7681 22.528 19.3523 22.5668ZM30.8977 22.5668C29.4817 22.528 28.3954 23.6513 28.3637 25.4644C30.9105 26.1846 31.8439 24.77 31.7137 22.7109C31.4335 22.6211 31.1599 22.574 30.8977 22.5668ZM27.2297 33.8006L26.4845 34.8547C27.5572 35.6127 27.8095 37.0777 27.0514 38.1502C26.2935 39.2229 24.8295 39.4743 23.757 38.7163C22.6844 37.9584 22.432 36.4936 23.1901 35.4209C23.3301 35.2224 23.4998 35.0468 23.6933 34.9001L22.9157 33.8717C22.616 34.098 22.353 34.3692 22.136 34.6758C20.9757 36.318 21.3697 38.6102 23.0119 39.7705C24.654 40.9309 26.9444 40.5368 28.1048 38.8946C29.2652 37.2525 28.8719 34.9613 27.2299 33.8009L27.2297 33.8006Z" fill="white"/>
<defs>
<linearGradient id="paint0_linear_268_484" x1="0" y1="25" x2="50" y2="25" gradientUnits="userSpaceOnUse">
<stop stop-color="#573CFF"/>
<stop offset="1" stop-color="#8676E9"/>
</linearGradient>
</defs>
</svg>
