<svg width="294" height="281" viewBox="0 0 294 281" fill="none" xmlns="http://www.w3.org/2000/svg">
<rect x="94.4697" width="261" height="146" rx="18" transform="rotate(40.3199 94.4697 0)" fill="url(#paint0_linear_531_4053)"/>
<path d="M89.15 28.8215C89.854 27.9919 90.6767 27.41 91.618 27.0756C92.5674 26.7482 93.5268 26.681 94.4961 26.8741C95.4805 27.0659 96.3671 27.4966 97.156 28.1661C98.0587 28.9322 98.67 29.8357 98.9898 30.8765C99.3247 31.9162 99.3056 32.9772 98.9326 34.0597L97.2613 32.6413C97.4213 32.0077 97.3993 31.4154 97.1953 30.8645C96.9913 30.3137 96.6331 29.8208 96.1207 29.386C95.5595 28.9098 94.9524 28.6113 94.2993 28.4908C93.6461 28.3702 92.9934 28.4387 92.3409 28.6965C91.6967 28.9611 91.1088 29.4066 90.5773 30.0328C90.0459 30.659 89.702 31.3115 89.5457 31.9902C89.3975 32.6759 89.4325 33.3352 89.6508 33.9682C89.876 34.593 90.2692 35.1435 90.8304 35.6197C91.3427 36.0545 91.8873 36.3278 92.464 36.4395C93.0407 36.5512 93.6287 36.4766 94.2279 36.2157L95.8992 37.634C94.8918 38.1781 93.848 38.3695 92.7677 38.2082C91.6956 38.0538 90.7082 37.5936 89.8055 36.8274C89.0084 36.1511 88.4359 35.3503 88.0877 34.4253C87.7464 33.4922 87.6601 32.5306 87.8288 31.5405C88.0056 30.5574 88.446 29.651 89.15 28.8215ZM101.703 36.9141C102.196 36.7451 102.688 36.7086 103.181 36.8045C103.688 36.8992 104.173 37.1432 104.637 37.5366L103.415 38.9761L103.061 38.6759C102.517 38.2135 101.984 37.9997 101.465 38.0347C100.954 38.0765 100.408 38.439 99.8287 39.1222L96.8264 42.6599L95.4357 41.4797L101.14 34.758L102.531 35.9382L101.703 36.9141ZM111.873 43.8663L99.3636 50.2483L97.9241 49.0267L102.065 46.9168L105.029 38.0584L106.578 39.3732L104.121 46.1015L110.433 42.6447L111.873 43.8663ZM113.474 46.9253C113.973 46.8165 114.515 46.8288 115.101 46.9625C115.687 47.0961 116.236 47.3804 116.748 47.8152C117.334 48.3121 117.742 48.9106 117.974 49.6106C118.22 50.3093 118.261 51.0363 118.096 51.7915C117.93 52.5466 117.561 53.2617 116.988 53.9367C116.416 54.6117 115.763 55.1003 115.031 55.4024C114.306 55.6964 113.572 55.7867 112.828 55.6735C112.1 55.5591 111.443 55.2534 110.858 54.7565C110.345 54.3216 109.976 53.8335 109.75 53.292C109.531 52.7423 109.427 52.206 109.437 51.683L105.896 55.8551L104.505 54.6749L112.922 44.757L114.313 45.9372L113.474 46.9253ZM115.573 52.7358C115.967 52.2722 116.207 51.7909 116.295 51.2918C116.398 50.7915 116.363 50.3213 116.191 49.8814C116.034 49.4402 115.776 49.0678 115.418 48.7641C115.069 48.4673 114.659 48.2738 114.19 48.1835C113.729 48.1002 113.257 48.1464 112.771 48.3224C112.295 48.5052 111.859 48.8284 111.466 49.292C111.073 49.7555 110.821 50.2415 110.711 50.75C110.617 51.2572 110.648 51.7314 110.805 52.1726C110.97 52.6207 111.228 52.9932 111.578 53.2899C111.935 53.5936 112.345 53.7871 112.806 53.8705C113.282 53.9526 113.761 53.8982 114.245 53.7072C114.737 53.5232 115.18 53.1994 115.573 52.7358ZM121.85 54.2849L118.692 58.0057C118.478 58.2578 118.38 58.4891 118.397 58.6996C118.429 58.9088 118.588 59.1342 118.872 59.3758L119.726 60.1005L118.743 61.2594L117.645 60.3277C117.019 59.7962 116.663 59.2426 116.578 58.6668C116.493 58.0911 116.73 57.4738 117.289 56.8151L120.447 53.0944L119.654 52.4214L120.617 51.2869L121.41 51.9598L122.828 50.2886L124.231 51.4791L122.812 53.1504L124.447 54.5377L123.484 55.6722L121.85 54.2849ZM122.847 64.9313C122.213 64.393 121.76 63.7641 121.489 63.0446C121.225 62.317 121.168 61.5687 121.317 60.7998C121.473 60.0227 121.844 59.2885 122.431 58.5972C123.01 57.914 123.675 57.4358 124.424 57.1626C125.174 56.8893 125.93 56.8312 126.692 56.9883C127.454 57.1454 128.156 57.4965 128.799 58.0418C129.441 58.587 129.902 59.2229 130.181 59.9492C130.46 60.6756 130.525 61.4308 130.378 62.2148C130.23 62.9988 129.866 63.7323 129.286 64.4155C128.707 65.0986 128.038 65.5734 127.28 65.8398C126.523 66.1061 125.751 66.1579 124.966 65.9952C124.196 65.8312 123.489 65.4766 122.847 64.9313ZM123.872 63.7236C124.23 64.0273 124.636 64.2249 125.09 64.3164C125.552 64.4147 126.025 64.376 126.51 64.2001C126.995 64.0241 127.445 63.6922 127.859 63.2042C128.273 62.7162 128.528 62.2262 128.624 61.734C128.727 61.2337 128.696 60.767 128.532 60.3339C128.368 59.9009 128.107 59.5325 127.749 59.2288C127.392 58.9251 126.986 58.7275 126.532 58.636C126.086 58.5515 125.628 58.604 125.16 58.7938C124.698 58.9754 124.26 59.3102 123.846 59.7981C123.231 60.5219 122.938 61.2384 122.966 61.9475C123.009 62.6553 123.311 63.2474 123.872 63.7236ZM133.571 67.9889L132.854 73.2353L131.281 71.8997L131.765 68.3865L128.463 69.5082L127.011 68.2762L131.988 66.8131L132.715 61.5545L134.289 62.89L133.805 66.4033L137.107 65.2816L138.559 66.5136L133.571 67.9889ZM148.041 75.8831C147.676 76.3142 147.229 76.6345 146.701 76.8442C146.173 77.0539 145.582 77.091 144.928 76.9553C144.281 76.8116 143.607 76.4429 142.908 75.8494L141.371 74.5449L138.451 77.985L137.06 76.8048L144.256 68.3264L147.183 70.8111C147.834 71.3633 148.286 71.943 148.54 72.5503C148.809 73.1564 148.892 73.7438 148.787 74.3124C148.69 74.8879 148.442 75.4115 148.041 75.8831ZM143.87 74.7148C144.399 75.1635 144.894 75.3803 145.354 75.3653C145.821 75.3422 146.241 75.111 146.614 74.6719C147.401 73.7447 147.27 72.836 146.221 71.9456L144.683 70.6412L142.333 73.4104L143.87 74.7148ZM153.367 75.1148L145.706 84.1422L144.315 82.9619L151.977 73.9346L153.367 75.1148ZM149.947 81.9069C150.519 81.2319 151.165 80.7515 151.883 80.4657C152.61 80.1867 153.333 80.1086 154.055 80.2311C154.791 80.3525 155.452 80.6616 156.038 81.1585C156.566 81.6072 156.936 82.1029 157.147 82.6456C157.373 83.1871 157.473 83.7125 157.446 84.2217L158.275 83.2457L159.678 84.4363L153.973 91.158L152.57 89.9674L153.419 88.9671C152.914 89.0841 152.369 89.0758 151.783 88.9422C151.196 88.8085 150.643 88.5208 150.123 88.0791C149.545 87.5891 149.141 86.9941 148.909 86.2941C148.685 85.586 148.655 84.8468 148.819 84.0766C148.998 83.3052 149.374 82.582 149.947 81.9069ZM155.428 86.6005C155.821 86.1369 156.065 85.6515 156.16 85.1443C156.263 84.644 156.235 84.1732 156.078 83.732C155.921 83.2908 155.664 82.9184 155.306 82.6147C154.948 82.311 154.538 82.1175 154.078 82.0342C153.624 81.9427 153.154 81.9849 152.669 82.1608C152.199 82.3355 151.767 82.6547 151.374 83.1182C150.98 83.5818 150.729 84.0678 150.619 84.5763C150.518 85.0916 150.542 85.5739 150.692 86.0233C150.858 86.4714 151.115 86.8438 151.465 87.1406C151.823 87.4443 152.232 87.6378 152.693 87.7211C153.154 87.8045 153.623 87.7548 154.1 87.5719C154.592 87.3879 155.034 87.0641 155.428 86.6005ZM162.164 88.4979L159.006 92.2187C158.792 92.4708 158.694 92.7021 158.711 92.9126C158.743 93.1218 158.902 93.3472 159.187 93.5888L160.04 94.3135L159.057 95.4724L157.959 94.5407C157.333 94.0092 156.977 93.4556 156.892 92.8799C156.807 92.3041 157.044 91.6868 157.603 91.0281L160.761 87.3074L159.968 86.6344L160.931 85.4999L161.724 86.1728L163.142 84.5016L164.545 85.6922L163.127 87.3634L164.761 88.7507L163.799 89.8852L162.164 88.4979ZM167.506 89.5484C167.254 89.3345 167.115 89.0696 167.09 88.7539C167.064 88.4382 167.158 88.1542 167.372 87.9021C167.586 87.65 167.85 87.511 168.166 87.4852C168.482 87.4593 168.766 87.5534 169.018 87.7674C169.262 87.9744 169.397 88.2358 169.423 88.5515C169.449 88.8673 169.355 89.1512 169.141 89.4033C168.927 89.6554 168.662 89.7944 168.346 89.8202C168.03 89.8461 167.75 89.7555 167.506 89.5484ZM167.434 91.0187L161.729 97.7404L160.339 96.5602L166.043 89.8385L167.434 91.0187ZM172.744 95.3366C173.273 95.7852 173.651 96.2953 173.88 96.8669C174.116 97.4454 174.17 98.0502 174.04 98.6814C173.91 99.3126 173.586 99.9331 173.068 100.543L169.704 104.508L168.325 103.338L171.514 99.5806C172.025 98.9788 172.264 98.3916 172.232 97.8191C172.207 97.2384 171.935 96.7272 171.414 96.2854C170.894 95.8437 170.341 95.6544 169.756 95.7174C169.186 95.7792 168.645 96.111 168.135 96.7129L164.946 100.47L163.555 99.29L169.26 92.5683L170.65 93.7485L169.998 94.517C170.461 94.4338 170.932 94.4633 171.413 94.6055C171.902 94.7547 172.346 94.9984 172.744 95.3366ZM183.269 104.458L177.565 111.179L176.174 109.999L176.847 109.206C176.393 109.296 175.918 109.271 175.422 109.13C174.941 108.988 174.501 108.747 174.103 108.409C173.574 107.961 173.192 107.447 172.955 106.869C172.727 106.297 172.673 105.692 172.795 105.054C172.925 104.423 173.249 103.802 173.767 103.192L177.121 99.2398L178.499 100.41L175.321 104.155C174.81 104.757 174.567 105.348 174.592 105.929C174.624 106.501 174.9 107.008 175.421 107.45C175.941 107.892 176.486 108.082 177.057 108.02C177.642 107.957 178.19 107.624 178.7 107.023L181.879 103.277L183.269 104.458ZM193.334 112.81C193.863 113.259 194.241 113.769 194.47 114.341C194.706 114.919 194.76 115.524 194.63 116.155C194.508 116.793 194.188 117.417 193.67 118.027L190.306 121.992L188.927 120.822L192.116 117.065C192.627 116.463 192.866 115.876 192.835 115.303C192.81 114.723 192.537 114.211 192.017 113.77C191.496 113.328 190.943 113.139 190.358 113.202C189.788 113.263 189.248 113.595 188.737 114.197L185.548 117.954L184.17 116.785L187.358 113.027C187.869 112.425 188.109 111.838 188.077 111.266C188.052 110.685 187.779 110.174 187.259 109.732C186.738 109.29 186.186 109.101 185.6 109.164C185.03 109.226 184.49 109.558 183.979 110.159L180.791 113.917L179.4 112.737L185.104 106.015L186.495 107.195L185.843 107.964C186.305 107.88 186.777 107.91 187.258 108.052C187.738 108.194 188.178 108.435 188.577 108.773C189.113 109.228 189.497 109.749 189.726 110.336C189.956 110.923 190.002 111.528 189.864 112.152C190.412 111.918 191.002 111.866 191.633 111.996C192.271 112.118 192.838 112.389 193.334 112.81Z" fill="#0F0F0F"/>
<path d="M29.757 98.8624L30.6992 97.7523L32.9194 99.6365L26.3156 107.418L25.088 106.376L30.7498 99.7048L29.757 98.8624ZM30.0638 107.753C31.2482 107.742 32.1962 107.714 32.9076 107.669C33.6322 107.623 34.3013 107.505 34.9149 107.316C35.5285 107.127 36.0104 106.826 36.3607 106.413C36.723 105.986 36.9037 105.564 36.9026 105.147C36.9087 104.736 36.6947 104.346 36.2606 103.978C35.8408 103.621 35.3987 103.479 34.9344 103.55C34.4832 103.62 34.0603 103.873 33.6656 104.309L32.4914 103.313C33.2012 102.52 33.9686 102.106 34.7935 102.072C35.6315 102.036 36.4099 102.323 37.1287 102.933C37.9043 103.592 38.328 104.318 38.3997 105.114C38.4786 105.915 38.2161 106.672 37.6121 107.383C37.1773 107.896 36.626 108.278 35.958 108.532C35.3033 108.784 34.6344 108.945 33.9514 109.014C33.2815 109.082 32.4607 109.126 31.489 109.146L30.6463 109.165L34.03 112.037L33.1694 113.051L27.9818 108.648L28.7336 107.762L30.0638 107.753ZM39.0998 108.187C39.7041 107.561 40.3946 107.26 41.1711 107.282C41.9549 107.311 42.7096 107.633 43.4355 108.249C43.9336 108.672 44.2886 109.126 44.5006 109.612C44.7125 110.098 44.7812 110.572 44.7065 111.035C44.6318 111.498 44.4314 111.922 44.1053 112.306C43.7309 112.747 43.2934 113.025 42.7929 113.139C42.2923 113.252 41.8331 113.224 41.4151 113.053L41.3789 113.096C41.69 113.58 41.8181 114.093 41.763 114.633C41.714 115.167 41.4661 115.697 41.0192 116.224C40.6629 116.644 40.2497 116.936 39.7798 117.1C39.3099 117.264 38.8048 117.283 38.2646 117.155C37.7304 117.02 37.2 116.729 36.6734 116.282C35.9049 115.629 35.4376 114.896 35.2716 114.082C35.1188 113.267 35.3387 112.474 35.9312 111.704L37.1053 112.7C36.8137 113.102 36.6969 113.535 36.7548 114C36.8189 114.459 37.075 114.878 37.5233 115.259C37.9574 115.627 38.3915 115.793 38.8256 115.758C39.2658 115.715 39.6459 115.505 39.966 115.128C40.3887 114.63 40.5276 114.142 40.3825 113.664C40.2505 113.185 39.8572 112.667 39.2026 112.112L38.925 111.876L39.7765 110.873L40.0648 111.117C40.6472 111.599 41.1664 111.875 41.6223 111.943C42.0853 112.018 42.4859 111.856 42.8241 111.458C43.114 111.116 43.2331 110.752 43.1816 110.365C43.1362 109.972 42.9106 109.603 42.505 109.259C42.1065 108.921 41.7094 108.761 41.3137 108.78C40.924 108.792 40.5809 108.93 40.2846 109.192L39.0998 108.187ZM41.7132 117.694L42.4922 116.776L50.4451 114.675L51.9181 115.925L47.6695 120.931L48.6622 121.774L47.7654 122.831L46.7727 121.988L45.3958 123.611L44.2003 122.596L45.5772 120.974L41.7132 117.694ZM49.7251 116.194L44.0083 117.824L46.5274 119.962L49.7251 116.194ZM55.6712 120.855L56.6133 119.745L58.8335 121.629L52.2297 129.41L51.0022 128.368L56.6639 121.697L55.6712 120.855ZM55.978 129.745C57.1624 129.734 58.1103 129.706 58.8218 129.661C59.5464 129.615 60.2155 129.498 60.8291 129.308C61.4426 129.119 61.9245 128.818 62.2748 128.405C62.6372 127.978 62.8178 127.556 62.8168 127.139C62.8229 126.728 62.6089 126.338 62.1748 125.97C61.7549 125.614 61.3128 125.471 60.8485 125.542C60.3974 125.612 59.9744 125.865 59.5797 126.302L58.4056 125.305C59.1154 124.512 59.8827 124.098 60.7076 124.064C61.5457 124.028 62.3241 124.316 63.0428 124.926C63.8185 125.584 64.2422 126.311 64.3139 127.106C64.3928 127.907 64.1302 128.664 63.5263 129.376C63.0915 129.888 62.5401 130.271 61.8722 130.524C61.2174 130.776 60.5485 130.937 59.8655 131.006C59.1957 131.074 58.3749 131.118 57.4031 131.138L56.5604 131.158L59.9442 134.029L59.0836 135.043L53.8959 130.641L54.6478 129.755L55.978 129.745ZM65.0139 130.179C65.6182 129.553 66.3087 129.252 67.0853 129.274C67.869 129.303 68.6238 129.625 69.3496 130.241C69.8478 130.664 70.2028 131.118 70.4147 131.604C70.6267 132.09 70.6953 132.564 70.6207 133.027C70.546 133.49 70.3456 133.914 70.0195 134.298C69.6451 134.74 69.2076 135.017 68.707 135.131C68.2064 135.245 67.7472 135.216 67.3293 135.045L67.293 135.088C67.6042 135.572 67.7322 136.085 67.6772 136.626C67.6282 137.159 67.3802 137.69 66.9333 138.216C66.577 138.636 66.1639 138.928 65.694 139.092C65.224 139.257 64.7189 139.275 64.1787 139.147C63.6446 139.012 63.1142 138.721 62.5876 138.274C61.819 137.622 61.3518 136.889 61.1858 136.074C61.033 135.259 61.2528 134.466 61.8453 133.696L63.0195 134.693C62.7279 135.094 62.611 135.527 62.669 135.993C62.733 136.451 62.9892 136.87 63.4375 137.251C63.8716 137.619 64.3057 137.786 64.7398 137.75C65.18 137.707 65.5601 137.498 65.8802 137.12C66.3029 136.622 66.4417 136.134 66.2966 135.656C66.1647 135.177 65.7714 134.659 65.1167 134.104L64.8392 133.868L65.6907 132.865L65.9789 133.11C66.5614 133.592 67.0805 133.867 67.5364 133.936C67.9994 134.01 68.4 133.848 68.7382 133.45C69.0281 133.108 69.1473 132.744 69.0958 132.358C69.0503 131.964 68.8248 131.595 68.4192 131.251C68.0207 130.913 67.6235 130.753 67.2278 130.772C66.8381 130.784 66.4951 130.922 66.1987 131.184L65.0139 130.179ZM67.6273 139.687L68.4064 138.769L76.3592 136.667L77.8323 137.917L73.5837 142.924L74.5764 143.766L73.6796 144.823L72.6869 143.98L71.3099 145.603L70.1144 144.588L71.4914 142.966L67.6273 139.687ZM75.6393 138.186L69.9224 139.816L72.4416 141.954L75.6393 138.186ZM81.5854 142.847L82.5275 141.737L84.7477 143.621L78.1439 151.403L76.9163 150.361L82.5781 143.689L81.5854 142.847ZM81.8921 151.737C83.0765 151.727 84.0245 151.699 84.7359 151.654C85.4605 151.608 86.1296 151.49 86.7432 151.301C87.3568 151.111 87.8387 150.81 88.189 150.398C88.5513 149.971 88.732 149.549 88.7309 149.131C88.737 148.72 88.523 148.331 88.0889 147.962C87.6691 147.606 87.227 147.463 86.7627 147.534C86.3115 147.605 85.8886 147.858 85.4939 148.294L84.3197 147.297C85.0295 146.504 85.7969 146.091 86.6218 146.056C87.4598 146.021 88.2382 146.308 88.957 146.918C89.7326 147.576 90.1563 148.303 90.2281 149.098C90.3069 149.9 90.0444 150.656 89.4405 151.368C89.0056 151.88 88.4543 152.263 87.7863 152.516C87.1316 152.769 86.4627 152.929 85.7797 152.998C85.1098 153.067 84.289 153.111 83.3173 153.13L82.4746 153.15L85.8583 156.021L84.9977 157.035L79.8101 152.633L80.5619 151.747L81.8921 151.737ZM90.9281 152.171C91.5324 151.546 92.2229 151.244 92.9995 151.267C93.7832 151.295 94.5379 151.617 95.2638 152.233C95.7619 152.656 96.1169 153.11 96.3289 153.596C96.5408 154.082 96.6095 154.557 96.5348 155.02C96.4601 155.483 96.2597 155.906 95.9336 156.291C95.5592 156.732 95.1217 157.009 94.6212 157.123C94.1206 157.237 93.6614 157.208 93.2434 157.037L93.2072 157.08C93.5183 157.564 93.6464 158.077 93.5913 158.618C93.5423 159.152 93.2944 159.682 92.8475 160.208C92.4912 160.628 92.078 160.92 91.6081 161.085C91.1382 161.249 90.6331 161.267 90.0929 161.139C89.5587 161.004 89.0283 160.713 88.5017 160.266C87.7332 159.614 87.2659 158.881 87.0999 158.067C86.9471 157.252 87.167 156.459 87.7595 155.688L88.9336 156.685C88.642 157.086 88.5252 157.52 88.5832 157.985C88.6472 158.443 88.9033 158.863 89.3516 159.243C89.7857 159.612 90.2198 159.778 90.6539 159.742C91.0941 159.7 91.4742 159.49 91.7943 159.113C92.2171 158.615 92.3559 158.126 92.2108 157.648C92.0789 157.169 91.6855 156.652 91.0309 156.096L90.7533 155.861L91.6049 154.857L91.8931 155.102C92.4755 155.584 92.9947 155.859 93.4506 155.928C93.9136 156.002 94.3142 155.841 94.6524 155.442C94.9423 155.1 95.0614 154.736 95.0099 154.35C94.9645 153.956 94.7389 153.587 94.3333 153.243C93.9348 152.905 93.5377 152.746 93.142 152.765C92.7523 152.777 92.4092 152.914 92.1129 153.177L90.9281 152.171ZM93.5415 161.679L94.3205 160.761L102.273 158.66L103.746 159.91L99.4978 164.916L100.491 165.758L99.5937 166.815L98.601 165.973L97.2241 167.595L96.0286 166.581L97.4055 164.958L93.5415 161.679ZM101.553 160.179L95.8366 161.809L98.3557 163.947L101.553 160.179ZM107.5 164.839L108.442 163.729L110.662 165.613L104.058 173.395L102.83 172.353L108.492 165.682L107.5 164.839ZM107.806 173.73C108.991 173.719 109.939 173.691 110.65 173.646C111.375 173.6 112.044 173.482 112.657 173.293C113.271 173.104 113.753 172.803 114.103 172.39C114.465 171.963 114.646 171.541 114.645 171.124C114.651 170.713 114.437 170.323 114.003 169.955C113.583 169.598 113.141 169.456 112.677 169.527C112.226 169.597 111.803 169.85 111.408 170.286L110.234 169.29C110.944 168.497 111.711 168.083 112.536 168.048C113.374 168.013 114.152 168.3 114.871 168.91C115.647 169.568 116.07 170.295 116.142 171.091C116.221 171.892 115.959 172.648 115.355 173.36C114.92 173.872 114.368 174.255 113.7 174.509C113.046 174.761 112.377 174.922 111.694 174.991C111.024 175.059 110.203 175.103 109.231 175.123L108.389 175.142L111.772 178.014L110.912 179.028L105.724 174.625L106.476 173.739L107.806 173.73ZM116.842 174.163C117.447 173.538 118.137 173.236 118.914 173.259C119.697 173.287 120.452 173.61 121.178 174.226C121.676 174.648 122.031 175.103 122.243 175.589C122.455 176.075 122.524 176.549 122.449 177.012C122.374 177.475 122.174 177.899 121.848 178.283C121.473 178.724 121.036 179.002 120.535 179.115C120.035 179.229 119.576 179.201 119.158 179.03L119.121 179.072C119.432 179.557 119.561 180.069 119.505 180.61C119.456 181.144 119.209 181.674 118.762 182.201C118.405 182.621 117.992 182.913 117.522 183.077C117.052 183.241 116.547 183.259 116.007 183.131C115.473 182.996 114.942 182.705 114.416 182.259C113.647 181.606 113.18 180.873 113.014 180.059C112.861 179.244 113.081 178.451 113.674 177.681L114.848 178.677C114.556 179.079 114.439 179.512 114.497 179.977C114.561 180.436 114.817 180.855 115.266 181.235C115.7 181.604 116.134 181.77 116.568 181.735C117.008 181.692 117.388 181.482 117.708 181.105C118.131 180.607 118.27 180.119 118.125 179.641C117.993 179.161 117.6 178.644 116.945 178.088L116.667 177.853L117.519 176.849L117.807 177.094C118.39 177.576 118.909 177.851 119.365 177.92C119.828 177.995 120.228 177.833 120.567 177.434C120.856 177.093 120.976 176.729 120.924 176.342C120.879 175.949 120.653 175.58 120.247 175.236C119.849 174.897 119.452 174.738 119.056 174.757C118.666 174.769 118.323 174.906 118.027 175.169L116.842 174.163ZM119.456 183.671L120.235 182.753L128.188 180.652L129.661 181.902L125.412 186.908L126.405 187.751L125.508 188.807L124.515 187.965L123.138 189.587L121.943 188.573L123.32 186.95L119.456 183.671ZM127.468 182.171L121.751 183.801L124.27 185.939L127.468 182.171Z" fill="#0F0F0F"/>
<path d="M45.0946 80.6809C45.6665 80.0069 46.3316 79.5313 47.0898 79.254C47.8536 78.9701 48.6255 78.8977 49.4055 79.0368C50.1921 79.1815 50.9059 79.5258 51.5468 80.0697C52.3001 80.709 52.8034 81.4487 53.0566 82.2888C53.3099 83.1289 53.2821 83.992 52.9735 84.8781L51.8931 83.9612C52.0547 83.3823 52.0492 82.8263 51.8764 82.2932C51.7103 81.7657 51.3761 81.2889 50.8739 80.8627C50.3915 80.4533 49.8634 80.1983 49.2895 80.0977C48.7155 79.9971 48.1429 80.0625 47.5715 80.2937C47.0058 80.5183 46.4874 80.9082 46.0163 81.4632C45.5509 82.0117 45.2506 82.5866 45.1153 83.1879C44.9857 83.7827 45.0172 84.355 45.2098 84.9049C45.4024 85.4549 45.7398 85.9345 46.2222 86.3439C46.7244 86.7701 47.2465 87.0255 47.7883 87.1103C48.3424 87.1941 48.8919 87.1091 49.4369 86.8554L50.5172 87.7723C49.6988 88.2144 48.8545 88.3788 47.9844 88.2656C47.1199 88.1458 46.311 87.7662 45.5577 87.1269C44.9167 86.5829 44.4581 85.938 44.1818 85.192C43.9178 84.445 43.8609 83.6749 44.0112 82.8817C44.1614 82.0885 44.5226 81.3549 45.0946 80.6809ZM55.5398 92.8532L52.5266 90.296L50.6677 91.3613L49.7162 90.5538L58.0433 85.8047L59.084 86.6879L55.7426 95.6681L54.791 94.8606L55.5398 92.8532ZM55.9045 91.901L57.6166 87.3522L53.4068 89.7812L55.9045 91.901ZM66.2284 96.127C66.3788 95.5613 66.3648 95.0152 66.1865 94.4887C66.0137 93.9556 65.6861 93.4844 65.2038 93.075C64.7214 92.6656 64.1899 92.4078 63.6094 92.3016C63.0411 92.1944 62.468 92.2537 61.89 92.4793C61.3243 92.7039 60.8115 93.0872 60.3516 93.629C59.8918 94.1708 59.5971 94.7391 59.4674 95.3339C59.3444 95.9342 59.3792 96.5094 59.5718 97.0593C59.7766 97.6082 60.1202 98.0874 60.6026 98.4967C61.2766 99.0687 62.0027 99.3382 62.7808 99.3053C63.559 99.2723 64.2761 98.9431 64.932 98.3175L62.1765 95.9791L62.799 95.2456L66.5159 98.4L65.9271 99.0938C65.3919 99.6172 64.7705 99.9878 64.0628 100.206C63.3607 100.417 62.6441 100.451 61.9129 100.308C61.1874 100.158 60.5207 99.8254 59.9128 99.3095C59.2718 98.7655 58.8132 98.1206 58.5369 97.3746C58.2663 96.622 58.2028 95.8463 58.3464 95.0475C58.4967 94.2543 58.8578 93.5207 59.4298 92.8467C60.0018 92.1727 60.6669 91.6971 61.4251 91.4198C62.1955 91.1415 62.9712 91.078 63.7522 91.2293C64.5388 91.374 65.2526 91.7183 65.8935 92.2622C66.627 92.8847 67.1203 93.616 67.3736 94.4561C67.6334 95.3018 67.6118 96.1644 67.3087 97.0438L66.2284 96.127ZM69.9331 105.068L66.92 102.511L65.0611 103.576L64.1096 102.769L72.4366 98.0197L73.4774 98.9029L70.1359 107.883L69.1844 107.076L69.9331 105.068ZM70.2979 104.116L72.0099 99.5672L67.8001 101.996L70.2979 104.116ZM81.3396 105.507L80.7172 106.241L78.8339 104.642L73.5934 110.817L72.6914 110.052L77.9319 103.877L76.0388 102.27L76.6613 101.537L81.3396 105.507ZM81.9744 115.287L78.9612 112.73L77.1023 113.795L76.1508 112.988L84.4779 108.239L85.5186 109.122L82.1772 118.102L81.2256 117.295L81.9744 115.287ZM82.3392 114.335L84.0512 109.786L79.8414 112.215L82.3392 114.335ZM93.9657 116.222L88.065 118.615L85.8527 121.221L84.9508 120.456L87.163 117.849L88.5538 111.629L89.5549 112.479L88.2904 117.425L92.9646 115.373L93.9657 116.222ZM100.24 121.547L94.3767 128.455L93.4747 127.69L96.1328 124.558L92.6141 121.572L89.956 124.704L89.0541 123.938L94.917 117.03L95.819 117.795L93.245 120.828L96.7637 123.814L99.3377 120.781L100.24 121.547ZM101.304 131.692L98.2911 129.134L96.4322 130.2L95.4807 129.392L103.808 124.643L104.849 125.526L101.507 134.507L100.556 133.699L101.304 131.692ZM101.669 130.739L103.381 126.191L99.1713 128.62L101.669 130.739ZM108.027 140.04L107.125 139.275L108.166 130.695L103.498 136.196L102.596 135.43L108.467 128.512L109.369 129.277L108.337 137.847L112.997 132.356L113.899 133.122L108.027 140.04ZM119.847 139.158L120.545 138.336L122.408 139.917L116.327 147.083L115.415 146.309L120.798 139.966L119.847 139.158ZM120.668 147.459C120.414 147.892 120.319 148.312 120.383 148.719C120.454 149.131 120.694 149.511 121.104 149.859C121.652 150.324 122.238 150.451 122.86 150.241C123.489 150.035 124.228 149.418 125.079 148.39C124.687 148.569 124.257 148.607 123.788 148.505C123.324 148.395 122.893 148.172 122.497 147.835C122.054 147.46 121.733 147.034 121.535 146.558C121.348 146.082 121.304 145.584 121.403 145.066C121.502 144.547 121.762 144.04 122.182 143.545C122.783 142.838 123.47 142.443 124.244 142.361C125.024 142.273 125.79 142.548 126.543 143.188C127.469 143.973 127.861 144.823 127.721 145.738C127.587 146.659 127.016 147.715 126.006 148.904C125.3 149.737 124.64 150.359 124.029 150.772C123.423 151.191 122.822 151.39 122.224 151.372C121.632 151.359 121.029 151.091 120.415 150.57C119.741 149.998 119.37 149.37 119.302 148.687C119.233 148.004 119.411 147.359 119.835 146.753L120.668 147.459ZM123.293 147.198C123.736 147.574 124.214 147.747 124.728 147.717C125.248 147.681 125.707 147.428 126.105 146.959C126.526 146.463 126.726 145.946 126.707 145.406C126.687 144.867 126.426 144.384 125.924 143.958C125.461 143.565 124.968 143.397 124.444 143.452C123.926 143.513 123.465 143.781 123.062 144.257C122.652 144.739 122.46 145.241 122.484 145.761C122.508 146.282 122.778 146.761 123.293 147.198ZM135.562 147.346L123.492 156.063L122.6 155.306L134.66 146.58L135.562 147.346ZM129.338 156.881C130.749 156.919 131.875 156.925 132.715 156.9C133.561 156.867 134.345 156.754 135.067 156.56C135.801 156.364 136.362 156.039 136.749 155.583C137.113 155.153 137.294 154.726 137.29 154.302C137.298 153.877 137.071 153.469 136.608 153.076C136.159 152.695 135.688 152.54 135.196 152.611C134.716 152.681 134.267 152.942 133.849 153.394L132.977 152.654C133.631 151.936 134.341 151.556 135.106 151.511C135.871 151.467 136.587 151.728 137.254 152.295C137.935 152.872 138.314 153.518 138.39 154.231C138.474 154.949 138.235 155.639 137.674 156.3C137.209 156.848 136.59 157.243 135.816 157.485C135.055 157.726 134.298 157.868 133.545 157.911C132.798 157.947 131.879 157.952 130.789 157.924L134.198 160.818L133.559 161.571L128.791 157.525L129.338 156.881ZM139.065 157.156C139.627 156.588 140.266 156.311 140.98 156.326C141.695 156.342 142.389 156.635 143.063 157.207C143.512 157.589 143.829 157.999 144.012 158.439C144.208 158.878 144.271 159.307 144.201 159.724C144.137 160.148 143.956 160.534 143.659 160.885C143.312 161.294 142.893 161.547 142.402 161.642C141.919 161.743 141.452 161.677 141.003 161.443L140.961 161.493C141.3 161.963 141.464 162.46 141.452 162.984C141.439 163.507 141.22 164.02 140.794 164.522C140.474 164.899 140.099 165.167 139.669 165.325C139.245 165.476 138.788 165.492 138.299 165.372C137.81 165.253 137.324 164.988 136.841 164.579C136.141 163.984 135.72 163.315 135.579 162.57C135.444 161.818 135.636 161.083 136.155 160.364L137.027 161.105C136.737 161.54 136.624 162.002 136.689 162.488C136.753 162.975 137.017 163.414 137.479 163.807C137.942 164.2 138.393 164.378 138.833 164.342C139.285 164.305 139.673 164.095 139.999 163.711C140.419 163.216 140.557 162.719 140.411 162.22C140.266 161.722 139.86 161.189 139.192 160.623L138.964 160.43L139.604 159.676L139.842 159.878C140.455 160.388 140.998 160.678 141.472 160.75C141.95 160.815 142.364 160.643 142.711 160.234C143.009 159.883 143.131 159.504 143.079 159.097C143.034 158.695 142.8 158.314 142.377 157.955C141.968 157.607 141.547 157.433 141.117 157.431C140.686 157.429 140.297 157.587 139.947 157.905L139.065 157.156Z" fill="#5C5C5C"/>
<path d="M255.74 170.645C255.489 176.071 251.872 180.333 246.558 181.464" stroke="#292D32" stroke-width="2" stroke-linecap="round" stroke-linejoin="round"/>
<path d="M260.276 170.678C259.924 178.327 254.825 184.335 247.335 185.927" stroke="#292D32" stroke-width="2" stroke-linecap="round" stroke-linejoin="round"/>
<path d="M251.741 169.716C251.563 173.697 248.904 176.83 245.005 177.653" stroke="#292D32" stroke-width="2" stroke-linecap="round" stroke-linejoin="round"/>
<path d="M247.261 169.338C247.169 171.332 245.843 172.895 243.89 173.31" stroke="#292D32" stroke-width="2" stroke-linecap="round" stroke-linejoin="round"/>
<defs>
<linearGradient id="paint0_linear_531_4053" x1="102.557" y1="10.994" x2="363.559" y2="84.8828" gradientUnits="userSpaceOnUse">
<stop stop-color="#AFB3B9"/>
<stop offset="0.464" stop-color="#D1D5DC"/>
<stop offset="1" stop-color="#B9BCC2"/>
</linearGradient>
</defs>
</svg>
