<svg width="297" height="274" viewBox="0 0 297 274" fill="none" xmlns="http://www.w3.org/2000/svg">
<rect x="87.7495" width="261" height="146" rx="14" transform="rotate(36.9433 87.7495 0)" fill="url(#paint0_linear_531_4040)"/>
<path d="M84.1363 29.0833C84.7902 28.2138 85.5771 27.5844 86.4971 27.1952C87.4256 26.8123 88.3793 26.6888 89.3584 26.8244C90.3523 26.958 91.2628 27.3357 92.0897 27.9575C93.036 28.6691 93.6994 29.5351 94.08 30.5553C94.4755 31.5734 94.5189 32.6337 94.2103 33.7362L92.4584 32.4188C92.5808 31.7768 92.524 31.1869 92.2879 30.649C92.0517 30.1111 91.6651 29.6402 91.1281 29.2363C90.5398 28.7939 89.9162 28.5318 89.2571 28.4499C88.598 28.368 87.9504 28.4749 87.3143 28.7706C86.6867 29.0727 86.1261 29.552 85.6324 30.2085C85.1388 30.8649 84.8339 31.5365 84.7178 32.2233C84.6103 32.9165 84.6841 33.5726 84.9393 34.1916C85.2009 34.802 85.6259 35.3284 86.2141 35.7708C86.7512 36.1747 87.3109 36.4154 87.8932 36.493C88.4755 36.5705 89.058 36.4614 89.6408 36.1656L91.3927 37.483C90.4191 38.0855 89.3884 38.3381 88.3005 38.2407C87.2212 38.1497 86.2084 37.7484 85.2621 37.0368C84.4266 36.4085 83.8078 35.6429 83.4058 34.74C83.0102 33.8286 82.8674 32.8737 82.9775 31.8754C83.0961 30.8836 83.4823 29.9529 84.1363 29.0833ZM97.1437 36.4226C97.626 36.2248 98.1157 36.1593 98.6127 36.2261C99.1246 36.2908 99.6236 36.5058 100.109 36.8712L98.9748 38.3802L98.6039 38.1013C98.0327 37.6718 97.489 37.4897 96.9726 37.5552C96.4648 37.6271 95.9416 38.0211 95.4031 38.7372L92.6143 42.4456L91.1565 41.3493L96.4552 34.3033L97.913 35.3996L97.1437 36.4226ZM107.706 42.7637L95.5941 49.8714L94.0852 48.7367L98.0946 46.3866L100.532 37.3689L102.156 38.5902L100.099 45.4516L106.197 41.629L107.706 42.7637ZM109.485 45.7231C109.975 45.5851 110.517 45.5655 111.11 45.6644C111.703 45.7633 112.268 46.0147 112.805 46.4186C113.419 46.8802 113.862 47.4535 114.134 48.1387C114.421 48.8217 114.505 49.545 114.384 50.3086C114.264 51.0722 113.938 51.8078 113.406 52.5153C112.873 53.2229 112.251 53.7491 111.538 54.0938C110.831 54.4299 110.104 54.5634 109.355 54.4942C108.621 54.4228 107.947 54.1563 107.334 53.6948C106.797 53.2909 106.399 52.8253 106.142 52.298C105.891 51.7622 105.755 51.233 105.734 50.7103L102.445 55.0837L100.988 53.9874L108.806 43.591L110.264 44.6873L109.485 45.7231ZM111.922 51.3998C112.288 50.9139 112.499 50.4192 112.558 49.9159C112.631 49.4103 112.569 48.9431 112.371 48.514C112.188 48.0828 111.909 47.7262 111.534 47.4441C111.167 47.1685 110.747 46.9994 110.273 46.9369C109.808 46.8809 109.339 46.9549 108.865 47.1591C108.4 47.3697 107.984 47.718 107.619 48.2039C107.254 48.6899 107.031 49.1898 106.952 49.7039C106.887 50.2158 106.946 50.6873 107.129 51.1185C107.32 51.5561 107.599 51.9127 107.966 52.1884C108.341 52.4705 108.761 52.6395 109.226 52.6956C109.706 52.7495 110.182 52.6669 110.654 52.4478C111.134 52.2351 111.557 51.8858 111.922 51.3998ZM118.279 52.5766L115.346 56.4769C115.147 56.7412 115.063 56.9779 115.092 57.187C115.137 57.3939 115.308 57.6096 115.607 57.834L116.502 58.5072L115.588 59.722L114.437 58.8565C113.781 58.3629 113.393 57.8312 113.274 57.2614C113.156 56.6917 113.356 56.0615 113.875 55.371L116.808 51.4708L115.977 50.8457L116.871 49.6564L117.703 50.2815L119.02 48.5296L120.491 49.6355L119.173 51.3874L120.887 52.676L119.992 53.8652L118.279 52.5766ZM119.901 63.1458C119.236 62.6458 118.748 62.0446 118.435 61.3423C118.129 60.6315 118.027 59.8879 118.131 59.1115C118.24 58.3266 118.568 57.5718 119.113 56.8472C119.651 56.1311 120.287 55.6146 121.019 55.2976C121.751 54.9807 122.502 54.8782 123.272 54.9901C124.042 55.102 124.764 55.4112 125.437 55.9177C126.111 56.4242 126.608 57.0317 126.929 57.7404C127.25 58.4491 127.36 59.1991 127.259 59.9904C127.158 60.7818 126.838 61.5355 126.299 62.2516C125.761 62.9677 125.121 63.481 124.381 63.7915C123.64 64.1021 122.873 64.1992 122.079 64.083C121.301 63.9647 120.575 63.6523 119.901 63.1458ZM120.853 61.8798C121.229 62.1619 121.645 62.3352 122.104 62.3998C122.571 62.4708 123.042 62.4042 123.515 62.2C123.989 61.9958 124.419 61.638 124.803 61.1265C125.188 60.615 125.414 60.1107 125.48 59.6138C125.554 59.1082 125.495 58.6442 125.306 58.2215C125.117 57.7989 124.835 57.4465 124.459 57.1644C124.084 56.8824 123.668 56.709 123.209 56.6444C122.759 56.5863 122.305 56.6657 121.849 56.8827C121.398 57.0912 120.981 57.4512 120.596 57.9627C120.025 58.7214 119.775 59.4539 119.844 60.1601C119.929 60.8642 120.265 61.4375 120.853 61.8798ZM130.787 65.5664L130.38 70.8459L128.731 69.6054L129.007 66.0698L125.777 67.384L124.255 66.2397L129.137 64.4859L129.554 59.1936L131.203 60.4342L130.927 63.9698L134.157 62.6556L135.679 63.7999L130.787 65.5664ZM146.301 75.6717C146.715 76.1159 146.93 76.6719 146.949 77.3397C146.967 78.0074 146.778 78.6056 146.38 79.1342C146.04 79.586 145.613 79.9054 145.099 80.0925C144.599 80.2775 144.048 80.3098 143.444 80.1896C142.847 80.0608 142.255 79.7753 141.666 79.3329L138.111 76.6596L144.795 67.7721L148.183 70.3205C148.789 70.7756 149.232 71.269 149.513 71.8006C149.794 72.3321 149.914 72.856 149.872 73.3722C149.838 73.8799 149.66 74.3469 149.339 74.7731C148.955 75.2847 148.498 75.6083 147.968 75.7442C147.439 75.88 146.884 75.8559 146.301 75.6717ZM143.445 72.6024L145.248 73.9583C145.725 74.3173 146.176 74.4896 146.601 74.4752C147.04 74.4587 147.414 74.2459 147.721 73.8367C148.023 73.436 148.12 73.0222 148.014 72.5954C147.923 72.1665 147.639 71.7726 147.161 71.4136L145.358 70.0576L143.445 72.6024ZM142.433 78.0475C142.927 78.4193 143.405 78.5917 143.866 78.5645C144.327 78.5374 144.717 78.3107 145.038 77.8844C145.365 77.4497 145.475 76.9922 145.369 76.5121C145.263 76.0319 144.963 75.6059 144.468 75.2341L142.55 73.7916L140.463 76.5666L142.433 78.0475ZM148.353 78.7964C148.886 78.0888 149.502 77.5712 150.202 77.2435C150.911 76.9223 151.629 76.8016 152.356 76.8815C153.098 76.9592 153.776 77.2289 154.39 77.6905C154.944 78.1072 155.343 78.5803 155.585 79.1096C155.843 79.6369 155.973 80.1555 155.977 80.6653L156.746 79.6423L158.217 80.7482L152.918 87.7942L151.447 86.6883L152.236 85.6397C151.739 85.7863 151.194 85.8101 150.601 85.7112C150.008 85.6124 149.438 85.3578 148.893 84.9475C148.288 84.4923 147.849 83.9221 147.577 83.237C147.311 82.5433 147.237 81.8072 147.355 81.0287C147.489 80.2481 147.821 79.5039 148.353 78.7964ZM154.101 83.1589C154.467 82.673 154.682 82.1741 154.747 81.6622C154.82 81.1567 154.765 80.6883 154.582 80.2571C154.399 79.826 154.12 79.4694 153.745 79.1873C153.37 78.9052 152.95 78.7361 152.485 78.6801C152.026 78.6155 151.56 78.6853 151.086 78.8895C150.627 79.0915 150.215 79.4355 149.85 79.9215C149.484 80.4074 149.262 80.9074 149.182 81.4214C149.111 81.9419 149.164 82.4219 149.34 82.8616C149.532 83.2992 149.811 83.6558 150.177 83.9315C150.552 84.2136 150.972 84.3827 151.437 84.4387C151.902 84.4948 152.368 84.4175 152.833 84.2069C153.313 83.9942 153.736 83.6449 154.101 83.1589ZM157.304 91.2725C156.75 90.8558 156.325 90.3827 156.029 89.8533C155.748 89.3217 155.608 88.7892 155.608 88.2559C155.615 87.7141 155.771 87.2236 156.074 86.7845L157.583 87.9192C157.384 88.2369 157.336 88.5941 157.438 88.9911C157.555 89.3859 157.809 89.7307 158.201 90.0256C158.61 90.3334 158.984 90.4938 159.321 90.5071C159.673 90.5182 159.942 90.4001 160.128 90.1529C160.326 89.8886 160.346 89.5964 160.186 89.2762C160.035 88.9624 159.745 88.5236 159.314 87.9599C158.895 87.4175 158.57 86.953 158.34 86.5666C158.11 86.1802 157.977 85.7534 157.942 85.2861C157.915 84.8253 158.074 84.3647 158.42 83.9043C158.702 83.5292 159.07 83.2716 159.522 83.1313C159.981 82.9826 160.482 82.9726 161.026 83.1013C161.579 83.2364 162.123 83.5059 162.66 83.9098C163.462 84.5124 163.951 85.201 164.13 85.9756C164.323 86.7482 164.174 87.4968 163.682 88.2215L162.224 87.1252C162.436 86.7905 162.497 86.4429 162.408 86.0822C162.319 85.7216 162.078 85.3938 161.686 85.0989C161.302 84.8104 160.954 84.6617 160.64 84.6528C160.327 84.6438 160.08 84.7587 159.901 84.9974C159.759 85.185 159.709 85.394 159.749 85.6244C159.79 85.8549 159.879 86.0822 160.017 86.3064C160.162 86.522 160.385 86.8295 160.685 87.2288C161.094 87.7499 161.406 88.2047 161.621 88.5932C161.851 88.9797 161.982 89.399 162.016 89.8513C162.049 90.3036 161.901 90.7589 161.569 91.2172C161.268 91.6178 160.888 91.8926 160.429 92.0413C159.97 92.19 159.469 92.2001 158.925 92.0714C158.39 91.9491 157.849 91.6828 157.304 91.2725ZM168.406 86.9492C168.142 86.7505 167.987 86.4943 167.943 86.1807C167.899 85.867 167.976 85.578 168.174 85.3137C168.373 85.0495 168.629 84.8951 168.943 84.8507C169.257 84.8063 169.546 84.8835 169.81 85.0822C170.066 85.2746 170.216 85.5276 170.26 85.8412C170.305 86.1549 170.227 86.4438 170.029 86.7081C169.83 86.9724 169.574 87.1267 169.26 87.1711C168.946 87.2155 168.662 87.1416 168.406 86.9492ZM168.42 88.4213L163.121 95.4673L161.664 94.371L166.962 87.325L168.42 88.4213ZM167.204 93.0118C167.748 92.2871 168.371 91.761 169.071 91.4334C169.786 91.1036 170.516 90.9851 171.26 91.0778C172.005 91.1704 172.714 91.47 173.387 91.9765C174.24 92.6176 174.789 93.3511 175.036 94.177C175.297 95.0008 175.244 95.8615 174.876 96.7592L173.303 95.5764C173.438 95.1307 173.438 94.704 173.304 94.2964C173.17 93.8887 172.89 93.5246 172.464 93.2041C171.867 92.7553 171.23 92.6095 170.551 92.7664C169.887 92.9213 169.27 93.3781 168.7 94.1369C168.129 94.8956 167.858 95.6195 167.887 96.3086C167.925 97.0042 168.242 97.5763 168.839 98.0251C169.683 98.6597 170.52 98.7088 171.351 98.1723L172.923 99.3551C172.18 99.9173 171.367 100.2 170.484 100.203C169.607 100.198 168.751 99.8809 167.916 99.2527C167.242 98.7462 166.758 98.1483 166.462 97.4588C166.173 96.7608 166.084 96.0269 166.196 95.2569C166.323 94.4848 166.659 93.7364 167.204 93.0118Z" fill="#0F0F0F"/>
<path d="M28.9722 102.503L29.8473 101.339L32.1747 103.089L26.0406 111.246L24.7538 110.279L30.0128 103.285L28.9722 102.503ZM29.8021 111.36C30.9838 111.279 31.9284 111.195 32.636 111.109C33.3567 111.02 34.0177 110.863 34.619 110.638C35.2204 110.413 35.6837 110.084 36.0091 109.651C36.3456 109.204 36.5011 108.772 36.4755 108.355C36.4574 107.945 36.2208 107.568 35.7658 107.226C35.3257 106.895 34.876 106.779 34.4166 106.877C33.9704 106.974 33.5631 107.251 33.1948 107.71L31.9639 106.784C32.6258 105.951 33.3675 105.493 34.1889 105.41C35.0234 105.325 35.8174 105.566 36.5708 106.132C37.3839 106.744 37.8496 107.444 37.9681 108.234C38.094 109.03 37.8765 109.8 37.3155 110.546C36.9116 111.083 36.3838 111.498 35.7319 111.79C35.0932 112.081 34.4349 112.28 33.7572 112.39C33.0925 112.497 32.2757 112.589 31.3068 112.666L30.4667 112.735L34.0137 115.403L33.2143 116.466L27.7764 112.376L28.4748 111.448L29.8021 111.36ZM38.8479 111.261C39.4143 110.6 40.0858 110.259 40.8624 110.236C41.6464 110.218 42.4189 110.495 43.1797 111.067C43.7019 111.46 44.0831 111.893 44.3233 112.365C44.5635 112.838 44.6599 113.307 44.6127 113.774C44.5654 114.241 44.3903 114.675 44.0874 115.078C43.7396 115.541 43.3192 115.843 42.8262 115.986C42.3332 116.13 41.8731 116.128 41.4458 115.982L41.4122 116.027C41.7513 116.492 41.9093 116.996 41.8862 117.539C41.8687 118.075 41.6524 118.619 41.2373 119.171C40.9064 119.611 40.5112 119.927 40.0517 120.119C39.5923 120.31 39.0891 120.358 38.5423 120.262C38.0011 120.159 37.4545 119.9 36.9025 119.484C36.0969 118.879 35.5873 118.174 35.3736 117.371C35.1731 116.567 35.3458 115.762 35.8919 114.958L37.1227 115.884C36.8553 116.302 36.7642 116.741 36.8495 117.202C36.9403 117.656 37.2208 118.06 37.6907 118.413C38.1457 118.755 38.5889 118.896 39.0202 118.835C39.4571 118.766 39.8242 118.534 40.1215 118.139C40.5141 117.617 40.624 117.121 40.451 116.653C40.291 116.182 39.8679 115.689 39.1817 115.173L38.8907 114.954L39.6817 113.902L39.9838 114.129C40.5936 114.576 41.1281 114.82 41.5873 114.862C42.0539 114.909 42.4442 114.724 42.7584 114.306C43.0276 113.948 43.1252 113.578 43.051 113.195C42.9824 112.805 42.7356 112.45 42.3104 112.13C41.8926 111.816 41.4868 111.68 41.0929 111.723C40.7046 111.758 40.3702 111.915 40.0899 112.195L38.8479 111.261ZM42.0167 120.598L42.7403 119.635L50.5556 117.069L52.0997 118.231L48.1534 123.478L49.194 124.261L48.361 125.369L47.3204 124.586L46.0414 126.287L44.7882 125.344L46.0672 123.644L42.0167 120.598ZM49.9264 118.628L44.3155 120.592L46.9562 122.578L49.9264 118.628ZM56.1367 122.931L57.0118 121.767L59.3391 123.517L53.2051 131.674L51.9183 130.706L57.1773 123.713L56.1367 122.931ZM56.9665 131.788C58.1482 131.707 59.0929 131.623 59.8005 131.536C60.5211 131.448 61.1821 131.291 61.7835 131.066C62.3848 130.841 62.8482 130.512 63.1735 130.079C63.5101 129.632 63.6656 129.2 63.64 128.783C63.6219 128.373 63.3853 127.996 62.9302 127.654C62.4901 127.323 62.0404 127.207 61.5811 127.305C61.1348 127.402 60.7275 127.679 60.3592 128.138L59.1284 127.212C59.7903 126.379 60.5319 125.92 61.3534 125.838C62.1879 125.753 62.9818 125.994 63.7352 126.56C64.5483 127.172 65.0141 127.872 65.1325 128.662C65.2585 129.457 65.0409 130.228 64.48 130.974C64.0761 131.511 63.5482 131.926 62.8964 132.218C62.2576 132.508 61.5994 132.708 60.9216 132.817C60.2569 132.925 59.4402 133.017 58.4713 133.094L57.6312 133.163L61.1782 135.831L60.3788 136.894L54.9408 132.804L55.6392 131.875L56.9665 131.788ZM66.0123 131.688C66.5788 131.028 67.2503 130.687 68.0268 130.663C68.8109 130.646 69.5833 130.923 70.3442 131.495C70.8663 131.888 71.2475 132.32 71.4877 132.793C71.7279 133.266 71.8244 133.735 71.7771 134.202C71.7298 134.668 71.5548 135.103 71.2518 135.506C70.904 135.968 70.4837 136.271 69.9907 136.414C69.4977 136.557 69.0376 136.556 68.6103 136.41L68.5766 136.454C68.9158 136.92 69.0738 137.424 69.0507 137.967C69.0332 138.503 68.8169 139.047 68.4018 139.599C68.0708 140.039 67.6756 140.355 67.2162 140.546C66.7567 140.738 66.2536 140.786 65.7068 140.69C65.1656 140.587 64.619 140.327 64.067 139.912C63.2614 139.306 62.7517 138.602 62.5381 137.799C62.3375 136.994 62.5103 136.19 63.0564 135.386L64.2872 136.312C64.0197 136.73 63.9286 137.169 64.0139 137.63C64.1048 138.084 64.3852 138.487 64.8552 138.841C65.3102 139.183 65.7533 139.324 66.1846 139.263C66.6215 139.194 66.9886 138.962 67.2859 138.567C67.6786 138.045 67.7884 137.549 67.6154 137.08C67.4555 136.61 67.0324 136.116 66.3461 135.6L66.0552 135.382L66.8461 134.33L67.1483 134.557C67.7581 135.004 68.2926 135.248 68.7517 135.29C69.2183 135.337 69.6087 135.152 69.9228 134.734C70.1921 134.376 70.2896 134.006 70.2155 133.623C70.1469 133.233 69.9 132.878 69.4748 132.558C69.0571 132.244 68.6513 132.108 68.2573 132.15C67.869 132.185 67.5347 132.343 67.2543 132.622L66.0123 131.688ZM69.1812 141.026L69.9048 140.063L77.7201 137.497L79.2642 138.658L75.3179 143.906L76.3585 144.689L75.5255 145.796L74.4849 145.014L73.2059 146.715L71.9527 145.772L73.2317 144.072L69.1812 141.026ZM77.0909 139.056L71.48 141.02L74.1206 143.006L77.0909 139.056ZM83.3011 143.358L84.1762 142.195L86.5036 143.945L80.3695 152.102L79.0828 151.134L84.3417 144.141L83.3011 143.358ZM84.131 152.215C85.3127 152.135 86.2573 152.051 86.9649 151.964C87.6856 151.875 88.3466 151.719 88.9479 151.494C89.5493 151.268 90.0126 150.94 90.338 150.507C90.6746 150.059 90.83 149.627 90.8044 149.211C90.7863 148.8 90.5497 148.424 90.0947 148.082C89.6546 147.751 89.2049 147.635 88.7455 147.733C88.2993 147.829 87.892 148.107 87.5237 148.566L86.2929 147.64C86.9547 146.807 87.6964 146.348 88.5178 146.265C89.3523 146.181 90.1463 146.421 90.8997 146.988C91.7128 147.599 92.1786 148.3 92.297 149.09C92.4229 149.885 92.2054 150.656 91.6444 151.402C91.2406 151.939 90.7127 152.354 90.0608 152.646C89.4221 152.936 88.7638 153.136 88.0861 153.245C87.4214 153.353 86.6046 153.445 85.6357 153.522L84.7956 153.591L88.3426 156.258L87.5433 157.321L82.1053 153.232L82.8037 152.303L84.131 152.215ZM93.1768 152.116C93.7432 151.456 94.4147 151.114 95.1913 151.091C95.9753 151.073 96.7478 151.351 97.5086 151.923C98.0308 152.316 98.412 152.748 98.6522 153.221C98.8924 153.693 98.9888 154.163 98.9416 154.63C98.8943 155.096 98.7192 155.531 98.4163 155.934C98.0685 156.396 97.6481 156.699 97.1551 156.842C96.6622 156.985 96.202 156.984 95.7747 156.838L95.7411 156.882C96.0802 157.348 96.2382 157.852 96.2151 158.395C96.1977 158.931 95.9814 159.474 95.5663 160.026C95.2353 160.467 94.8401 160.782 94.3806 160.974C93.9212 161.166 93.4181 161.214 92.8713 161.118C92.33 161.014 91.7834 160.755 91.2314 160.34C90.4258 159.734 89.9162 159.03 89.7026 158.227C89.502 157.422 89.6747 156.618 90.2208 155.814L91.4517 156.74C91.1842 157.157 91.0931 157.597 91.1784 158.058C91.2693 158.512 91.5497 158.915 92.0196 159.269C92.4746 159.611 92.9178 159.751 93.3491 159.69C93.786 159.622 94.1531 159.39 94.4504 158.995C94.843 158.472 94.9529 157.977 94.7799 157.508C94.6199 157.038 94.1968 156.544 93.5106 156.028L93.2197 155.809L94.0106 154.758L94.3127 154.985C94.9225 155.432 95.457 155.676 95.9162 155.718C96.3828 155.765 96.7732 155.58 97.0873 155.162C97.3565 154.804 97.4541 154.434 97.3799 154.051C97.3113 153.661 97.0645 153.306 96.6393 152.986C96.2215 152.672 95.8157 152.536 95.4218 152.578C95.0335 152.613 94.6992 152.771 94.4188 153.05L93.1768 152.116ZM96.3456 161.453L97.0693 160.491L104.885 157.925L106.429 159.086L102.482 164.334L103.523 165.117L102.69 166.224L101.649 165.442L100.37 167.143L99.1171 166.2L100.396 164.499L96.3456 161.453ZM104.255 159.484L98.6444 161.448L101.285 163.434L104.255 159.484ZM110.466 163.786L111.341 162.622L113.668 164.373L107.534 172.53L106.247 171.562L111.506 164.569L110.466 163.786ZM111.295 172.643C112.477 172.563 113.422 172.479 114.129 172.392C114.85 172.303 115.511 172.146 116.112 171.921C116.714 171.696 117.177 171.367 117.502 170.935C117.839 170.487 117.995 170.055 117.969 169.639C117.951 169.228 117.714 168.852 117.259 168.51C116.819 168.179 116.369 168.062 115.91 168.161C115.464 168.257 115.056 168.535 114.688 168.993L113.457 168.068C114.119 167.234 114.861 166.776 115.682 166.693C116.517 166.608 117.311 166.849 118.064 167.416C118.877 168.027 119.343 168.728 119.461 169.518C119.587 170.313 119.37 171.084 118.809 171.83C118.405 172.367 117.877 172.781 117.225 173.074C116.587 173.364 115.928 173.564 115.251 173.673C114.586 173.78 113.769 173.873 112.8 173.95L111.96 174.019L115.507 176.686L114.708 177.749L109.27 173.66L109.968 172.731L111.295 172.643ZM120.341 172.544C120.908 171.884 121.579 171.542 122.356 171.519C123.14 171.501 123.912 171.779 124.673 172.351C125.195 172.743 125.576 173.176 125.817 173.649C126.057 174.121 126.153 174.591 126.106 175.057C126.059 175.524 125.884 175.959 125.581 176.362C125.233 176.824 124.813 177.127 124.32 177.27C123.827 177.413 123.366 177.411 122.939 177.265L122.906 177.31C123.245 177.775 123.403 178.28 123.38 178.823C123.362 179.358 123.146 179.902 122.731 180.454C122.4 180.894 122.005 181.21 121.545 181.402C121.086 181.594 120.583 181.641 120.036 181.546C119.495 181.442 118.948 181.183 118.396 180.768C117.59 180.162 117.081 179.458 116.867 178.655C116.666 177.85 116.839 177.046 117.385 176.242L118.616 177.167C118.349 177.585 118.258 178.025 118.343 178.486C118.434 178.94 118.714 179.343 119.184 179.697C119.639 180.039 120.082 180.179 120.514 180.118C120.95 180.05 121.318 179.818 121.615 179.422C122.008 178.9 122.117 178.405 121.944 177.936C121.784 177.465 121.361 176.972 120.675 176.456L120.384 176.237L121.175 175.185L121.477 175.413C122.087 175.86 122.621 176.104 123.081 176.145C123.547 176.193 123.938 176.008 124.252 175.59C124.521 175.232 124.619 174.861 124.544 174.479C124.476 174.088 124.229 173.733 123.804 173.414C123.386 173.099 122.98 172.964 122.586 173.006C122.198 173.041 121.864 173.198 121.583 173.478L120.341 172.544ZM123.51 181.881L124.234 180.919L132.049 178.353L133.593 179.514L129.647 184.762L130.687 185.544L129.854 186.652L128.814 185.87L127.535 187.57L126.282 186.628L127.561 184.927L123.51 181.881ZM131.42 179.912L125.809 181.876L128.45 183.861L131.42 179.912Z" fill="#0F0F0F"/>
<path d="M43.212 83.4483C43.7433 82.7418 44.3792 82.2278 45.1197 81.9064C45.8655 81.578 46.6318 81.4602 47.4186 81.5531C48.2123 81.6512 48.9451 81.9529 49.617 82.4581C50.4067 83.0519 50.9526 83.7607 51.2549 84.5844C51.5572 85.4081 51.5803 86.2714 51.3244 87.1741L50.1919 86.3225C50.3192 85.735 50.2809 85.1803 50.077 84.6583C49.8801 84.1415 49.5184 83.6852 48.992 83.2893C48.4863 82.9091 47.9441 82.6856 47.3652 82.619C46.7864 82.5524 46.2186 82.6514 45.6618 82.9159C45.1103 83.1734 44.6158 83.5931 44.1782 84.175C43.7459 84.7499 43.4799 85.3415 43.3804 85.9497C43.286 86.5511 43.3511 87.1206 43.5758 87.6582C43.8004 88.1958 44.1656 88.6547 44.6712 89.035C45.1976 89.4309 45.7338 89.6552 46.2797 89.7079C46.8378 89.7588 47.3814 89.6417 47.9104 89.3563L49.0429 90.208C48.2519 90.6975 47.4187 90.9114 46.5435 90.8496C45.6734 90.7809 44.8436 90.4496 44.0539 89.8558C43.3821 89.3505 42.8862 88.7337 42.5665 88.0053C42.2589 87.2752 42.1568 86.5098 42.2601 85.7091C42.3634 84.9084 42.6807 84.1548 43.212 83.4483ZM54.356 94.9842L51.1974 92.609L49.4045 93.7819L48.4071 93.0318L56.44 87.8005L57.5309 88.6209L54.7242 97.7823L53.7267 97.0322L54.356 94.9842ZM54.664 94.0122L56.1052 89.3704L52.0457 92.0432L54.664 94.0122ZM65.2188 97.6228C65.3357 97.0492 65.2896 96.5049 65.0805 95.9898C64.8766 95.4678 64.5219 95.0167 64.0162 94.6364C63.5106 94.2562 62.9649 94.0302 62.3791 93.9583C61.8055 93.8848 61.2368 93.9777 60.6731 94.237C60.1216 94.4945 59.6323 94.9073 59.2052 95.4753C58.778 96.0433 58.5173 96.6279 58.4229 97.2293C58.3355 97.8358 58.4041 98.4079 58.6287 98.9455C58.8655 99.4814 59.2367 99.9395 59.7423 100.32C60.4489 100.851 61.1896 101.077 61.9645 100.999C62.7394 100.92 63.4358 100.549 64.0537 99.8859L61.1653 97.7138L61.7435 96.9449L65.6397 99.8749L65.0928 100.602C64.5894 101.156 63.9909 101.563 63.2972 101.822C62.6088 102.074 61.8954 102.15 61.1571 102.051C60.4241 101.944 59.7389 101.651 59.1017 101.172C58.4298 100.666 57.934 100.05 57.6142 99.3212C57.2997 98.5859 57.1906 97.8153 57.287 97.0094C57.3903 96.2088 57.7076 95.4552 58.2389 94.7486C58.7702 94.0421 59.4061 93.5281 60.1467 93.2067C60.8993 92.8835 61.67 92.7744 62.4585 92.8794C63.2522 92.9775 63.985 93.2792 64.6569 93.7845C65.4258 94.3627 65.9614 95.0636 66.2636 95.8873C66.5728 96.7163 66.6021 97.5786 66.3513 98.4744L65.2188 97.6228ZM69.4438 106.33L66.2852 103.955L64.4923 105.128L63.4949 104.378L71.5278 99.1466L72.6187 99.967L69.812 109.128L68.8146 108.378L69.4438 106.33ZM69.7518 105.358L71.193 100.717L67.1335 103.389L69.7518 105.358ZM80.8563 106.097L80.2781 106.865L78.304 105.381L73.4363 111.854L72.4908 111.143L77.3585 104.67L75.374 103.178L75.9522 102.409L80.8563 106.097ZM82.066 115.822L78.9074 113.447L77.1145 114.62L76.1171 113.87L84.15 108.639L85.241 109.459L82.4342 118.62L81.4368 117.87L82.066 115.822ZM82.374 114.85L83.8152 110.209L79.7558 112.881L82.374 114.85ZM94.0915 116.05L88.342 118.785L86.2871 121.518L85.3416 120.807L87.3965 118.074L88.4186 111.783L89.468 112.573L88.497 117.584L93.0421 115.26L94.0915 116.05ZM100.668 120.995L95.2223 128.237L94.2769 127.526L96.7459 124.243L93.0574 121.469L90.5884 124.752L89.6429 124.041L95.0888 116.8L96.0343 117.511L93.6434 120.69L97.3319 123.464L99.7227 120.284L100.668 120.995ZM102.329 131.06L99.17 128.685L97.377 129.857L96.3796 129.107L104.413 123.876L105.503 124.696L102.697 133.858L101.699 133.108L102.329 131.06ZM102.637 130.088L104.078 125.446L100.018 128.119L102.637 130.088ZM109.532 138.998L108.586 138.287L109.12 129.661L104.783 135.427L103.838 134.716L109.292 127.464L110.237 128.175L109.711 136.791L114.04 131.034L114.985 131.745L109.532 138.998ZM118.509 135.338L119.157 134.476L121.11 135.945L115.461 143.457L114.506 142.738L119.506 136.089L118.509 135.338ZM121.395 141.803C121.121 141.359 120.99 140.913 121.001 140.466C121.012 140.019 121.174 139.588 121.487 139.172C121.768 138.798 122.114 138.532 122.525 138.375C122.941 138.211 123.398 138.18 123.895 138.283C124.405 138.384 124.923 138.633 125.449 139.029C125.976 139.425 126.355 139.851 126.586 140.307C126.83 140.761 126.931 141.211 126.889 141.657C126.859 142.1 126.703 142.509 126.422 142.883C126.12 143.285 125.747 143.558 125.303 143.701C124.864 143.837 124.403 143.837 123.92 143.702C124.25 144.156 124.415 144.643 124.414 145.163C124.426 145.682 124.257 146.173 123.908 146.637C123.569 147.087 123.162 147.399 122.685 147.571C122.213 147.737 121.703 147.76 121.153 147.64C120.616 147.518 120.084 147.259 119.558 146.863C119.031 146.467 118.635 146.028 118.369 145.546C118.115 145.062 118.002 144.57 118.03 144.071C118.064 143.565 118.25 143.087 118.588 142.637C118.937 142.173 119.361 141.868 119.861 141.723C120.36 141.578 120.872 141.605 121.395 141.803ZM125.422 142.31C125.739 141.887 125.846 141.458 125.74 141.021C125.635 140.584 125.34 140.183 124.855 139.818C124.377 139.459 123.914 139.289 123.465 139.31C123.016 139.33 122.63 139.555 122.307 139.984C122.015 140.372 121.923 140.791 122.03 141.24C122.144 141.694 122.429 142.093 122.886 142.437C123.35 142.786 123.813 142.949 124.274 142.927C124.747 142.904 125.13 142.698 125.422 142.31ZM122.339 143.164C121.827 142.779 121.317 142.585 120.809 142.582C120.306 142.573 119.875 142.807 119.516 143.285C119.182 143.728 119.07 144.202 119.178 144.707C119.294 145.217 119.618 145.672 120.152 146.073C120.685 146.474 121.209 146.657 121.724 146.621C122.239 146.585 122.663 146.346 122.996 145.903C123.345 145.439 123.452 144.966 123.315 144.483C123.184 143.994 122.859 143.555 122.339 143.164ZM134.689 142.594L123.153 152.007L122.218 151.303L133.743 141.883L134.689 142.594ZM132.891 150.448C132.617 150.004 132.486 149.558 132.497 149.111C132.508 148.664 132.67 148.233 132.982 147.817C133.264 147.443 133.61 147.177 134.021 147.02C134.437 146.856 134.894 146.825 135.391 146.928C135.901 147.029 136.419 147.278 136.945 147.674C137.472 148.07 137.851 148.496 138.082 148.952C138.326 149.406 138.427 149.856 138.385 150.302C138.355 150.745 138.199 151.154 137.918 151.528C137.616 151.93 137.243 152.203 136.799 152.346C136.36 152.482 135.899 152.482 135.415 152.347C135.746 152.801 135.911 153.288 135.91 153.808C135.922 154.327 135.753 154.818 135.404 155.282C135.065 155.732 134.658 156.044 134.181 156.216C133.709 156.382 133.199 156.405 132.649 156.285C132.112 156.163 131.58 155.904 131.054 155.508C130.527 155.112 130.131 154.673 129.865 154.191C129.611 153.707 129.498 153.215 129.526 152.716C129.56 152.21 129.746 151.732 130.084 151.282C130.433 150.818 130.857 150.513 131.357 150.368C131.856 150.223 132.368 150.25 132.891 150.448ZM136.917 150.955C137.235 150.532 137.342 150.103 137.236 149.666C137.131 149.229 136.836 148.828 136.351 148.463C135.873 148.104 135.41 147.934 134.961 147.955C134.512 147.975 134.126 148.2 133.803 148.629C133.511 149.017 133.419 149.436 133.526 149.885C133.64 150.339 133.925 150.738 134.382 151.082C134.846 151.431 135.309 151.594 135.77 151.572C136.243 151.549 136.626 151.343 136.917 150.955ZM133.835 151.809C133.323 151.424 132.813 151.23 132.305 151.227C131.802 151.218 131.371 151.452 131.012 151.93C130.678 152.374 130.566 152.847 130.674 153.352C130.79 153.862 131.114 154.317 131.648 154.718C132.181 155.119 132.705 155.302 133.22 155.266C133.735 155.231 134.159 154.991 134.492 154.548C134.841 154.084 134.948 153.611 134.811 153.128C134.68 152.64 134.355 152.2 133.835 151.809ZM139.887 151.415L140.536 150.553L142.489 152.022L136.84 159.534L135.884 158.815L140.885 152.165L139.887 151.415Z" fill="#5C5C5C"/>
<path d="M258.791 160.851C258.86 166.283 255.5 170.751 250.262 172.192" stroke="#292D32" stroke-width="2" stroke-linecap="round" stroke-linejoin="round"/>
<path d="M263.321 160.617C263.419 168.273 258.683 174.571 251.301 176.602" stroke="#292D32" stroke-width="2" stroke-linecap="round" stroke-linejoin="round"/>
<path d="M254.744 160.16C254.801 164.144 252.331 167.429 248.487 168.48" stroke="#292D32" stroke-width="2" stroke-linecap="round" stroke-linejoin="round"/>
<path d="M250.25 160.046C250.275 162.042 249.043 163.68 247.118 164.21" stroke="#292D32" stroke-width="2" stroke-linecap="round" stroke-linejoin="round"/>
<defs>
<linearGradient id="paint0_linear_531_4040" x1="95.8368" y1="10.994" x2="356.839" y2="84.8828" gradientUnits="userSpaceOnUse">
<stop stop-color="#7B66FF"/>
<stop offset="0.464" stop-color="#F5F0FF"/>
<stop offset="1" stop-color="#806BFF"/>
</linearGradient>
</defs>
</svg>
