<svg width="293" height="294" viewBox="0 0 293 294" fill="none" xmlns="http://www.w3.org/2000/svg">
<path opacity="0.1" d="M272 147C284.15 147 294.169 137.096 292.357 125.081C288.536 99.7436 278.134 75.7085 262.019 55.4599C241.312 29.4419 212.396 11.2131 179.992 3.75013C147.588 -3.71286 113.611 0.0309613 83.6096 14.3702C53.608 28.7095 29.3543 52.797 14.8092 82.6993C0.263978 112.602 -3.71334 146.552 3.5267 179.006C10.7667 211.461 28.7963 240.502 54.6713 261.387C80.5464 282.272 112.738 293.768 145.989 293.997C171.867 294.174 197.197 287.52 219.489 274.884C230.06 268.893 231.667 254.897 224.166 245.338L209.888 227.142C202.387 217.584 188.596 216.258 177.358 220.876C167.621 224.877 157.122 226.942 146.451 226.869C128.384 226.745 110.893 220.499 96.8343 209.151C82.7755 197.803 72.9793 182.024 69.0455 164.39C65.1117 146.757 67.2727 128.31 75.1757 112.063C83.0786 95.8159 96.2566 82.7283 112.558 74.9372C128.859 67.1461 147.32 65.112 164.926 69.1669C182.532 73.2218 198.243 83.1262 209.494 97.2628C216.139 105.612 220.997 115.147 223.86 125.277C227.165 136.969 236.72 147 248.871 147H272Z" fill="url(#paint0_linear_586_3842)"/>
<defs>
<linearGradient id="paint0_linear_586_3842" x1="0" y1="147" x2="294" y2="147" gradientUnits="userSpaceOnUse">
<stop stop-color="#573CFF"/>
<stop offset="1" stop-color="#342499" stop-opacity="0"/>
</linearGradient>
</defs>
</svg>
