<svg width="511" height="121" viewBox="0 0 511 121" fill="none" xmlns="http://www.w3.org/2000/svg">
<path opacity="0.07" d="M48.2063 46.04C52.9263 46.92 56.8063 49.28 59.8463 53.12C62.8863 56.96 64.4063 61.36 64.4063 66.32C64.4063 70.8 63.2863 74.76 61.0463 78.2C58.8863 81.56 55.7263 84.2 51.5663 86.12C47.4063 88.04 42.4863 89 36.8063 89H0.686251V5.24H35.2463C40.9263 5.24 45.8063 6.16 49.8863 8C54.0463 9.84 57.1663 12.4 59.2463 15.68C61.4063 18.96 62.4863 22.68 62.4863 26.84C62.4863 31.72 61.1663 35.8 58.5262 39.08C55.9663 42.36 52.5263 44.68 48.2063 46.04ZM17.4863 39.8H32.8463C36.8463 39.8 39.9263 38.92 42.0863 37.16C44.2463 35.32 45.3263 32.72 45.3263 29.36C45.3263 26 44.2463 23.4 42.0863 21.56C39.9263 19.72 36.8463 18.8 32.8463 18.8H17.4863V39.8ZM34.4063 75.32C38.4863 75.32 41.6463 74.36 43.8863 72.44C46.2063 70.52 47.3663 67.8 47.3663 64.28C47.3663 60.68 46.1663 57.88 43.7663 55.88C41.3663 53.8 38.1263 52.76 34.0463 52.76H17.4863V75.32H34.4063ZM140.556 22.52V89H123.636V80.6C121.476 83.48 118.636 85.76 115.116 87.44C111.676 89.04 107.916 89.84 103.836 89.84C98.6356 89.84 94.0356 88.76 90.0356 86.6C86.0356 84.36 82.8756 81.12 80.5556 76.88C78.3156 72.56 77.1956 67.44 77.1956 61.52V22.52H93.9956V59.12C93.9956 64.4 95.3156 68.48 97.9556 71.36C100.596 74.16 104.196 75.56 108.756 75.56C113.396 75.56 117.036 74.16 119.676 71.36C122.316 68.48 123.636 64.4 123.636 59.12V22.52H140.556ZM173.932 0.199999V89H157.132V0.199999H173.932ZM207.33 0.199999V89H190.53V0.199999H207.33ZM300.042 46.04C304.762 46.92 308.642 49.28 311.682 53.12C314.722 56.96 316.242 61.36 316.242 66.32C316.242 70.8 315.122 74.76 312.882 78.2C310.722 81.56 307.562 84.2 303.402 86.12C299.242 88.04 294.322 89 288.642 89H252.522V5.24H287.082C292.762 5.24 297.642 6.16 301.722 8C305.882 9.84 309.002 12.4 311.082 15.68C313.242 18.96 314.322 22.68 314.322 26.84C314.322 31.72 313.002 35.8 310.362 39.08C307.802 42.36 304.362 44.68 300.042 46.04ZM269.322 39.8H284.682C288.682 39.8 291.762 38.92 293.922 37.16C296.082 35.32 297.162 32.72 297.162 29.36C297.162 26 296.082 23.4 293.922 21.56C291.762 19.72 288.682 18.8 284.682 18.8H269.322V39.8ZM286.242 75.32C290.322 75.32 293.482 74.36 295.722 72.44C298.042 70.52 299.202 67.8 299.202 64.28C299.202 60.68 298.002 57.88 295.602 55.88C293.202 53.8 289.962 52.76 285.882 52.76H269.322V75.32H286.242ZM393.232 22.52L352.072 120.44H334.192L348.592 87.32L321.952 22.52H340.792L357.952 68.96L375.352 22.52H393.232ZM421.848 36.32V68.48C421.848 70.72 422.368 72.36 423.408 73.4C424.528 74.36 426.368 74.84 428.928 74.84H436.728V89H426.168C412.008 89 404.928 82.12 404.928 68.36V36.32H397.008V22.52H404.928V6.07999H421.848V22.52H436.728V36.32H421.848ZM510.611 54.32C510.611 56.72 510.451 58.88 510.131 60.8H461.531C461.931 65.6 463.611 69.36 466.571 72.08C469.531 74.8 473.171 76.16 477.491 76.16C483.731 76.16 488.171 73.48 490.811 68.12H508.931C507.011 74.52 503.331 79.8 497.891 83.96C492.451 88.04 485.771 90.08 477.851 90.08C471.451 90.08 465.691 88.68 460.571 85.88C455.531 83 451.571 78.96 448.691 73.76C445.891 68.56 444.491 62.56 444.491 55.76C444.491 48.88 445.891 42.84 448.691 37.64C451.491 32.44 455.411 28.44 460.451 25.64C465.491 22.84 471.291 21.44 477.851 21.44C484.171 21.44 489.811 22.8 494.771 25.52C499.811 28.24 503.691 32.12 506.411 37.16C509.211 42.12 510.611 47.84 510.611 54.32ZM493.211 49.52C493.131 45.2 491.571 41.76 488.531 39.2C485.491 36.56 481.771 35.24 477.371 35.24C473.211 35.24 469.691 36.52 466.811 39.08C464.011 41.56 462.291 45.04 461.651 49.52H493.211Z" fill="#8D82D2"/>
</svg>
