<svg width="22" height="22" viewBox="0 0 22 22" fill="none" xmlns="http://www.w3.org/2000/svg">
<path d="M7.56828 0.547231L7.56804 0.547318C2.03588 2.58835 -0.843811 8.70863 1.11374 14.2729C2.87633 19.2827 7.96358 22.2895 13.1997 21.3183C17.2182 20.5728 19.9469 18.2205 21.4604 14.4014C21.5004 14.2996 21.5029 14.238 21.4983 14.2044C21.4946 14.1777 21.4833 14.1396 21.4305 14.0847C21.3813 14.0336 21.3456 14.0218 21.3177 14.0173C21.2812 14.0115 21.2164 14.0134 21.1119 14.05C21.1118 14.05 21.1117 14.0501 21.1116 14.0501L20.946 13.5783C19.9008 13.9459 18.8232 14.1281 17.715 14.1116L7.56828 0.547231ZM7.56828 0.547231C7.68886 0.502676 7.76085 0.49684 7.80147 0.501208M7.56828 0.547231L7.80147 0.501208M10.0441 11.1976C11.8034 13.2104 14.0836 14.3042 16.7264 14.5754L16.7274 14.5755C16.7492 14.5777 16.7745 14.5805 16.8023 14.5836C16.895 14.594 17.0153 14.6074 17.1273 14.6108L17.1295 14.6108C17.2683 14.6144 17.4128 14.6134 17.5469 14.6124C17.604 14.612 17.6593 14.6116 17.7114 14.6116L7.91555 0.563234C7.96486 0.611041 7.97474 0.64387 7.97873 0.67378C7.98459 0.717718 7.98004 0.793408 7.93998 0.920801L7.93996 0.920875C6.74711 4.71653 7.41823 8.1937 10.0441 11.1976ZM10.0441 11.1976L10.4206 10.8685L10.0441 11.1976ZM7.80147 0.501208C7.82958 0.504231 7.86394 0.513222 7.91553 0.56322L7.80147 0.501208Z" fill="white" stroke="white"/>
</svg>
