<svg width="27" height="20" viewBox="0 0 27 20" fill="none" xmlns="http://www.w3.org/2000/svg">
<path d="M13.0425 8.13893C16.7893 8.13893 20.536 8.13791 24.2828 8.13994C25.1338 8.13994 25.6595 8.45006 25.9086 9.07943C26.3763 10.266 25.6534 11.3641 24.3784 11.3753C22.8797 11.3885 21.381 11.3783 19.8823 11.3783C13.8874 11.3783 7.8926 11.3794 1.89776 11.3763C1.65781 11.3763 1.40972 11.3794 1.17891 11.3255C0.414306 11.1475 -0.0554381 10.45 0.0147185 9.63458C0.089959 8.76525 0.633927 8.20298 1.46056 8.1491C1.62527 8.13791 1.791 8.13994 1.95572 8.13994C5.65064 8.13893 9.34657 8.13893 13.0425 8.13893Z" fill="#967DB9"/>
<path d="M17.9236 0.00187963C20.07 0.00187963 22.2164 -0.00218853 24.3628 0.00391204C25.59 0.00696233 26.317 1.00949 25.9571 2.18283C25.7517 2.8539 25.1935 3.24535 24.3801 3.25857C23.6053 3.27077 22.8305 3.26162 22.0557 3.26162C18.5886 3.26162 15.1214 3.2606 11.6542 3.26264C11.3736 3.26264 11.094 3.25247 10.8256 3.16808C10.0915 2.93626 9.67054 2.20927 9.7895 1.39078C9.91253 0.540764 10.4789 0.0161141 11.3329 0.00797996C12.8062 -0.00625472 14.2795 0.00289429 15.7528 0.00289429C16.4768 0.000860761 17.2007 0.00187963 17.9236 0.00187963Z" fill="#967DB9"/>
<path d="M8.1579 19.5156C5.99932 19.5156 3.83971 19.5207 1.68112 19.5136C0.454908 19.5095 -0.274109 18.4999 0.0970091 17.3285C0.271892 16.7764 0.653178 16.4277 1.2246 16.3138C1.43405 16.2721 1.65266 16.2589 1.86719 16.2589C6.05829 16.2559 10.2494 16.2569 14.4405 16.2559C14.7089 16.2559 14.9743 16.2701 15.2305 16.3525C15.9656 16.5883 16.3805 17.3102 16.2585 18.1338C16.1334 18.9818 15.5681 19.5034 14.7109 19.5115C13.2255 19.5258 11.7389 19.5166 10.2535 19.5166C9.55392 19.5156 8.85642 19.5156 8.1579 19.5156Z" fill="#967DB9"/>
</svg>
