<svg width="40" height="40" viewBox="0 0 40 40" fill="none" xmlns="http://www.w3.org/2000/svg">
<path d="M30.0005 27.9158C29.7338 27.9158 29.4838 27.8325 29.2505 27.6658C28.7005 27.2492 28.5838 26.4658 29.0005 25.9158C31.6171 22.4325 31.6171 17.5658 29.0005 14.0825C28.5838 13.5325 28.7005 12.7492 29.2505 12.3325C29.8005 11.9158 30.5838 12.0325 31.0005 12.5825C34.2671 16.9492 34.2671 23.0492 31.0005 27.4158C30.7505 27.7492 30.3838 27.9158 30.0005 27.9158Z" fill="#C4BFE2"/>
<path d="M33.0512 32.0831C32.7846 32.0831 32.5346 31.9998 32.3012 31.8331C31.7512 31.4165 31.6346 30.6331 32.0512 30.0831C36.5012 24.1498 36.5012 15.8498 32.0512 9.91647C31.6346 9.36647 31.7512 8.58314 32.3012 8.16647C32.8512 7.7498 33.6346 7.86647 34.0512 8.41647C39.1679 15.2331 39.1679 24.7665 34.0512 31.5831C33.8179 31.9165 33.4346 32.0831 33.0512 32.0831Z" fill="#C4BFE2"/>
<path d="M23.3654 6.30084C21.4987 5.26751 19.1154 5.53418 16.682 7.05084L11.8154 10.1008C11.482 10.3008 11.0987 10.4175 10.7154 10.4175H9.16536H8.33203C4.2987 10.4175 2.08203 12.6342 2.08203 16.6675V23.3342C2.08203 27.3675 4.2987 29.5842 8.33203 29.5842H9.16536H10.7154C11.0987 29.5842 11.482 29.7008 11.8154 29.9008L16.682 32.9508C18.1487 33.8675 19.582 34.3175 20.9154 34.3175C21.782 34.3175 22.6154 34.1175 23.3654 33.7008C25.2154 32.6675 26.2487 30.5175 26.2487 27.6508V12.3508C26.2487 9.48418 25.2154 7.33418 23.3654 6.30084Z" fill="#C4BFE2"/>
</svg>
