<svg width="21" height="16" viewBox="0 0 21 16" fill="none" xmlns="http://www.w3.org/2000/svg">
<path d="M10.4265 6.50802C13.4213 6.50802 16.4161 6.5072 19.4109 6.50883C20.0912 6.50883 20.5113 6.7567 20.7104 7.25977C21.0843 8.20819 20.5065 9.08591 19.4873 9.09485C18.2894 9.10541 17.0915 9.09729 15.8935 9.09729C11.1019 9.09729 6.31016 9.0981 1.51846 9.09566C1.32666 9.09566 1.12836 9.0981 0.943877 9.05503C0.332725 8.9128 -0.042744 8.35529 0.0133325 7.7035C0.0734726 7.00864 0.508269 6.55922 1.169 6.51614C1.30065 6.5072 1.43312 6.50883 1.56478 6.50883C4.51815 6.50801 7.47232 6.50802 10.4265 6.50802Z" fill="white"/>
<path d="M14.3262 0.0015024C16.0418 0.0015024 17.7574 -0.00174931 19.473 0.00312691C20.454 0.00556502 21.035 0.80689 20.7473 1.74475C20.5832 2.28113 20.137 2.59402 19.4868 2.60459C18.8676 2.61434 18.2483 2.60703 17.629 2.60703C14.8577 2.60703 12.0864 2.60621 9.31506 2.60784C9.09075 2.60784 8.86725 2.59971 8.6527 2.53226C8.06593 2.34696 7.72947 1.76588 7.82456 1.11165C7.9229 0.432235 8.37557 0.01288 9.05824 0.00637842C10.2358 -0.00499942 11.4135 0.00231342 12.5911 0.00231342C13.1697 0.00068801 13.7484 0.0015024 14.3262 0.0015024Z" fill="white"/>
<path d="M6.52065 15.5977C4.79528 15.5977 3.0691 15.6018 1.34373 15.5961C0.36361 15.5928 -0.219097 14.7858 0.0775398 13.8496C0.217325 13.4083 0.522088 13.1295 0.978827 13.0385C1.14624 13.0052 1.32097 12.9946 1.49245 12.9946C4.84242 12.9922 8.19238 12.993 11.5423 12.9922C11.7569 12.9922 11.969 13.0036 12.1738 13.0694C12.7614 13.2579 13.093 13.835 12.9955 14.4933C12.8955 15.171 12.4436 15.588 11.7585 15.5945C10.5712 15.6058 9.38299 15.5985 8.19563 15.5985C7.63649 15.5977 7.07898 15.5977 6.52065 15.5977Z" fill="white"/>
</svg>
