<svg width="40" height="40" viewBox="0 0 40 40" fill="none" xmlns="http://www.w3.org/2000/svg">
<path d="M18.3333 30V35C18.3333 35.9167 17.5833 36.6667 16.6667 36.6667C15.75 36.6667 15 35.9167 15 35V30H18.3333Z" fill="#C4BFE2"/>
<path d="M25.0013 30V35C25.0013 35.9167 24.2513 36.6667 23.3346 36.6667C22.418 36.6667 21.668 35.9167 21.668 35V30H25.0013Z" fill="#C4BFE2"/>
<path d="M28.3346 18.3333V26.6667C28.3346 28.5 26.8346 30 25.0013 30H15.0013C13.168 30 11.668 28.5 11.668 26.6667V18.3333C11.668 16.5 13.168 15 15.0013 15H25.0013C26.8346 15 28.3346 16.5 28.3346 18.3333Z" fill="#C4BFE2"/>
<path d="M8.33333 18.3346V25.0013C8.33333 25.918 7.58333 26.668 6.66667 26.668C5.75 26.668 5 25.918 5 25.0013V18.3346C5 17.418 5.75 16.668 6.66667 16.668C7.58333 16.668 8.33333 17.418 8.33333 18.3346Z" fill="#C4BFE2"/>
<path d="M35.0013 18.3346V25.0013C35.0013 25.918 34.2513 26.668 33.3346 26.668C32.418 26.668 31.668 25.918 31.668 25.0013V18.3346C31.668 17.418 32.418 16.668 33.3346 16.668C34.2513 16.668 35.0013 17.418 35.0013 18.3346Z" fill="#C4BFE2"/>
<path d="M15.9987 12.6654H23.9987C25.4654 12.6654 26.6654 11.4654 26.6654 9.9987C26.6654 6.31536 23.682 3.33203 19.9987 3.33203C16.3154 3.33203 13.332 6.31536 13.332 9.9987C13.332 11.4654 14.532 12.6654 15.9987 12.6654Z" fill="#C4BFE2"/>
</svg>
