<svg width="490" height="121" viewBox="0 0 490 121" fill="none" xmlns="http://www.w3.org/2000/svg">
<path d="M0.283203 94V6.65625H30.0537C36.1475 6.65625 41.6064 7.31217 46.4307 8.62402C51.2972 9.93587 55.127 12.1787 57.9199 15.3525C60.7552 18.484 62.1729 22.8216 62.1729 28.3652C62.1729 32.2585 61.1361 36.0247 59.0625 39.6641C57.0312 43.3034 54.2383 45.8001 50.6836 47.1543V47.6621C55.1693 48.847 58.9144 51.1322 61.9189 54.5176C64.9658 57.903 66.4893 62.4945 66.4893 68.292C66.4893 74.1742 64.987 79.0195 61.9824 82.8281C58.9779 86.6367 54.9154 89.4508 49.7949 91.2705C44.6745 93.0902 38.9404 94 32.5928 94H0.283203ZM19.707 41.7588H29.1016C34.0104 41.7588 37.6074 40.8066 39.8926 38.9023C42.1777 36.9557 43.3203 34.3743 43.3203 31.1582C43.3203 27.7728 42.1354 25.3607 39.7656 23.9219C37.4382 22.4408 33.9258 21.7002 29.2285 21.7002H19.707V41.7588ZM19.707 79.0195H30.9424C42.0296 79.0195 47.5732 75.0417 47.5732 67.0859C47.5732 63.1927 46.1768 60.3997 43.3838 58.707C40.6331 56.972 36.486 56.1045 30.9424 56.1045H19.707V79.0195ZM99.751 95.5869C92.5993 95.5869 87.3942 93.2171 84.1357 88.4775C80.8773 83.6956 79.248 77.1576 79.248 68.8633V27.54H98.5449V66.4512C98.5449 71.2754 99.2008 74.5973 100.513 76.417C101.867 78.2367 104.025 79.1465 106.987 79.1465C109.484 79.1465 111.621 78.5752 113.398 77.4326C115.176 76.2477 117.059 74.3223 119.048 71.6562V27.54H138.345V94H122.539L121.206 84.7959H120.698C117.948 88.0544 114.901 90.6781 111.558 92.667C108.257 94.6136 104.321 95.5869 99.751 95.5869ZM173.701 95.5869C167.057 95.5869 162.402 93.598 159.736 89.6201C157.07 85.6423 155.737 80.3314 155.737 73.6875V0.118164H175.161V74.4492C175.161 76.6074 175.542 78.0885 176.304 78.8926C177.065 79.6966 177.848 80.0986 178.652 80.0986C179.033 80.0986 179.393 80.0986 179.731 80.0986C180.07 80.0563 180.514 79.9717 181.064 79.8447L183.35 94C182.292 94.4232 180.938 94.7829 179.287 95.0791C177.679 95.4176 175.817 95.5869 173.701 95.5869ZM211.914 95.5869C205.27 95.5869 200.615 93.598 197.949 89.6201C195.283 85.6423 193.95 80.3314 193.95 73.6875V0.118164H213.374V74.4492C213.374 76.6074 213.755 78.0885 214.517 78.8926C215.278 79.6966 216.061 80.0986 216.865 80.0986C217.246 80.0986 217.606 80.0986 217.944 80.0986C218.283 80.0563 218.727 79.9717 219.277 79.8447L221.562 94C220.505 94.4232 219.15 94.7829 217.5 95.0791C215.892 95.4176 214.03 95.5869 211.914 95.5869ZM233.75 94V6.65625H263.521C269.614 6.65625 275.073 7.31217 279.897 8.62402C284.764 9.93587 288.594 12.1787 291.387 15.3525C294.222 18.484 295.64 22.8216 295.64 28.3652C295.64 32.2585 294.603 36.0247 292.529 39.6641C290.498 43.3034 287.705 45.8001 284.15 47.1543V47.6621C288.636 48.847 292.381 51.1322 295.386 54.5176C298.433 57.903 299.956 62.4945 299.956 68.292C299.956 74.1742 298.454 79.0195 295.449 82.8281C292.445 86.6367 288.382 89.4508 283.262 91.2705C278.141 93.0902 272.407 94 266.06 94H233.75ZM253.174 41.7588H262.568C267.477 41.7588 271.074 40.8066 273.359 38.9023C275.645 36.9557 276.787 34.3743 276.787 31.1582C276.787 27.7728 275.602 25.3607 273.232 23.9219C270.905 22.4408 267.393 21.7002 262.695 21.7002H253.174V41.7588ZM253.174 79.0195H264.409C275.496 79.0195 281.04 75.0417 281.04 67.0859C281.04 63.1927 279.644 60.3997 276.851 58.707C274.1 56.972 269.953 56.1045 264.409 56.1045H253.174V79.0195ZM320.522 120.089C318.491 120.089 316.756 119.962 315.317 119.708C313.879 119.454 312.482 119.052 311.128 118.502L314.619 104.156C315.592 104.41 316.396 104.579 317.031 104.664C317.666 104.749 318.322 104.791 318.999 104.791C322.3 104.791 324.881 103.966 326.743 102.315C328.605 100.665 329.959 98.5068 330.806 95.8408L331.885 92.4131L306.177 27.54H325.601L335.249 56.4854C336.18 59.4899 337.069 62.5791 337.915 65.7529C338.761 68.9268 339.65 72.1429 340.581 75.4014H341.152C341.872 72.2699 342.612 69.1383 343.374 66.0068C344.136 62.833 344.919 59.6592 345.723 56.4854L353.975 27.54H372.51L349.341 94.8887C347.267 100.39 344.982 105.003 342.485 108.727C340.031 112.493 337.048 115.328 333.535 117.232C330.065 119.137 325.728 120.089 320.522 120.089ZM408.311 95.5869C400.143 95.5869 394.303 93.2383 390.791 88.541C387.279 83.8438 385.522 77.6865 385.522 70.0693V42.8379H376.382V28.3652L386.602 27.54L388.887 7.22754H404.819V27.54H420.879V42.8379H404.819V69.752C404.819 73.6029 405.623 76.3535 407.231 78.0039C408.84 79.6543 410.934 80.4795 413.516 80.4795C415.801 80.4795 417.896 80.1198 419.8 79.4004L423.037 92.9844C421.302 93.6191 419.186 94.2116 416.689 94.7617C414.193 95.3118 411.4 95.5869 408.311 95.5869ZM463.472 95.5869C457.251 95.5869 451.602 94.2116 446.523 91.4609C441.445 88.7103 437.404 84.7536 434.399 79.5908C431.437 74.3857 429.956 68.1227 429.956 60.8018C429.956 53.6501 431.458 47.4717 434.463 42.2666C437.467 37.0615 441.361 33.0413 446.143 30.2061C450.967 27.3708 456.024 25.9531 461.313 25.9531C467.576 25.9531 472.782 27.3496 476.929 30.1426C481.118 32.8932 484.25 36.6807 486.323 41.5049C488.439 46.3291 489.497 51.7881 489.497 57.8818C489.497 59.5745 489.412 61.2249 489.243 62.833C489.074 64.3988 488.883 65.6048 488.672 66.4512H448.745C449.591 71.3177 451.58 74.957 454.712 77.3691C457.843 79.7389 461.652 80.9238 466.138 80.9238C468.719 80.9238 471.216 80.5641 473.628 79.8447C476.082 79.083 478.516 78.0039 480.928 76.6074L487.085 88.1602C483.657 90.5723 479.87 92.4131 475.723 93.6826C471.576 94.9521 467.492 95.5869 463.472 95.5869ZM448.491 53.6924H472.993C472.993 49.8838 472.104 46.7734 470.327 44.3613C468.55 41.9069 465.693 40.6797 461.758 40.6797C458.542 40.6797 455.685 41.7799 453.188 43.9805C450.734 46.181 449.168 49.4183 448.491 53.6924Z" fill="#614DDC"/>
</svg>
