<svg width="40" height="40" viewBox="0 0 40 40" fill="none" xmlns="http://www.w3.org/2000/svg">
<path d="M20.0013 37.9154C13.3346 37.9154 7.91797 33.132 7.91797 27.2487V21.082C7.91797 20.3987 8.48464 19.832 9.16797 19.832C9.8513 19.832 10.418 20.3987 10.418 21.082C10.418 25.4487 14.5346 28.7487 20.0013 28.7487C25.468 28.7487 29.5846 25.4487 29.5846 21.082C29.5846 20.3987 30.1513 19.832 30.8346 19.832C31.518 19.832 32.0846 20.3987 32.0846 21.082V27.2487C32.0846 33.132 26.668 37.9154 20.0013 37.9154ZM10.418 27.432C10.5346 31.8487 14.7846 35.4154 20.0013 35.4154C25.218 35.4154 29.468 31.8487 29.5846 27.432C27.418 29.782 23.9846 31.2487 20.0013 31.2487C16.018 31.2487 12.6013 29.782 10.418 27.432Z" fill="#C4BFE2"/>
<path d="M20.0013 22.9154C15.4013 22.9154 11.2679 20.8487 9.25128 17.5154C8.38462 16.0987 7.91797 14.4487 7.91797 12.7487C7.91797 9.88203 9.20131 7.18203 11.518 5.1487C13.7846 3.16536 16.8013 2.08203 20.0013 2.08203C23.2013 2.08203 26.2013 3.16537 28.4846 5.13203C30.8013 7.18203 32.0846 9.88203 32.0846 12.7487C32.0846 14.4487 31.618 16.082 30.7513 17.5154C28.7347 20.8487 24.6013 22.9154 20.0013 22.9154ZM20.0013 4.58203C17.4013 4.58203 14.968 5.4487 13.1513 7.0487C11.3847 8.58203 10.418 10.6154 10.418 12.7487C10.418 13.9987 10.7513 15.1654 11.3846 16.2154C12.9679 18.8154 16.268 20.4154 20.0013 20.4154C23.7346 20.4154 27.0347 18.7987 28.618 16.2154C29.268 15.1654 29.5846 13.9987 29.5846 12.7487C29.5846 10.6154 28.618 8.58203 26.8346 7.01536C25.018 5.4487 22.6013 4.58203 20.0013 4.58203Z" fill="#C4BFE2"/>
<path d="M20.0013 31.2487C13.118 31.2487 7.91797 26.882 7.91797 21.082V12.7487C7.91797 6.86537 13.3346 2.08203 20.0013 2.08203C23.2013 2.08203 26.2013 3.16537 28.4846 5.13203C30.8013 7.18203 32.0846 9.88203 32.0846 12.7487V21.082C32.0846 26.882 26.8846 31.2487 20.0013 31.2487ZM20.0013 4.58203C14.718 4.58203 10.418 8.2487 10.418 12.7487V21.082C10.418 25.4487 14.5346 28.7487 20.0013 28.7487C25.468 28.7487 29.5846 25.4487 29.5846 21.082V12.7487C29.5846 10.6154 28.618 8.58203 26.8346 7.01536C25.018 5.4487 22.6013 4.58203 20.0013 4.58203Z" fill="#C4BFE2"/>
</svg>
