<svg width="199" height="50" viewBox="0 0 199 50" fill="none" xmlns="http://www.w3.org/2000/svg">
<path d="M42.5781 0H7.42188C3.32289 0 0 3.32289 0 7.42188V42.5781C0 46.6771 3.32289 50 7.42188 50H42.5781C46.6771 50 50 46.6771 50 42.5781V7.42188C50 3.32289 46.6771 0 42.5781 0Z" fill="url(#paint0_linear_1554_40639)"/>
<path d="M12.0603 9.26953C6.06941 12.7681 8.53711 18.7208 20.5772 18.7208L20.7729 13.8577C15.8658 14.8244 9.09687 14.9328 12.0604 9.2696L12.0603 9.26953ZM38.1911 9.26953C41.1546 14.9328 34.3857 14.8243 29.4786 13.8576L29.6744 18.7208C41.7145 18.7208 44.1821 12.7682 38.1912 9.26953H38.1911ZM19.3523 22.5668C19.09 22.574 18.8166 22.621 18.5364 22.7109C18.4061 24.77 19.3394 26.1845 21.8863 25.4645C21.8544 23.6513 20.7681 22.528 19.3523 22.5668ZM30.8977 22.5668C29.4817 22.528 28.3954 23.6513 28.3637 25.4644C30.9105 26.1846 31.8439 24.77 31.7137 22.7109C31.4335 22.6211 31.1599 22.574 30.8977 22.5668ZM27.2297 33.8006L26.4845 34.8547C27.5572 35.6127 27.8095 37.0777 27.0514 38.1502C26.2935 39.2229 24.8295 39.4743 23.757 38.7163C22.6844 37.9584 22.432 36.4936 23.1901 35.4209C23.3301 35.2224 23.4998 35.0468 23.6933 34.9001L22.9157 33.8717C22.616 34.098 22.353 34.3692 22.136 34.6758C20.9757 36.318 21.3697 38.6102 23.0119 39.7705C24.654 40.9309 26.9444 40.5368 28.1048 38.8946C29.2652 37.2525 28.8719 34.9613 27.2299 33.8009L27.2297 33.8006Z" fill="white"/>
<mask id="path-3-outside-1_1554_40639" maskUnits="userSpaceOnUse" x="65" y="11" width="133" height="38" fill="black">
<rect fill="white" x="65" y="11" width="133" height="38"/>
<path d="M73.535 14.01C75.6117 14.01 77.35 14.2083 78.75 14.605C80.1733 15.0017 81.235 15.655 81.935 16.565C82.6583 17.475 83.02 18.6883 83.02 20.205C83.02 21.185 82.8333 22.06 82.46 22.83C82.11 23.5767 81.5733 24.2067 80.85 24.72C80.15 25.21 79.2867 25.5483 78.26 25.735V25.91C79.31 26.0733 80.255 26.3767 81.095 26.82C81.9583 27.2633 82.635 27.8933 83.125 28.71C83.615 29.5267 83.86 30.5883 83.86 31.895C83.86 33.4117 83.51 34.7067 82.81 35.78C82.11 36.83 81.1067 37.635 79.8 38.195C78.5167 38.7317 76.9767 39 75.18 39H66.395V14.01H73.535ZM74.165 24.65C76.3117 24.65 77.7817 24.3117 78.575 23.635C79.3683 22.935 79.765 21.9083 79.765 20.555C79.765 19.1783 79.275 18.1983 78.295 17.615C77.3383 17.0083 75.7983 16.705 73.675 16.705H69.545V24.65H74.165ZM69.545 27.275V36.34H74.585C76.8017 36.34 78.3417 35.9083 79.205 35.045C80.0683 34.1817 80.5 33.05 80.5 31.65C80.5 30.7633 80.3017 29.9933 79.905 29.34C79.5317 28.6867 78.89 28.185 77.98 27.835C77.0933 27.4617 75.88 27.275 74.34 27.275H69.545ZM104.419 20.24V39H101.899L101.444 36.515H101.304C100.907 37.1683 100.394 37.705 99.7637 38.125C99.1337 38.545 98.4453 38.8483 97.6987 39.035C96.952 39.245 96.1703 39.35 95.3537 39.35C93.8603 39.35 92.6003 39.1167 91.5737 38.65C90.5703 38.16 89.812 37.4133 89.2987 36.41C88.7853 35.4067 88.5287 34.1117 88.5287 32.525V20.24H91.6437V32.315C91.6437 33.8083 91.982 34.9283 92.6587 35.675C93.3353 36.4217 94.3853 36.795 95.8087 36.795C97.2087 36.795 98.3053 36.5383 99.0987 36.025C99.9153 35.4883 100.487 34.7183 100.814 33.715C101.164 32.6883 101.339 31.4517 101.339 30.005V20.24H104.419ZM113.454 39H110.374V12.4H113.454V39ZM122.478 39H119.398V12.4H122.478V39ZM135.981 14.01C138.058 14.01 139.796 14.2083 141.196 14.605C142.62 15.0017 143.681 15.655 144.381 16.565C145.105 17.475 145.466 18.6883 145.466 20.205C145.466 21.185 145.28 22.06 144.906 22.83C144.556 23.5767 144.02 24.2067 143.296 24.72C142.596 25.21 141.733 25.5483 140.706 25.735V25.91C141.756 26.0733 142.701 26.3767 143.541 26.82C144.405 27.2633 145.081 27.8933 145.571 28.71C146.061 29.5267 146.306 30.5883 146.306 31.895C146.306 33.4117 145.956 34.7067 145.256 35.78C144.556 36.83 143.553 37.635 142.246 38.195C140.963 38.7317 139.423 39 137.626 39H128.841V14.01H135.981ZM136.611 24.65C138.758 24.65 140.228 24.3117 141.021 23.635C141.815 22.935 142.211 21.9083 142.211 20.555C142.211 19.1783 141.721 18.1983 140.741 17.615C139.785 17.0083 138.245 16.705 136.121 16.705H131.991V24.65H136.611ZM131.991 27.275V36.34H137.031C139.248 36.34 140.788 35.9083 141.651 35.045C142.515 34.1817 142.946 33.05 142.946 31.65C142.946 30.7633 142.748 29.9933 142.351 29.34C141.978 28.6867 141.336 28.185 140.426 27.835C139.54 27.4617 138.326 27.275 136.786 27.275H131.991ZM148.245 20.24H151.535L155.595 30.915C155.828 31.545 156.038 32.1517 156.225 32.735C156.435 33.3183 156.622 33.89 156.785 34.45C156.948 34.9867 157.077 35.5117 157.17 36.025H157.31C157.45 35.4417 157.672 34.6833 157.975 33.75C158.278 32.7933 158.593 31.8367 158.92 30.88L162.735 20.24H166.06L157.975 41.59C157.532 42.7567 157.007 43.7717 156.4 44.635C155.817 45.5217 155.093 46.1983 154.23 46.665C153.39 47.155 152.363 47.4 151.15 47.4C150.59 47.4 150.1 47.365 149.68 47.295C149.26 47.2483 148.898 47.19 148.595 47.12V44.67C148.852 44.7167 149.155 44.7633 149.505 44.81C149.878 44.8567 150.263 44.88 150.66 44.88C151.383 44.88 152.002 44.74 152.515 44.46C153.052 44.2033 153.507 43.8183 153.88 43.305C154.253 42.815 154.568 42.2317 154.825 41.555L155.805 39.07L148.245 20.24ZM175.292 36.83C175.758 36.83 176.237 36.795 176.727 36.725C177.217 36.6317 177.613 36.5383 177.917 36.445V38.79C177.59 38.9533 177.123 39.0817 176.517 39.175C175.91 39.2917 175.327 39.35 174.767 39.35C173.787 39.35 172.877 39.1867 172.037 38.86C171.22 38.51 170.555 37.915 170.042 37.075C169.528 36.235 169.272 35.0567 169.272 33.54V22.62H166.612V21.15L169.307 19.925L170.532 15.935H172.352V20.24H177.777V22.62H172.352V33.47C172.352 34.6133 172.62 35.465 173.157 36.025C173.717 36.5617 174.428 36.83 175.292 36.83ZM188.918 19.89C190.528 19.89 191.905 20.24 193.048 20.94C194.215 21.64 195.102 22.6317 195.708 23.915C196.338 25.175 196.653 26.6567 196.653 28.36V30.215H183.808C183.855 32.3383 184.392 33.96 185.418 35.08C186.468 36.1767 187.927 36.725 189.793 36.725C190.983 36.725 192.033 36.62 192.943 36.41C193.877 36.1767 194.833 35.85 195.813 35.43V38.125C194.857 38.545 193.912 38.8483 192.978 39.035C192.045 39.245 190.937 39.35 189.653 39.35C187.88 39.35 186.305 38.9883 184.928 38.265C183.575 37.5417 182.513 36.4683 181.743 35.045C180.997 33.5983 180.623 31.8367 180.623 29.76C180.623 27.7067 180.962 25.945 181.638 24.475C182.338 23.005 183.307 21.8733 184.543 21.08C185.803 20.2867 187.262 19.89 188.918 19.89ZM188.883 22.41C187.413 22.41 186.247 22.8883 185.383 23.845C184.543 24.7783 184.042 26.085 183.878 27.765H193.433C193.433 26.6917 193.27 25.7583 192.943 24.965C192.617 24.1717 192.115 23.5533 191.438 23.11C190.785 22.6433 189.933 22.41 188.883 22.41Z"/>
</mask>
<path d="M73.535 14.01C75.6117 14.01 77.35 14.2083 78.75 14.605C80.1733 15.0017 81.235 15.655 81.935 16.565C82.6583 17.475 83.02 18.6883 83.02 20.205C83.02 21.185 82.8333 22.06 82.46 22.83C82.11 23.5767 81.5733 24.2067 80.85 24.72C80.15 25.21 79.2867 25.5483 78.26 25.735V25.91C79.31 26.0733 80.255 26.3767 81.095 26.82C81.9583 27.2633 82.635 27.8933 83.125 28.71C83.615 29.5267 83.86 30.5883 83.86 31.895C83.86 33.4117 83.51 34.7067 82.81 35.78C82.11 36.83 81.1067 37.635 79.8 38.195C78.5167 38.7317 76.9767 39 75.18 39H66.395V14.01H73.535ZM74.165 24.65C76.3117 24.65 77.7817 24.3117 78.575 23.635C79.3683 22.935 79.765 21.9083 79.765 20.555C79.765 19.1783 79.275 18.1983 78.295 17.615C77.3383 17.0083 75.7983 16.705 73.675 16.705H69.545V24.65H74.165ZM69.545 27.275V36.34H74.585C76.8017 36.34 78.3417 35.9083 79.205 35.045C80.0683 34.1817 80.5 33.05 80.5 31.65C80.5 30.7633 80.3017 29.9933 79.905 29.34C79.5317 28.6867 78.89 28.185 77.98 27.835C77.0933 27.4617 75.88 27.275 74.34 27.275H69.545ZM104.419 20.24V39H101.899L101.444 36.515H101.304C100.907 37.1683 100.394 37.705 99.7637 38.125C99.1337 38.545 98.4453 38.8483 97.6987 39.035C96.952 39.245 96.1703 39.35 95.3537 39.35C93.8603 39.35 92.6003 39.1167 91.5737 38.65C90.5703 38.16 89.812 37.4133 89.2987 36.41C88.7853 35.4067 88.5287 34.1117 88.5287 32.525V20.24H91.6437V32.315C91.6437 33.8083 91.982 34.9283 92.6587 35.675C93.3353 36.4217 94.3853 36.795 95.8087 36.795C97.2087 36.795 98.3053 36.5383 99.0987 36.025C99.9153 35.4883 100.487 34.7183 100.814 33.715C101.164 32.6883 101.339 31.4517 101.339 30.005V20.24H104.419ZM113.454 39H110.374V12.4H113.454V39ZM122.478 39H119.398V12.4H122.478V39ZM135.981 14.01C138.058 14.01 139.796 14.2083 141.196 14.605C142.62 15.0017 143.681 15.655 144.381 16.565C145.105 17.475 145.466 18.6883 145.466 20.205C145.466 21.185 145.28 22.06 144.906 22.83C144.556 23.5767 144.02 24.2067 143.296 24.72C142.596 25.21 141.733 25.5483 140.706 25.735V25.91C141.756 26.0733 142.701 26.3767 143.541 26.82C144.405 27.2633 145.081 27.8933 145.571 28.71C146.061 29.5267 146.306 30.5883 146.306 31.895C146.306 33.4117 145.956 34.7067 145.256 35.78C144.556 36.83 143.553 37.635 142.246 38.195C140.963 38.7317 139.423 39 137.626 39H128.841V14.01H135.981ZM136.611 24.65C138.758 24.65 140.228 24.3117 141.021 23.635C141.815 22.935 142.211 21.9083 142.211 20.555C142.211 19.1783 141.721 18.1983 140.741 17.615C139.785 17.0083 138.245 16.705 136.121 16.705H131.991V24.65H136.611ZM131.991 27.275V36.34H137.031C139.248 36.34 140.788 35.9083 141.651 35.045C142.515 34.1817 142.946 33.05 142.946 31.65C142.946 30.7633 142.748 29.9933 142.351 29.34C141.978 28.6867 141.336 28.185 140.426 27.835C139.54 27.4617 138.326 27.275 136.786 27.275H131.991ZM148.245 20.24H151.535L155.595 30.915C155.828 31.545 156.038 32.1517 156.225 32.735C156.435 33.3183 156.622 33.89 156.785 34.45C156.948 34.9867 157.077 35.5117 157.17 36.025H157.31C157.45 35.4417 157.672 34.6833 157.975 33.75C158.278 32.7933 158.593 31.8367 158.92 30.88L162.735 20.24H166.06L157.975 41.59C157.532 42.7567 157.007 43.7717 156.4 44.635C155.817 45.5217 155.093 46.1983 154.23 46.665C153.39 47.155 152.363 47.4 151.15 47.4C150.59 47.4 150.1 47.365 149.68 47.295C149.26 47.2483 148.898 47.19 148.595 47.12V44.67C148.852 44.7167 149.155 44.7633 149.505 44.81C149.878 44.8567 150.263 44.88 150.66 44.88C151.383 44.88 152.002 44.74 152.515 44.46C153.052 44.2033 153.507 43.8183 153.88 43.305C154.253 42.815 154.568 42.2317 154.825 41.555L155.805 39.07L148.245 20.24ZM175.292 36.83C175.758 36.83 176.237 36.795 176.727 36.725C177.217 36.6317 177.613 36.5383 177.917 36.445V38.79C177.59 38.9533 177.123 39.0817 176.517 39.175C175.91 39.2917 175.327 39.35 174.767 39.35C173.787 39.35 172.877 39.1867 172.037 38.86C171.22 38.51 170.555 37.915 170.042 37.075C169.528 36.235 169.272 35.0567 169.272 33.54V22.62H166.612V21.15L169.307 19.925L170.532 15.935H172.352V20.24H177.777V22.62H172.352V33.47C172.352 34.6133 172.62 35.465 173.157 36.025C173.717 36.5617 174.428 36.83 175.292 36.83ZM188.918 19.89C190.528 19.89 191.905 20.24 193.048 20.94C194.215 21.64 195.102 22.6317 195.708 23.915C196.338 25.175 196.653 26.6567 196.653 28.36V30.215H183.808C183.855 32.3383 184.392 33.96 185.418 35.08C186.468 36.1767 187.927 36.725 189.793 36.725C190.983 36.725 192.033 36.62 192.943 36.41C193.877 36.1767 194.833 35.85 195.813 35.43V38.125C194.857 38.545 193.912 38.8483 192.978 39.035C192.045 39.245 190.937 39.35 189.653 39.35C187.88 39.35 186.305 38.9883 184.928 38.265C183.575 37.5417 182.513 36.4683 181.743 35.045C180.997 33.5983 180.623 31.8367 180.623 29.76C180.623 27.7067 180.962 25.945 181.638 24.475C182.338 23.005 183.307 21.8733 184.543 21.08C185.803 20.2867 187.262 19.89 188.918 19.89ZM188.883 22.41C187.413 22.41 186.247 22.8883 185.383 23.845C184.543 24.7783 184.042 26.085 183.878 27.765H193.433C193.433 26.6917 193.27 25.7583 192.943 24.965C192.617 24.1717 192.115 23.5533 191.438 23.11C190.785 22.6433 189.933 22.41 188.883 22.41Z" fill="#FCFCFC"/>
<path d="M78.75 14.605L78.4229 15.7596L78.4279 15.7609L78.75 14.605ZM81.935 16.565L80.9839 17.2967L80.9897 17.3042L80.9956 17.3117L81.935 16.565ZM82.46 22.83L81.3802 22.3065L81.3768 22.3136L81.3735 22.3207L82.46 22.83ZM80.85 24.72L81.5382 25.7031L81.5445 25.6986L80.85 24.72ZM78.26 25.735L78.0453 24.5544L77.06 24.7335V25.735H78.26ZM78.26 25.91H77.06V26.9378L78.0756 27.0957L78.26 25.91ZM81.095 26.82L80.5349 27.8813L80.5468 27.8875L81.095 26.82ZM83.125 28.71L84.154 28.0926V28.0926L83.125 28.71ZM82.81 35.78L83.8085 36.4457L83.8151 36.4355L82.81 35.78ZM79.8 38.195L80.263 39.3021L80.2727 39.298L79.8 38.195ZM66.395 39H65.195V40.2H66.395V39ZM66.395 14.01V12.81H65.195V14.01H66.395ZM78.575 23.635L79.3537 24.548L79.3614 24.5415L79.3689 24.5348L78.575 23.635ZM78.295 17.615L77.6523 18.6284L77.6667 18.6375L77.6812 18.6462L78.295 17.615ZM69.545 16.705V15.505H68.345V16.705H69.545ZM69.545 24.65H68.345V25.85H69.545V24.65ZM69.545 27.275V26.075H68.345V27.275H69.545ZM69.545 36.34H68.345V37.54H69.545V36.34ZM79.205 35.045L80.0535 35.8935L79.205 35.045ZM79.905 29.34L78.8631 29.9354L78.871 29.9492L78.8793 29.9628L79.905 29.34ZM77.98 27.835L77.5143 28.941L77.5317 28.9483L77.5492 28.955L77.98 27.835ZM73.535 15.21C75.544 15.21 77.1639 15.4029 78.4229 15.7596L79.0771 13.4504C77.5361 13.0138 75.6793 12.81 73.535 12.81V15.21ZM78.4279 15.7609C79.6733 16.108 80.4824 16.6447 80.9839 17.2967L82.8861 15.8333C81.9876 14.6653 80.6734 13.8953 79.0722 13.449L78.4279 15.7609ZM80.9956 17.3117C81.5048 17.9523 81.82 18.8763 81.82 20.205H84.22C84.22 18.5004 83.8119 16.9977 82.8744 15.8183L80.9956 17.3117ZM81.82 20.205C81.82 21.03 81.6637 21.7218 81.3802 22.3065L83.5398 23.3535C84.003 22.3982 84.22 21.34 84.22 20.205H81.82ZM81.3735 22.3207C81.118 22.8656 80.723 23.3386 80.1555 23.7414L81.5445 25.6986C82.4237 25.0747 83.102 24.2878 83.5466 23.3393L81.3735 22.3207ZM80.1618 23.7369C79.6314 24.1083 78.9386 24.3919 78.0453 24.5544L78.4747 26.9156C79.6347 26.7047 80.6686 26.3117 81.5382 25.7031L80.1618 23.7369ZM77.06 25.735V25.91H79.46V25.735H77.06ZM78.0756 27.0957C79.0097 27.2411 79.8254 27.5068 80.5349 27.8813L81.6551 25.7587C80.6846 25.2465 79.6103 24.9056 78.4444 24.7243L78.0756 27.0957ZM80.5468 27.8875C81.2151 28.2306 81.7235 28.7065 82.096 29.3274L84.154 28.0926C83.5465 27.0802 82.7016 26.296 81.6432 25.7525L80.5468 27.8875ZM82.096 29.3274C82.4399 29.9006 82.66 30.7281 82.66 31.895H85.06C85.06 30.4485 84.7901 29.1527 84.154 28.0926L82.096 29.3274ZM82.66 31.895C82.66 33.2223 82.3559 34.2796 81.8049 35.1245L83.8151 36.4355C84.6641 35.1337 85.06 33.601 85.06 31.895H82.66ZM81.8115 35.1144C81.2566 35.9468 80.4479 36.6117 79.3273 37.092L80.2727 39.298C81.7654 38.6583 82.9634 37.7132 83.8085 36.4456L81.8115 35.1144ZM79.337 37.0879C78.2363 37.5482 76.862 37.8 75.18 37.8V40.2C77.0913 40.2 78.797 39.9151 80.263 39.3021L79.337 37.0879ZM75.18 37.8H66.395V40.2H75.18V37.8ZM67.595 39V14.01H65.195V39H67.595ZM66.395 15.21H73.535V12.81H66.395V15.21ZM74.165 25.85C76.3441 25.85 78.2073 25.5258 79.3537 24.548L77.7963 22.722C77.356 23.0975 76.2792 23.45 74.165 23.45V25.85ZM79.3689 24.5348C80.4886 23.5468 80.965 22.1498 80.965 20.555H78.565C78.565 21.6668 78.248 22.3232 77.7811 22.7352L79.3689 24.5348ZM80.965 20.555C80.965 18.858 80.3326 17.4313 78.9088 16.5838L77.6812 18.6462C78.2174 18.9653 78.565 19.4987 78.565 20.555H80.965ZM78.9377 16.6016C77.6838 15.8065 75.8571 15.505 73.675 15.505V17.905C75.7396 17.905 76.9929 18.2102 77.6523 18.6284L78.9377 16.6016ZM73.675 15.505H69.545V17.905H73.675V15.505ZM68.345 16.705V24.65H70.745V16.705H68.345ZM69.545 25.85H74.165V23.45H69.545V25.85ZM68.345 27.275V36.34H70.745V27.275H68.345ZM69.545 37.54H74.585V35.14H69.545V37.54ZM74.585 37.54C76.8839 37.54 78.8403 37.1067 80.0535 35.8935L78.3565 34.1965C77.843 34.7099 76.7195 35.14 74.585 35.14V37.54ZM80.0535 35.8935C81.1754 34.7717 81.7 33.3176 81.7 31.65H79.3C79.3 32.7824 78.9613 33.5916 78.3565 34.1965L80.0535 35.8935ZM81.7 31.65C81.7 30.5794 81.4586 29.5866 80.9307 28.7172L78.8793 29.9628C79.1447 30.4 79.3 30.9472 79.3 31.65H81.7ZM80.9469 28.7446C80.4002 27.788 79.5015 27.1345 78.4108 26.715L77.5492 28.955C78.2785 29.2355 78.6631 29.5853 78.8631 29.9354L80.9469 28.7446ZM78.4457 26.729C77.3496 26.2675 75.9551 26.075 74.34 26.075V28.475C75.8049 28.475 76.8371 28.6558 77.5143 28.941L78.4457 26.729ZM74.34 26.075H69.545V28.475H74.34V26.075ZM104.419 20.24H105.619V19.04H104.419V20.24ZM104.419 39V40.2H105.619V39H104.419ZM101.899 39L100.718 39.2161L100.898 40.2H101.899V39ZM101.444 36.515L102.624 36.2989L102.444 35.315H101.444V36.515ZM101.304 36.515V35.315H100.628L100.278 35.8922L101.304 36.515ZM99.7637 38.125L99.098 37.1265L99.7637 38.125ZM97.6987 39.035L97.4076 37.8708L97.3906 37.8751L97.3738 37.8798L97.6987 39.035ZM91.5737 38.65L91.0471 39.7283L91.062 39.7356L91.0771 39.7424L91.5737 38.65ZM89.2987 36.41L88.2304 36.9566L89.2987 36.41ZM88.5287 20.24V19.04H87.3287V20.24H88.5287ZM91.6437 20.24H92.8437V19.04H91.6437V20.24ZM92.6587 35.675L93.5479 34.8692L92.6587 35.675ZM99.0987 36.025L99.7506 37.0325L99.7577 37.0278L99.0987 36.025ZM100.814 33.715L99.6779 33.3278L99.6752 33.3356L99.6726 33.3435L100.814 33.715ZM101.339 20.24V19.04H100.139V20.24H101.339ZM103.219 20.24V39H105.619V20.24H103.219ZM104.419 37.8H101.899V40.2H104.419V37.8ZM103.079 38.7839L102.624 36.2989L100.263 36.7311L100.718 39.2161L103.079 38.7839ZM101.444 35.315H101.304V37.715H101.444V35.315ZM100.278 35.8922C99.9715 36.397 99.5805 36.8049 99.098 37.1265L100.429 39.1235C101.207 38.6051 101.843 37.9397 102.329 37.1378L100.278 35.8922ZM99.098 37.1265C98.5844 37.469 98.0231 37.717 97.4076 37.8708L97.9897 40.1992C98.8676 39.9797 99.683 39.621 100.429 39.1235L99.098 37.1265ZM97.3738 37.8798C96.7383 38.0585 96.0663 38.15 95.3537 38.15V40.55C96.2744 40.55 97.1657 40.4315 98.0236 40.1902L97.3738 37.8798ZM95.3537 38.15C93.9788 38.15 92.8991 37.9343 92.0702 37.5576L91.0771 39.7424C92.3016 40.299 93.7419 40.55 95.3537 40.55V38.15ZM92.1003 37.5717C91.3326 37.1968 90.7632 36.6379 90.367 35.8634L88.2304 36.9566C88.8608 38.1888 89.8081 39.1232 91.0471 39.7283L92.1003 37.5717ZM90.367 35.8634C89.9682 35.084 89.7287 33.9944 89.7287 32.525H87.3287C87.3287 34.2289 87.6025 35.7294 88.2304 36.9566L90.367 35.8634ZM89.7287 32.525V20.24H87.3287V32.525H89.7287ZM88.5287 21.44H91.6437V19.04H88.5287V21.44ZM90.4437 20.24V32.315H92.8437V20.24H90.4437ZM90.4437 32.315C90.4437 33.9657 90.8151 35.4277 91.7695 36.4808L93.5479 34.8692C93.1489 34.4289 92.8437 33.651 92.8437 32.315H90.4437ZM91.7695 36.4808C92.7549 37.5681 94.1902 37.995 95.8087 37.995V35.595C94.5805 35.595 93.9158 35.2752 93.5479 34.8692L91.7695 36.4808ZM95.8087 37.995C97.3353 37.995 98.6907 37.7183 99.7506 37.0325L98.4468 35.0175C97.92 35.3584 97.0821 35.595 95.8087 35.595V37.995ZM99.7577 37.0278C100.821 36.3293 101.551 35.3268 101.955 34.0865L99.6726 33.3435C99.4231 34.1099 99.0099 34.6474 98.4397 35.0222L99.7577 37.0278ZM101.949 34.1022C102.354 32.9171 102.539 31.5422 102.539 30.005H100.139C100.139 31.3611 99.9738 32.4596 99.6779 33.3278L101.949 34.1022ZM102.539 30.005V20.24H100.139V30.005H102.539ZM101.339 21.44H104.419V19.04H101.339V21.44ZM113.454 39V40.2H114.654V39H113.454ZM110.374 39H109.174V40.2H110.374V39ZM110.374 12.4V11.2H109.174V12.4H110.374ZM113.454 12.4H114.654V11.2H113.454V12.4ZM113.454 37.8H110.374V40.2H113.454V37.8ZM111.574 39V12.4H109.174V39H111.574ZM110.374 13.6H113.454V11.2H110.374V13.6ZM112.254 12.4V39H114.654V12.4H112.254ZM122.478 39V40.2H123.678V39H122.478ZM119.398 39H118.198V40.2H119.398V39ZM119.398 12.4V11.2H118.198V12.4H119.398ZM122.478 12.4H123.678V11.2H122.478V12.4ZM122.478 37.8H119.398V40.2H122.478V37.8ZM120.598 39V12.4H118.198V39H120.598ZM119.398 13.6H122.478V11.2H119.398V13.6ZM121.278 12.4V39H123.678V12.4H121.278ZM141.196 14.605L140.869 15.7596L140.874 15.7609L141.196 14.605ZM144.381 16.565L143.43 17.2967L143.436 17.3042L143.442 17.3117L144.381 16.565ZM144.906 22.83L143.827 22.3065L143.823 22.3136L143.82 22.3207L144.906 22.83ZM143.296 24.72L143.984 25.7031L143.991 25.6986L143.296 24.72ZM140.706 25.735L140.492 24.5544L139.506 24.7335V25.735H140.706ZM140.706 25.91H139.506V26.9378L140.522 27.0957L140.706 25.91ZM143.541 26.82L142.981 27.8813L142.993 27.8875L143.541 26.82ZM145.571 28.71L146.6 28.0926V28.0926L145.571 28.71ZM145.256 35.78L146.255 36.4457L146.261 36.4355L145.256 35.78ZM142.246 38.195L142.709 39.3021L142.719 39.298L142.246 38.195ZM128.841 39H127.641V40.2H128.841V39ZM128.841 14.01V12.81H127.641V14.01H128.841ZM141.021 23.635L141.8 24.548L141.808 24.5415L141.815 24.5348L141.021 23.635ZM140.741 17.615L140.099 18.6284L140.113 18.6375L140.128 18.6462L140.741 17.615ZM131.991 16.705V15.505H130.791V16.705H131.991ZM131.991 24.65H130.791V25.85H131.991V24.65ZM131.991 27.275V26.075H130.791V27.275H131.991ZM131.991 36.34H130.791V37.54H131.991V36.34ZM141.651 35.045L142.5 35.8935L141.651 35.045ZM142.351 29.34L141.309 29.9354L141.317 29.9492L141.326 29.9628L142.351 29.34ZM140.426 27.835L139.961 28.941L139.978 28.9483L139.996 28.955L140.426 27.835ZM135.981 15.21C137.99 15.21 139.61 15.4029 140.869 15.7596L141.523 13.4504C139.982 13.0138 138.126 12.81 135.981 12.81V15.21ZM140.874 15.7609C142.12 16.108 142.929 16.6447 143.43 17.2967L145.332 15.8333C144.434 14.6653 143.12 13.8953 141.518 13.449L140.874 15.7609ZM143.442 17.3117C143.951 17.9523 144.266 18.8763 144.266 20.205H146.666C146.666 18.5004 146.258 16.9977 145.321 15.8183L143.442 17.3117ZM144.266 20.205C144.266 21.03 144.11 21.7218 143.827 22.3065L145.986 23.3535C146.449 22.3982 146.666 21.34 146.666 20.205H144.266ZM143.82 22.3207C143.564 22.8656 143.169 23.3386 142.602 23.7414L143.991 25.6986C144.87 25.0747 145.548 24.2878 145.993 23.3393L143.82 22.3207ZM142.608 23.7369C142.078 24.1083 141.385 24.3919 140.492 24.5544L140.921 26.9156C142.081 26.7047 143.115 26.3117 143.984 25.7031L142.608 23.7369ZM139.506 25.735V25.91H141.906V25.735H139.506ZM140.522 27.0957C141.456 27.2411 142.272 27.5068 142.981 27.8813L144.101 25.7587C143.131 25.2465 142.057 24.9056 140.891 24.7243L140.522 27.0957ZM142.993 27.8875C143.661 28.2306 144.17 28.7065 144.542 29.3274L146.6 28.0926C145.993 27.0802 145.148 26.296 144.089 25.7525L142.993 27.8875ZM144.542 29.3274C144.886 29.9006 145.106 30.7281 145.106 31.895H147.506C147.506 30.4485 147.236 29.1527 146.6 28.0926L144.542 29.3274ZM145.106 31.895C145.106 33.2223 144.802 34.2796 144.251 35.1245L146.261 36.4355C147.11 35.1337 147.506 33.601 147.506 31.895H145.106ZM144.258 35.1144C143.703 35.9468 142.894 36.6117 141.774 37.092L142.719 39.298C144.212 38.6583 145.41 37.7132 146.255 36.4456L144.258 35.1144ZM141.783 37.0879C140.683 37.5482 139.308 37.8 137.626 37.8V40.2C139.538 40.2 141.243 39.9151 142.709 39.3021L141.783 37.0879ZM137.626 37.8H128.841V40.2H137.626V37.8ZM130.041 39V14.01H127.641V39H130.041ZM128.841 15.21H135.981V12.81H128.841V15.21ZM136.611 25.85C138.79 25.85 140.654 25.5258 141.8 24.548L140.243 22.722C139.802 23.0975 138.725 23.45 136.611 23.45V25.85ZM141.815 24.5348C142.935 23.5468 143.411 22.1498 143.411 20.555H141.011C141.011 21.6668 140.694 22.3232 140.227 22.7352L141.815 24.5348ZM143.411 20.555C143.411 18.858 142.779 17.4313 141.355 16.5838L140.128 18.6462C140.664 18.9653 141.011 19.4987 141.011 20.555H143.411ZM141.384 16.6016C140.13 15.8065 138.303 15.505 136.121 15.505V17.905C138.186 17.905 139.439 18.2102 140.099 18.6284L141.384 16.6016ZM136.121 15.505H131.991V17.905H136.121V15.505ZM130.791 16.705V24.65H133.191V16.705H130.791ZM131.991 25.85H136.611V23.45H131.991V25.85ZM130.791 27.275V36.34H133.191V27.275H130.791ZM131.991 37.54H137.031V35.14H131.991V37.54ZM137.031 37.54C139.33 37.54 141.287 37.1067 142.5 35.8935L140.803 34.1965C140.289 34.7099 139.166 35.14 137.031 35.14V37.54ZM142.5 35.8935C143.622 34.7717 144.146 33.3176 144.146 31.65H141.746C141.746 32.7824 141.408 33.5916 140.803 34.1965L142.5 35.8935ZM144.146 31.65C144.146 30.5794 143.905 29.5866 143.377 28.7172L141.326 29.9628C141.591 30.4 141.746 30.9472 141.746 31.65H144.146ZM143.393 28.7446C142.847 27.788 141.948 27.1345 140.857 26.715L139.996 28.955C140.725 29.2355 141.109 29.5853 141.309 29.9354L143.393 28.7446ZM140.892 26.729C139.796 26.2675 138.401 26.075 136.786 26.075V28.475C138.251 28.475 139.283 28.6558 139.961 28.941L140.892 26.729ZM136.786 26.075H131.991V28.475H136.786V26.075ZM148.245 20.24V19.04H146.47L147.131 20.6871L148.245 20.24ZM151.535 20.24L152.657 19.8134L152.362 19.04H151.535V20.24ZM155.595 30.915L156.72 30.4982L156.717 30.4884L155.595 30.915ZM156.225 32.735L155.082 33.1007L155.089 33.1212L155.096 33.1415L156.225 32.735ZM156.785 34.45L155.633 34.786L155.637 34.7994L156.785 34.45ZM157.17 36.025L155.989 36.2397L156.168 37.225H157.17V36.025ZM157.31 36.025V37.225H158.256L158.477 36.305L157.31 36.025ZM157.975 33.75L159.116 34.1209L159.119 34.1127L157.975 33.75ZM158.92 30.88L157.79 30.475L157.787 30.4836L157.784 30.4922L158.92 30.88ZM162.735 20.24V19.04H161.89L161.605 19.835L162.735 20.24ZM166.06 20.24L167.182 20.665L167.798 19.04H166.06V20.24ZM157.975 41.59L159.097 42.0163L159.097 42.015L157.975 41.59ZM156.4 44.635L155.418 43.9451L155.408 43.9601L155.397 43.9755L156.4 44.635ZM154.23 46.665L153.659 45.6094L153.642 45.6186L153.625 45.6285L154.23 46.665ZM149.68 47.295L149.877 46.1113L149.845 46.106L149.812 46.1023L149.68 47.295ZM148.595 47.12H147.395V48.0746L148.325 48.2893L148.595 47.12ZM148.595 44.67L148.81 43.4894L147.395 43.2321V44.67H148.595ZM149.505 44.81L149.346 45.9995L149.356 46.0007L149.505 44.81ZM152.515 44.46L151.997 43.3774L151.968 43.3912L151.94 43.4065L152.515 44.46ZM153.88 43.305L152.925 42.5777L152.917 42.5884L152.909 42.5992L153.88 43.305ZM154.825 41.555L153.709 41.1148L153.706 41.1221L153.703 41.1294L154.825 41.555ZM155.805 39.07L156.921 39.5102L157.096 39.066L156.919 38.6229L155.805 39.07ZM148.245 21.44H151.535V19.04H148.245V21.44ZM150.413 20.6666L154.473 31.3416L156.717 30.4884L152.657 19.8134L150.413 20.6666ZM154.47 31.3318C154.697 31.9465 154.901 32.5361 155.082 33.1007L157.368 32.3693C157.175 31.7672 156.959 31.1435 156.72 30.4982L154.47 31.3318ZM155.096 33.1415C155.298 33.703 155.477 34.2511 155.633 34.786L157.937 34.114C157.766 33.5289 157.572 32.9337 157.354 32.3285L155.096 33.1415ZM155.637 34.7994C155.788 35.2951 155.905 35.7751 155.989 36.2397L158.351 35.8103C158.248 35.2483 158.109 34.6782 157.933 34.1006L155.637 34.7994ZM157.17 37.225H157.31V34.825H157.17V37.225ZM158.477 36.305C158.606 35.7653 158.817 35.0405 159.116 34.1209L156.834 33.3791C156.526 34.3262 156.294 35.118 156.143 35.745L158.477 36.305ZM159.119 34.1127C159.419 33.1645 159.732 32.2162 160.056 31.2678L157.784 30.4922C157.455 31.4572 157.137 32.4222 156.831 33.3873L159.119 34.1127ZM160.05 31.285L163.865 20.645L161.605 19.835L157.79 30.475L160.05 31.285ZM162.735 21.44H166.06V19.04H162.735V21.44ZM164.938 19.815L156.853 41.165L159.097 42.015L167.182 20.665L164.938 19.815ZM156.853 41.1637C156.439 42.2535 155.958 43.1767 155.418 43.9451L157.382 45.3249C158.055 44.3666 158.624 43.2598 159.097 42.0163L156.853 41.1637ZM155.397 43.9755C154.914 44.7103 154.334 45.2446 153.659 45.6094L154.801 47.7206C155.852 47.1521 156.719 46.3331 157.402 45.2945L155.397 43.9755ZM153.625 45.6285C153.009 45.9879 152.203 46.2 151.15 46.2V48.6C152.524 48.6 153.771 48.3221 154.835 47.7015L153.625 45.6285ZM151.15 46.2C150.637 46.2 150.215 46.1677 149.877 46.1113L149.483 48.4787C149.985 48.5623 150.543 48.6 151.15 48.6V46.2ZM149.812 46.1023C149.424 46.0591 149.11 46.0073 148.865 45.9507L148.325 48.2893C148.686 48.3727 149.096 48.4375 149.547 48.4877L149.812 46.1023ZM149.795 47.12V44.67H147.395V47.12H149.795ZM148.38 45.8506C148.661 45.9016 148.984 45.9511 149.346 45.9995L149.664 43.6205C149.326 43.5756 149.042 43.5317 148.81 43.4894L148.38 45.8506ZM149.356 46.0007C149.781 46.0539 150.216 46.08 150.66 46.08V43.68C150.31 43.68 149.975 43.6594 149.654 43.6193L149.356 46.0007ZM150.66 46.08C151.537 46.08 152.363 45.9098 153.09 45.5135L151.94 43.4065C151.64 43.5702 151.229 43.68 150.66 43.68V46.08ZM153.033 45.5426C153.761 45.1941 154.368 44.6743 154.85 44.0108L152.909 42.5992C152.645 42.9624 152.342 43.2125 151.997 43.3774L153.033 45.5426ZM154.834 44.0323C155.289 43.4359 155.656 42.747 155.947 41.9806L153.703 41.1294C153.48 41.7163 153.218 42.1941 152.925 42.5777L154.834 44.0323ZM155.941 41.9952L156.921 39.5102L154.689 38.6298L153.709 41.1148L155.941 41.9952ZM156.919 38.6229L149.359 19.7929L147.131 20.6871L154.691 39.5171L156.919 38.6229ZM176.727 36.725L176.896 37.9129L176.924 37.909L176.951 37.9038L176.727 36.725ZM177.917 36.445H179.117V34.8202L177.564 35.2981L177.917 36.445ZM177.917 38.79L178.453 39.8633L179.117 39.5316V38.79H177.917ZM176.517 39.175L176.334 37.989L176.312 37.9924L176.29 37.9966L176.517 39.175ZM172.037 38.86L171.564 39.963L171.583 39.971L171.602 39.9784L172.037 38.86ZM170.042 37.075L169.018 37.7007L170.042 37.075ZM169.272 22.62H170.472V21.42H169.272V22.62ZM166.612 22.62H165.412V23.82H166.612V22.62ZM166.612 21.15L166.115 20.0576L165.412 20.3773V21.15H166.612ZM169.307 19.925L169.803 21.0174L170.295 20.7938L170.454 20.2772L169.307 19.925ZM170.532 15.935V14.735H169.645L169.385 15.5828L170.532 15.935ZM172.352 15.935H173.552V14.735H172.352V15.935ZM172.352 20.24H171.152V21.44H172.352V20.24ZM177.777 20.24H178.977V19.04H177.777V20.24ZM177.777 22.62V23.82H178.977V22.62H177.777ZM172.352 22.62V21.42H171.152V22.62H172.352ZM173.157 36.025L172.29 36.8553L172.308 36.8737L172.326 36.8914L173.157 36.025ZM175.292 38.03C175.819 38.03 176.354 37.9905 176.896 37.9129L176.557 35.5371C176.12 35.5995 175.698 35.63 175.292 35.63V38.03ZM176.951 37.9038C177.463 37.8063 177.907 37.7034 178.27 37.5919L177.564 35.2981C177.319 35.3733 176.97 35.457 176.502 35.5462L176.951 37.9038ZM176.717 36.445V38.79H179.117V36.445H176.717ZM177.38 37.7167C177.215 37.7991 176.889 37.9035 176.334 37.989L176.699 40.361C177.357 40.2598 177.965 40.1075 178.453 39.8633L177.38 37.7167ZM176.29 37.9966C175.751 38.1003 175.243 38.15 174.767 38.15V40.55C175.41 40.55 176.07 40.483 176.743 40.3534L176.29 37.9966ZM174.767 38.15C173.922 38.15 173.161 38.0098 172.472 37.7416L171.602 39.9784C172.592 40.3635 173.651 40.55 174.767 40.55V38.15ZM172.509 37.757C171.946 37.5156 171.464 37.1009 171.066 36.4493L169.018 37.7007C169.646 38.7291 170.494 39.5044 171.564 39.963L172.509 37.757ZM171.066 36.4493C170.714 35.8734 170.472 34.9458 170.472 33.54H168.072C168.072 35.1676 168.343 36.5966 169.018 37.7007L171.066 36.4493ZM170.472 33.54V22.62H168.072V33.54H170.472ZM169.272 21.42H166.612V23.82H169.272V21.42ZM167.812 22.62V21.15H165.412V22.62H167.812ZM167.108 22.2424L169.803 21.0174L168.81 18.8326L166.115 20.0576L167.108 22.2424ZM170.454 20.2772L171.679 16.2872L169.385 15.5828L168.16 19.5728L170.454 20.2772ZM170.532 17.135H172.352V14.735H170.532V17.135ZM171.152 15.935V20.24H173.552V15.935H171.152ZM172.352 21.44H177.777V19.04H172.352V21.44ZM176.577 20.24V22.62H178.977V20.24H176.577ZM177.777 21.42H172.352V23.82H177.777V21.42ZM171.152 22.62V33.47H173.552V22.62H171.152ZM171.152 33.47C171.152 34.7777 171.457 35.9855 172.29 36.8553L174.023 35.1947C173.783 34.9445 173.552 34.4489 173.552 33.47H171.152ZM172.326 36.8914C173.136 37.6671 174.157 38.03 175.292 38.03V35.63C174.7 35.63 174.298 35.4562 173.987 35.1586L172.326 36.8914ZM193.048 20.94L192.422 21.9635L192.431 21.969L193.048 20.94ZM195.708 23.915L194.623 24.4279L194.629 24.4398L194.635 24.4517L195.708 23.915ZM196.653 30.215V31.415H197.853V30.215H196.653ZM183.808 30.215V29.015H182.582L182.609 30.2414L183.808 30.215ZM185.418 35.08L184.534 35.8909L184.542 35.9005L184.551 35.9099L185.418 35.08ZM192.943 36.41L193.213 37.5793L193.224 37.5768L193.234 37.5742L192.943 36.41ZM195.813 35.43H197.013V33.6102L195.341 34.327L195.813 35.43ZM195.813 38.125L196.296 39.2238L197.013 38.9087V38.125H195.813ZM192.978 39.035L192.743 37.8583L192.729 37.8611L192.715 37.8643L192.978 39.035ZM184.928 38.265L184.363 39.3233L184.37 39.3273L184.928 38.265ZM181.743 35.045L180.677 35.5954L180.682 35.6057L180.688 35.616L181.743 35.045ZM181.638 24.475L180.555 23.9591L180.551 23.9661L180.548 23.9732L181.638 24.475ZM184.543 21.08L183.904 20.0645L183.895 20.07L184.543 21.08ZM185.383 23.845L184.492 23.041L184.491 23.0422L185.383 23.845ZM183.878 27.765L182.684 27.6489L182.556 28.965H183.878V27.765ZM193.433 27.765V28.965H194.633V27.765H193.433ZM192.943 24.965L191.834 25.4219V25.4219L192.943 24.965ZM191.438 23.11L190.741 24.0865L190.76 24.1005L190.781 24.1138L191.438 23.11ZM188.918 21.09C190.352 21.09 191.502 21.4002 192.422 21.9634L193.675 19.9166C192.308 19.0798 190.705 18.69 188.918 18.69V21.09ZM192.431 21.969C193.385 22.5415 194.113 23.3492 194.623 24.4279L196.793 23.4021C196.09 21.9142 195.045 20.7385 193.666 19.911L192.431 21.969ZM194.635 24.4517C195.166 25.5137 195.453 26.8045 195.453 28.36H197.853C197.853 26.5088 197.511 24.8363 196.782 23.3783L194.635 24.4517ZM195.453 28.36V30.215H197.853V28.36H195.453ZM196.653 29.015H183.808V31.415H196.653V29.015ZM182.609 30.2414C182.659 32.5404 183.244 34.4842 184.534 35.8909L186.303 34.2691C185.539 33.4358 185.051 32.1363 185.008 30.1886L182.609 30.2414ZM184.551 35.9099C185.878 37.2953 187.68 37.925 189.793 37.925V35.525C188.174 35.525 187.059 35.058 186.285 34.2501L184.551 35.9099ZM189.793 37.925C191.051 37.925 192.194 37.8144 193.213 37.5793L192.673 35.2407C191.872 35.4256 190.916 35.525 189.793 35.525V37.925ZM193.234 37.5742C194.236 37.3238 195.253 36.9755 196.286 36.533L195.341 34.327C194.413 34.7245 193.517 35.0296 192.652 35.2458L193.234 37.5742ZM194.613 35.43V38.125H197.013V35.43H194.613ZM195.331 37.0262C194.446 37.4148 193.584 37.6902 192.743 37.8583L193.214 40.2117C194.24 40.0065 195.267 39.6752 196.296 39.2238L195.331 37.0262ZM192.715 37.8643C191.892 38.0495 190.876 38.15 189.653 38.15V40.55C190.997 40.55 192.198 40.4405 193.242 40.2057L192.715 37.8643ZM189.653 38.15C188.047 38.15 186.668 37.8236 185.486 37.2027L184.37 39.3273C185.942 40.1531 187.713 40.55 189.653 40.55V38.15ZM185.494 37.2067C184.36 36.6005 183.463 35.7023 182.799 34.474L180.688 35.616C181.563 37.2344 182.79 38.4829 184.363 39.3233L185.494 37.2067ZM182.81 34.4946C182.172 33.2585 181.823 31.6965 181.823 29.76H179.423C179.423 31.9768 179.822 33.9381 180.677 35.5954L182.81 34.4946ZM181.823 29.76C181.823 27.8349 182.141 26.2531 182.728 24.9768L180.548 23.9732C179.782 25.6369 179.423 27.5785 179.423 29.76H181.823ZM182.722 24.9909C183.336 23.7005 184.163 22.7497 185.191 22.09L183.895 20.07C182.45 20.997 181.34 22.3095 180.555 23.9591L182.722 24.9909ZM185.183 22.0955C186.23 21.436 187.462 21.09 188.918 21.09V18.69C187.062 18.69 185.376 19.1373 183.904 20.0645L185.183 22.0955ZM188.883 21.21C187.126 21.21 185.616 21.7955 184.492 23.041L186.274 24.649C186.877 23.9812 187.7 23.61 188.883 23.61V21.21ZM184.491 23.0422C183.429 24.2223 182.864 25.8004 182.684 27.6489L185.073 27.8811C185.22 26.3696 185.657 25.3344 186.275 24.6478L184.491 23.0422ZM183.878 28.965H193.433V26.565H183.878V28.965ZM194.633 27.765C194.633 26.5729 194.452 25.4778 194.053 24.5081L191.834 25.4219C192.088 26.0389 192.233 26.8104 192.233 27.765H194.633ZM194.053 24.5081C193.64 23.5054 192.987 22.6904 192.096 22.1062L190.781 24.1138C191.242 24.4163 191.593 24.8379 191.834 25.4219L194.053 24.5081ZM192.136 22.1335C191.224 21.4826 190.107 21.21 188.883 21.21V23.61C189.76 23.61 190.345 23.8041 190.741 24.0865L192.136 22.1335Z" fill="#FCFCFC" mask="url(#path-3-outside-1_1554_40639)"/>
<defs>
<linearGradient id="paint0_linear_1554_40639" x1="0" y1="25" x2="50" y2="25" gradientUnits="userSpaceOnUse">
<stop stop-color="#573CFF"/>
<stop offset="1" stop-color="#8676E9"/>
</linearGradient>
</defs>
</svg>
