<svg width="496" height="96" viewBox="0 0 496 96" fill="none" xmlns="http://www.w3.org/2000/svg">
<path d="M0.283203 94V6.65625H30.1807C36.5706 6.65625 42.3682 7.52376 47.5732 9.25879C52.8206 10.9938 56.9889 13.8926 60.0781 17.9551C63.1673 22.0176 64.7119 27.5824 64.7119 34.6494C64.7119 41.4626 63.1673 47.0485 60.0781 51.4072C56.9889 55.766 52.863 58.9821 47.7002 61.0557C42.5374 63.1292 36.8669 64.166 30.6885 64.166H19.707V94H0.283203ZM19.707 48.7412H29.4824C40.4004 48.7412 45.8594 44.0439 45.8594 34.6494C45.8594 30.0368 44.3994 26.7995 41.4795 24.9375C38.5596 23.0332 34.3913 22.0811 28.9746 22.0811H19.707V48.7412ZM78.4229 94V27.54H94.2285L95.6885 39.2197H96.0693C98.4814 34.8187 101.38 31.5179 104.766 29.3174C108.151 27.0745 111.558 25.9531 114.985 25.9531C116.847 25.9531 118.371 26.0801 119.556 26.334C120.783 26.5879 121.904 26.9053 122.92 27.2861L119.111 43.79C118.011 43.4938 116.995 43.2822 116.064 43.1553C115.133 43.0283 113.927 42.9648 112.446 42.9648C109.992 42.9648 107.368 43.8958 104.575 45.7578C101.825 47.5775 99.5817 50.7513 97.8467 55.2793V94H78.4229ZM159.863 95.5869C154.277 95.5869 149.03 94.2327 144.121 91.5244C139.212 88.7738 135.213 84.8171 132.124 79.6543C129.077 74.4492 127.554 68.165 127.554 60.8018C127.554 53.4808 129.077 47.2178 132.124 42.0127C135.213 36.8076 139.212 32.8298 144.121 30.0791C149.03 27.3285 154.277 25.9531 159.863 25.9531C165.492 25.9531 170.76 27.3285 175.669 30.0791C180.578 32.8298 184.556 36.8076 187.603 42.0127C190.649 47.2178 192.173 53.4808 192.173 60.8018C192.173 68.165 190.649 74.4492 187.603 79.6543C184.556 84.8171 180.578 88.7738 175.669 91.5244C170.76 94.2327 165.492 95.5869 159.863 95.5869ZM159.863 80.0986C164.01 80.0986 167.121 78.3424 169.194 74.8301C171.31 71.3177 172.368 66.6416 172.368 60.8018C172.368 54.9619 171.31 50.307 169.194 46.8369C167.121 43.3669 164.01 41.6318 159.863 41.6318C155.716 41.6318 152.606 43.3669 150.532 46.8369C148.459 50.307 147.422 54.9619 147.422 60.8018C147.422 66.6416 148.459 71.3177 150.532 74.8301C152.606 78.3424 155.716 80.0986 159.863 80.0986ZM231.338 95.5869C223.171 95.5869 217.331 93.2383 213.818 88.541C210.306 83.8438 208.55 77.6865 208.55 70.0693V42.8379H199.409V28.3652L209.629 27.54L211.914 7.22754H227.847V27.54H243.906V42.8379H227.847V69.752C227.847 73.6029 228.651 76.3535 230.259 78.0039C231.867 79.6543 233.962 80.4795 236.543 80.4795C238.828 80.4795 240.923 80.1198 242.827 79.4004L246.064 92.9844C244.329 93.6191 242.214 94.2116 239.717 94.7617C237.22 95.3118 234.427 95.5869 231.338 95.5869ZM285.293 95.5869C279.707 95.5869 274.46 94.2327 269.551 91.5244C264.642 88.7738 260.643 84.8171 257.554 79.6543C254.507 74.4492 252.983 68.165 252.983 60.8018C252.983 53.4808 254.507 47.2178 257.554 42.0127C260.643 36.8076 264.642 32.8298 269.551 30.0791C274.46 27.3285 279.707 25.9531 285.293 25.9531C290.921 25.9531 296.19 27.3285 301.099 30.0791C306.007 32.8298 309.985 36.8076 313.032 42.0127C316.079 47.2178 317.603 53.4808 317.603 60.8018C317.603 68.165 316.079 74.4492 313.032 79.6543C309.985 84.8171 306.007 88.7738 301.099 91.5244C296.19 94.2327 290.921 95.5869 285.293 95.5869ZM285.293 80.0986C289.44 80.0986 292.55 78.3424 294.624 74.8301C296.74 71.3177 297.798 66.6416 297.798 60.8018C297.798 54.9619 296.74 50.307 294.624 46.8369C292.55 43.3669 289.44 41.6318 285.293 41.6318C281.146 41.6318 278.035 43.3669 275.962 46.8369C273.888 50.307 272.852 54.9619 272.852 60.8018C272.852 66.6416 273.888 71.3177 275.962 74.8301C278.035 78.3424 281.146 80.0986 285.293 80.0986ZM360.259 95.5869C354.08 95.5869 348.494 94.2327 343.501 91.5244C338.55 88.7738 334.614 84.8171 331.694 79.6543C328.817 74.4492 327.378 68.165 327.378 60.8018C327.378 53.4808 328.986 47.2178 332.202 42.0127C335.418 36.8076 339.65 32.8298 344.897 30.0791C350.145 27.3285 355.837 25.9531 361.973 25.9531C366.077 25.9531 369.717 26.6302 372.891 27.9844C376.107 29.3385 378.942 31.0736 381.396 33.1895L372.319 45.123C370.711 43.8535 369.167 42.9648 367.686 42.457C366.204 41.9069 364.66 41.6318 363.052 41.6318C358.228 41.6318 354.377 43.3669 351.499 46.8369C348.664 50.307 347.246 54.9619 347.246 60.8018C347.246 66.6416 348.664 71.3177 351.499 74.8301C354.377 78.3424 357.995 80.0986 362.354 80.0986C364.723 80.0986 366.924 79.6966 368.955 78.8926C370.986 78.0885 372.869 76.9671 374.604 75.5283L382.095 87.7158C378.879 90.5934 375.345 92.6247 371.494 93.8096C367.643 94.9945 363.898 95.5869 360.259 95.5869ZM422.275 95.5869C416.689 95.5869 411.442 94.2327 406.533 91.5244C401.624 88.7738 397.625 84.8171 394.536 79.6543C391.489 74.4492 389.966 68.165 389.966 60.8018C389.966 53.4808 391.489 47.2178 394.536 42.0127C397.625 36.8076 401.624 32.8298 406.533 30.0791C411.442 27.3285 416.689 25.9531 422.275 25.9531C427.904 25.9531 433.172 27.3285 438.081 30.0791C442.99 32.8298 446.968 36.8076 450.015 42.0127C453.062 47.2178 454.585 53.4808 454.585 60.8018C454.585 68.165 453.062 74.4492 450.015 79.6543C446.968 84.8171 442.99 88.7738 438.081 91.5244C433.172 94.2327 427.904 95.5869 422.275 95.5869ZM422.275 80.0986C426.423 80.0986 429.533 78.3424 431.606 74.8301C433.722 71.3177 434.78 66.6416 434.78 60.8018C434.78 54.9619 433.722 50.307 431.606 46.8369C429.533 43.3669 426.423 41.6318 422.275 41.6318C418.128 41.6318 415.018 43.3669 412.944 46.8369C410.871 50.307 409.834 54.9619 409.834 60.8018C409.834 66.6416 410.871 71.3177 412.944 74.8301C415.018 78.3424 418.128 80.0986 422.275 80.0986ZM486.26 95.5869C479.616 95.5869 474.961 93.598 472.295 89.6201C469.629 85.6423 468.296 80.3314 468.296 73.6875V0.118164H487.72V74.4492C487.72 76.6074 488.101 78.0885 488.862 78.8926C489.624 79.6966 490.407 80.0986 491.211 80.0986C491.592 80.0986 491.951 80.0986 492.29 80.0986C492.629 80.0563 493.073 79.9717 493.623 79.8447L495.908 94C494.85 94.4232 493.496 94.7829 491.846 95.0791C490.238 95.4176 488.376 95.5869 486.26 95.5869Z" fill="url(#paint0_linear_1554_41141)"/>
<defs>
<linearGradient id="paint0_linear_1554_41141" x1="244" y1="-39" x2="345.928" y2="181.29" gradientUnits="userSpaceOnUse">
<stop stop-color="#FCFCFC"/>
<stop offset="1" stop-color="#292643"/>
</linearGradient>
</defs>
</svg>
