<svg width="40" height="40" viewBox="0 0 40 40" fill="none" xmlns="http://www.w3.org/2000/svg">
<path d="M23.5489 18.9009C24.1989 16.1675 21.8156 13.7842 19.0822 14.4342C17.7989 14.7509 16.7489 15.8009 16.4322 17.0842C15.7822 19.8175 18.1656 22.2009 20.8989 21.5509C22.1989 21.2342 23.2489 20.1842 23.5489 18.9009Z" fill="#C4BFE2"/>
<path d="M10.0349 29.9487C9.7349 29.9487 9.41823 29.832 9.1849 29.6154C5.95156 26.6154 4.10156 22.382 4.10156 17.982C4.10156 9.21536 11.2349 2.08203 20.0016 2.08203C28.7682 2.08203 35.9016 9.21536 35.9016 17.982C35.9016 22.4154 34.1182 26.5154 30.8849 29.5654C30.3849 30.032 29.5849 30.0154 29.1182 29.5154C28.6516 29.0154 28.6682 28.2154 29.1682 27.7487C31.9016 25.182 33.4016 21.732 33.4016 17.9987C33.4016 10.6154 27.3849 4.5987 20.0016 4.5987C12.6182 4.5987 6.60156 10.6154 6.60156 17.9987C6.60156 21.7654 8.11823 25.232 10.8849 27.7987C11.3849 28.2654 11.4182 29.0654 10.9516 29.5654C10.7016 29.8154 10.3682 29.9487 10.0349 29.9487Z" fill="#C4BFE2"/>
<path d="M26.6672 25.4996C26.3672 25.4996 26.0505 25.3829 25.8172 25.1663C25.3172 24.6996 25.2839 23.8996 25.7672 23.3996C27.1505 21.9329 27.9172 19.9996 27.9172 17.9996C27.9172 13.6329 24.3672 10.0996 20.0172 10.0996C15.6672 10.0996 12.1172 13.6496 12.1172 17.9996C12.1172 20.0163 12.8839 21.9329 14.2672 23.3996C14.7339 23.8996 14.7172 24.6996 14.2172 25.1663C13.7172 25.6496 12.9172 25.6163 12.4505 25.1163C10.6339 23.1829 9.61719 20.6496 9.61719 17.9996C9.61719 12.2663 14.2839 7.59961 20.0172 7.59961C25.7505 7.59961 30.4172 12.2663 30.4172 17.9996C30.4172 20.6496 29.4172 23.1829 27.5839 25.1163C27.3339 25.3663 27.0005 25.4996 26.6672 25.4996Z" fill="#C4BFE2"/>
<path d="M17.1648 27.7667L14.7648 30.75C12.8648 33.1333 14.5648 36.6667 17.5982 36.6667H22.3815C25.4315 36.6667 27.1315 33.1333 25.2148 30.7667L22.8148 27.7833C21.3815 25.95 18.6148 25.95 17.1648 27.7667Z" fill="#C4BFE2"/>
</svg>
