<svg width="20" height="20" viewBox="0 0 20 20" fill="none" xmlns="http://www.w3.org/2000/svg">
<path d="M9.81411 4.80079C12.5723 4.80443 14.8121 7.0525 14.8058 9.81124C14.7995 12.5716 12.5546 14.8076 9.79535 14.8024C7.03712 14.7967 4.79949 12.5507 4.8047 9.79196C4.80939 7.03269 7.0538 4.79662 9.81411 4.80079Z" fill="#828199"/>
<path d="M0 9.80085C0.0865039 9.65233 0.142263 9.48506 0.283483 9.36989C0.440336 9.2417 0.613344 9.16718 0.817097 9.16666C1.3825 9.16666 1.9479 9.15988 2.5133 9.16822C2.9797 9.175 3.32571 9.53039 3.32988 9.98532C3.33405 10.4507 2.98803 10.8149 2.51383 10.8227C1.96823 10.8316 1.4221 10.828 0.876504 10.8248C0.458575 10.8227 0.1975 10.6393 0.0401252 10.2516C0.0312663 10.2297 0.01407 10.211 0.000521219 10.1906C1.11332e-07 10.0614 0 9.93112 0 9.80085Z" fill="#828199"/>
<path d="M10.1603 0.000521617C10.3599 0.0724345 10.5485 0.15998 10.6762 0.341847C10.7804 0.490363 10.8341 0.652427 10.8341 0.833773C10.833 1.38667 10.8393 1.93956 10.8325 2.49246C10.8263 2.9823 10.4678 3.33405 9.99406 3.32936C9.5308 3.32519 9.18166 2.97396 9.17592 2.49194C9.16967 1.95207 9.17176 1.4122 9.17488 0.871814C9.17749 0.445547 9.36561 0.18812 9.77207 0.036999C9.78666 0.0312668 9.79656 0.0125066 9.80855 0C9.9258 0.000521108 10.043 0.000521617 10.1603 0.000521617Z" fill="#828199"/>
<path d="M19.9979 10.1954C19.939 10.3007 19.8911 10.4148 19.8186 10.5102C19.6602 10.7176 19.445 10.8281 19.1808 10.8286C18.6154 10.8301 18.05 10.8359 17.4846 10.827C17.0098 10.8197 16.6643 10.456 16.668 9.99011C16.6716 9.53467 17.0177 9.18031 17.4841 9.1725C17.9843 9.16416 18.4846 9.16989 18.9854 9.16989C19.5747 9.16989 19.7863 9.31059 19.9979 9.84368C19.9979 9.96093 19.9979 10.0782 19.9979 10.1954Z" fill="#828199"/>
<path d="M9.79794 19.9998C9.7771 19.9472 9.72134 19.9571 9.68278 19.9394C9.35709 19.7903 9.17001 19.5433 9.16584 19.1817C9.15906 18.6158 9.1575 18.0498 9.16584 17.4844C9.17313 17.0186 9.53009 16.6731 9.98606 16.6699C10.4525 16.6668 10.8131 17.0128 10.8209 17.4896C10.8297 18.0488 10.8266 18.6079 10.8219 19.1676C10.8183 19.6189 10.5473 19.8622 10.1497 19.9998C10.0324 19.9998 9.91519 19.9998 9.79794 19.9998Z" fill="#828199"/>
<path d="M3.60588 2.69144C3.76899 2.69561 3.96649 2.78212 4.1296 2.94522C4.51157 3.32615 4.89667 3.70448 5.27291 4.09062C5.61371 4.44028 5.61476 4.95357 5.2875 5.27927C4.96129 5.60392 4.44226 5.60392 4.09625 5.26728C3.7049 4.88635 3.31771 4.50125 2.93835 4.10834C2.68509 3.8457 2.6236 3.53303 2.76794 3.19171C2.89926 2.88217 3.20098 2.68832 3.60588 2.69144Z" fill="#828199"/>
<path d="M15.4208 5.51817C14.9617 5.51556 14.6943 5.35506 14.5484 5.02781C14.4056 4.70785 14.4546 4.3957 14.6964 4.14244C15.0961 3.72452 15.5041 3.31336 15.9231 2.91523C16.2514 2.60309 16.7506 2.62394 17.0669 2.93712C17.3775 3.24458 17.4135 3.74067 17.1112 4.06532C16.7084 4.49784 16.2816 4.90847 15.858 5.32067C15.7131 5.46085 15.5265 5.52078 15.4208 5.51817Z" fill="#828199"/>
<path d="M3.51563 17.3129C3.17639 17.2983 2.91688 17.1498 2.77097 16.8387C2.62662 16.5296 2.64694 16.2133 2.87884 15.9648C3.29468 15.5182 3.72564 15.0836 4.17431 14.6698C4.48229 14.3858 4.97473 14.4301 5.27333 14.723C5.57088 15.0148 5.62612 15.5109 5.34368 15.8199C4.92783 16.2753 4.48072 16.7021 4.03778 17.1315C3.89969 17.2654 3.71313 17.3165 3.51563 17.3129Z" fill="#828199"/>
<path d="M15.3239 14.4845C15.5505 14.4813 15.7428 14.5673 15.9012 14.7242C16.2936 15.1129 16.6886 15.4996 17.0717 15.8972C17.4 16.2375 17.3916 16.7502 17.0685 17.0712C16.7533 17.3844 16.2405 17.398 15.9075 17.0806C15.4984 16.6903 15.0987 16.2896 14.7079 15.8815C14.4599 15.6231 14.4166 15.3083 14.5526 14.9785C14.6813 14.6663 14.9804 14.4819 15.3239 14.4845Z" fill="#828199"/>
</svg>
