<svg width="22" height="22" viewBox="0 0 22 22" fill="none" xmlns="http://www.w3.org/2000/svg">
<path d="M9.16602 3.4375H10.3118V7.79167C10.3118 8.1675 10.6235 8.47917 10.9993 8.47917C11.3752 8.47917 11.6868 8.1675 11.6868 7.79167V3.4375H12.8327C13.2085 3.4375 13.5202 3.12583 13.5202 2.75C13.5202 2.37417 13.2085 2.0625 12.8327 2.0625H9.16602C8.79018 2.0625 8.47852 2.37417 8.47852 2.75C8.47852 3.12583 8.79018 3.4375 9.16602 3.4375Z" fill="#646464"/>
<path d="M12.8327 18.5632H11.6868V14.209C11.6868 13.8332 11.3752 13.5215 10.9993 13.5215C10.6235 13.5215 10.3118 13.8332 10.3118 14.209V18.5632H9.16602C8.79018 18.5632 8.47852 18.8748 8.47852 19.2507C8.47852 19.6265 8.79018 19.9382 9.16602 19.9382H12.8327C13.2085 19.9382 13.5202 19.6265 13.5202 19.2507C13.5202 18.8748 13.2085 18.5632 12.8327 18.5632Z" fill="#646464"/>
<path d="M2.59418 9.05571C2.70418 9.11988 2.82334 9.14738 2.93334 9.14738C3.17168 9.14738 3.40084 9.02821 3.52918 8.79905L4.10668 7.80905L7.88334 9.99071C7.98418 10.0549 8.10334 10.0824 8.22251 10.0824C8.46084 10.0824 8.69001 9.96321 8.81834 9.73405C9.01084 9.41321 8.89168 8.99155 8.57084 8.79905L4.79418 6.61738L5.36251 5.62738C5.55501 5.29738 5.43584 4.87571 5.11501 4.69238C4.78501 4.49988 4.36334 4.60988 4.18001 4.93988L2.34668 8.11155C2.15418 8.45071 2.26418 8.86321 2.59418 9.05571Z" fill="#646464"/>
<path d="M19.4067 12.9437C19.0767 12.7512 18.6551 12.8612 18.4717 13.1912L17.8942 14.1812L14.1176 12.0087C13.7876 11.8162 13.3659 11.9354 13.1826 12.2562C12.9901 12.5862 13.1092 13.0079 13.4301 13.1912L17.1976 15.3729L16.6292 16.3629C16.4367 16.6929 16.5559 17.1146 16.8767 17.2979C16.9867 17.3621 17.1059 17.3896 17.2159 17.3896C17.4542 17.3896 17.6834 17.2704 17.8117 17.0412L19.6451 13.8696C19.8467 13.5487 19.7367 13.1362 19.4067 12.9437Z" fill="#646464"/>
<path d="M17.2048 6.61798L13.4282 8.79964C13.0982 8.99214 12.9882 9.41381 13.1807 9.73464C13.309 9.95464 13.5382 10.083 13.7765 10.083C13.8957 10.083 14.0148 10.0555 14.1157 9.99131L17.8832 7.80964L18.4607 8.79964C18.589 9.01964 18.8182 9.14798 19.0565 9.14798C19.1757 9.14798 19.2948 9.12048 19.3957 9.05631C19.7257 8.86381 19.8357 8.44214 19.6432 8.12131L17.8098 4.94964C17.6173 4.61964 17.1957 4.50964 16.8748 4.70214C16.5448 4.89464 16.4348 5.31631 16.6273 5.63714L17.2048 6.61798Z" fill="#646464"/>
<path d="M4.79418 15.3808L8.56168 13.1991C8.89168 13.0066 9.00168 12.5849 8.80918 12.2641C8.61668 11.9341 8.19501 11.8241 7.87418 12.0166L4.10668 14.1983L3.52918 13.2083C3.33668 12.8783 2.91501 12.7683 2.59418 12.9608C2.26418 13.1533 2.15418 13.5749 2.34668 13.8958L4.18001 17.0674C4.30834 17.2874 4.53751 17.4158 4.77584 17.4158C4.89501 17.4158 5.01418 17.3883 5.11501 17.3241C5.44501 17.1316 5.55501 16.7099 5.36251 16.3891L4.79418 15.3808Z" fill="#646464"/>
<path d="M14.2077 10.9993C14.2077 11.586 14.0518 12.1268 13.7768 12.6035C13.2177 13.566 12.1818 14.2077 10.9993 14.2077C9.81685 14.2077 8.78102 13.566 8.22185 12.6035C7.94685 12.1268 7.79102 11.586 7.79102 10.9993C7.79102 10.4127 7.94685 9.87185 8.22185 9.39518C8.78102 8.43268 9.81685 7.79102 10.9993 7.79102C12.1818 7.79102 13.2177 8.43268 13.7768 9.39518C14.0518 9.87185 14.2077 10.4127 14.2077 10.9993Z" fill="#646464"/>
</svg>
