<svg width="18" height="22" viewBox="0 0 18 22" fill="none" xmlns="http://www.w3.org/2000/svg">
<path d="M5.19556 4.31776C5.76124 4.42418 6.2065 4.77142 6.67696 5.06826C6.80018 5.17188 6.9234 5.27269 7.10823 5.42671C7.03822 5.21388 7.02421 5.08227 6.9318 4.98145C6.59295 4.18895 6.11969 3.48326 5.54841 2.84197C5.55121 2.72435 5.55121 2.60954 5.55401 2.49192C5.57641 2.49752 5.59882 2.50312 5.62123 2.50872C5.67723 2.61514 5.77524 2.66275 5.88166 2.70195C6.41933 2.80276 6.76377 3.22841 7.24264 3.52525C7.06341 2.65434 6.73857 1.89264 6.30731 1.17574C6.15329 0.920908 5.97967 0.682872 5.81165 0.436439C5.86766 0.164803 6.05808 0.422444 6.1617 0.346834C6.38293 0.562463 6.57055 0.820095 6.8982 0.887304C6.9206 1.06653 7.02421 1.15614 7.20063 1.17014C7.85872 1.77783 8.31519 2.53112 8.76045 3.36003C9.42413 2.13627 10.1802 1.04412 11.3788 0.34403C11.6532 0.388836 11.614 0.523255 11.4684 0.677276C11.2668 0.892905 11.0792 1.11694 11.0596 1.43058V1.43338C10.9111 1.44738 10.9251 1.55099 10.9391 1.6546C10.6983 2.23148 10.4267 2.79716 10.2923 3.50845C10.8859 3.094 11.39 2.70195 11.9949 2.48352C11.9977 2.58434 12.0005 2.68234 12.0005 2.78316C11.9921 2.80276 11.9921 2.82236 12.0005 2.84476V2.84757C11.8381 2.96518 11.7176 3.1164 11.6252 3.29283C11.1324 3.8753 10.7795 4.539 10.4939 5.27269C11.3368 4.74062 12.1713 4.18614 13.2831 4.02652C12.1265 4.91144 11.2528 5.91398 10.6535 7.26376C11.5748 6.8185 12.4513 6.54127 13.4035 6.56927C12.5746 6.95292 11.9277 7.555 11.3172 8.21029C11.0932 8.45112 10.8467 8.70316 10.4575 8.53793C10.3707 8.45672 10.2558 8.44832 10.1494 8.42031C9.1665 8.15988 8.17796 8.15428 7.20623 8.43712C6.80858 8.55193 6.50334 8.53513 6.2177 8.24669C5.66322 7.61101 5.05835 7.03133 4.20703 6.64768C4.65229 6.56087 4.99954 6.62247 5.34679 6.67568C5.85365 6.8437 6.36052 7.01453 6.85618 7.24136C6.77777 7.06493 6.75538 6.88291 6.61536 6.75969L6.60136 6.74569C6.43894 6.26122 6.08329 5.89437 5.81165 5.47712C5.78645 5.16627 5.07795 4.42978 4.75871 4.38497C4.7363 4.38217 4.7139 4.38218 4.6915 4.38218L4.67749 4.37378C4.77551 4.13574 4.97434 4.30656 5.11996 4.26175C5.13396 4.26735 5.13956 4.27576 5.13676 4.29256C5.15916 4.29536 5.17876 4.30656 5.19556 4.31776Z" fill="#747474"/>
<path d="M7.26751 18.5107C8.45767 17.8358 9.53862 17.0041 10.5972 16.1472C11.6921 15.2595 12.7282 14.3073 13.6692 13.2544C13.9576 12.9324 14.2096 12.5823 14.4785 12.2463C14.8397 11.941 15.0806 11.535 15.3438 11.1513C15.7723 10.524 16.1587 9.86873 16.3603 9.12663C16.604 8.21931 16.5032 7.38761 15.1898 7.25319C15.1954 7.14398 15.2878 7.15237 15.355 7.14117C15.9207 7.04876 16.4864 6.98435 17.0408 7.19718C17.5085 7.3736 17.7465 7.72365 17.7829 8.21372C17.8417 8.98382 17.5393 9.65871 17.1976 10.314C16.4668 11.7114 15.4558 12.9043 14.3917 14.0525C14.3077 14.1421 14.2292 14.2345 14.148 14.3269C13.4899 14.9514 12.8319 15.5731 12.1738 16.1976C12.1542 16.1976 12.1402 16.2088 12.1346 16.2256C12.0646 16.2368 12.0197 16.276 12.0029 16.346C11.7957 16.5196 11.5913 16.6933 11.3841 16.8669C10.4767 17.5586 9.58063 18.2615 8.6397 18.9056C8.29805 19.1268 7.9564 19.348 7.61756 19.5692C6.99867 19.9137 6.391 20.2805 5.75811 20.5998C4.34112 21.3139 2.89612 21.9524 1.2551 21.9188C0.216162 21.7199 -0.161883 21.1543 0.0621469 20.1209C0.101352 19.9361 0.154557 19.7541 0.199363 19.572C0.350583 19.6393 0.442997 19.7429 0.445797 19.9193C0.448597 20.0957 0.552214 20.1965 0.720237 20.2357C0.854655 20.3001 0.921857 20.4794 1.10668 20.4542C1.13189 20.5214 1.1879 20.5158 1.2411 20.513C1.40632 20.6278 1.60235 20.6306 1.78718 20.6306C2.55728 20.6334 3.28818 20.443 3.99667 20.1601C4.14229 20.1013 4.28791 20.0425 4.43353 19.9865C4.53994 19.9669 4.64356 19.9417 4.71917 19.8549L4.74157 19.8521C4.85359 19.8381 4.9544 19.7961 5.03561 19.7149C5.07481 19.7009 5.11402 19.6841 5.15323 19.6701C5.30165 19.6141 5.45847 19.5748 5.57048 19.446C5.58728 19.4544 5.60409 19.4488 5.61249 19.432C5.70491 19.4292 5.77771 19.3928 5.82812 19.3172V19.32C5.94294 19.3144 6.02975 19.2528 6.10816 19.1772C6.20617 19.1632 6.29018 19.1184 6.35459 19.0428C6.68504 18.9055 6.98467 18.7235 7.26751 18.5107Z" fill="#747474"/>
<path d="M9.53324 19.446C9.2336 19.7036 8.86955 19.838 8.5055 19.9724C8.48589 19.7988 8.72392 19.8884 8.73792 19.7736C8.60351 19.5748 8.29267 19.6616 8.22266 19.3956C8.26466 19.3759 8.30947 19.3563 8.35148 19.3367C8.58391 19.474 9.19999 19.3143 9.29521 19.0875C9.32881 19.0091 9.30081 18.9363 9.2252 18.8887C9.284 18.8243 9.35121 18.7739 9.44642 18.7767C9.47442 18.9139 9.57804 18.9391 9.66205 18.8663C9.76287 18.7767 9.69006 18.7179 9.58084 18.6983C9.64805 18.6086 9.74607 18.5834 9.84688 18.5554C10.0513 18.6394 10.1941 18.589 10.2529 18.365C10.3257 18.2642 10.4322 18.2138 10.5358 18.1522C10.785 18.0066 11.0566 17.9002 11.2667 17.6929C11.3451 17.6677 11.4235 17.6481 11.4683 17.5697C11.6363 17.5221 11.7735 17.4325 11.8799 17.2953C14.0614 15.9287 16.0805 14.3829 17.4891 12.1426C17.5003 12.585 17.3211 12.9435 17.1251 13.3047C16.5426 14.3745 15.6549 15.1698 14.7671 15.9651C13.6666 16.948 12.4456 17.7741 11.1939 18.5498C11.1098 18.603 11.0118 18.6338 10.9194 18.6759C10.9362 18.4882 10.8102 18.4966 10.6814 18.4938C10.477 18.491 10.5106 18.7263 10.3761 18.8075C10.3369 18.8327 10.4686 18.8887 10.5442 18.8915C10.3397 19.0735 10.1017 19.1995 9.84688 19.2919C9.81328 19.1127 9.70686 19.1687 9.60885 19.2219C9.51923 19.2695 9.38482 19.3143 9.53324 19.446Z" fill="#747474"/>
<path d="M8.2232 19.3926C8.29321 19.6586 8.60405 19.5746 8.73846 19.7706C8.72446 19.8882 8.48643 19.7958 8.50604 19.9695C7.89556 20.3587 7.22347 20.6163 6.55698 20.8796C5.29121 21.378 3.99743 21.7841 2.63925 21.9437C2.17998 21.9969 1.71232 22.0501 1.25586 21.9129C2.89408 21.9465 4.34188 21.308 5.75887 20.5939C6.39175 20.2747 6.99943 19.9079 7.61831 19.5634C7.84795 19.6054 8.01037 19.415 8.2232 19.3926Z" fill="#747474"/>
<path d="M13.2101 10.9063C13.2325 10.8811 13.2549 10.8587 13.2773 10.8335C13.4649 10.7887 13.5573 10.9147 13.6497 11.0407C13.8346 11.2983 14.0306 11.5476 14.1678 11.836C14.165 11.948 14.165 12.0628 14.1622 12.1748C14.137 12.2197 14.109 12.2673 14.0838 12.3121C14.0642 12.3345 14.0418 12.3541 14.0222 12.3765C13.9998 12.3877 13.9942 12.4017 14.0026 12.4269L13.997 12.4325C13.8178 12.5697 13.6357 12.6761 13.4117 12.7461C12.832 12.9337 12.9048 12.9533 12.5296 12.4465C12.3056 12.144 12.0871 11.8388 11.8491 11.5504C11.7455 11.4243 11.7119 11.3291 11.8883 11.2871C12.2888 11.1919 12.6584 10.9903 13.0757 10.9623C13.0897 11.0071 13.0841 11.0855 13.1569 11.0687C13.2297 11.0463 13.2017 10.9651 13.2101 10.9063ZM12.9412 12.3121C13.0701 12.2953 13.1681 12.3541 13.2745 12.4185C13.3725 12.4773 13.5041 12.4241 13.4593 12.2925C13.4033 12.1272 13.2073 12.0852 13.0645 12.0628C12.902 12.0376 12.9552 12.2112 12.9412 12.3121C12.8908 12.3205 12.8348 12.3177 12.8404 12.3933C12.8404 12.4017 12.8544 12.4129 12.86 12.4129C12.9328 12.4185 12.93 12.3597 12.9412 12.3121Z" fill="#747474"/>
<path d="M6.08492 9.21654C6.34536 9.09613 6.61419 8.98972 6.86623 8.8525C7.10706 8.72088 7.32549 8.69567 7.59152 8.80489C8.146 9.03172 8.68367 9.28095 9.18774 9.6646C8.72008 9.89144 8.23281 9.98385 7.82956 10.2667C7.60833 10.3255 7.3787 10.4291 7.24428 10.1267C7.16307 9.94464 6.97824 10.1883 6.88303 10.0427C6.79062 9.77382 6.70661 9.49378 6.33696 9.75982C6.32296 9.77102 6.29495 9.76542 6.27255 9.76542C6.15493 9.74022 6.04012 9.71781 5.92531 9.69261C5.70688 9.6422 5.65646 9.53299 5.81609 9.35936C5.9057 9.30896 5.99531 9.26415 6.08492 9.21654Z" fill="#747474"/>
<path d="M3.80273 10.8398C4.06037 10.6326 4.32641 10.4366 4.57564 10.2209C4.83048 9.99971 5.09651 9.92971 5.43536 10.0221C5.95903 10.1649 6.47149 10.319 6.96996 10.6326C6.48269 10.9238 6.02904 11.1899 5.58378 11.4671C5.46896 11.5371 5.39895 11.4727 5.30934 11.4335C4.9957 11.3019 4.69886 11.1171 4.34321 11.0975C4.16399 11.0022 3.92315 11.0471 3.80273 10.8398Z" fill="#747474"/>
<path d="M2.20758 18.3062C2.21878 18.3034 2.23278 18.3034 2.23838 18.295C2.82086 17.637 2.82366 17.637 3.39213 18.3539C3.43974 18.4155 3.47614 18.4855 3.55735 18.5079C3.63856 18.7151 3.95501 18.8635 3.73378 19.1464C3.49575 19.4488 3.25212 19.7484 2.99448 20.0341C2.77045 20.2833 2.57442 20.2721 2.33359 20.0229C2.32519 19.9641 2.31959 19.9025 2.31119 19.8437C2.29999 19.7344 2.31119 19.6168 2.27478 19.516C2.14597 19.1464 2.12356 18.7655 2.14317 18.3791L2.13477 18.3819C2.17677 18.3735 2.19918 18.3483 2.19918 18.3034L2.20758 18.3062Z" fill="#747474"/>
<path d="M10.7963 10.4154C10.6254 10.225 10.4546 10.0318 10.2754 9.83016C10.6198 9.66214 11.0119 9.68454 11.3339 9.49691C11.95 9.25888 12.3225 9.66494 12.7089 10.0262C12.8321 10.1382 12.9525 10.253 13.073 10.3678C12.5689 10.6619 11.992 10.7571 11.4515 10.9531C11.3311 10.9979 11.2555 10.8663 11.1799 10.7935C11.0847 10.7011 10.9979 10.6003 10.9055 10.5022C10.9083 10.4686 10.8915 10.4518 10.8579 10.4574C10.8383 10.4406 10.8187 10.4266 10.7963 10.4154Z" fill="#747474"/>
<path d="M2.32487 15.068C2.46489 14.914 2.63292 14.9364 2.77574 15.0372C3.06698 15.2388 3.34141 15.4601 3.62425 15.6701C3.76987 15.7793 3.75026 15.8801 3.62985 15.9977C3.37221 16.2554 3.10338 16.5074 2.87655 16.7903C2.73373 16.9667 2.62732 16.9415 2.4957 16.8183C2.44529 16.7678 2.39768 16.7314 2.32768 16.7314C1.95242 16.4066 1.93002 15.6785 2.28006 15.1548C2.29687 15.1268 2.31087 15.096 2.32487 15.068Z" fill="#747474"/>
<path d="M3.85583 11.3806C4.21988 11.5654 4.64834 11.5822 5.00679 11.8399C4.64554 12.1423 4.28429 12.4419 3.92584 12.7416C3.83343 12.8172 3.74942 12.8564 3.629 12.7696C3.53099 12.6996 3.41057 12.6576 3.29576 12.6184C2.8869 12.4727 2.8981 12.4811 3.07733 12.0639C3.17814 11.8287 3.36016 11.6354 3.40777 11.375C3.55619 11.3778 3.70461 11.3778 3.85583 11.3806Z" fill="#747474"/>
<path d="M10.6558 9.23249C9.96976 9.59654 9.42089 9.3109 8.88321 8.88524C8.70959 8.74522 8.47996 8.67522 8.23633 8.5548C8.49956 8.40638 8.746 8.40638 8.97283 8.45398C9.22486 8.50719 9.47689 8.53239 9.72892 8.5604C9.96976 8.5884 10.1966 8.70602 10.443 8.71162C10.6811 8.81243 10.9163 8.91045 11.1767 9.01966C11.0423 9.20729 10.8379 9.19048 10.6558 9.23249Z" fill="#747474"/>
<path d="M2.86163 13.6958C2.68241 13.8806 2.646 14.1999 2.33236 14.2559C2.32676 14.2111 2.32396 14.1691 2.31836 14.1243C2.41077 13.7882 2.50598 13.4522 2.5984 13.1133C2.6488 12.9873 2.74682 12.9537 2.87003 12.9649L2.86443 12.9873C2.90923 13.1189 2.75521 13.3178 2.99605 13.385L2.99885 13.3878C2.99885 13.511 2.82523 13.5586 2.86163 13.6958Z" fill="#747474"/>
<path d="M11.0586 1.42786C11.0754 1.11142 11.2658 0.890185 11.4674 0.674557C11.6103 0.520536 11.6495 0.386117 11.3778 0.341311C11.5599 0.148085 11.8119 0.0948828 12.0555 0.0136719C11.6719 0.456131 11.3974 0.962996 11.0586 1.42786Z" fill="#747474"/>
<path d="M5.81071 5.4719C5.7239 5.39629 5.63988 5.32068 5.55307 5.24507C5.26743 4.95663 4.979 4.66539 4.69336 4.37695C4.71576 4.37695 4.73816 4.37696 4.76057 4.37976C5.07701 4.42456 5.7855 5.16106 5.81071 5.4719Z" fill="#747474"/>
<path d="M0.723991 20.2361C0.555968 20.1969 0.45236 20.0989 0.449559 19.9197C0.446759 19.7433 0.354345 19.6369 0.203125 19.5725C0.284336 19.3764 0.365545 19.1804 0.446756 18.9844C0.390749 19.4072 0.471961 19.7741 0.701592 20.1129C0.707192 20.1521 0.71559 20.1941 0.723991 20.2361Z" fill="#747474"/>
<path d="M5.12534 4.25292C4.97972 4.29773 4.7781 4.1269 4.68289 4.36494C4.54287 4.26412 4.40564 4.16331 4.26562 4.0625C4.57367 4.0793 4.87051 4.0849 5.12534 4.25292Z" fill="#747474"/>
<path d="M6.15798 0.347252C6.05156 0.422863 5.86114 0.165221 5.80793 0.436858C5.65671 0.338845 5.57269 0.184825 5.45508 0C5.74072 0.0728098 5.97315 0.154026 6.15798 0.347252Z" fill="#747474"/>
<path d="M5.55172 2.49222C5.54892 2.60984 5.54892 2.72465 5.54612 2.84227C5.3949 2.69945 5.24648 2.55663 5.06445 2.383C5.27448 2.3522 5.42571 2.36621 5.55172 2.49222Z" fill="#747474"/>
<path d="M10.5443 18.8919C10.4687 18.8891 10.3371 18.8302 10.3763 18.8078C10.5107 18.7266 10.4771 18.4942 10.6815 18.4942C10.8103 18.4942 10.9364 18.4858 10.9196 18.6762C10.8943 18.7686 10.8131 18.763 10.7431 18.7714C10.6591 18.7602 10.6003 18.7882 10.5807 18.8778L10.5667 18.8946L10.5443 18.8919Z" fill="#747474"/>
<path d="M6.89861 0.888127C6.57097 0.820918 6.38054 0.563285 6.16211 0.347656C6.44215 0.476474 6.69138 0.652895 6.89861 0.888127Z" fill="#747474"/>
<path d="M9.53313 19.4462C9.38471 19.3118 9.51913 19.2698 9.60874 19.2222C9.70675 19.169 9.81597 19.1129 9.84677 19.2922C9.78797 19.4406 9.64795 19.4182 9.53313 19.4462Z" fill="#747474"/>
<path d="M2.99502 13.3859C2.75418 13.3187 2.9082 13.1199 2.8634 12.9883C2.93061 12.9883 2.99782 12.9883 3.06502 12.9911C3.08183 13.0135 3.09582 13.0359 3.11263 13.0583C2.9166 13.1115 3.02582 13.2739 2.99502 13.3859Z" fill="#747474"/>
<path d="M7.20087 1.16761C7.02445 1.1536 6.91804 1.06679 6.89844 0.884766C7.03566 0.940773 7.11686 1.05559 7.20087 1.16761Z" fill="#747474"/>
<path d="M5.87762 2.70495C5.77401 2.66574 5.6732 2.61813 5.61719 2.51172C5.7376 2.53132 5.81881 2.60413 5.87762 2.70495Z" fill="#747474"/>
<path d="M10.9379 1.65092C10.9239 1.54731 10.9099 1.44369 11.0583 1.42969C11.0583 1.5249 11.0135 1.59491 10.9379 1.65092Z" fill="#747474"/>
<path d="M10.582 18.8782C10.6016 18.7913 10.6604 18.7605 10.7444 18.7717C10.7052 18.8333 10.6632 18.8866 10.582 18.8782Z" fill="#747474"/>
<path d="M12.002 16.345C12.0188 16.275 12.0664 16.2386 12.1336 16.2246C12.1308 16.3086 12.0832 16.3422 12.002 16.345Z" fill="#747474"/>
<path d="M12.0028 2.78003C12.0252 2.77443 12.0476 2.77443 12.0672 2.77723C12.0448 2.79963 12.0224 2.81924 12 2.84164C11.9944 2.81924 11.9944 2.79963 12.0028 2.78003Z" fill="#747474"/>
<path d="M5.19579 4.31876C5.17898 4.30756 5.15938 4.29636 5.14258 4.28516C5.16498 4.29076 5.18178 4.30196 5.19579 4.31876Z" fill="#747474"/>
<path d="M2.20504 18.3008C2.20504 18.3456 2.18263 18.3708 2.14062 18.3792C2.14062 18.3372 2.16303 18.312 2.20504 18.3008Z" fill="#747474"/>
<path d="M9.98895 12.0504C10.3054 11.9187 10.6218 11.7899 10.9355 11.6527C11.1315 11.5659 11.2883 11.5799 11.4255 11.7703C11.6832 12.1288 11.9436 12.4872 12.2237 12.8317C12.4085 13.0585 12.3077 13.1481 12.092 13.2293C11.8008 13.3385 11.5012 13.4338 11.2323 13.5794C10.9747 13.7194 10.8291 13.6466 10.675 13.4365C10.3838 13.0389 10.0982 12.6384 9.72852 12.3052C9.73132 12.1344 9.92734 12.1596 9.98895 12.0504Z" fill="#747474"/>
<path d="M8.40111 15.1189C8.08747 15.2869 7.78782 15.4745 7.51339 15.6986C7.37897 15.8106 7.29496 15.8022 7.18295 15.6762C6.8525 15.3065 6.51646 14.9369 6.17201 14.584C6.0572 14.4664 6.1188 14.4132 6.20841 14.3516C6.55006 14.108 6.90291 13.8755 7.23335 13.6151C7.39577 13.4891 7.47419 13.5843 7.5638 13.6823C7.84104 13.9847 8.11267 14.29 8.3871 14.5952C8.39831 14.6652 8.42912 14.7184 8.50753 14.7268C8.50753 14.7268 8.51312 14.7352 8.51312 14.7324C8.52993 14.8221 8.54673 14.9089 8.56353 14.9985L8.56913 14.9929C8.48512 14.9985 8.44032 15.0545 8.40111 15.1189Z" fill="#747474"/>
<path d="M7.46411 10.9453C7.54532 10.9761 7.61813 10.9845 7.66574 11.0237C8.02699 11.315 8.38543 11.609 8.73828 11.9114C8.8587 12.0123 8.8475 12.1075 8.69068 12.1915C8.32943 12.3875 7.97938 12.5975 7.62374 12.8048C7.50052 12.8776 7.4109 12.8636 7.29609 12.7712C6.90964 12.4575 6.5568 12.0991 6.09473 11.8946C6.01072 11.8582 5.99952 11.7826 6.05833 11.7406C6.50079 11.4214 6.97405 11.1637 7.46411 10.9453Z" fill="#747474"/>
<path d="M9.93133 13.2477C10.497 13.9058 10.497 13.9058 9.7409 14.2923C9.05201 14.6451 9.05201 14.6451 8.55074 14.0683C8.37712 13.8666 8.22309 13.651 8.01307 13.4802C7.81704 13.3206 7.85345 13.2057 8.06908 13.0909C8.41072 12.9089 8.74397 12.7101 9.07721 12.514C9.29844 12.3852 9.36005 12.5728 9.45806 12.6961C9.44406 13.0265 9.64009 13.1805 9.93133 13.2477Z" fill="#747474"/>
<path d="M5.8115 17.074C5.67988 17.1132 5.59586 17.0432 5.52586 16.9452C5.51185 16.9284 5.49785 16.9144 5.48385 16.8976C5.46985 16.878 5.45025 16.8696 5.42505 16.8696C5.23742 16.5532 4.97699 16.2955 4.71655 16.0435C4.54573 15.8783 4.50093 15.7662 4.71095 15.5926C4.97979 15.3658 5.23182 15.1138 5.50905 14.8925C5.64627 14.7861 5.73028 14.7917 5.8507 14.9065C6.20355 15.2426 6.51159 15.6206 6.82804 15.9903C6.93725 16.1163 6.85604 16.1695 6.75803 16.2507C6.44159 16.5195 6.08314 16.7492 5.8115 17.074Z" fill="#747474"/>
<path d="M4.88192 13.5124C4.78671 13.3331 4.58509 13.2995 4.43947 13.1875C4.32465 13.0979 4.30225 13.0447 4.41986 12.9327C4.72791 12.6442 5.07795 12.4146 5.4112 12.1598C5.50081 12.0898 5.58482 12.087 5.68563 12.1542C6.10009 12.4286 6.50615 12.7198 6.8898 13.0363C7.04662 13.1651 7.00461 13.2463 6.8646 13.3275C6.51735 13.5292 6.1897 13.756 5.88446 14.0164C5.78365 14.1004 5.67163 14.0584 5.56241 14.0556C5.4812 13.8792 5.32718 13.7868 5.16196 13.7084V13.7168C5.15356 13.672 5.12556 13.6524 5.08355 13.6496L5.08635 13.6524C5.04435 13.5656 4.97714 13.518 4.88192 13.5124Z" fill="#747474"/>
<path d="M8.16997 10.572C8.59563 10.4152 9.02409 10.2668 9.44134 10.0959C9.63457 10.0175 9.76898 10.0455 9.9202 10.1827C10.1638 10.404 10.3655 10.67 10.6455 10.852C10.8751 11.1965 10.8723 11.1937 10.4523 11.3645C10.175 11.4765 9.9006 11.5941 9.63177 11.7257C9.45254 11.8126 9.32093 11.8238 9.15571 11.6697C8.83366 11.3701 8.48921 11.0957 8.14477 10.8184C8.01315 10.712 8.04675 10.6448 8.16997 10.572Z" fill="#747474"/>
<path d="M5.13836 14.2085C5.30919 14.3709 5.32039 14.4857 5.09356 14.6425C4.81352 14.8385 4.57828 15.0962 4.32625 15.3286C4.22263 15.4266 4.13302 15.4994 3.9874 15.3706C3.68776 15.1018 3.35732 14.8778 3.01288 14.6705C2.82525 14.5585 2.82805 14.4633 2.98207 14.3205C3.1977 14.1133 3.41052 13.9004 3.60095 13.668C3.79978 13.4272 3.98461 13.4216 4.21984 13.6064C4.32905 13.6932 4.47187 13.7436 4.59788 13.808C4.67349 13.9424 4.80231 14.0096 4.93953 14.0628H4.93673C5.00114 14.1188 5.03475 14.2113 5.13836 14.2085Z" fill="#747474"/>
<path d="M5.27428 17.55C4.97184 17.7852 4.69741 18.0512 4.45658 18.3453C4.26335 18.5805 4.10933 18.5329 3.96651 18.3173C3.81809 18.0933 3.63327 17.9056 3.44284 17.7208C3.03399 17.3203 3.03678 17.3176 3.42324 16.8863C3.53525 16.8975 3.60806 17.0963 3.73407 16.9871C3.83209 16.9031 3.63046 16.8387 3.66687 16.7323C3.67807 16.7043 3.66687 16.6679 3.66687 16.6343C4.22414 15.9874 4.13453 16.1022 4.60779 16.6371C4.74501 16.7911 4.89063 16.9395 5.03065 17.0879C5.02505 17.1215 5.03905 17.1355 5.07265 17.1327C5.09506 17.1439 5.11466 17.1551 5.13707 17.1691C5.17067 17.2979 5.36389 17.3764 5.27428 17.55Z" fill="#747474"/>
<path d="M9.63915 16.39C9.62795 16.474 9.57194 16.5328 9.51033 16.5776C9.21629 16.7932 8.89985 16.9753 8.63381 17.2273C8.505 17.3477 8.39858 17.2973 8.30337 17.1713C8.11855 16.9221 7.93092 16.6784 7.74889 16.432C7.67888 16.3368 7.62848 16.1884 7.72649 16.1267C8.09054 15.8943 8.39298 15.5751 8.79904 15.4071C8.89425 15.3678 8.97267 15.3594 9.03427 15.4491C9.2275 15.7319 9.41792 16.0175 9.60835 16.3004C9.61955 16.3256 9.62795 16.3592 9.63915 16.39Z" fill="#747474"/>
<path d="M7.0263 18.2923C6.70146 18.5527 6.55024 18.2783 6.37102 18.085C6.36822 17.9618 6.2562 17.9114 6.20019 17.8246C6.13578 17.707 6.07417 17.5922 6.00977 17.4746C6.06857 17.4634 6.08538 17.4185 6.09378 17.3681C6.40462 17.1245 6.72666 16.8893 7.0263 16.6288C7.17752 16.5 7.25033 16.5112 7.35675 16.6736C7.52477 16.9341 7.71239 17.1805 7.90002 17.4241C8.00923 17.5642 7.99523 17.6566 7.84681 17.749C7.59198 17.9086 7.34554 18.0766 7.09351 18.2419C7.0543 18.2335 7.0319 18.2531 7.0263 18.2923Z" fill="#747474"/>
<path d="M10.1428 16.0538C10.0504 16.0622 10.0084 16.009 9.96642 15.9558C9.89081 15.8605 9.818 15.7625 9.74519 15.6645C9.29153 15.054 9.29153 15.054 9.95802 14.7012C10.028 14.6648 10.098 14.6312 10.168 14.5948C10.7981 14.2867 10.8681 14.3147 11.2014 14.9588C11.2518 15.0568 11.2574 15.1156 11.179 15.1857C10.8597 15.4601 10.5405 15.7345 10.2185 16.0062C10.1933 16.0314 10.1624 16.0426 10.1428 16.0538Z" fill="#747474"/>
<path d="M6.24913 18.6968C6.15112 18.7668 6.05311 18.8396 5.95229 18.9096C5.87108 18.9068 5.82068 18.9488 5.79547 19.0216C5.63305 18.9852 5.54344 19.128 5.41742 19.1756C5.2774 19.1952 5.17939 19.2904 5.06737 19.3604C4.78454 19.5453 4.72012 19.2232 4.58291 19.1252C4.45689 19.0356 4.59131 18.9012 4.66972 18.7892C4.77613 18.6379 4.97216 18.5651 5.01697 18.3663C5.09258 18.3551 5.15138 18.3243 5.15419 18.2375C5.2858 18.1871 5.38942 18.1115 5.42863 17.9687C5.50984 17.9687 5.56304 17.9351 5.56024 17.8454C5.59945 17.8426 5.63865 17.8426 5.67785 17.8398C5.68065 17.9155 5.72266 17.9575 5.79827 17.9659C5.79827 18.1227 5.88788 18.2207 6.0111 18.2991C6.06711 18.3747 6.08111 18.4895 6.20433 18.5035C6.21833 18.5679 6.23233 18.6323 6.24913 18.6968Z" fill="#747474"/>
<path d="M12.7846 13.6742C12.7622 13.705 12.737 13.7414 12.7062 13.7722C12.3925 14.0719 12.0761 14.3687 11.7653 14.6683C11.6784 14.7523 11.6196 14.7299 11.5468 14.6459C11.1408 14.1643 11.1408 14.1391 11.7064 13.8674C11.9641 13.7442 12.2357 13.6406 12.5046 13.5398C12.625 13.4922 12.751 13.4866 12.7846 13.6742Z" fill="#747474"/>
<path d="M2.10936 17.6953C2.01975 17.6113 2.01415 17.5077 2.00575 17.4181C1.99735 17.3173 1.94973 17.1744 2.07855 17.1268C2.14576 17.1016 2.23818 17.1632 2.30259 17.2361C2.4006 17.3509 2.33339 17.4433 2.27458 17.5329C2.23537 17.5973 2.16817 17.6393 2.10936 17.6953Z" fill="#747474"/>
<path d="M4.06969 19.828C3.44521 19.8028 4.1369 19.5704 4.01368 19.464C4.03329 19.4528 4.05009 19.4388 4.06969 19.4276C4.15931 19.3996 4.24892 19.3911 4.33013 19.4528C4.33853 19.4864 4.34973 19.5228 4.35813 19.5564C4.35253 19.6852 4.18171 19.6908 4.16771 19.8112C4.13691 19.8196 4.1033 19.8224 4.06969 19.828Z" fill="#747474"/>
<path d="M6.27539 9.76476C6.29779 9.76196 6.32579 9.76755 6.33979 9.75915C6.70944 9.49312 6.79626 9.77596 6.88587 10.042C6.68984 9.92998 6.45461 9.91318 6.27539 9.76476Z" fill="#747474"/>
<path d="M9.9314 13.2481C9.64016 13.1809 9.44694 13.0269 9.45534 12.6992C9.65137 12.8504 9.81378 13.0297 9.9314 13.2481Z" fill="#747474"/>
<path d="M3.66942 16.6309C3.66942 16.6645 3.67782 16.7009 3.66942 16.7289C3.63302 16.8325 3.83184 16.8969 3.73663 16.9837C3.61061 17.0957 3.5378 16.8941 3.42578 16.8829C3.47619 16.7709 3.5434 16.6729 3.66942 16.6309Z" fill="#747474"/>
<path d="M2.99343 13.3851C3.02423 13.2731 2.91501 13.1079 3.11104 13.0547L3.12505 13.0659C3.13065 13.1751 3.27627 13.2059 3.26506 13.3235C3.24266 13.3459 3.22306 13.3683 3.20065 13.3907C3.13344 13.3907 3.06343 13.3907 2.99622 13.3907L2.99343 13.3851Z" fill="#747474"/>
<path d="M2.997 13.3887C3.06421 13.3887 3.13422 13.3887 3.20143 13.3887C3.10342 13.5091 3.05021 13.6771 2.85979 13.6939C2.82618 13.5595 2.9998 13.5119 2.997 13.3887Z" fill="#747474"/>
<path d="M3.26502 13.3201C3.27622 13.2025 3.1278 13.1717 3.125 13.0625C3.23141 13.1185 3.49185 13.0849 3.26502 13.3201Z" fill="#747474"/>
<path d="M13.2103 10.9063C13.2019 10.9651 13.2299 11.0463 13.1515 11.0659C13.0787 11.0827 13.0843 11.0071 13.0703 10.9595C13.1039 10.9063 13.1515 10.8951 13.2103 10.9063Z" fill="#747474"/>
<path d="M5.03818 19.7124C4.95697 19.7936 4.85616 19.8356 4.74414 19.8496C4.76934 19.648 4.92056 19.718 5.03818 19.7124Z" fill="#747474"/>
<path d="M5.14024 14.2096C5.03663 14.2124 5.00021 14.12 4.94141 14.064C5.04782 14.0584 5.14584 14.0612 5.14024 14.2096Z" fill="#747474"/>
<path d="M13.9997 12.4277C14.0417 12.4529 14.1089 12.4445 14.1145 12.5118C14.1145 12.523 14.0921 12.5481 14.0809 12.5481C14.0137 12.5425 14.0221 12.4753 13.9969 12.4333C13.9941 12.4333 13.9997 12.4277 13.9997 12.4277Z" fill="#747474"/>
<path d="M8.50518 14.7254C8.42677 14.717 8.39597 14.6666 8.38477 14.5938C8.46598 14.6022 8.50518 14.647 8.50518 14.7254Z" fill="#747474"/>
<path d="M8.40234 15.1202C8.44155 15.0558 8.48636 15.0025 8.57037 14.9941C8.54236 15.0726 8.49476 15.1258 8.40234 15.1202Z" fill="#747474"/>
<path d="M14.0195 12.3769C14.0391 12.3545 14.0615 12.3349 14.0811 12.3125C14.0615 12.3349 14.0391 12.3573 14.0195 12.3769Z" fill="#747474"/>
<path d="M5.07445 17.1307C5.04085 17.1363 5.02685 17.1223 5.03245 17.0859C5.05205 17.0971 5.06605 17.1111 5.07445 17.1307Z" fill="#747474"/>
<path d="M5.48438 16.9004C5.49838 16.9172 5.51238 16.9312 5.52638 16.948C5.50678 16.934 5.49278 16.92 5.48438 16.9004Z" fill="#747474"/>
<path d="M7.09655 18.293C7.10495 18.2986 7.11336 18.3042 7.12456 18.3098C7.11336 18.3042 7.10495 18.3014 7.09375 18.2958L7.09655 18.293Z" fill="#747474"/>
<path d="M5.08398 13.6465C5.12599 13.6493 5.15399 13.6689 5.16239 13.7137C5.13719 13.6913 5.11199 13.6689 5.08398 13.6465Z" fill="#747474"/>
<path d="M10.8594 10.4503C10.893 10.4447 10.9098 10.4615 10.907 10.4951C10.8902 10.4811 10.8762 10.4643 10.8594 10.4503Z" fill="#747474"/>
<path d="M7.02734 18.2926C7.03294 18.2534 7.05534 18.2338 7.09455 18.2422C7.09455 18.259 7.09455 18.2758 7.09455 18.2926L7.09176 18.2954C7.07215 18.2926 7.04975 18.2926 7.02734 18.2926Z" fill="#747474"/>
<path d="M8.35156 19.3376C8.51678 19.2368 8.682 19.1388 8.84723 19.0379C8.97324 18.9875 9.09926 18.9371 9.22528 18.8867C9.30089 18.9343 9.32889 19.0071 9.29529 19.0856C9.20008 19.3124 8.58399 19.4748 8.35156 19.3376Z" fill="#747474"/>
<path d="M9.84766 18.5557C9.97087 18.466 10.0913 18.3708 10.2537 18.3652C10.1921 18.5865 10.0521 18.6397 9.84766 18.5557Z" fill="#747474"/>
<path d="M9.44531 18.7737C9.49012 18.7485 9.53493 18.7233 9.57973 18.6953C9.68895 18.7121 9.76176 18.7737 9.66095 18.8633C9.57974 18.9361 9.47332 18.9109 9.44531 18.7737Z" fill="#747474"/>
<path d="M12.9375 12.3142C12.9543 12.2134 12.8983 12.0398 13.0635 12.065C13.2091 12.0874 13.4024 12.1294 13.4584 12.2946C13.5032 12.4262 13.3688 12.4794 13.2735 12.4206C13.1643 12.3562 13.0691 12.2974 12.9375 12.3142Z" fill="#747474"/>
<path d="M12.941 12.3125C12.9326 12.3601 12.9326 12.4189 12.8598 12.4133C12.8514 12.4133 12.8402 12.3993 12.8402 12.3937C12.8346 12.3181 12.8906 12.3209 12.941 12.3125Z" fill="#747474"/>
<path d="M4.00586 19.3711C4.02826 19.3907 4.04787 19.4131 4.07027 19.4327C4.05067 19.4439 4.03386 19.4579 4.01426 19.4691C4.01146 19.4355 4.00866 19.4019 4.00586 19.3711Z" fill="#747474"/>
</svg>
