<svg width="22" height="22" viewBox="0 0 22 22" fill="none" xmlns="http://www.w3.org/2000/svg">
<path d="M9.57779 11.0008C9.57779 10.2167 10.217 9.57736 11.0012 9.57736C11.7854 9.57736 12.4247 10.2124 12.4247 11.0008C12.4247 11.785 11.7854 12.4243 11.0012 12.4243C10.217 12.4243 9.57779 11.7893 9.57779 11.0008ZM13.4127 8.89134L16.8265 6.91808C17.4999 6.53022 17.6278 5.60965 17.0822 5.05136C16.0125 3.95604 14.6487 3.15052 13.1144 2.75845C12.3558 2.56665 11.6185 3.12926 11.6185 3.9134V7.85997C11.6227 8.77628 12.6158 9.35162 13.4127 8.89134ZM10.3791 7.85997V3.91767C10.3791 3.13773 9.6418 2.57097 8.88318 2.76271C7.3531 3.15484 5.98929 3.9603 4.91529 5.05562C4.36979 5.6097 4.49764 6.53027 5.17104 6.92234L8.58479 8.8956C9.38604 9.35162 10.3791 8.77628 10.3791 7.85997ZM14.0348 12.0365L17.4529 14.0098C18.1263 14.3977 18.9872 14.0482 19.196 13.3023C19.4056 12.5546 19.5117 11.7817 19.5114 11.0052C19.5114 10.2082 19.4006 9.44104 19.196 8.70801C18.9872 7.95786 18.1263 7.61269 17.4529 8.0005L14.0348 9.97375C13.2378 10.4298 13.2378 11.5763 14.0348 12.0365ZM8.59258 13.1105L5.17878 15.0837C4.50543 15.4715 4.37758 16.3921 4.92308 16.9505C5.99282 18.0458 7.35662 18.8513 8.89091 19.2434C9.64953 19.4352 10.3869 18.8726 10.3869 18.0884V14.1419C10.3784 13.2255 9.3853 12.6545 8.59258 13.1105ZM7.97074 9.96954L4.55267 7.99623C3.87926 7.60843 3.01838 7.95792 2.80953 8.70374C2.59989 9.45145 2.49377 10.2244 2.49414 11.0009C2.49414 11.7979 2.60499 12.565 2.80953 13.2981C3.01838 14.0482 3.87926 14.3934 4.55267 14.0055L7.97074 12.0323C8.7634 11.5763 8.7634 10.4298 7.97074 9.96954ZM11.624 14.1461V18.0927C11.624 18.8726 12.3613 19.4394 13.12 19.2476C14.65 18.8556 16.0138 18.05 17.0878 16.9547C17.6333 16.4007 17.5054 15.4801 16.8321 15.088L13.4183 13.1147C12.617 12.6545 11.624 13.2255 11.624 14.1461Z" fill="#747474"/>
<path fill-rule="evenodd" clip-rule="evenodd" d="M11 22C4.92677 22 0 17.0775 0 11C0 4.92677 4.92677 0 11 0C17.0775 0 22.0043 4.92677 22 11C22 17.0732 17.0775 22 11 22ZM20.7559 10.9999C20.7559 5.62138 16.379 1.24863 11.0004 1.24863C5.62189 1.24863 1.24915 5.62138 1.24915 10.9999C1.24915 16.3784 5.62189 20.7554 11.0004 20.7554C16.379 20.7554 20.7559 16.3784 20.7559 10.9999Z" fill="#747474"/>
</svg>
