<svg width="22" height="22" viewBox="0 0 22 22" fill="none" xmlns="http://www.w3.org/2000/svg">
<path d="M13.6123 3.61667V7.1H12.2373V3.61667C12.2373 3.36917 12.0173 3.25 11.8707 3.25C11.8248 3.25 11.779 3.25917 11.7332 3.2775L4.464 6.01833C3.97817 6.20167 3.6665 6.66 3.6665 7.1825V7.79667C2.83234 8.42 2.2915 9.41917 2.2915 10.5467V7.1825C2.2915 6.09167 2.96067 5.12 3.97817 4.735L11.2565 1.985C11.4582 1.91167 11.669 1.875 11.8707 1.875C12.7873 1.875 13.6123 2.6175 13.6123 3.61667Z" fill="#573CFF"/>
<path d="M19.7083 13.2943V14.2109C19.7083 14.4584 19.5158 14.6601 19.2591 14.6693H17.9208C17.435 14.6693 16.995 14.3118 16.9583 13.8351C16.9308 13.5509 17.0408 13.2851 17.2241 13.1018C17.3891 12.9276 17.6183 12.8359 17.8658 12.8359H19.25C19.5158 12.8451 19.7083 13.0468 19.7083 13.2943Z" fill="#573CFF"/>
<path d="M17.8565 11.8682H18.7915C19.2957 11.8682 19.7082 11.4557 19.7082 10.9516V10.5482C19.7082 8.65073 18.159 7.10156 16.2615 7.10156H5.73817C4.959 7.10156 4.244 7.35823 3.6665 7.79823C2.83234 8.42156 2.2915 9.42073 2.2915 10.5482V16.7174C2.2915 18.6149 3.84067 20.1641 5.73817 20.1641H16.2615C18.159 20.1641 19.7082 18.6149 19.7082 16.7174V16.5432C19.7082 16.0391 19.2957 15.6266 18.7915 15.6266H17.994C17.114 15.6266 16.2707 15.0857 16.0415 14.2332C15.849 13.5366 16.0782 12.8674 16.5365 12.4182C16.8757 12.0699 17.3432 11.8682 17.8565 11.8682ZM12.8332 11.6849H6.4165C6.04067 11.6849 5.729 11.3732 5.729 10.9974C5.729 10.6216 6.04067 10.3099 6.4165 10.3099H12.8332C13.209 10.3099 13.5207 10.6216 13.5207 10.9974C13.5207 11.3732 13.209 11.6849 12.8332 11.6849Z" fill="#573CFF"/>
</svg>
