<svg width="22" height="22" viewBox="0 0 22 22" fill="none" xmlns="http://www.w3.org/2000/svg">
<path d="M17.527 8.36073C17.1695 8.36073 16.8854 8.6449 16.8854 9.0024V10.4507C16.8854 13.6957 14.2454 16.3357 11.0004 16.3357C7.75536 16.3357 5.11536 13.6957 5.11536 10.4507V8.99323C5.11536 8.63573 4.8312 8.35156 4.4737 8.35156C4.1162 8.35156 3.83203 8.63573 3.83203 8.99323V10.4416C3.83203 14.1724 6.7012 17.2432 10.3587 17.5732V19.5257C10.3587 19.8832 10.6429 20.1674 11.0004 20.1674C11.3579 20.1674 11.642 19.8832 11.642 19.5257V17.5732C15.2904 17.2524 18.1687 14.1724 18.1687 10.4416V8.99323C18.1595 8.6449 17.8754 8.36073 17.527 8.36073Z" fill="#646464"/>
<path d="M11.0009 1.83398C8.76422 1.83398 6.94922 3.64898 6.94922 5.88565V10.579C6.94922 12.8157 8.76422 14.6307 11.0009 14.6307C13.2376 14.6307 15.0526 12.8157 15.0526 10.579V5.88565C15.0526 3.64898 13.2376 1.83398 11.0009 1.83398ZM12.2017 8.20482C12.1376 8.44315 11.9267 8.59898 11.6884 8.59898C11.6426 8.59898 11.5967 8.58982 11.5509 8.58065C11.1934 8.47982 10.8176 8.47982 10.4601 8.58065C10.1667 8.66315 9.88255 8.48898 9.80922 8.20482C9.72672 7.92065 9.90089 7.62732 10.1851 7.55398C10.7259 7.40732 11.2942 7.40732 11.8351 7.55398C12.1101 7.62732 12.2751 7.92065 12.2017 8.20482ZM12.6876 6.42648C12.6051 6.64648 12.4034 6.77482 12.1834 6.77482C12.1192 6.77482 12.0642 6.76565 12.0001 6.74732C11.3584 6.50898 10.6434 6.50898 10.0017 6.74732C9.72672 6.84815 9.41505 6.70148 9.31422 6.42648C9.21339 6.15148 9.36005 5.83982 9.63505 5.74815C10.5151 5.42732 11.4867 5.42732 12.3667 5.74815C12.6417 5.84898 12.7884 6.15148 12.6876 6.42648Z" fill="#646464"/>
</svg>
