<svg width="22" height="22" viewBox="0 0 22 22" fill="none" xmlns="http://www.w3.org/2000/svg">
<path d="M2.52091 17.0995C2.14508 17.0995 1.83341 16.7878 1.83341 16.412V11.187C1.78758 8.70281 2.71341 6.35615 4.43674 4.59615C6.16008 2.84531 8.47008 1.88281 10.9542 1.88281C16.0326 1.88281 20.1667 6.01698 20.1667 11.0953V16.3203C20.1667 16.6961 19.8551 17.0078 19.4792 17.0078C19.1034 17.0078 18.7917 16.6961 18.7917 16.3203V11.0953C18.7917 6.77781 15.2809 3.25781 10.9542 3.25781C8.83674 3.25781 6.87508 4.07365 5.41758 5.55865C3.95091 7.05281 3.17174 9.04198 3.20841 11.1686V16.4028C3.20841 16.7878 2.90591 17.0995 2.52091 17.0995Z" fill="#573CFF"/>
<path d="M5.44492 11.4141H5.32575C3.40075 11.4141 1.83325 12.9816 1.83325 14.9066V16.6299C1.83325 18.5549 3.40075 20.1224 5.32575 20.1224H5.44492C7.36992 20.1224 8.93742 18.5549 8.93742 16.6299V14.9066C8.93742 12.9816 7.36992 11.4141 5.44492 11.4141Z" fill="#573CFF"/>
<path d="M16.6742 11.4141H16.555C14.63 11.4141 13.0625 12.9816 13.0625 14.9066V16.6299C13.0625 18.5549 14.63 20.1224 16.555 20.1224H16.6742C18.5992 20.1224 20.1667 18.5549 20.1667 16.6299V14.9066C20.1667 12.9816 18.5992 11.4141 16.6742 11.4141Z" fill="#573CFF"/>
</svg>
