<svg width="22" height="22" viewBox="0 0 22 22" fill="none" xmlns="http://www.w3.org/2000/svg">
<path d="M17.7555 4.48187L12.3839 2.08937C11.5955 1.74104 10.4039 1.74104 9.61555 2.08937L4.24388 4.48187C2.88721 5.08687 2.68555 5.91187 2.68555 6.35187C2.68555 6.79187 2.88721 7.61688 4.24388 8.22188L9.61555 10.6144C10.0097 10.7885 10.5047 10.8802 10.9997 10.8802C11.4947 10.8802 11.9897 10.7885 12.3839 10.6144L17.7555 8.22188C19.1122 7.61688 19.3139 6.79187 19.3139 6.35187C19.3139 5.91187 19.1214 5.08687 17.7555 4.48187Z" fill="#646464"/>
<path d="M11.0003 15.6207C10.652 15.6207 10.3036 15.5473 9.98279 15.4098L3.80445 12.6598C2.86029 12.2382 2.12695 11.1107 2.12695 10.0748C2.12695 9.69898 2.42945 9.39648 2.80529 9.39648C3.18112 9.39648 3.48362 9.69898 3.48362 10.0748C3.48362 10.5698 3.89612 11.2115 4.35445 11.4132L10.5328 14.1632C10.8261 14.2915 11.1653 14.2915 11.4586 14.1632L17.637 11.4132C18.0953 11.2115 18.5078 10.579 18.5078 10.0748C18.5078 9.69898 18.8103 9.39648 19.1861 9.39648C19.562 9.39648 19.8645 9.69898 19.8645 10.0748C19.8645 11.1015 19.1311 12.2382 18.187 12.6598L12.0086 15.4098C11.697 15.5473 11.3486 15.6207 11.0003 15.6207Z" fill="#646464"/>
<path d="M11.0003 20.1675C10.652 20.1675 10.3036 20.0942 9.98279 19.9567L3.80445 17.2067C2.78695 16.7575 2.12695 15.74 2.12695 14.6217C2.12695 14.2459 2.42945 13.9434 2.80529 13.9434C3.18112 13.9434 3.48362 14.2459 3.48362 14.6217C3.48362 15.1992 3.82279 15.7217 4.35445 15.96L10.5328 18.71C10.8261 18.8384 11.1653 18.8384 11.4586 18.71L17.637 15.96C18.1595 15.7309 18.5078 15.1992 18.5078 14.6217C18.5078 14.2459 18.8103 13.9434 19.1861 13.9434C19.562 13.9434 19.8645 14.2459 19.8645 14.6217C19.8645 15.74 19.2045 16.7484 18.187 17.2067L12.0086 19.9567C11.697 20.0942 11.3486 20.1675 11.0003 20.1675Z" fill="#646464"/>
</svg>
