<svg width="22" height="22" viewBox="0 0 22 22" fill="none" xmlns="http://www.w3.org/2000/svg">
<path d="M21.9943 17.0364C21.9943 17.1494 21.9943 17.2624 21.9943 17.3754C21.9026 17.6088 21.9312 17.8574 21.9141 18.106C21.9026 18.2566 21.874 18.3621 21.7766 18.46C20.1609 19.9966 18.4078 21.1716 16.5057 21.9625C16.3625 22.0227 16.2938 21.9851 16.2078 21.8269C15.8641 21.1565 15.5432 20.4711 15.2396 19.7631C15.1422 19.5296 15.1708 19.4467 15.3484 19.3639C15.8641 19.1153 16.3568 18.7914 16.8323 18.4374C16.8839 18.3997 16.987 18.3771 16.9297 18.2416C16.8266 17.993 16.5286 17.8574 16.3396 17.9629C12.8161 19.9815 9.28698 19.989 5.75208 18.0156C5.51146 17.88 5.34531 17.8725 5.15052 18.1135C5.01875 18.2792 4.99583 18.3395 5.17344 18.46C5.66042 18.8065 6.16458 19.1304 6.68021 19.4015C6.81771 19.4693 6.8349 19.5371 6.76615 19.7103C6.46823 20.456 6.12448 21.1791 5.75781 21.8721C5.6776 22.0152 5.60885 22.0227 5.48854 21.97C3.58646 21.1791 1.83333 20.0041 0.217709 18.4675C0.126042 18.3847 0.0916668 18.2943 0.0802084 18.1512C0.0572918 17.8951 0.0859375 17.6314 0 17.3904C0 16.3208 0 15.2437 0 14.1742C0.0572917 14.1516 0.0401043 14.0838 0.0458335 14.0386C0.103125 13.0971 0.189062 12.1706 0.326562 11.2441C0.813542 7.8923 1.83906 4.84176 3.26562 2.00965C3.32292 1.89667 3.38594 1.81381 3.48333 1.75356C4.8526 0.940077 6.27344 0.375162 7.74583 0.0136166C7.85469 -0.00898003 7.91771 0.0136168 7.96927 0.149197C8.10677 0.533339 8.27292 0.894885 8.39323 1.28656C8.46198 1.51253 8.55365 1.55019 8.71406 1.51253C9.32708 1.38448 9.95156 1.32422 10.5703 1.30162C11.4927 1.27149 12.4151 1.33175 13.3318 1.52006C13.4635 1.54266 13.5323 1.51253 13.5896 1.33175C13.7156 0.932547 13.876 0.555935 14.0135 0.164261C14.0651 0.0211488 14.1281 -0.0165116 14.2484 0.00608507C15.5089 0.314905 16.7292 0.796967 17.9266 1.40708C18.425 1.65564 18.7688 2.03978 19.0552 2.63482C20.6479 6.00172 21.6563 9.61718 21.9255 13.5791C21.937 13.79 21.9083 14.0235 22 14.2269C22 15.0931 22 15.9593 22 16.8255C21.937 16.8858 21.9198 16.9611 21.9943 17.0364ZM16.6375 11.907C16.6432 11.6885 16.5974 11.327 16.4943 10.988C16.2078 10.0164 15.7036 9.35355 14.8958 9.21044C14.1682 9.08239 13.5839 9.46653 13.1427 10.2273C12.4781 11.3872 12.5354 13.0745 13.263 14.1591C13.9964 15.2513 15.1995 15.2965 15.9786 14.2645C16.437 13.6544 16.6318 12.9088 16.6375 11.907ZM9.32708 12.0651C9.32708 11.5831 9.2526 11.1387 9.10365 10.7244C8.49062 8.992 6.88073 8.64552 5.94115 10.039C5.14479 11.214 5.19063 13.1573 6.04427 14.2721C6.78906 15.2437 7.91198 15.2513 8.65104 14.2796C9.12083 13.6695 9.32135 12.9163 9.32708 12.0651Z" fill="#646464"/>
</svg>
