<svg width="22" height="22" viewBox="0 0 22 22" fill="none" xmlns="http://www.w3.org/2000/svg">
<path d="M14.6673 11.8257V15.6757C14.6673 18.884 13.384 20.1673 10.1757 20.1673H6.32565C3.11732 20.1673 1.83398 18.884 1.83398 15.6757V11.8257C1.83398 8.61732 3.11732 7.33398 6.32565 7.33398H10.1757C13.384 7.33398 14.6673 8.61732 14.6673 11.8257Z" fill="#646464"/>
<path d="M15.6743 1.83398H11.8243C9.03081 1.83398 7.70354 2.81384 7.40656 5.1779C7.33714 5.73047 7.79679 6.18815 8.3537 6.18815H10.1743C14.0243 6.18815 15.8118 7.97565 15.8118 11.8257V13.6462C15.8118 14.2032 16.2695 14.6628 16.822 14.5934C19.1861 14.2964 20.166 12.9691 20.166 10.1757V6.32565C20.166 3.11732 18.8826 1.83398 15.6743 1.83398Z" fill="#646464"/>
</svg>
