<svg width="22" height="22" viewBox="0 0 22 22" fill="none" xmlns="http://www.w3.org/2000/svg">
<path d="M10.0833 16.5V19.25C10.0833 19.7542 9.67083 20.1667 9.16667 20.1667C8.6625 20.1667 8.25 19.7542 8.25 19.25V16.5H10.0833Z" fill="#573CFF"/>
<path d="M13.7501 16.5V19.25C13.7501 19.7542 13.3376 20.1667 12.8334 20.1667C12.3292 20.1667 11.9167 19.7542 11.9167 19.25V16.5H13.7501Z" fill="#573CFF"/>
<path d="M15.5834 10.0833V14.6667C15.5834 15.675 14.7584 16.5 13.7501 16.5H8.25008C7.24175 16.5 6.41675 15.675 6.41675 14.6667V10.0833C6.41675 9.075 7.24175 8.25 8.25008 8.25H13.7501C14.7584 8.25 15.5834 9.075 15.5834 10.0833Z" fill="#573CFF"/>
<path d="M4.58333 10.0807V13.7474C4.58333 14.2516 4.17083 14.6641 3.66667 14.6641C3.1625 14.6641 2.75 14.2516 2.75 13.7474V10.0807C2.75 9.57656 3.1625 9.16406 3.66667 9.16406C4.17083 9.16406 4.58333 9.57656 4.58333 10.0807Z" fill="#573CFF"/>
<path d="M19.2498 10.0807V13.7474C19.2498 14.2516 18.8373 14.6641 18.3332 14.6641C17.829 14.6641 17.4165 14.2516 17.4165 13.7474V10.0807C17.4165 9.57656 17.829 9.16406 18.3332 9.16406C18.8373 9.16406 19.2498 9.57656 19.2498 10.0807Z" fill="#573CFF"/>
<path d="M8.80014 6.96928H13.2002C14.0069 6.96928 14.6668 6.30927 14.6668 5.5026C14.6668 3.47677 13.026 1.83594 11.0002 1.83594C8.97433 1.83594 7.3335 3.47677 7.3335 5.5026C7.3335 6.30927 7.99347 6.96928 8.80014 6.96928Z" fill="#573CFF"/>
</svg>
