<svg width="22" height="22" viewBox="0 0 22 22" fill="none" xmlns="http://www.w3.org/2000/svg">
<path d="M17.756 4.48187L12.3844 2.08937C11.596 1.74104 10.4044 1.74104 9.61603 2.08937L4.24437 4.48187C2.8877 5.08687 2.68604 5.91187 2.68604 6.35187C2.68604 6.79187 2.8877 7.61688 4.24437 8.22188L9.61603 10.6144C10.0102 10.7885 10.5052 10.8802 11.0002 10.8802C11.4952 10.8802 11.9902 10.7885 12.3844 10.6144L17.756 8.22188C19.1127 7.61688 19.3144 6.79187 19.3144 6.35187C19.3144 5.91187 19.1219 5.08687 17.756 4.48187Z" fill="#573CFF"/>
<path d="M10.9998 15.6207C10.6515 15.6207 10.3031 15.5473 9.9823 15.4098L3.80396 12.6598C2.8598 12.2382 2.12646 11.1107 2.12646 10.0748C2.12646 9.69898 2.42896 9.39648 2.8048 9.39648C3.18063 9.39648 3.48313 9.69898 3.48313 10.0748C3.48313 10.5698 3.89563 11.2115 4.35397 11.4132L10.5323 14.1632C10.8256 14.2915 11.1648 14.2915 11.4581 14.1632L17.6365 11.4132C18.0948 11.2115 18.5073 10.579 18.5073 10.0748C18.5073 9.69898 18.8098 9.39648 19.1856 9.39648C19.5615 9.39648 19.864 9.69898 19.864 10.0748C19.864 11.1015 19.1306 12.2382 18.1865 12.6598L12.0081 15.4098C11.6965 15.5473 11.3481 15.6207 10.9998 15.6207Z" fill="#573CFF"/>
<path d="M10.9998 20.1675C10.6515 20.1675 10.3031 20.0942 9.9823 19.9567L3.80396 17.2067C2.78646 16.7575 2.12646 15.74 2.12646 14.6217C2.12646 14.2459 2.42896 13.9434 2.8048 13.9434C3.18063 13.9434 3.48313 14.2459 3.48313 14.6217C3.48313 15.1992 3.8223 15.7217 4.35397 15.96L10.5323 18.71C10.8256 18.8384 11.1648 18.8384 11.4581 18.71L17.6365 15.96C18.159 15.7309 18.5073 15.1992 18.5073 14.6217C18.5073 14.2459 18.8098 13.9434 19.1856 13.9434C19.5615 13.9434 19.864 14.2459 19.864 14.6217C19.864 15.74 19.204 16.7484 18.1865 17.2067L12.0081 19.9567C11.6965 20.0942 11.3481 20.1675 10.9998 20.1675Z" fill="#573CFF"/>
</svg>
