<svg width="453" height="485" viewBox="0 0 453 485" fill="none" xmlns="http://www.w3.org/2000/svg">
<path d="M322.633 378.524C324.748 376.231 327.186 374.294 329.382 372.13C335.581 366.011 341.49 359.586 346.931 352.757C347.706 351.788 348.142 350.787 347.545 349.931C346.947 349.075 345.898 349.818 345.139 350.206C335.549 355.001 325.911 354.371 316.143 350.706C311.203 348.849 306.973 345.814 302.549 343.134C297.577 340.115 292.249 338.468 286.566 337.823C280.447 337.112 272.81 341.794 271.341 347.251C270.889 348.946 271.035 350.803 270.922 352.514C261.202 351.11 252.064 351.352 243.944 358.117C234.289 366.173 234.095 377.41 239.536 387.161C240.311 388.55 241.183 389.89 242.006 391.262C241.603 392.085 239.714 391.843 240.279 393.054C240.811 394.2 241.958 393.022 242.83 392.941C243.152 392.909 243.459 392.812 243.766 392.747C248.19 396.767 253.421 399.399 259.233 401.304C253.049 403.112 247.156 404.84 241.247 406.551C226.975 410.684 212.703 414.785 198.448 418.934C183.95 423.164 169.548 427.668 154.97 431.608C145.993 434.029 137.049 433.238 128.541 429.073C117.191 423.503 109.7 414.849 106.697 402.434C105.97 399.431 104.808 396.509 103.855 393.587C104.356 393.005 104.969 393.248 105.486 393.232C108.731 393.183 108.715 393.183 108.763 396.412C108.812 400.158 110.749 403.177 112.912 405.954C120.823 416.173 131.511 422.002 144.023 424.213C148.802 425.053 154.049 425.505 158.651 422.873C162.17 420.855 165.609 418.514 167.046 414.478C167.902 412.073 167.579 409.489 166.868 407.019C165.609 402.676 163.123 399.076 160.071 395.831C159.361 395.072 158.425 394.539 157.779 393.651C162.558 393.248 166.884 392.295 170.969 390.309C180.769 385.514 187.211 377.749 189.213 367.158C190.924 358.133 191.118 348.72 187.259 340.083C182.835 330.154 175.183 323.551 164.382 321.048C161.379 320.354 158.312 320.031 155.228 320.031C136.758 320.031 118.289 319.983 99.819 319.966C99.1893 317.755 98.5435 315.559 97.93 313.347C97.7524 312.734 97.7847 311.749 96.9452 311.942C95.9926 312.168 96.3478 313.202 96.5093 313.831C97.0582 315.898 97.7363 317.916 98.3659 319.95C93.587 319.983 88.8082 319.95 84.0293 320.079C82.8508 320.112 82.3826 319.498 82.1242 318.659C80.9134 314.687 79.5734 310.732 78.7016 306.679C78.1365 304.064 80.3322 302.078 81.3332 299.834C81.9628 298.429 83.9647 297.073 82.8023 295.636C81.8336 294.425 79.864 295.604 78.524 296.153C76.3928 297.008 75.6825 296.605 75.0367 294.296C70.7099 278.765 66.2539 263.266 61.7172 247.783C60.0866 242.197 58.1815 236.675 56.793 231.009C54.9364 223.437 55.9858 216.139 58.7304 208.987C62.3469 199.542 68.7079 192.584 77.6683 187.934C78.0719 187.724 78.3464 187.272 78.6854 186.933C79.5088 186.966 80.429 187.24 80.6874 186.029C84.772 184.947 88.8889 183.93 92.9574 182.752C101.853 180.201 110.717 177.521 119.645 175.018C132.851 171.305 145.945 167.14 159.119 163.297C174.747 158.744 190.44 154.401 206.084 149.849C223.795 144.698 241.506 139.548 259.217 134.446C269.339 131.524 279.478 128.651 289.553 125.583C295.898 123.646 302.194 121.353 308.716 120.336C315.255 119.335 321.842 120.045 328.122 122.532C333.757 124.743 338.649 128.037 342.879 132.348C347.964 137.53 350.951 143.827 352.889 150.72C356.553 163.862 360.767 176.859 364.174 190.082C364.319 190.63 365.143 191.147 363.851 191.454C359.137 192.584 354.616 194.457 349.821 195.312C349.692 194.005 349.547 192.713 348.578 191.712C348.497 191.631 348.013 191.728 347.964 191.825C347.448 193.197 348.271 194.344 348.61 195.571C348.626 195.651 348.659 195.732 348.691 195.797C339.569 198.461 330.431 201.06 321.342 203.805C315.465 205.581 309.411 206.759 303.712 209.181C294.057 213.298 287.922 220.369 284.887 230.395C282.497 238.258 283.805 245.846 286.001 253.418C287.857 259.859 289.536 266.382 291.926 272.63C296.35 284.19 304.793 291.116 317.112 293.392C324.151 294.684 330.819 293.311 337.406 291.293C348.094 288.016 358.846 284.981 369.599 281.929C370.761 281.606 371.891 281.219 373.037 280.848C373.893 282.075 374.038 283.576 374.571 284.932C374.716 285.32 374.959 285.739 375.411 285.659C376.089 285.546 375.992 284.948 375.895 284.496C375.588 283.14 375.233 281.816 374.894 280.476C379.253 278.507 384.064 277.909 388.504 276.198C389.602 275.778 389.602 277.07 389.796 277.715C391.765 284.286 393.832 290.841 395.592 297.477C397.69 305.436 400.532 313.169 402.259 321.226C404.391 331.187 403.115 340.535 397.9 349.398C392.621 358.375 385.098 364.445 375.233 367.529C364.884 370.758 354.439 373.729 344.025 376.796C343.638 376.909 343.218 376.925 342.798 376.909C336.114 376.683 329.479 376.812 323.037 378.927C322.908 378.766 322.762 378.637 322.633 378.524ZM384.871 320.451C384.92 319.111 384.678 317.835 384.371 316.544C384.242 316.027 384.113 315.559 383.451 315.704C382.934 315.817 382.853 316.302 382.934 316.673C383.628 319.934 382.999 323.195 382.853 326.44C382.837 326.909 382.773 327.538 383.451 327.571C384.032 327.587 384.226 327.054 384.274 326.554C384.484 324.519 384.678 322.485 384.871 320.451ZM299.998 136.481C298.626 136.61 296.64 136.206 294.735 136.933C294.331 137.078 293.912 137.256 293.976 137.74C294.041 138.386 294.59 138.483 295.09 138.37C298.239 137.611 301.435 138.031 304.616 137.95C305.165 137.934 305.956 138.063 305.972 137.304C306.004 136.319 305.084 136.545 304.487 136.513C303.179 136.448 301.871 136.481 299.998 136.481ZM378.301 294.974C377.784 297.993 379.108 300.577 379.883 303.289C380.189 304.387 380.141 306.485 381.336 306.195C382.773 305.824 381.61 304.032 381.287 303.047C380.399 300.318 380.254 297.331 378.301 294.974ZM84.659 270.563C83.9809 270.822 84.0778 271.338 84.2554 271.936C85.1756 274.987 86.0797 278.054 87 281.106C87.1291 281.558 87.226 282.188 87.9041 281.978C88.4692 281.8 88.5014 281.251 88.3561 280.735C87.4843 277.667 86.6125 274.583 85.7246 271.532C85.5631 271.064 85.3371 270.596 84.659 270.563ZM316.272 139.064C315.772 139.015 315.368 139.032 315.223 139.532C315.126 139.903 315.304 140.178 315.626 140.307C318.791 141.647 321.858 143.149 324.684 145.134C325.039 145.393 325.507 145.393 325.765 144.989C326.024 144.602 325.846 144.214 325.475 143.94C322.617 141.841 319.517 140.242 316.272 139.064ZM230.882 395.815C230.592 394.975 229.881 395.169 229.171 395.379C226.281 396.234 223.375 397.09 220.485 397.962C220.001 398.107 219.113 398.059 219.355 398.898C219.581 399.689 220.324 399.576 221.002 399.367C223.892 398.495 226.798 397.655 229.688 396.783C230.14 396.622 230.705 396.622 230.882 395.815ZM77.2162 219.271C77.7329 219.271 77.9427 218.916 78.088 218.529C79.2505 215.429 80.6712 212.474 82.5925 209.762C82.9476 209.261 82.8992 208.809 82.3987 208.503C81.8498 208.164 81.4462 208.551 81.1878 208.987C79.5572 211.845 77.8459 214.67 76.7803 217.802C76.5704 218.416 76.5704 218.948 77.2162 219.271ZM129.558 186.174C132.77 185.238 135.967 184.302 139.18 183.365C139.616 183.236 139.923 183.01 139.81 182.493C139.729 182.106 139.374 181.945 139.067 182.009C135.644 182.784 132.254 183.607 128.976 184.899C128.783 184.98 128.605 185.448 128.637 185.722C128.67 186.287 129.122 186.239 129.558 186.174ZM191.747 168.092C194.912 167.172 198.125 166.252 201.321 165.299C201.79 165.154 202.274 164.847 201.919 164.234C201.612 163.685 201.128 163.862 200.627 164.008C197.576 164.912 194.508 165.784 191.457 166.655C190.972 166.785 190.424 166.865 190.52 167.527C190.633 168.189 191.215 168.092 191.747 168.092ZM344.445 363.364C347.738 362.427 351.016 361.475 354.309 360.538C354.729 360.425 355.117 360.215 355.036 359.715C354.923 359.069 354.374 359.005 353.89 359.134C350.596 360.07 347.319 361.055 344.041 362.04C343.622 362.169 343.299 362.427 343.46 362.928C343.589 363.428 344.009 363.412 344.445 363.364ZM380.819 337.855C380.851 337.258 380.771 336.902 380.383 336.886C380.109 336.87 379.657 337.015 379.56 337.225C378.123 340.277 376.266 343.07 374.248 345.766C374.006 346.089 373.861 346.589 374.28 346.864C374.813 347.235 375.217 346.751 375.508 346.395C376.977 344.539 378.494 342.698 379.511 340.519C379.947 339.55 380.432 338.614 380.819 337.855ZM90.681 291.132C90.6326 294.926 91.9887 298.413 93.0866 301.933C93.1996 302.32 93.6355 302.691 94.023 302.401C94.2651 302.223 94.4104 301.658 94.3297 301.319C93.8292 299.35 93.3772 297.348 92.6507 295.442C92.1017 293.989 92.2793 292.214 90.681 291.132ZM241.861 151.867C238.955 152.755 235.839 153.691 232.723 154.66C232.239 154.805 231.835 155.176 232.093 155.774C232.303 156.21 232.739 156.194 233.159 156.064C236.291 155.144 239.423 154.208 242.539 153.271C242.959 153.142 243.33 152.932 243.249 152.432C243.136 151.786 242.587 151.851 241.861 151.867ZM339.408 160.504C337.89 157.275 336.033 154.305 333.741 151.592C333.483 151.286 332.982 151.221 332.659 151.625C332.369 151.996 332.449 152.432 332.74 152.755C335 155.193 336.566 158.083 338.052 161.021C338.245 161.408 338.6 161.731 339.036 161.441C339.246 161.295 339.279 160.876 339.408 160.504ZM108.537 192.245C110.781 191.599 112.815 191.002 114.866 190.421C116.044 190.081 117.223 189.791 118.402 189.436C118.805 189.323 119.128 189.032 119.08 188.548C119.047 188.16 118.757 187.902 118.434 187.999C115.06 188.951 111.685 189.92 108.327 190.905C107.908 191.034 107.665 191.47 107.924 191.89C108.053 192.1 108.424 192.18 108.537 192.245ZM357.474 359.457C361.042 358.262 364.077 356.486 366.951 354.419C367.274 354.193 367.564 353.758 367.177 353.386C366.999 353.225 366.515 353.16 366.305 353.289C363.367 355.081 360.444 356.906 357.199 358.1C356.763 358.262 356.602 358.714 356.844 359.118C356.973 359.327 357.361 359.408 357.474 359.457ZM179.51 411.411C182.319 410.523 185.612 409.505 188.89 408.456C189.197 408.359 189.406 408.052 189.326 407.665C189.245 407.261 188.906 407.148 188.583 407.245C185.257 408.182 181.948 409.118 178.638 410.087C178.412 410.151 178.121 410.555 178.121 410.797C178.121 411.314 178.541 411.443 179.51 411.411ZM342.233 170.837C341.91 174.728 343.605 178.167 344.542 181.783C344.59 181.977 345.075 182.219 345.317 182.187C345.833 182.106 345.866 181.573 345.753 181.218C344.8 177.698 343.993 174.13 342.233 170.837ZM200.127 405.421C203.065 404.517 206.326 403.532 209.604 402.515C210.072 402.369 210.233 401.95 210.007 401.546C209.781 401.126 209.345 401.142 208.926 401.272C205.81 402.208 202.694 403.144 199.561 404.081C199.142 404.21 198.787 404.404 198.867 404.904C198.932 405.405 199.335 405.485 200.127 405.421ZM171.114 174.05C174.085 173.194 177.153 172.338 180.188 171.418C180.672 171.273 181.479 171.16 181.253 170.369C181.011 169.561 180.301 169.933 179.8 170.078C176.733 170.918 173.681 171.789 170.63 172.677C170.243 172.79 169.823 173.033 169.871 173.501C169.936 174.227 170.549 174.001 171.114 174.05ZM82.3987 260.118C81.4462 256.921 80.4775 253.708 79.5249 250.511C79.3958 250.092 79.1697 249.753 78.6693 249.85C78.1526 249.946 78.0396 250.415 78.1526 250.802C79.0729 254.015 80.0254 257.212 80.9941 260.408C81.1233 260.812 81.3977 261.135 81.8982 261.054C82.3987 260.957 82.4633 260.554 82.3987 260.118ZM253.243 150.268C256.73 149.171 260.153 148.105 263.559 147.007C263.882 146.91 264.06 146.474 263.834 146.2C263.673 145.99 263.237 145.845 262.978 145.909C259.685 146.846 256.407 147.814 253.114 148.783C252.71 148.896 252.274 149.09 252.533 149.606C252.662 149.881 252.985 150.042 253.243 150.268ZM222.519 158.405C222.406 157.905 222.051 157.727 221.615 157.856C218.322 158.809 215.044 159.794 211.767 160.779C211.315 160.924 211.105 161.328 211.347 161.731C211.476 161.941 211.928 162.119 212.171 162.038C215.383 161.15 218.596 160.214 221.793 159.277C222.18 159.164 222.503 158.89 222.519 158.405ZM160.491 176.536C160.168 175.826 159.603 175.955 159.167 176.068C156.164 176.891 153.161 177.747 150.175 178.635C149.69 178.78 148.851 178.925 149.093 179.7C149.383 180.604 150.11 180.201 150.74 180.007C153.177 179.264 155.632 178.586 158.037 177.779C158.909 177.521 160.023 177.569 160.491 176.536ZM74.5685 233.301C74.5846 235.335 74.4878 237.386 75.1013 239.372C75.2466 239.856 75.3596 240.373 76.0215 240.211C76.5059 240.098 76.6027 239.614 76.5059 239.226C75.7955 236.078 76.0861 232.897 75.9731 229.717C75.9569 229.216 75.7471 228.668 75.1497 228.716C74.4878 228.764 74.5685 229.394 74.5523 229.862C74.5523 231.025 74.5685 232.155 74.5685 233.301ZM273.343 143.52C277.412 143.488 281.125 142.148 284.661 140.291C280.673 140.614 276.863 141.615 273.343 143.52ZM89.4863 201.609C89.6316 201.544 89.7285 201.528 89.7769 201.464C92.4408 199.155 95.4437 197.347 98.4951 195.603C98.6727 195.506 98.7857 194.941 98.6565 194.747C98.3336 194.215 97.8331 194.376 97.3811 194.65C95.9765 195.474 94.5719 196.297 93.1673 197.137C91.7627 197.976 90.4227 198.913 89.3087 200.124C89.0181 200.43 88.8082 200.802 88.9858 201.221C89.0826 201.415 89.341 201.512 89.4863 201.609Z" fill="url(#paint0_linear_649_4010)"/>
<path d="M394.042 28.1053C399.741 23.7462 405.44 19.371 411.156 15.028C417.081 10.5398 423.022 6.08383 428.963 1.61172C429.787 0.982069 430.642 -0.035044 431.272 1.77317C434.259 10.2492 437.246 18.7252 440.216 27.2012C440.345 27.5887 440.345 28.0085 440.442 28.6058C437.988 28.6058 435.615 28.6866 433.242 28.5735C431.837 28.509 431.207 29.0579 430.82 30.3818C428.091 39.3583 425.121 48.2541 422.554 57.279C420.132 65.8196 418.065 74.4732 415.95 83.1107C413.997 91.0378 413.27 99.1909 411.511 107.134C409.283 117.128 406.554 126.96 400.742 135.614C396.189 142.378 390.264 146.786 381.724 147.415C373.248 148.045 364.868 148.11 356.538 146.334C354.907 145.995 353.938 145.268 353.228 143.605C350.58 137.373 347.141 131.707 341.62 127.477C339.602 125.927 340.135 123.231 339.892 121.019C338.875 111.17 338.116 101.29 337.777 91.3768C337.584 85.6777 336.889 79.9786 336.357 74.2956C336.018 70.55 335.356 66.8529 334.129 63.301C333.58 61.735 332.885 60.0075 330.787 59.7492C328.672 59.4908 327.219 60.4757 325.992 62.1224C322.036 67.4502 319.598 73.5207 317.096 79.575C312.672 90.2305 309.153 101.193 305.472 112.107C305.294 112.656 304.971 113.172 304.923 113.721C304.616 117.725 302.291 119.356 298.529 120.292C291.167 122.1 283.918 124.425 276.621 126.524C276.33 126.605 276.007 126.637 275.475 126.734C276.217 122.52 276.863 118.452 277.654 114.399C280.044 102.097 283.708 90.1498 288.471 78.5901C294.332 64.3988 301.694 51.031 311.607 39.1807C313.415 37.0173 315.11 34.8539 317.758 33.6753C319.356 32.9649 320.954 32.529 322.73 32.5452C330.125 32.5936 337.519 32.0931 344.913 31.9801C352.308 31.8832 355.908 35.6611 358.491 41.2795C363.448 52.1127 365.304 63.6885 366.58 75.4096C367.532 84.1924 368.194 92.9913 368.63 101.822C369.001 109.362 368.582 117.063 371.391 124.361C371.746 125.265 372.053 126.201 372.489 127.073C372.908 127.913 373.118 129.043 374.442 129.01C375.879 128.962 376.38 127.848 376.783 126.782C378.139 123.15 378.543 119.291 378.866 115.497C379.996 101.645 382.579 88.0671 386.066 74.6347C389.941 59.733 395.043 45.2834 401.146 31.1728C402.163 28.848 402.001 28.622 399.547 28.5897C397.755 28.5736 395.963 28.5897 394.187 28.5897C394.139 28.4606 394.09 28.2829 394.042 28.1053Z" fill="#B06AB3"/>
<path d="M378.188 205.668C378.833 202.842 379.608 200.485 381.126 198.338C382.514 196.368 383.951 196.433 385.792 197.515C393.057 201.825 397.739 208.154 400.177 216.162C401.339 219.972 402.421 223.831 403.535 227.657C403.809 228.593 403.632 229.223 402.825 229.982C393.816 238.458 391.055 248.823 393.574 260.802C393.993 262.788 394.397 264.742 395.446 266.453C396.463 268.1 395.785 269.085 394.429 270.005C389.586 273.282 384 274.8 378.494 276.414C370.842 278.658 363.124 280.741 355.456 282.953C345.866 285.73 336.421 289.023 326.653 291.09C321.794 292.107 316.789 291.154 312.123 289.298C303.663 285.94 297.609 279.982 294.412 271.522C292.152 265.565 290.731 259.317 288.874 253.214C287.341 248.177 286.065 243.14 286.372 237.764C286.743 230.967 289.423 225.284 293.573 220.02C299.143 212.997 307.086 210.463 315.191 208.219C323.731 205.861 332.191 203.198 340.748 200.873C349.385 198.532 357.829 195.529 366.628 193.721C368.113 193.414 369.146 193.64 370.277 194.237C374.716 196.61 376.928 200.614 378.188 205.668ZM301.871 247.402C301.548 261.044 312.704 272.636 326.427 272.927C340.231 273.218 351.71 262.142 352.049 248.209C352.388 234.615 341.184 222.991 327.477 222.684C313.657 222.378 302.194 233.453 301.871 247.402Z" fill="url(#paint1_linear_649_4010)"/>
<path d="M327.121 463.923C340.231 466.49 352.42 464.859 363.172 457.352C372.423 450.894 378.607 441.966 380.932 430.681C381.561 427.63 382.11 424.578 381.868 421.462C381.787 420.332 382.336 419.88 383.192 419.428C390.344 415.699 396.511 410.565 401.985 404.801C410.525 395.824 416.805 385.314 421.052 373.577C423.812 365.973 425.766 358.239 427.009 350.28C427.445 347.519 429.689 345.501 430.948 343.047C434.306 336.589 436.793 329.841 438.504 322.479C441.588 327.58 443.929 332.763 446.189 337.977C449.224 345.049 451.258 352.427 451.969 360.031C452.615 366.909 453.39 373.77 452.776 380.81C452.017 389.544 450.742 398.068 448.223 406.464C445.543 415.392 441.62 423.723 436.825 431.714C431.077 441.272 423.796 449.538 415.627 456.997C408.459 463.536 400.435 468.976 391.959 473.723C384.112 478.114 375.911 481.634 367.063 483.345C354.002 485.88 342.168 483.507 332.788 473.368C330.366 470.752 328.122 467.798 327.121 463.923Z" fill="#FED23F"/>
<path d="M379.414 420.832C379.818 444.645 360.057 462.792 338.294 462.743C313.56 462.695 296.269 443.66 296.01 421.316C295.752 398.326 314.722 377.676 341.119 379.356C360.783 380.631 379.77 398.067 379.414 420.832ZM324.958 431.019C324.797 432.278 325.152 433.021 326.573 433.231C331.836 434.038 337.099 434.894 342.346 435.862C343.428 436.056 344.057 435.814 344.671 435.055C348.126 430.874 351.597 426.708 355.036 422.511C355.843 421.526 355.811 420.735 354.648 419.847C347.302 414.164 340.005 408.416 332.691 402.685C331.513 401.765 330.689 401.635 330.367 403.492C329.705 407.205 328.881 410.886 328.155 414.584C327.089 420.073 326.024 425.546 324.958 431.019ZM303.179 416.715C303.179 416.86 303.146 417.264 303.179 417.683C303.227 418.297 302.969 419.153 303.921 419.233C304.696 419.298 304.68 418.491 304.874 417.99C309.33 406.527 318.113 399.924 329.398 396.178C332.691 395.081 334.483 392.417 333.644 389.462C332.659 385.991 330.011 384.683 326.33 385.765C312.155 389.963 304.551 402.62 303.179 416.715ZM327.008 434.329C326.928 434.329 326.33 434.119 326.12 434.716C325.781 435.685 326.637 435.975 327.234 436.363C333.935 440.835 340.651 445.275 347.319 449.795C349.03 450.958 349.676 450.441 350.16 448.649C352.243 441.061 354.406 433.489 356.489 425.901C356.683 425.191 357.377 424.141 356.521 423.641C355.456 423.011 354.971 424.287 354.455 424.9C351.387 428.533 348.368 432.23 345.381 435.927C344.509 437.009 343.589 437.267 342.168 436.976C337.244 436.008 332.32 435.233 327.008 434.329Z" fill="#573CFF"/>
<path d="M337.663 359.297C332.658 365.077 327.782 369.969 322.632 374.651C317.352 379.43 311.944 384.015 306.067 388.035C297.753 393.734 289.002 398.594 278.96 400.499C271.049 402.016 263.51 400.305 256.228 397.351C250.384 394.977 245.266 391.603 241.876 386.017C235.127 374.861 238.437 363.608 249.673 357.344C255.938 353.84 262.573 353.517 269.419 354.664C270.549 354.857 271.743 355.132 272.309 356.553C274.294 361.606 278.25 364.77 282.786 367.418C293.216 373.472 304.033 372.746 314.963 369.226C321.033 367.273 326.91 364.851 332.399 361.541C333.836 360.718 335.483 360.234 337.663 359.297Z" fill="#FDA368"/>
<path d="M194.007 116.112C193.281 115.902 193.168 115.159 192.764 114.675C192.102 107.894 191.424 101.113 190.795 94.3322C190.649 92.8146 190.213 92.3625 188.68 93.0729C185.548 94.5098 182.448 96.1888 178.815 95.4946C178.961 100.742 180.107 105.666 179.994 110.687C178.767 111.123 178.395 109.815 177.556 109.476C177.669 104.778 176.62 100.177 176.442 95.5108C176.393 94.316 175.489 94.1869 174.634 93.864C171.986 92.863 169.031 92.5563 166.9 90.3445C166.464 89.8924 165.609 89.6825 164.737 89.9247C165.334 95.0426 165.915 100.144 166.513 105.246C165.431 105.585 164.705 105.02 164.075 104.245C163.575 99.9183 162.977 95.6076 162.606 91.2647C162.444 89.4565 161.863 88.4232 160.023 88.0196C157.94 87.5676 155.89 86.954 154.404 85.2104C154.017 84.7583 153.339 84.4193 152.435 84.7422C152.951 89.0852 153.468 93.4765 153.984 97.8518C154.098 98.7397 154.453 99.6277 153.726 100.419C152.935 100.306 152.241 100.015 151.708 99.3855C151.143 94.5421 150.578 89.7148 149.981 84.8713C149.9 84.2094 149.997 83.2407 148.786 83.5636C146.929 82.9824 145.008 82.6111 143.329 81.5778C141.634 79.6081 139.228 79.4467 136.903 79.0915L136.952 79.1238C135.644 78.0421 134.11 77.6223 132.447 77.6062L132.496 77.6385C132.399 76.9927 131.898 77.1218 131.462 77.1057L131.511 77.138C129.154 75.3298 128.702 73.0856 129.961 70.4217C130.235 69.8244 130.397 69.1786 130.623 68.5651C137.016 50.9995 143.426 33.4179 149.819 15.8523C150.917 15.3841 151.724 15.5456 152.096 16.8049C145.444 34.9516 138.776 53.0984 132.141 71.2451C131.123 74.0059 131.349 74.4095 134.175 75.3298C135.967 75.911 137.807 76.4276 139.567 77.1219C140.923 77.6546 141.456 77.4286 141.973 75.9594C144.12 69.7437 146.445 63.5764 148.705 57.3929C153.21 45.026 157.714 32.6752 162.202 20.3083C163.203 19.9693 164.156 19.7432 164.301 21.2769C164.156 21.7451 164.043 22.2295 163.881 22.6977C157.423 40.3924 150.949 58.0871 144.475 75.7657C143.442 78.6071 143.684 79.1238 146.558 80.0441C148.431 80.6576 150.368 81.1419 152.192 81.8523C153.613 82.4173 154.178 82.046 154.695 80.6414C161.395 62.1556 168.16 43.7021 174.892 25.2324C175.893 24.958 176.329 25.8459 177.007 26.2334C176.878 26.6209 176.765 27.0245 176.636 27.3958C170.081 45.2843 163.51 63.1889 156.955 81.0773C155.954 83.7896 156.164 84.2256 158.941 85.1781C160.798 85.8077 162.751 86.2598 164.527 87.067C166.351 87.8904 166.884 87.1478 167.465 85.5494C174.149 67.0798 180.898 48.6263 187.63 30.1727C188.389 30.4472 189.148 30.7217 189.907 30.9962C183.11 49.5304 176.345 68.0808 169.5 86.5989C168.676 88.8268 169.419 89.7955 171.485 90.3929C174.085 91.1517 176.7 91.9266 179.235 92.9115C180.962 93.5896 181.527 93.0245 182.109 91.41C188.26 74.4741 194.508 57.5866 200.708 40.6669C201.014 39.8112 201.305 38.9555 201.612 38.0999C201.87 37.341 202.322 36.7275 203.162 36.7275C204.098 36.7275 204.324 37.4864 204.453 38.2613C204.534 38.7457 204.663 39.23 204.728 39.7143C206.116 49.2398 207.472 58.7652 208.893 68.2907C209.41 71.7941 211.024 72.5206 214.188 70.7285C217.918 68.6297 221.647 66.4986 225.361 64.3836C226.345 63.8185 227.33 63.2373 228.525 63.2534L228.493 63.2212C228.945 64.3513 229.009 65.4492 228.477 66.6116C228.105 67.4027 227.443 68.2261 228.025 69.227L228.041 69.1948C226.539 70.7124 226.039 72.6013 226.039 74.6678L226.071 74.6194C225.248 74.91 225.151 75.4428 225.554 76.1532L225.571 76.1208C223.762 78.6556 222.826 81.4809 222.584 84.5646L222.6 84.5323C221.728 84.4032 221.809 85.1942 221.647 85.6302C218.16 95.2847 214.689 104.955 211.25 114.642C211.089 115.111 210.588 115.676 211.186 116.208L211.202 116.176C209.942 116.58 210.281 117.887 209.781 118.727C209.377 119.421 208.925 120.002 208.086 119.889C207.343 119.793 207.02 119.163 206.875 118.501C206.762 117.936 206.762 117.355 206.697 116.79C205.761 108.314 204.857 99.8376 203.856 91.3615C203.517 88.5362 202.048 87.7451 199.384 88.73C197.769 89.3273 196.219 90.1023 194.572 90.6189C192.99 91.1032 192.732 91.9912 192.91 93.5411C193.668 100.225 194.25 106.941 194.992 113.641C195.105 114.723 195.041 115.563 194.007 116.112Z" fill="#F6A268"/>
<path d="M424.087 224.507C440.635 224.442 453.099 237.794 452.938 253.115C452.76 270.229 439.812 281.966 424.41 282.176C408.41 282.402 394.978 269.196 395.22 252.421C395.446 237.697 408.653 224.103 424.087 224.507ZM423.974 269.131C423.764 272.199 424.523 273.151 427.251 273.426C429.544 273.652 430.4 272.344 430.367 270.293C430.351 268.695 431.497 268.501 432.628 268.195C437.326 266.919 440.086 263.852 440.264 259.703C440.458 255.021 438.601 252.55 433.483 250.726C431.627 250.064 429.738 249.467 427.913 248.74C426.299 248.094 426.153 246.69 426.412 245.221C426.654 243.832 427.752 243.461 428.963 243.316C431.836 242.96 433.58 243.994 434.904 246.803C435.647 248.385 438.197 249.402 440.038 248.692C442.04 247.917 441.313 246.222 440.958 244.882C440.361 242.573 438.989 240.684 436.793 239.618C435.534 239.005 435.001 238.165 435.421 236.89C436.196 234.533 435.017 233.532 432.934 233.064C430.739 232.563 429.334 233.338 429.076 235.614C428.898 237.18 428.236 237.762 426.606 237.972C424.184 238.278 422.101 239.521 420.793 241.717C417.516 247.223 419.841 252.776 426.202 254.649C428.107 255.214 429.948 255.86 431.723 256.732C433.241 257.475 433.645 258.669 433.354 260.203C433.063 261.721 431.933 262.366 430.561 262.625C426.719 263.351 424.749 262.092 423.457 258.136C423.07 256.942 420.212 255.795 418.63 256.231C416.935 256.7 416.854 258.056 417.112 259.412C417.71 262.673 419.437 265.256 422.44 266.709C423.748 267.307 424.636 267.775 423.974 269.131ZM419.954 226.686C419.05 226.799 418.226 226.848 417.403 226.993C410.122 228.204 404.826 231.982 401.952 238.924C401.533 239.941 401.533 240.878 402.404 241.62C403.292 242.379 404.197 242.121 405.117 241.556C409.863 238.601 414.658 235.695 419.066 232.224C420.099 231.417 421.1 230.529 421.601 229.253C422.23 227.655 421.552 226.67 419.954 226.686Z" fill="#573CFF"/>
<path d="M80.6547 185.971C80.3964 187.182 79.4762 186.923 78.6528 186.875C78.5398 185.583 77.3127 185.745 76.6024 185.519C60.4737 180.369 44.5711 174.589 28.4586 169.39C23.4376 167.776 18.5941 165.628 13.3793 164.563C11.2321 164.127 9.60145 162.739 8.66505 160.236C6.17875 153.536 3.20812 147.014 0.382782 140.443C-0.101562 139.312 -0.117727 138.344 0.285893 137.149C4.40282 125.234 8.47132 113.287 12.5075 101.34C15.8979 91.314 19.2883 81.3042 22.5496 71.2298C23.1469 69.3732 23.7604 68.9696 25.6494 69.6154C36.1112 73.2318 46.6376 76.703 57.1156 80.2548C68.5138 84.1134 79.8959 88.0527 91.3264 91.8629C92.9893 92.4118 93.8127 93.2514 94.4585 94.8658C97.1547 101.598 100.028 108.25 102.886 114.902C103.435 116.161 103.532 117.291 103.08 118.615C98.527 131.934 94.0065 145.27 89.4859 158.606C86.6767 166.856 83.8514 175.089 81.1068 183.355C80.8323 184.179 80.2349 185.018 80.6547 185.971ZM56.2599 158.719C57.4224 158.347 58.6009 157.976 59.7634 157.605C62.1851 158.412 64.6391 159.122 67.0285 160.042C68.4977 160.607 69.0305 160.188 69.4987 158.799C74.5036 143.817 79.5569 128.867 84.6586 113.917C85.1591 112.448 84.8847 111.995 83.4316 111.511C67.755 106.264 52.0784 100.969 36.4341 95.6247C34.8358 95.0757 34.3353 95.4955 33.8671 96.997C32.4141 101.631 30.7996 106.216 29.2497 110.801C25.7462 121.15 22.2106 131.515 18.7233 141.863C18.465 142.606 17.7384 143.446 19.2883 143.93C24.2286 145.464 29.1205 147.127 34.0447 148.741C35.4008 149.355 35.9659 150.678 36.6601 151.825C37.0637 152.519 36.2242 152.018 36.0305 152.196C30.2184 150.178 24.3901 148.192 18.5941 146.093C17.0926 145.544 17.1249 146.674 16.8666 147.417C15.462 151.453 14.2511 155.57 12.7012 159.558C11.9424 161.512 12.6044 162.044 14.3157 162.626C30.0731 167.873 45.7981 173.217 61.5393 178.512C66.641 180.24 71.7589 181.951 77.0544 183.743C77.0221 183.194 77.0544 182.952 76.9737 182.758C74.3744 176.542 71.7428 170.327 69.1596 164.111C68.756 163.126 68.0295 162.835 67.1415 162.529C63.5089 161.286 59.8925 159.994 56.2599 158.719ZM25.9561 71.7303C28.8945 78.7372 31.6068 85.1628 34.2707 91.6046C34.6259 92.4764 35.2717 92.767 36.0951 93.0576C52.2237 98.4823 68.3524 103.891 84.4487 109.396C85.7888 109.848 86.144 109.477 86.5153 108.347C87.8391 104.294 89.0985 100.21 90.6645 96.2382C91.4233 94.3169 91.1004 93.6388 89.1469 92.993C76.6508 88.8923 64.187 84.6785 51.7232 80.4808C43.3118 77.6555 34.9326 74.7817 25.9561 71.7303ZM79.2663 182.08C79.5407 181.822 79.6376 181.773 79.6537 181.709C86.7575 160.769 93.845 139.829 100.965 118.905C101.385 117.678 100.933 117.388 99.8832 117.049C96.3636 115.935 92.844 114.756 89.3891 113.481C87.8714 112.916 87.2902 113.19 86.7575 114.772C81.688 129.981 76.5055 145.141 71.3553 160.317C71.0001 161.35 70.8548 162.303 71.323 163.401C74.0031 169.568 76.6024 175.8 79.2663 182.08ZM24.2125 73.7C23.9057 73.7969 23.7927 73.7969 23.7766 73.8453C16.6406 94.8497 9.52073 115.87 2.36859 136.858C1.98111 137.989 2.4493 138.231 3.36956 138.538C6.9537 139.716 10.554 140.879 14.0897 142.219C15.7203 142.832 16.1885 142.235 16.6567 140.83C21.7423 125.638 26.8925 110.462 31.9943 95.2695C32.2365 94.5268 32.7047 93.8326 32.3172 92.9123C29.5726 86.5029 26.8925 80.0772 24.2125 73.7ZM10.4087 159.219C11.9747 154.585 13.3309 150.63 14.6386 146.674C14.8646 145.98 15.5589 145.108 14.2512 144.673C10.4894 143.429 6.72768 142.17 2.64304 140.814C5.27465 147.03 7.71251 152.826 10.4087 159.219ZM93.0378 96.5288C91.4233 101.178 89.9703 105.408 88.5011 109.638C88.2751 110.284 88.4526 110.768 89.1307 110.994C92.8925 112.238 96.6704 113.497 100.803 114.869C98.1395 108.589 95.6855 102.793 93.0378 96.5288Z" fill="#F2A167"/>
<path d="M337.196 355.812C333.224 358.428 329.414 360.656 325.394 362.496C319.13 365.37 312.753 367.873 305.891 369.132C296.317 370.875 287.938 368.486 280.285 362.69C277.638 360.688 275.603 358.299 274.409 355.28C272.439 350.259 273.311 345.851 277.993 342.848C283.611 339.232 289.181 340.152 294.929 342.283C300.773 344.446 305.439 348.676 310.993 351.308C317.515 354.408 324.393 356.103 331.658 356.135C333.402 356.135 335.016 355.199 337.196 355.812Z" fill="#F1F2AE"/>
<path d="M228.525 63.2553C227.33 63.2392 226.345 63.8204 225.36 64.3855C221.647 66.5005 217.917 68.6316 214.188 70.7304C211.007 72.5224 209.409 71.796 208.892 68.2925C207.472 58.7671 206.116 49.2417 204.727 39.7162C204.663 39.2319 204.533 38.7476 204.453 38.2632C204.323 37.4883 204.097 36.7294 203.161 36.7294C202.322 36.7294 201.869 37.3591 201.611 38.1017C201.321 38.9574 201.03 39.8131 200.707 40.6688C194.491 57.5724 188.259 74.476 182.108 91.4119C181.527 93.0263 180.978 93.5914 179.234 92.9134C176.716 91.9285 174.1 91.1536 171.485 90.3948C169.418 89.7974 168.676 88.8287 169.499 86.6007C176.345 68.0827 183.109 49.5323 189.906 30.998C194.62 32.7094 199.367 34.3238 204.017 36.2128C205.712 36.907 205.567 38.909 205.712 40.4589C206.083 44.4789 207.165 48.386 207.31 52.4383C207.375 54.3273 208.489 55.5704 210.378 56.2162C214.672 57.6692 218.935 59.203 223.197 60.7852C225.021 61.4794 226.991 61.9153 228.525 63.2553Z" fill="#B06AB3"/>
<path d="M187.631 30.1913C180.899 48.6448 174.15 67.0983 167.466 85.5679C166.885 87.1663 166.352 87.9089 164.528 87.0856C162.752 86.2783 160.799 85.8263 158.942 85.1966C156.149 84.2602 155.955 83.8243 156.956 81.0958C163.527 63.2074 170.082 45.3028 176.637 27.4144C176.782 27.0269 176.895 26.6394 177.008 26.252C180.576 27.479 184.192 28.593 187.631 30.1913Z" fill="#B06AB3"/>
<path d="M174.875 25.2504C168.127 43.7201 161.378 62.1736 154.678 80.6594C154.162 82.0801 153.613 82.4353 152.176 81.8702C150.335 81.1437 148.414 80.6593 146.541 80.062C143.651 79.1417 143.425 78.609 144.459 75.7836C150.933 58.0889 157.391 40.4104 163.865 22.7157C164.026 22.2475 164.155 21.7793 164.284 21.2949C167.82 22.6027 171.356 23.9265 174.875 25.2504Z" fill="#B06AB3"/>
<path d="M162.186 20.3218C157.681 32.6887 153.193 45.0556 148.689 57.4064C146.428 63.5898 144.104 69.741 141.956 75.9729C141.456 77.4421 140.907 77.6681 139.551 77.1353C137.791 76.4411 135.967 75.9245 134.158 75.3433C131.333 74.423 131.123 74.0194 132.124 71.2586C138.776 53.1119 145.427 34.9651 152.079 16.8184C155.469 17.9324 158.666 19.5791 162.186 20.3218Z" fill="#B06AB3"/>
<path d="M427.268 342.398C426.703 334.148 424.782 326.35 420.988 319.052C418.243 313.757 414.805 308.962 410.785 304.538C406.716 300.066 402.373 295.997 397.384 292.591C395.544 291.332 395.883 289.087 395.237 287.295C394.753 285.955 394.026 284.615 394.446 283.098C395.802 283.566 397.207 283.921 398.482 284.535C405.263 287.78 411.495 291.816 417.275 296.675C423.636 302.036 428.98 308.284 433.823 314.984C435.292 317.018 436.035 319.02 435.405 321.732C433.759 329.03 431.078 335.891 427.268 342.398Z" fill="#FED23F"/>
<path d="M194.008 116.11C195.041 115.561 195.105 114.738 194.992 113.64C194.266 106.94 193.685 100.24 192.91 93.5396C192.732 91.9897 192.99 91.1017 194.573 90.6174C196.219 90.1169 197.769 89.3258 199.384 88.7285C202.048 87.7436 203.517 88.5347 203.856 91.36C204.857 99.8361 205.761 108.312 206.697 116.788C206.762 117.353 206.762 117.934 206.875 118.499C207.004 119.161 207.343 119.791 208.086 119.888C208.925 120.001 209.377 119.42 209.781 118.725C210.282 117.886 209.943 116.578 211.202 116.175C211.008 117.192 210.976 118.273 210.604 119.21C210.023 120.663 208.78 120.97 207.359 120.469C204.518 119.484 201.693 118.403 198.835 117.45C197.269 116.933 195.622 116.546 194.008 116.11Z" fill="#B06AB3"/>
<path d="M149.818 15.8672C143.425 33.4328 137.015 51.0145 130.622 68.58C130.396 69.1935 130.234 69.8393 129.96 70.4366C128.701 73.1005 129.153 75.3285 131.51 77.1529C131.042 77.0722 130.541 77.0721 130.089 76.9268C124.229 74.9895 124.212 74.7473 126.408 69.0159C130.17 59.216 133.77 49.3516 137.403 39.4871C139.986 32.4641 142.44 25.3927 145.039 18.3858C146.202 15.2537 147.009 14.9147 149.818 15.8672Z" fill="#B06AB3"/>
<path d="M60.2326 344.08C60.5232 343.789 60.8139 343.499 61.1045 343.192C62.4445 343.483 63.397 342.352 64.6079 342.239C66.2708 342.094 66.852 341.19 66.6906 339.592C66.5614 338.284 66.5775 337.17 68.4988 337.218C70.5653 337.267 70.0325 338.639 70.1455 339.785C70.2263 340.56 69.7904 341.916 70.646 341.965C72.5511 342.062 73.762 343.838 75.6671 343.66L75.6025 343.612C75.7962 343.805 75.9738 343.983 76.1675 344.177L76.1191 344.112C77.2815 346.905 76.7649 348.649 73.3422 348.617C73.2453 348.584 73.1646 348.504 73.1323 348.407C73.9073 347.083 73.5037 346.389 72.0183 346.243L72.0668 346.292C71.0012 343.741 68.7248 344.128 66.7229 344.306C64.9954 344.451 63.397 345.178 62.832 347.115C62.1216 349.521 62.8643 351.167 64.7855 351.603L64.7371 351.555C65.8188 353.702 68.0144 353.266 69.7904 353.573C72.5673 354.057 75.3765 354.38 77.0394 357.06C79.6226 361.193 77.33 366.553 72.1959 368.103C70.5653 368.604 69.9195 369.266 70.0971 370.961C70.2101 371.978 70.5976 373.367 68.6602 373.415C66.6744 373.463 66.6744 372.204 66.6583 370.8C66.6421 370.041 67.0942 368.878 66.0932 368.62C64.6079 368.249 63.3001 367.102 61.6372 367.506L61.6695 367.554C61.6857 365.875 59.7967 365.375 59.4254 363.922C59.1832 362.985 58.0047 361.855 59.4093 361.21C60.5878 360.677 61.9924 360.79 62.283 362.727C62.4768 364.019 63.397 364.665 64.7855 364.438L64.7532 364.39C65.4958 366.796 67.5301 365.891 69.0477 365.94C72.3735 366.021 74.4078 364.229 74.5854 361.339C74.7468 358.868 73.0678 357.222 69.9518 356.56C66.9327 355.93 63.7684 355.785 61.1206 353.896C60.7493 353.621 60.3457 353.767 60.0066 354.073C59.8775 354.041 59.8129 353.961 59.7806 353.847C60.6686 352.556 59.3124 351.603 59.1832 350.457C58.9249 348.197 60.0066 346.227 60.2326 344.08Z" fill="#2D062E"/>
<path d="M179.995 110.665C180.108 105.644 178.962 100.72 178.816 95.4728C182.449 96.167 185.549 94.5041 188.681 93.0511C190.215 92.3407 190.651 92.7927 190.796 94.3104C191.425 101.091 192.104 107.872 192.765 114.653C188.81 114.201 185.387 112.086 181.609 111.02C181.077 110.875 180.528 110.81 179.995 110.665Z" fill="#B06AB3"/>
<path d="M130.673 384.73C141.457 385.827 151.935 391.042 159.491 401.455C161.977 404.894 163.463 408.866 161.412 413.031C159.33 417.277 155.1 418.408 150.951 418.23C137.114 417.616 125.797 411.837 118.435 399.922C113.301 391.623 118.306 384.633 130.673 384.73ZM128.994 386.102C127.847 386.166 126.685 386.166 125.539 386.328C119.065 387.216 116.401 391.979 118.968 397.952C119.726 399.712 120.711 401.31 121.938 402.763C128.219 410.109 136.178 414.597 145.639 416.422C148.9 417.051 152.177 417.164 155.406 416.083C160.024 414.549 161.784 411.062 160.331 406.396C159.782 404.652 158.974 403.022 157.877 401.601C150.563 392.156 140.779 387.28 128.994 386.102Z" fill="#0E0B09"/>
<path d="M65.236 441.623C64.8001 448.807 61.4742 454.619 56.5501 459.64C52.4654 463.806 47.7512 467.083 41.9229 468.326C31.7032 470.506 25.0354 464.048 27.7478 454.038C30.9767 442.139 38.8554 434.244 50.8833 431.032C56.9053 429.433 61.894 431.613 64.0413 436.117C64.8969 437.845 65.349 439.669 65.236 441.623ZM37.9997 467.293C38.6616 467.293 39.3236 467.357 39.9694 467.277C50.5442 465.969 62.3299 454.151 63.6861 443.528C64.6709 435.73 60.1019 431.193 52.2878 432.194C41.1964 433.615 29.3138 446.256 28.6842 457.348C28.329 463.273 32.1068 467.341 37.9997 467.293Z" fill="#0E0B09"/>
<path d="M166.53 105.228C165.932 100.126 165.351 95.0082 164.754 89.9065C165.626 89.6643 166.481 89.8742 166.917 90.3262C169.048 92.5381 172.003 92.8448 174.651 93.8458C175.506 94.1687 176.41 94.2978 176.459 95.4925C176.636 100.158 177.686 104.76 177.573 109.458C173.876 108.053 170.211 106.649 166.53 105.228Z" fill="#B06AB3"/>
<path d="M153.741 100.398C154.483 99.6069 154.112 98.7028 153.999 97.8309C153.466 93.4557 152.966 89.0643 152.449 84.7214C153.353 84.3985 154.031 84.7375 154.419 85.1896C155.904 86.9332 157.955 87.5467 160.037 87.9988C161.878 88.4024 162.475 89.4357 162.62 91.2439C162.992 95.5868 163.589 99.8975 164.09 104.224C161.216 103.853 158.778 102.238 156.05 101.399C155.258 101.173 154.516 100.737 153.741 100.398Z" fill="#B06AB3"/>
<path d="M101.869 350.578C103.936 352.532 106.697 351.934 109.118 352.596C111.815 353.339 114.624 353.823 116.19 356.6C118.805 361.25 116.706 366.901 111.411 368.789C110.006 369.29 109.651 369.887 109.716 371.179C109.813 373.262 109.151 374.472 106.664 374.456C104.243 374.424 103.694 373.165 103.823 371.26C103.904 369.871 103.387 369.338 102.095 368.919C99.2216 367.998 97.0905 366.206 96.1864 363.155C95.8473 362.009 95.3468 360.911 96.6384 360.152C97.93 359.409 100.691 360.152 101.288 361.282C103.387 365.334 106.277 366.206 110.491 364.059C110.588 364.22 110.684 364.366 110.765 364.527C110.41 364.85 110.103 365.286 109.683 365.496C106.341 367.191 101.982 365.916 100.481 362.509C99.7705 360.927 98.6888 360.701 97.5748 361.185C96.1057 361.847 97.1712 363.026 97.591 363.881C98.6404 366.077 100.449 367.498 102.757 368.111C104.42 368.563 105.76 368.838 104.937 371.147C104.582 372.131 105.066 373.245 106.535 373.391C108.037 373.52 108.456 372.745 108.279 371.469C108.004 369.484 108.65 368.434 110.765 367.821C114.43 366.739 116.351 363.849 116.19 360.491C116.028 356.794 114.382 355.018 110.055 353.985C107.907 353.484 105.728 353.097 103.581 352.612C102.58 352.386 101.659 351.967 101.821 350.659L101.869 350.578Z" fill="#060207"/>
<path d="M111.57 391.867C111.861 397.066 113.992 401.102 117.075 404.718C125.261 414.276 135.836 419.539 148.041 421.848C149.22 422.074 150.495 421.88 151.706 422.058C146.346 422.704 141.276 421.396 136.336 419.523C128.732 416.649 122.096 412.307 116.607 406.252C113.701 403.039 111.748 399.358 110.779 395.145C110.521 394.063 110.957 393.094 111.57 391.867Z" fill="#FDA368"/>
<path d="M149.867 368.016C148.075 369.001 146.46 369.808 146.686 372.537C146.848 374.522 144.765 374.409 143.167 374.409C141.326 374.426 140.907 373.102 140.971 371.842C141.068 369.953 140.358 369.356 138.614 368.71C136.128 367.79 134.061 366.095 133.335 363.205C133.028 361.978 132.414 360.719 134.029 360.267C135.611 359.831 137.484 359.346 138.436 361.526C139.889 364.852 143.231 366.111 146.525 364.561C148.866 363.463 149.35 361.849 148.285 358.62L148.349 358.539C150.48 360.105 150.335 363.302 148.059 364.852C144.442 367.338 139.566 366.176 137.468 362.155C136.709 360.719 135.563 360.783 134.578 361.203C133.415 361.703 134.19 362.753 134.513 363.544C135.433 365.74 137.112 367.338 139.357 367.758C141.778 368.21 142.715 369.178 142.44 371.649C142.279 373.15 143.732 373.925 145.04 373.215C146.17 372.601 146.041 371.423 145.782 370.583C145.217 368.743 146.218 368.323 147.607 368.097C148.333 367.984 149.076 367.968 149.802 367.919L149.867 368.016Z" fill="#060207"/>
<path d="M61.6523 367.517C63.3314 367.114 64.6391 368.26 66.1083 368.631C67.1093 368.89 66.6734 370.036 66.6734 370.811C66.6895 372.216 66.6895 373.459 68.6753 373.426C70.6127 373.378 70.2252 371.99 70.1122 370.972C69.9346 369.261 70.5804 368.599 72.211 368.115C77.3451 366.565 79.6376 361.205 77.0545 357.072C75.3916 354.408 72.5824 354.069 69.8055 353.585C68.0134 353.262 65.8338 353.714 64.7521 351.566C67.4968 352.099 70.3059 352.422 72.986 353.181C77.9747 354.585 78.8143 357.217 79.0726 360.204C79.4278 364.579 76.78 367.566 73.1474 368.857C71.4361 369.471 71.0163 370.181 71.1616 371.747C71.3554 373.798 70.2737 374.46 68.3363 374.444C66.4796 374.427 65.4948 373.749 65.7047 371.844C65.8984 370.149 65.4948 369.1 63.5574 368.874C62.8632 368.761 61.9914 368.373 61.6523 367.517Z" fill="#060207"/>
<path d="M110.474 364.061C112.766 360.687 111.911 358.54 107.971 357.587C105.42 356.974 102.821 356.764 100.319 355.698C96.0241 353.858 94.3127 347.238 98.7848 343.654L98.8655 343.735C98.7687 344.203 98.7687 344.736 98.5426 345.14C95.7819 350.322 97.5578 354.197 103.257 355.682C105.614 356.296 108.165 356.15 110.377 357.393C113.347 359.056 113.541 362.366 110.748 364.53C110.651 364.368 110.571 364.207 110.474 364.061Z" fill="#060207"/>
<path d="M60.0215 354.068C60.3605 353.761 60.748 353.632 61.1355 353.89C63.7832 355.779 66.9476 355.908 69.9667 356.554C73.0665 357.216 74.7455 358.863 74.6002 361.333C74.4226 364.223 72.3723 366.031 69.0626 365.934C67.545 365.886 65.4946 366.806 64.7681 364.384C66.4633 365.175 68.2715 365.046 70.0474 364.917C72.0817 364.772 73.2925 363.577 73.567 361.575C73.8414 359.557 72.8082 358.588 70.8708 357.926C67.997 356.942 64.8004 357.232 62.1365 355.585C61.3938 355.149 60.4735 354.94 60.0215 354.068Z" fill="#060207"/>
<path d="M211.186 116.223C210.588 115.674 211.073 115.126 211.25 114.657C214.689 104.97 218.16 95.2997 221.648 85.6452C221.809 85.2092 221.728 84.4181 222.6 84.5473C222.277 87.7924 220.437 90.537 219.63 93.6045C217.66 100.983 214.221 107.828 211.993 115.126C211.864 115.448 211.815 116.11 211.186 116.223Z" fill="#B06AB3"/>
<path d="M148.27 358.62C144.863 356.941 140.989 357.151 137.453 355.73C132.706 353.825 132.093 346.205 135.903 343.67L135.984 343.751C136.081 344.542 135.612 345.123 135.273 345.785C132.997 350.273 135.225 354.697 140.198 355.617C141.957 355.94 143.749 356.198 145.493 356.65C146.623 356.941 147.963 357.102 148.367 358.572L148.27 358.62Z" fill="#060207"/>
<path d="M137.387 342.672C137.839 342.365 138.242 341.897 138.727 341.8C140.486 341.429 141.245 340.525 140.922 338.652C140.696 337.344 141.391 336.295 142.731 336.327C144.006 336.36 146.186 335.359 146.315 337.57C146.476 340.493 148.284 341.817 150.351 343.157L150.286 343.237C148.736 342.801 147.025 342.64 145.717 341.833C144.813 341.268 145.427 339.685 145.378 338.571C145.314 337.425 144.652 337.28 143.732 337.28C142.698 337.28 142.085 337.651 141.891 338.781C141.294 342.462 141.261 342.446 137.435 342.753L137.387 342.672Z" fill="#060207"/>
<path d="M75.6837 343.675C73.7786 343.852 72.5516 342.076 70.6627 341.98C69.807 341.931 70.2429 340.575 70.1622 339.8C70.0492 338.654 70.5819 337.281 68.5154 337.233C66.5942 337.185 66.578 338.315 66.7072 339.606C66.8686 341.205 66.2874 342.109 64.6245 342.254C63.4137 342.367 62.4611 343.497 61.1211 343.207C61.783 342.044 63.0908 341.463 64.124 341.382C65.9484 341.253 65.7708 340.252 65.7062 339.122C65.5932 337.201 66.0937 336.184 68.4024 336.184C70.6465 336.184 71.3569 337.055 71.1632 339.057C71.034 340.381 71.26 341.35 72.8099 341.657C73.9885 341.899 75.0218 342.545 75.6837 343.675Z" fill="#060207"/>
<path d="M64.7846 351.582C62.8633 351.163 62.1207 349.5 62.831 347.094C63.3961 345.173 64.9944 344.43 66.7219 344.285C68.7239 344.123 71.0003 343.72 72.0659 346.271C70.08 345.318 67.9489 345.641 65.8824 345.722C63.38 345.835 62.831 349.371 64.7846 351.582Z" fill="#060207"/>
<path d="M147.768 346.742C145.686 345.079 143.199 345.515 140.955 345.838C139.357 346.064 138.614 347.776 139.098 349.471C139.26 350.004 139.373 350.536 139.47 351.085L139.405 351.166C138.533 351.118 138.13 350.649 137.952 349.81C137.452 347.437 138.808 345.354 141.472 344.466C144.087 343.594 146.848 344.563 147.849 346.694L147.768 346.742Z" fill="#060207"/>
<path d="M64.7991 364.433C63.4268 364.659 62.5065 364.013 62.2966 362.721C62.006 360.784 60.6014 360.671 59.4229 361.204C58.0183 361.833 59.213 362.98 59.439 363.916C59.8103 365.369 61.7154 365.87 61.6831 367.549C59.3906 366.725 58.4703 364.74 57.8245 362.673C57.55 361.801 57.2433 360.219 58.8093 360.106C60.3754 359.993 62.6195 359.202 63.12 361.591C63.3783 362.883 64.2663 363.496 64.7991 364.433Z" fill="#060207"/>
<path d="M245.734 135.359C246.735 133.082 247.623 131.096 248.544 129.014C251.466 133.453 251.159 134.196 245.734 135.359Z" fill="#B06AB3"/>
<path d="M110.169 346.256C108.248 345.416 106.197 345.529 104.228 345.755C101.144 346.094 101.887 348.597 101.87 350.583L101.79 350.647C101.515 350.486 101.095 350.405 100.999 350.179C100.272 348.306 101.241 345.659 102.887 344.916C105.939 343.527 109.023 344.06 110.217 346.175L110.169 346.256Z" fill="#060207"/>
<path d="M148.801 83.566C150.012 83.2432 149.915 84.2118 149.996 84.8738C150.593 89.7011 151.158 94.5445 151.723 99.3879C150.399 98.4192 150.415 96.9824 150.27 95.5294C149.882 91.5254 149.769 87.4892 148.801 83.566Z" fill="#B06AB3"/>
<path d="M152.337 355.521C156.793 359.122 154.193 366.29 149.866 368.001L149.802 367.921C149.77 366.968 150.496 366.451 151.11 365.967C153.451 364.046 153.451 361.463 153.241 358.831C153.144 357.701 152.127 356.813 152.288 355.602L152.337 355.521Z" fill="#060207"/>
<path d="M139.487 351.084C142.312 352.44 145.509 352.182 148.431 353.118C149.949 353.603 151.45 354.071 152.354 355.54L152.274 355.621C149.061 354.571 145.864 353.49 142.474 353.102C141.231 352.957 139.858 352.715 139.406 351.181L139.487 351.084Z" fill="#060207"/>
<path d="M104.355 337.02C105.582 335.712 107.003 336.164 108.392 336.616C109.909 337.101 109.167 338.392 109.183 339.313C109.199 340.491 109.312 341.169 110.684 341.524C111.863 341.831 113.138 342.38 113.736 343.672L113.655 343.736C112.105 343.801 111.072 342.364 109.57 342.283C108.311 342.219 108.246 341.411 108.214 340.427C108.101 337.23 108.069 337.23 104.791 337.311C104.662 337.214 104.517 337.117 104.355 337.02Z" fill="#060207"/>
<path d="M113.75 343.654C114.38 344.268 115.252 344.784 115.558 345.527C115.978 346.512 117.221 347.642 115.784 348.804C114.331 349.983 112.894 349.918 111.49 348.708C110.731 348.046 110.36 347.19 110.166 346.237L110.247 346.173C111.151 346.157 111.441 346.851 111.893 347.448C112.668 348.482 113.895 348.482 114.767 347.9C115.671 347.287 114.8 346.399 114.396 345.769C113.992 345.123 113.605 344.526 113.669 343.735L113.75 343.654Z" fill="#060207"/>
<path d="M98.3011 319.892C97.6715 317.858 96.9934 315.824 96.4445 313.773C96.2831 313.144 95.9278 312.11 96.8804 311.884C97.7199 311.69 97.7038 312.675 97.8652 313.289C98.4949 315.501 99.1245 317.696 99.7542 319.908C99.286 319.892 98.8016 319.892 98.3011 319.892Z" fill="#531255"/>
<path d="M151.854 344.652C153.129 345.54 153.726 346.913 153.355 348.269C153.097 349.189 152.047 349.851 150.772 349.673C148.996 349.431 148.06 348.463 147.785 346.735L147.866 346.67C149.093 347.3 150.094 348.915 151.676 348.027C153.258 347.155 151.402 345.831 151.789 344.717L151.854 344.652Z" fill="#060207"/>
<path d="M60.2315 344.074C60.0054 346.205 58.9399 348.175 59.1982 350.451C59.3273 351.598 60.6835 352.55 59.7955 353.842C57.0671 350.564 57.5514 346.189 60.2315 344.074Z" fill="#060207"/>
<path d="M98.7832 343.65C99.0415 342.746 99.9618 342.455 100.591 342.261C102.997 341.502 104.482 340.275 103.869 337.499C103.837 337.369 104.192 337.176 104.369 336.998C104.515 337.095 104.66 337.192 104.821 337.289C104.821 338.273 104.805 339.242 104.805 340.227C104.805 340.986 104.789 341.938 103.933 342.035C102.093 342.213 100.753 343.763 98.8801 343.714L98.7832 343.65Z" fill="#060207"/>
<path d="M73.3555 348.633C76.7782 348.666 77.2948 346.922 76.1324 344.129C76.3907 344.323 76.6813 344.5 76.875 344.742C77.8599 345.969 78.877 347.439 77.5854 348.811C76.3745 350.119 74.7116 350.022 73.3555 348.633Z" fill="#060207"/>
<path d="M374.878 280.41C375.217 281.75 375.572 283.09 375.879 284.43C375.976 284.882 376.089 285.479 375.395 285.592C374.927 285.673 374.701 285.253 374.555 284.866C374.022 283.51 373.893 282.008 373.021 280.781C373.506 280.055 374.249 280.555 374.878 280.41Z" fill="#531255"/>
<path d="M222.566 84.5648C222.809 81.4812 223.745 78.6558 225.553 76.1211C224.875 79.0433 224.165 81.9655 222.566 84.5648Z" fill="#B06AB3"/>
<path d="M348.674 195.736C348.642 195.655 348.609 195.59 348.593 195.51C348.238 194.283 347.431 193.12 347.947 191.764C347.996 191.651 348.48 191.554 348.561 191.651C349.529 192.652 349.675 193.96 349.804 195.251C349.4 195.413 349.045 195.574 348.674 195.736Z" fill="#531255"/>
<path d="M243.749 392.714C243.443 392.778 243.136 392.875 242.813 392.908C241.941 393.004 240.795 394.167 240.262 393.021C239.697 391.81 241.602 392.036 241.99 391.229C242.974 391.261 243.459 391.858 243.749 392.714Z" fill="#531255"/>
<path d="M136.92 79.0859C139.245 79.4411 141.65 79.6025 143.346 81.5722C141.021 81.1847 138.89 80.3614 136.92 79.0859Z" fill="#B06AB3"/>
<path d="M228.01 69.2188C227.429 68.2339 228.107 67.4105 228.462 66.6033C228.995 65.4409 228.93 64.343 228.478 63.2129C229.673 63.229 230.109 64.343 229.818 64.9727C229.189 66.3773 229.285 68.1048 228.01 69.2188Z" fill="#B06AB3"/>
<path d="M226.021 74.6664C226.021 72.5999 226.522 70.711 228.023 69.1934C227.555 71.0984 227.394 73.1004 226.021 74.6664Z" fill="#B06AB3"/>
<path d="M132.465 77.6016C134.128 77.6177 135.662 78.0375 136.969 79.1192C135.258 79.2322 133.886 78.3442 132.465 77.6016Z" fill="#B06AB3"/>
<path d="M72.0332 346.236C73.5347 346.382 73.9383 347.076 73.1472 348.4C72.5337 347.802 72.1785 347.076 72.0332 346.236Z" fill="#060207"/>
<path d="M150.368 343.172C151.353 343.172 151.821 343.705 151.853 344.657L151.772 344.722C150.836 344.673 150.352 344.173 150.287 343.236L150.368 343.172Z" fill="#060207"/>
<path d="M135.902 343.655C136.193 343.026 136.629 342.606 137.388 342.671L137.452 342.751C137.404 343.752 136.693 343.768 135.967 343.736L135.902 343.655Z" fill="#060207"/>
<path d="M225.54 76.1529C225.136 75.4425 225.233 74.9097 226.056 74.6191C225.879 75.1358 226.363 75.8623 225.54 76.1529Z" fill="#B06AB3"/>
<path d="M131.479 77.1062C131.914 77.1224 132.415 76.9932 132.512 77.639C132.124 77.5421 131.575 77.752 131.479 77.1062Z" fill="#B06AB3"/>
<path d="M323.036 378.884C322.874 379.336 322.568 379.417 322.164 379.207C322.326 378.981 322.471 378.755 322.632 378.529C322.761 378.642 322.907 378.771 323.036 378.884Z" fill="#573CFF"/>
<path d="M76.1823 344.186C75.9885 343.992 75.8109 343.815 75.6172 343.621C75.8109 343.799 76.0047 343.992 76.1823 344.186Z" fill="#060207"/>
<path d="M384.871 320.454C384.677 322.489 384.484 324.523 384.274 326.557C384.225 327.074 384.032 327.607 383.45 327.574C382.772 327.542 382.837 326.912 382.853 326.444C382.998 323.183 383.628 319.938 382.934 316.676C382.853 316.289 382.934 315.821 383.45 315.708C384.112 315.579 384.258 316.031 384.371 316.547C384.677 317.839 384.936 319.114 384.871 320.454Z" fill="#531255"/>
<path d="M299.999 136.491C301.871 136.491 303.195 136.459 304.487 136.507C305.068 136.523 305.988 136.297 305.972 137.298C305.94 138.073 305.165 137.928 304.616 137.944C301.436 138.025 298.239 137.605 295.091 138.364C294.59 138.477 294.041 138.38 293.977 137.734C293.928 137.266 294.332 137.088 294.735 136.927C296.624 136.217 298.61 136.62 299.999 136.491Z" fill="#531255"/>
<path d="M378.3 294.979C380.254 297.336 380.415 300.322 381.287 303.035C381.61 304.02 382.772 305.812 381.335 306.183C380.141 306.49 380.205 304.375 379.882 303.277C379.107 300.597 377.783 297.998 378.3 294.979Z" fill="#531255"/>
<path d="M84.6569 270.566C85.335 270.599 85.5772 271.083 85.7063 271.535C86.6104 274.603 87.4661 277.67 88.338 280.738C88.4833 281.254 88.451 281.803 87.8859 281.981C87.2078 282.191 87.1271 281.561 86.9818 281.109C86.0615 278.058 85.1574 274.99 84.2372 271.939C84.0757 271.341 83.9627 270.809 84.6569 270.566Z" fill="#531255"/>
<path d="M316.273 139.071C319.518 140.266 322.634 141.864 325.476 143.963C325.847 144.238 326.025 144.625 325.766 145.013C325.508 145.416 325.04 145.4 324.685 145.158C321.859 143.172 318.792 141.687 315.627 140.331C315.305 140.202 315.111 139.911 315.224 139.556C315.369 139.023 315.773 139.007 316.273 139.071Z" fill="#531255"/>
<path d="M230.882 395.815C230.705 396.623 230.14 396.639 229.704 396.768C226.814 397.64 223.908 398.479 221.018 399.351C220.324 399.561 219.597 399.674 219.371 398.883C219.129 398.043 220.017 398.092 220.501 397.946C223.391 397.058 226.281 396.219 229.187 395.363C229.881 395.153 230.592 394.96 230.882 395.815Z" fill="#531255"/>
<path d="M77.2169 219.277C76.5711 218.954 76.5711 218.405 76.781 217.807C77.8465 214.675 79.574 211.85 81.1885 208.992C81.4468 208.556 81.8343 208.169 82.3994 208.508C82.8999 208.815 82.9483 209.267 82.5931 209.767C80.6719 212.48 79.2511 215.434 78.0887 218.534C77.9434 218.921 77.7335 219.277 77.2169 219.277Z" fill="#531255"/>
<path d="M129.557 186.184C129.121 186.265 128.685 186.297 128.62 185.732C128.604 185.458 128.766 184.99 128.959 184.909C132.221 183.633 135.627 182.794 139.05 182.019C139.357 181.954 139.712 182.132 139.792 182.503C139.905 183.004 139.599 183.246 139.163 183.375C135.966 184.311 132.753 185.248 129.557 186.184Z" fill="#531255"/>
<path d="M191.747 168.099C191.215 168.099 190.633 168.196 190.537 167.534C190.44 166.872 190.989 166.792 191.473 166.663C194.541 165.791 197.592 164.919 200.643 164.015C201.144 163.87 201.628 163.692 201.935 164.241C202.29 164.854 201.806 165.177 201.337 165.306C198.125 166.243 194.912 167.179 191.747 168.099Z" fill="#531255"/>
<path d="M344.428 363.369C344.008 363.417 343.589 363.433 343.427 362.933C343.282 362.432 343.589 362.174 344.008 362.045C347.286 361.076 350.563 360.091 353.857 359.139C354.325 359.009 354.89 359.074 355.003 359.72C355.084 360.204 354.696 360.414 354.277 360.543C351.015 361.48 347.722 362.432 344.428 363.369Z" fill="#531255"/>
<path d="M380.819 337.849C380.448 338.608 379.947 339.545 379.495 340.497C378.478 342.677 376.96 344.517 375.491 346.374C375.201 346.745 374.813 347.213 374.264 346.842C373.844 346.568 373.99 346.067 374.232 345.744C376.25 343.048 378.107 340.271 379.544 337.204C379.64 336.994 380.092 336.848 380.367 336.865C380.771 336.897 380.851 337.268 380.819 337.849Z" fill="#531255"/>
<path d="M90.6803 291.141C92.2625 292.238 92.101 293.998 92.6661 295.467C93.3926 297.356 93.8446 299.358 94.3451 301.344C94.4259 301.667 94.2806 302.232 94.0384 302.426C93.6509 302.716 93.215 302.345 93.102 301.958C91.988 298.406 90.648 294.935 90.6803 291.141Z" fill="#531255"/>
<path d="M241.86 151.875C242.587 151.859 243.136 151.794 243.249 152.44C243.33 152.924 242.958 153.15 242.539 153.279C239.407 154.216 236.274 155.136 233.158 156.073C232.739 156.202 232.303 156.218 232.093 155.782C231.818 155.201 232.238 154.829 232.723 154.668C235.838 153.699 238.954 152.763 241.86 151.875Z" fill="#531255"/>
<path d="M339.407 160.507C339.278 160.862 339.245 161.298 339.036 161.427C338.616 161.701 338.244 161.395 338.051 161.007C336.549 158.069 334.999 155.179 332.739 152.741C332.448 152.434 332.368 151.998 332.658 151.611C332.981 151.207 333.482 151.272 333.74 151.579C336.033 154.307 337.905 157.294 339.407 160.507Z" fill="#531255"/>
<path d="M108.538 192.252C108.425 192.187 108.054 192.107 107.925 191.897C107.666 191.477 107.909 191.041 108.328 190.912C111.686 189.911 115.061 188.942 118.435 188.006C118.774 187.909 119.065 188.184 119.081 188.555C119.113 189.039 118.806 189.33 118.403 189.443C117.224 189.798 116.046 190.089 114.867 190.428C112.817 191.009 110.782 191.606 108.538 192.252Z" fill="#531255"/>
<path d="M357.473 359.466C357.36 359.402 356.973 359.337 356.828 359.127C356.585 358.74 356.747 358.272 357.183 358.11C360.444 356.916 363.35 355.091 366.288 353.299C366.498 353.17 366.983 353.235 367.16 353.396C367.548 353.767 367.257 354.187 366.934 354.429C364.093 356.512 361.058 358.272 357.473 359.466Z" fill="#531255"/>
<path d="M179.51 411.418C178.541 411.434 178.121 411.321 178.121 410.821C178.121 410.579 178.412 410.175 178.638 410.11C181.947 409.126 185.257 408.189 188.583 407.269C188.906 407.172 189.245 407.285 189.326 407.689C189.406 408.06 189.213 408.367 188.89 408.48C185.612 409.529 182.319 410.546 179.51 411.418Z" fill="#531255"/>
<path d="M342.234 170.84C343.993 174.133 344.801 177.701 345.753 181.221C345.85 181.592 345.834 182.125 345.317 182.19C345.075 182.222 344.607 181.98 344.542 181.786C343.606 178.186 341.911 174.731 342.234 170.84Z" fill="#531255"/>
<path d="M200.127 405.425C199.336 405.49 198.932 405.425 198.851 404.909C198.787 404.408 199.142 404.198 199.546 404.085C202.662 403.149 205.777 402.212 208.91 401.276C209.329 401.147 209.765 401.131 209.991 401.55C210.217 401.97 210.056 402.374 209.588 402.519C206.326 403.52 203.065 404.521 200.127 405.425Z" fill="#531255"/>
<path d="M171.114 174.051C170.565 174.003 169.952 174.229 169.871 173.502C169.823 173.034 170.242 172.792 170.63 172.679C173.681 171.791 176.733 170.919 179.8 170.08C180.301 169.934 181.011 169.563 181.253 170.37C181.479 171.161 180.672 171.274 180.188 171.42C177.136 172.34 174.085 173.196 171.114 174.051Z" fill="#531255"/>
<path d="M82.3984 260.121C82.4468 260.557 82.3984 260.961 81.8656 261.041C81.3813 261.122 81.0907 260.799 80.9615 260.396C79.9928 257.199 79.0403 254.002 78.12 250.79C78.007 250.402 78.12 249.95 78.6366 249.837C79.1371 249.74 79.3793 250.079 79.4923 250.499C80.4933 253.712 81.4458 256.908 82.3984 260.121Z" fill="#531255"/>
<path d="M253.242 150.27C252.984 150.044 252.661 149.882 252.548 149.624C252.306 149.091 252.726 148.913 253.129 148.8C256.407 147.832 259.7 146.847 262.994 145.927C263.236 145.862 263.672 146.023 263.849 146.217C264.075 146.492 263.882 146.928 263.575 147.024C260.152 148.106 256.729 149.172 253.242 150.27Z" fill="#531255"/>
<path d="M222.517 158.41C222.501 158.894 222.194 159.169 221.791 159.282C218.594 160.218 215.381 161.155 212.169 162.042C211.926 162.107 211.474 161.929 211.345 161.736C211.087 161.332 211.313 160.928 211.765 160.783C215.042 159.798 218.32 158.814 221.613 157.861C222.049 157.748 222.404 157.926 222.517 158.41Z" fill="#531255"/>
<path d="M160.491 176.54C160.023 177.573 158.909 177.508 158.054 177.799C155.648 178.606 153.194 179.284 150.756 180.027C150.126 180.221 149.384 180.624 149.109 179.72C148.867 178.945 149.707 178.8 150.191 178.655C153.178 177.751 156.165 176.911 159.184 176.088C159.603 175.958 160.169 175.829 160.491 176.54Z" fill="#531255"/>
<path d="M74.5677 233.301C74.5677 232.154 74.5516 231.008 74.5677 229.878C74.5839 229.41 74.5031 228.78 75.1651 228.732C75.7624 228.683 75.9723 229.216 75.9884 229.733C76.1015 232.913 75.7947 236.094 76.5212 239.242C76.602 239.629 76.5212 240.114 76.0369 240.227C75.375 240.388 75.2619 239.872 75.1166 239.387C74.487 237.385 74.5839 235.335 74.5677 233.301Z" fill="#531255"/>
<path d="M273.344 143.524C276.879 141.619 280.674 140.602 284.661 140.295C281.109 142.168 277.412 143.508 273.344 143.524Z" fill="#531255"/>
<path d="M89.4862 201.619C89.3409 201.505 89.0826 201.425 89.0019 201.247C88.8082 200.827 89.0342 200.456 89.3248 200.149C90.4388 198.922 91.7788 198.002 93.1834 197.163C94.588 196.323 95.9926 195.5 97.3972 194.676C97.8493 194.418 98.3497 194.256 98.6726 194.773C98.7857 194.967 98.6727 195.532 98.5112 195.629C95.4598 197.372 92.4569 199.181 89.793 201.489C89.7284 201.538 89.6315 201.554 89.4862 201.619Z" fill="#531255"/>
<path d="M301.872 247.396C302.195 233.447 313.658 222.371 327.478 222.678C341.201 222.985 352.389 234.593 352.05 248.203C351.711 262.136 340.232 273.211 326.428 272.921C312.705 272.63 301.549 261.054 301.872 247.396ZM346.884 247.832C346.851 236.66 337.956 227.893 326.687 227.909C315.757 227.925 306.958 236.756 306.893 247.767C306.829 258.859 315.902 267.932 326.977 267.867C337.972 267.803 346.916 258.794 346.884 247.832Z" fill="#B06AB3"/>
<path d="M324.958 431.017C326.023 425.544 327.089 420.07 328.155 414.597C328.881 410.9 329.704 407.219 330.366 403.506C330.705 401.633 331.513 401.762 332.691 402.699C340.005 408.43 347.286 414.178 354.648 419.861C355.811 420.749 355.843 421.54 355.036 422.525C351.597 426.722 348.126 430.887 344.671 435.069C344.041 435.828 343.427 436.07 342.346 435.876C337.115 434.908 331.852 434.052 326.572 433.245C325.152 433.019 324.796 432.292 324.958 431.017ZM342.879 434.31C343.04 434.294 343.266 434.343 343.347 434.246C346.721 430.226 350.047 426.157 353.453 422.169C354.261 421.233 353.55 420.878 353.001 420.442C346.204 415.13 339.407 409.835 332.61 404.523C331.997 404.055 331.803 404.152 331.803 404.894C330.06 413.387 328.316 421.879 326.572 430.371C326.395 431.227 326.524 431.711 327.573 431.872C332.691 432.631 337.793 433.487 342.879 434.31Z" fill="#0E0B09"/>
<path d="M303.178 416.701C304.55 402.607 312.154 389.949 326.346 385.752C330.027 384.654 332.674 385.978 333.659 389.449C334.499 392.403 332.707 395.067 329.413 396.165C318.128 399.911 309.345 406.514 304.889 417.977C304.695 418.477 304.712 419.284 303.937 419.22C302.984 419.139 303.242 418.283 303.194 417.67C303.162 417.25 303.178 416.83 303.178 416.701ZM305.487 412.875C306.197 411.793 306.891 410.695 307.634 409.646C312.945 402.187 320.275 397.586 328.816 394.712C331.673 393.743 332.868 392.064 332.158 389.691C331.399 387.124 329.542 386.284 326.491 387.269C314.059 391.289 307.941 400.572 305.487 412.875Z" fill="#0E0B09"/>
<path d="M327.008 434.323C332.32 435.227 337.26 436.002 342.152 436.971C343.573 437.245 344.493 437.003 345.365 435.921C348.352 432.224 351.371 428.527 354.438 424.894C354.955 424.281 355.439 423.021 356.505 423.635C357.361 424.135 356.683 425.185 356.473 425.895C354.39 433.483 352.227 441.055 350.144 448.643C349.66 450.435 349.014 450.952 347.302 449.79C340.635 445.269 333.918 440.829 327.218 436.357C326.621 435.97 325.765 435.679 326.104 434.71C326.33 434.113 326.928 434.323 327.008 434.323ZM348.094 448.32C348.4 448.643 348.642 448.676 348.707 448.143C350.58 441.426 352.453 434.71 354.325 427.994C354.18 427.929 354.035 427.865 353.89 427.8C350.951 431.417 348.029 435.017 345.091 438.633C340.344 438.456 335.759 437.019 330.835 437.067C336.582 440.813 342.33 444.575 348.094 448.32Z" fill="#0E0B09"/>
<path d="M423.974 269.132C424.636 267.775 423.748 267.307 422.441 266.694C419.438 265.241 417.71 262.674 417.113 259.396C416.871 258.04 416.951 256.684 418.63 256.216C420.213 255.78 423.054 256.926 423.458 258.121C424.766 262.076 426.719 263.336 430.562 262.609C431.934 262.351 433.064 261.705 433.355 260.187C433.645 258.654 433.242 257.475 431.724 256.716C429.948 255.844 428.107 255.182 426.202 254.634C419.841 252.761 417.516 247.207 420.794 241.702C422.102 239.506 424.184 238.263 426.606 237.956C428.237 237.746 428.899 237.165 429.076 235.599C429.334 233.322 430.739 232.547 432.935 233.048C435.034 233.516 436.196 234.517 435.421 236.874C435.001 238.166 435.534 238.989 436.793 239.603C438.989 240.668 440.345 242.541 440.959 244.866C441.314 246.206 442.024 247.901 440.039 248.676C438.198 249.387 435.647 248.369 434.904 246.787C433.581 243.978 431.837 242.945 428.963 243.3C427.752 243.445 426.654 243.833 426.412 245.205C426.154 246.674 426.299 248.095 427.914 248.725C429.738 249.451 431.627 250.048 433.484 250.71C438.618 252.535 440.474 255.005 440.265 259.687C440.087 263.836 437.326 266.904 432.628 268.179C431.498 268.486 430.352 268.68 430.368 270.278C430.384 272.312 429.528 273.636 427.252 273.41C424.523 273.152 423.765 272.199 423.974 269.132ZM434.953 259.38C434.921 261.673 433.516 263.546 431.272 264.03C427.381 264.886 422.489 263.142 422.15 259.17C421.989 257.297 420.374 257.604 419.309 257.701C417.856 257.83 418.614 259.106 418.727 259.832C419.147 262.48 420.745 264.514 423.167 265.354C425.573 266.193 426.219 267.372 425.427 269.648C424.911 271.166 425.783 271.618 427.123 271.892C428.769 272.231 428.85 271.263 428.963 270.1C429.141 268.26 429.464 266.968 432.015 266.791C435.776 266.532 438.456 263.449 438.795 260.026C439.167 256.07 437.859 254.068 433.71 252.357C432.644 251.921 431.546 251.582 430.432 251.259C429.076 250.872 427.768 250.387 426.59 249.629C424.766 248.482 424.491 246.739 424.959 244.85C425.427 242.961 426.767 241.992 428.689 241.815C432.467 241.459 434.695 242.606 436.164 245.98C436.858 247.594 438.23 247.449 439.247 247.175C440.378 246.884 439.716 245.689 439.473 244.898C438.844 242.929 437.633 241.25 435.696 240.588C433.742 239.926 433.435 238.876 433.936 237.149C434.323 235.776 434.485 234.614 432.418 234.388C430.465 234.178 430.465 235.373 430.384 236.632C430.287 238.053 430.029 238.941 428.172 239.151C423.829 239.619 421.343 241.944 420.972 245.334C420.519 249.419 422.037 251.534 426.735 253.261C428.737 254.004 430.836 254.456 432.693 255.586C434.146 256.474 435.05 257.62 434.953 259.38Z" fill="#0E0B09"/>
<path d="M419.955 226.686C421.553 226.67 422.231 227.654 421.601 229.237C421.101 230.512 420.1 231.4 419.067 232.207C414.659 235.678 409.864 238.568 405.118 241.539C404.197 242.104 403.293 242.378 402.405 241.604C401.533 240.861 401.533 239.924 401.953 238.907C404.811 231.965 410.106 228.187 417.404 226.976C418.227 226.847 419.05 226.783 419.955 226.686Z" fill="#FEFEFE"/>
<path d="M34.0444 148.753C29.1364 147.139 24.2284 145.46 19.2881 143.942C17.7382 143.458 18.4647 142.618 18.723 141.876C22.2265 131.511 25.746 121.162 29.2494 110.813C30.8155 106.212 32.4138 101.627 33.8669 97.0093C34.3351 95.5078 34.8355 95.0881 36.4339 95.637C52.0782 100.997 67.7386 106.293 83.4314 111.524C84.8683 112.008 85.1589 112.46 84.6584 113.929C79.5566 128.879 74.5033 143.829 69.4984 158.812C69.0302 160.2 68.4975 160.636 67.0283 160.055C64.655 159.135 62.201 158.408 59.7631 157.617C62.6046 156.519 64.3805 154.356 65.7205 151.74C68.4974 146.332 66.6892 140.1 61.3937 137.065C58.5523 135.418 55.5816 133.965 52.837 132.173C50.3184 130.526 50.0117 128.766 51.2709 126.264C52.0943 124.633 53.6604 123.89 55.1457 124.294C56.9701 124.795 60.0053 124.536 60.1183 127.039C60.2959 131.043 62.5884 132.625 65.8013 133.803C69.5791 135.208 71.2743 134.094 71.0968 129.977C70.9514 126.49 69.0625 123.81 66.5278 121.582C65.2846 120.484 64.1706 119.386 65.2523 117.61C66.77 115.14 65.9143 113.299 63.88 111.62C62.766 110.7 61.5229 110.167 60.199 109.667C56.5503 108.327 55.9852 108.408 54.7582 112.008C54.0156 114.204 52.9177 114.898 50.6575 114.736C43.9735 114.284 39.1301 120.306 38.9363 126.167C38.7426 132.576 42.4397 136.29 47.4446 139.212C49.5757 140.455 51.7714 141.585 53.9671 142.731C54.9842 143.248 55.3717 143.813 55.0327 145.072C54.2093 148.253 50.7382 149.851 47.1863 148.479C45.9109 147.978 44.248 147.639 44.4417 145.799C44.9583 140.875 41.6809 139.163 37.9031 137.888C34.3189 136.677 33.2211 137.613 32.9789 141.472C32.8336 144.007 33.9637 146.283 34.0444 148.753Z" fill="#231E24"/>
<path d="M25.9551 71.7227C34.9316 74.774 43.3269 77.6317 51.7222 80.4732C64.1859 84.6708 76.6497 88.8846 89.1458 92.9854C91.0993 93.6312 91.4222 94.3093 90.6634 96.2305C89.0974 100.202 87.8381 104.287 86.5142 108.339C86.1429 109.469 85.7877 109.841 84.4477 109.389C68.3513 103.883 52.2227 98.4585 36.094 93.05C35.2706 92.7755 34.641 92.4849 34.2696 91.5969C31.6057 85.1552 28.8934 78.7295 25.9551 71.7227Z" fill="#231E24"/>
<path d="M56.2607 158.722C59.8772 159.997 63.4936 161.289 67.1423 162.532C68.0303 162.839 68.7568 163.129 69.1604 164.114C71.7436 170.346 74.3752 176.546 76.9745 182.761C77.0552 182.955 77.0068 183.197 77.0552 183.746C71.7597 181.954 66.6418 180.243 61.5401 178.515C45.7989 173.204 30.0739 167.876 14.3165 162.629C12.6052 162.064 11.9432 161.515 12.702 159.561C14.2358 155.574 15.4628 151.473 16.8674 147.42C17.1257 146.678 17.0934 145.548 18.5949 146.097C24.3909 148.195 30.2192 150.181 36.0313 152.199C36.2896 153.071 37.0161 153.087 37.7426 153.329C39.4056 153.862 40.9232 154.476 39.7607 156.849C39.0504 158.286 39.2925 159.916 40.3581 161.256C41.5851 162.806 43.3772 163.484 45.1369 164.13C48.4951 165.357 49.4476 165.018 50.6101 161.628C51.4012 159.335 52.5959 158.221 55.066 158.706C55.4373 158.802 55.8571 158.722 56.2607 158.722Z" fill="#231E24"/>
<path d="M79.2662 182.076C76.6023 175.78 74.0192 169.564 71.3391 163.381C70.8709 162.283 71.0162 161.33 71.3714 160.297C76.5216 145.121 81.6879 129.945 86.7736 114.753C87.3063 113.17 87.8876 112.896 89.4052 113.461C92.8602 114.753 96.3797 115.915 99.8993 117.029C100.965 117.368 101.401 117.659 100.981 118.886C93.8611 139.809 86.7736 160.749 79.6699 181.689C79.6376 181.77 79.5407 181.818 79.2662 182.076Z" fill="#231E24"/>
<path d="M24.213 73.6992C26.8931 80.0926 29.5893 86.5021 32.3177 92.9116C32.7052 93.8318 32.237 94.526 31.9948 95.2687C26.8931 110.461 21.7429 125.637 16.6573 140.829C16.1891 142.25 15.7209 142.847 14.0902 142.218C10.5707 140.878 6.97038 139.699 3.37009 138.537C2.44984 138.23 1.98165 137.988 2.36912 136.858C9.52127 115.853 16.6411 94.849 23.7771 73.8446C23.7933 73.7961 23.8901 73.7961 24.213 73.6992Z" fill="#231E24"/>
<path d="M56.2592 158.724C55.8556 158.724 55.4197 158.805 55.0322 158.724C52.5782 158.24 51.3673 159.354 50.5763 161.647C49.4138 165.037 48.4774 165.376 45.1032 164.149C43.3434 163.503 41.5513 162.825 40.3243 161.275C39.2587 159.935 39.0166 158.305 39.7269 156.868C40.8894 154.494 39.3718 153.881 37.7088 153.348C36.9823 153.122 36.2558 153.09 35.9975 152.218C36.1912 152.04 37.0308 152.541 36.6271 151.847C35.9491 150.7 35.3678 149.377 34.0117 148.763C33.931 146.309 32.817 144.017 32.9623 141.482C33.2044 137.623 34.2862 136.671 37.8864 137.898C41.6643 139.173 44.9417 140.884 44.4251 145.809C44.2314 147.649 45.8943 147.988 47.1697 148.489C50.7216 149.861 54.1927 148.263 55.0161 145.082C55.339 143.823 54.9515 143.258 53.9505 142.741C51.7548 141.611 49.5591 140.465 47.428 139.222C42.4231 136.315 38.7098 132.586 38.9197 126.176C39.0973 120.332 43.9569 114.294 50.6408 114.746C52.9011 114.907 53.999 114.213 54.7416 112.018C55.9686 108.417 56.5337 108.336 60.1824 109.677C61.5063 110.161 62.7494 110.71 63.8634 111.63C65.8977 113.309 66.7533 115.15 65.2357 117.62C64.154 119.396 65.268 120.494 66.5112 121.591C69.0459 123.819 70.9348 126.499 71.0801 129.987C71.2416 134.104 69.5464 135.218 65.7847 133.813C62.5718 132.618 60.2954 131.052 60.1017 127.048C59.9887 124.53 56.9534 124.788 55.1291 124.304C53.6438 123.9 52.0777 124.643 51.2543 126.273C50.0112 128.76 50.3018 130.519 52.8204 132.182C55.565 133.974 58.5356 135.427 61.3771 137.074C66.6565 140.126 68.4808 146.341 65.7039 151.75C64.3639 154.365 62.588 156.529 59.7465 157.627C58.6002 157.982 57.4378 158.353 56.2592 158.724ZM53.1756 157.401C54.225 157.336 55.1452 157.336 56.0332 157.223C60.4084 156.658 63.9603 153.381 65.0904 148.908C66.156 144.711 64.9451 141.498 61.0058 138.689C59.3429 137.494 57.4862 136.574 55.6619 135.621C53.8375 134.669 51.9808 133.732 50.544 132.231C48.0415 129.599 48.8972 125.079 52.1423 123.48C56.2754 121.446 63.3145 124.594 63.928 129.147C64.267 131.633 65.607 132.069 67.4153 132.731C68.9813 133.296 69.4011 132.699 69.4334 131.359C69.5302 127.646 68.2871 124.32 65.0743 122.495C62.6041 121.091 62.7494 119.686 63.702 117.684C63.8473 117.394 63.8957 117.055 64.041 116.764C65.0258 114.811 64.1379 114.052 62.2812 113.422C60.4246 112.792 59.1976 112.922 58.8585 115.02C58.3742 118.056 56.9857 119.654 53.7083 118.669C53.4823 118.605 53.224 118.669 52.9657 118.685C48.3806 118.96 45.0709 121.575 43.7631 125.967C42.4716 130.31 43.6178 133.555 47.6218 136.428C49.0102 137.429 50.5601 138.237 52.0777 139.06C53.8698 140.061 55.6941 141.03 57.2763 142.354C60.7959 145.308 60.0209 150.523 55.8072 152.396C54.3057 153.058 52.7396 153.058 51.1897 152.88C46.6853 152.363 42.8268 149.296 42.9398 145.76C43.0366 143.048 41.8258 142.257 39.6301 141.659C38.064 141.223 37.5151 141.595 37.4182 143.145C37.0792 147.891 39.0004 151.556 43.0366 153.881C45.087 155.06 45.7328 156.174 44.4897 158.224C44.2798 158.563 44.2798 159.031 44.1022 159.386C43.1173 161.308 43.6986 162.196 45.7651 162.906C47.8801 163.632 48.6873 163.164 49.3331 161.114C49.9466 159.225 49.7206 156.125 53.1756 157.401ZM60.1501 111.469C57.4216 110.129 56.679 110.096 56.4853 111.614C55.9363 115.876 53.4339 116.796 49.7367 116.167C49.656 116.151 49.5753 116.167 49.4946 116.183C45.7974 116.7 42.9721 118.54 41.519 122.011C40.0014 125.611 39.8722 129.244 42.4231 133.022C40.5503 123.206 45.5068 117.152 55.0484 117.248C56.4691 117.265 56.8889 116.667 57.2279 115.586C57.7284 113.971 57.9544 112.147 60.1501 111.469ZM48.7035 150.474C52.2715 152.202 55.5488 151.847 57.0987 149.603C58.3257 147.843 58.9715 145.938 57.0019 144.081C55.8233 148.957 54.2411 150.216 48.7035 150.474ZM38.2739 139.706C35.0288 138.269 34.5929 138.527 34.5768 141.982C34.5606 144.372 35.1095 146.616 36.4011 148.989C36.1751 140.868 36.1751 140.868 38.2739 139.706ZM42.1487 160.662C42.6169 159.386 43.0043 158.321 43.3757 157.255C43.4241 157.11 43.408 156.916 43.4887 156.787C43.8762 156.044 43.3111 155.786 42.8429 155.463C42.4877 155.221 42.181 155.124 41.7935 155.528C40.7764 156.609 40.8571 159.257 42.1487 160.662Z" fill="#0E0B09"/>
<path d="M10.4102 159.214C7.71399 152.82 5.27613 147.024 2.64453 140.809C6.74531 142.165 10.4909 143.424 14.2526 144.667C15.5604 145.103 14.8661 145.975 14.6401 146.669C13.3324 150.625 11.9762 154.58 10.4102 159.214Z" fill="#231E24"/>
<path d="M93.0378 96.5254C95.6856 102.79 98.1557 108.602 100.803 114.85C96.6704 113.477 92.9086 112.234 89.1308 110.975C88.4527 110.749 88.2751 110.265 88.5011 109.619C89.9541 105.389 91.4233 101.159 93.0378 96.5254Z" fill="#231E24"/>
<path d="M128.993 386.102C140.779 387.28 150.562 392.14 157.876 401.584C158.99 403.021 159.797 404.636 160.33 406.379C161.783 411.045 160.023 414.533 155.406 416.066C152.177 417.148 148.899 417.035 145.638 416.405C136.177 414.581 128.218 410.093 121.938 402.747C120.711 401.31 119.71 399.696 118.967 397.936C116.4 391.946 119.064 387.199 125.538 386.311C126.684 386.166 127.847 386.182 128.993 386.102ZM145.541 408.672C146.72 408.301 147.269 409.269 148.06 409.641C149.222 410.206 150.013 409.576 150.659 408.833C151.353 408.042 150.901 407.3 150.159 406.767C149.69 406.428 149.303 406.17 149.238 405.459C148.673 399.76 144.282 397.468 139.099 400.083C138.292 400.487 137.469 400.971 136.613 401.1C135.451 401.278 134.288 400.664 134.24 399.486C134.191 398.372 135.37 398 136.419 398.033C136.904 398.049 137.42 398.129 137.856 398.339C139.358 399.066 140.391 398.259 140.827 397.08C141.376 395.627 139.891 395.385 138.97 394.997C137.759 394.481 136.468 394.158 135.128 394.481C133.804 394.787 132.577 395.223 131.302 394.029C130.301 393.108 129.283 393.9 128.557 394.755C127.669 395.805 128.541 396.386 129.251 396.935C129.703 397.29 130.075 397.532 130.139 398.242C130.591 404.038 135.435 406.622 140.585 403.861C141.166 403.554 141.747 403.264 142.312 402.941C143.394 402.311 144.185 402.892 144.976 403.522C145.348 403.829 145.428 404.2 145.089 404.571C144.443 405.298 143.685 405.718 142.684 405.411C142.377 405.314 142.07 405.136 141.763 405.088C140.601 404.894 139.794 405.572 139.422 406.509C138.954 407.687 140.02 408.107 140.843 408.398C142.393 408.93 144.007 409.334 145.541 408.672Z" fill="#EEEFAD"/>
<path d="M37.9987 467.293C32.1219 467.325 28.3279 463.273 28.6831 457.332C29.3289 446.256 41.2115 433.599 52.2868 432.178C60.1009 431.177 64.6699 435.73 63.685 443.512C62.345 454.135 50.5593 465.953 39.9683 467.261C39.3225 467.374 38.6606 467.293 37.9987 467.293ZM55.0799 446.063C55.4512 444.755 53.1909 443.641 54.8215 442.204C55.2574 441.817 57.1141 440.848 55.322 440.073C53.9174 439.459 52.6904 436.537 50.6562 439.088C49.7359 440.234 48.961 440.751 47.7017 439.637C46.9752 438.991 46.4747 439.556 46.1518 440.137C45.7482 440.864 44.2467 441.558 45.0217 442.22C46.5231 443.496 45.1992 444.012 44.6826 444.706C43.6009 446.143 42.4385 447.532 41.2438 448.888C40.5011 449.727 40.0814 450.858 38.37 450.567C37.3529 450.389 36.2712 451.875 35.7384 452.892C35.3348 453.683 36.6586 453.764 37.1753 454.2C38.0632 454.958 37.0784 455.281 36.9008 455.798C36.6586 456.508 34.7051 457.203 36.4811 457.929C37.9018 458.51 38.9835 461.465 41.163 458.995C41.7604 458.316 42.0672 457.138 43.4395 457.59C46.4101 458.591 48.4928 456.96 49.9135 454.797C51.415 452.488 52.4806 449.905 54.4664 447.871C54.8538 447.467 54.8861 446.676 55.0799 446.063Z" fill="#FED23F"/>
<path d="M98.8652 343.733C100.738 343.782 102.078 342.232 103.919 342.054C104.774 341.974 104.79 341.005 104.79 340.246C104.79 339.261 104.806 338.293 104.806 337.308C108.084 337.227 108.116 337.227 108.229 340.424C108.261 341.409 108.326 342.216 109.585 342.28C111.087 342.361 112.12 343.782 113.67 343.733C113.605 344.524 113.993 345.122 114.396 345.768C114.8 346.397 115.672 347.285 114.768 347.899C113.896 348.496 112.669 348.48 111.894 347.447C111.442 346.849 111.135 346.155 110.247 346.171C109.036 344.056 105.969 343.524 102.918 344.912C101.271 345.655 100.302 348.302 101.029 350.175C101.109 350.401 101.545 350.498 101.82 350.643C101.658 351.967 102.578 352.371 103.579 352.597C105.727 353.081 107.906 353.469 110.054 353.969C114.38 354.986 116.027 356.778 116.189 360.476C116.334 363.85 114.413 366.74 110.764 367.805C108.649 368.419 108.003 369.468 108.278 371.454C108.455 372.746 108.035 373.504 106.534 373.375C105.065 373.246 104.58 372.132 104.936 371.131C105.775 368.822 104.419 368.548 102.756 368.096C100.447 367.466 98.6392 366.062 97.5897 363.866C97.17 362.994 96.1044 361.816 97.5736 361.17C98.6715 360.669 99.7693 360.911 100.48 362.494C101.997 365.9 106.34 367.176 109.682 365.48C110.102 365.271 110.409 364.835 110.764 364.512C113.557 362.348 113.379 359.055 110.393 357.376C108.165 356.133 105.63 356.278 103.273 355.664C97.5575 354.179 95.7977 350.304 98.5584 345.122C98.7522 344.734 98.7522 344.202 98.8652 343.733Z" fill="#2D062E"/>
<path d="M135.967 343.733C136.694 343.766 137.404 343.749 137.453 342.749C141.263 342.442 141.295 342.458 141.909 338.777C142.102 337.647 142.7 337.275 143.749 337.275C144.653 337.275 145.331 337.421 145.396 338.567C145.46 339.681 144.831 341.263 145.735 341.828C147.043 342.652 148.754 342.797 150.304 343.233C150.368 344.169 150.837 344.67 151.789 344.718C151.402 345.832 153.258 347.156 151.676 348.028C150.094 348.916 149.077 347.301 147.866 346.672C146.865 344.541 144.104 343.572 141.489 344.444C138.841 345.332 137.485 347.43 137.969 349.788C138.147 350.627 138.55 351.095 139.422 351.144C139.874 352.694 141.247 352.92 142.49 353.065C145.88 353.469 149.077 354.55 152.29 355.584C152.128 356.811 153.145 357.682 153.242 358.813C153.468 361.46 153.452 364.043 151.111 365.949C150.514 366.449 149.787 366.95 149.803 367.902C149.061 367.967 148.334 367.967 147.608 368.08C146.219 368.306 145.218 368.725 145.783 370.566C146.042 371.405 146.187 372.584 145.041 373.198C143.717 373.908 142.264 373.133 142.441 371.632C142.716 369.161 141.779 368.193 139.358 367.741C137.114 367.321 135.435 365.723 134.514 363.527C134.191 362.736 133.416 361.686 134.579 361.186C135.564 360.766 136.726 360.701 137.469 362.138C139.568 366.142 144.443 367.321 148.06 364.835C150.32 363.269 150.465 360.088 148.35 358.522C147.963 357.053 146.623 356.891 145.477 356.601C143.733 356.165 141.957 355.907 140.181 355.567C135.225 354.647 132.981 350.224 135.257 345.735C135.596 345.106 136.08 344.524 135.967 343.733Z" fill="#2D062E"/>
<path d="M346.884 247.841C346.916 258.803 337.972 267.812 326.977 267.876C315.902 267.941 306.828 258.851 306.893 247.776C306.957 236.782 315.756 227.95 326.686 227.918C337.956 227.886 346.851 236.652 346.884 247.841ZM345.431 247.776C345.382 237.492 337.148 229.29 326.88 229.306C316.58 229.306 308.378 237.508 308.346 247.841C308.314 258.109 316.822 266.601 327.058 266.504C337.213 266.375 345.479 257.964 345.431 247.776Z" fill="#0E0B09"/>
<path d="M342.88 434.309C337.778 433.486 332.693 432.63 327.591 431.855C326.541 431.693 326.412 431.209 326.59 430.353C328.333 421.861 330.077 413.369 331.821 404.877C333.677 407.476 334.259 410.576 335.356 413.482C337.956 420.392 340.894 427.189 342.88 434.309Z" fill="#FDA368"/>
<path d="M342.879 434.311C340.877 427.192 337.939 420.395 335.339 413.485C334.241 410.579 333.66 407.479 331.804 404.879C331.787 404.137 331.997 404.04 332.611 404.508C339.408 409.82 346.205 415.115 353.002 420.427C353.551 420.863 354.261 421.218 353.454 422.154C350.047 426.158 346.721 430.211 343.347 434.231C343.283 434.344 343.04 434.295 342.879 434.311Z" fill="#EEEFAD"/>
<path d="M305.486 412.877C307.94 400.591 314.059 391.292 326.491 387.272C329.542 386.287 331.399 387.126 332.158 389.693C332.852 392.051 331.657 393.746 328.816 394.715C320.275 397.588 312.945 402.19 307.634 409.648C306.891 410.682 306.197 411.796 305.486 412.877Z" fill="#FEFEFE"/>
<path d="M348.079 448.324C342.331 444.562 336.583 440.817 330.836 437.055C335.76 436.99 340.345 438.443 345.092 438.605C345.35 439.541 345.608 440.478 345.867 441.414C346.513 443.755 347.966 445.821 348.079 448.324Z" fill="#F2A167"/>
<path d="M348.077 448.326C347.964 445.823 346.511 443.757 345.865 441.416C345.606 440.479 345.348 439.543 345.09 438.607C348.028 434.99 350.95 431.39 353.889 427.773C354.034 427.838 354.179 427.903 354.325 427.967C352.452 434.683 350.579 441.4 348.706 448.116C348.496 448.213 348.303 448.261 348.077 448.326Z" fill="#EEEFAD"/>
<path d="M348.094 448.326C348.304 448.261 348.497 448.213 348.707 448.148C348.643 448.681 348.417 448.649 348.094 448.326Z" fill="#F2A167"/>
<path d="M434.952 259.38C435.049 257.604 434.145 256.457 432.692 255.586C430.835 254.455 428.737 254.003 426.735 253.261C422.036 251.533 420.519 249.418 420.971 245.334C421.342 241.943 423.828 239.618 428.171 239.15C430.028 238.956 430.286 238.052 430.383 236.632C430.464 235.372 430.464 234.178 432.418 234.387C434.468 234.613 434.323 235.792 433.935 237.148C433.435 238.876 433.741 239.941 435.695 240.587C437.632 241.233 438.843 242.928 439.473 244.898C439.715 245.673 440.377 246.867 439.247 247.174C438.23 247.449 436.874 247.578 436.163 245.979C434.694 242.605 432.466 241.459 428.688 241.814C426.767 241.992 425.411 242.976 424.959 244.849C424.507 246.722 424.781 248.482 426.589 249.628C427.784 250.371 429.076 250.871 430.432 251.259C431.546 251.565 432.644 251.921 433.709 252.357C437.858 254.068 439.166 256.07 438.795 260.025C438.472 263.432 435.776 266.532 432.014 266.79C429.463 266.968 429.14 268.259 428.963 270.1C428.85 271.278 428.769 272.231 427.122 271.892C425.782 271.617 424.91 271.149 425.427 269.648C426.202 267.371 425.556 266.193 423.167 265.353C420.745 264.514 419.163 262.479 418.727 259.832C418.614 259.105 417.839 257.83 419.308 257.7C420.374 257.604 421.988 257.313 422.149 259.17C422.505 263.141 427.397 264.885 431.271 264.029C433.515 263.545 434.92 261.672 434.952 259.38Z" fill="#F2A167"/>
<path d="M53.1756 157.393C49.7206 156.118 49.9467 159.218 49.3654 161.074C48.7196 163.125 47.9124 163.593 45.7974 162.867C43.7147 162.156 43.1335 161.268 44.1345 159.347C44.3121 158.992 44.3121 158.524 44.522 158.185C45.7651 156.134 45.1032 155.02 43.069 153.842C39.0166 151.517 37.1115 147.852 37.4506 143.105C37.5636 141.555 38.0964 141.184 39.6624 141.62C41.8581 142.233 43.069 143.008 42.9721 145.721C42.8429 149.256 46.7177 152.324 51.2221 152.841C52.772 153.018 54.338 153.034 55.8395 152.356C60.0533 150.483 60.8282 145.269 57.3087 142.314C55.7265 140.99 53.9183 140.022 52.11 139.021C50.6086 138.181 49.0587 137.39 47.6541 136.389C43.6502 133.515 42.5039 130.27 43.7955 125.927C45.0871 121.552 48.3967 118.92 52.998 118.646C53.2402 118.63 53.5146 118.565 53.7407 118.63C57.0181 119.615 58.4065 118.016 58.8909 114.981C59.2299 112.882 60.4569 112.753 62.3136 113.383C64.1541 114.012 65.0582 114.771 64.0734 116.725C63.928 117.015 63.8796 117.354 63.7343 117.645C62.7818 119.647 62.6365 121.051 65.1066 122.456C68.3194 124.28 69.5787 127.606 69.4657 131.32C69.4334 132.643 69.0137 133.257 67.4476 132.692C65.6394 132.03 64.2994 131.594 63.9603 129.108C63.3307 124.555 56.3077 121.407 52.1746 123.441C48.9295 125.039 48.09 129.56 50.5763 132.191C52.0132 133.709 53.8537 134.629 55.6942 135.582C57.5186 136.534 59.3752 137.455 61.0381 138.649C64.9775 141.459 66.1883 144.655 65.1228 148.869C63.9926 153.341 60.4408 156.619 56.0655 157.184C55.1453 157.329 54.225 157.329 53.1756 157.393Z" fill="#EEEFAD"/>
<path d="M60.1509 111.466C57.9552 112.128 57.7292 113.969 57.2125 115.583C56.8735 116.665 56.4537 117.262 55.033 117.246C45.4914 117.165 40.5349 123.22 42.4077 133.019C39.8569 129.242 39.986 125.609 41.5036 122.009C42.9566 118.554 45.782 116.713 49.4792 116.18C49.5599 116.164 49.6406 116.164 49.7213 116.164C53.4185 116.794 55.9209 115.874 56.4699 111.611C56.6797 110.094 57.4224 110.126 60.1509 111.466Z" fill="#F2A167"/>
<path d="M48.7031 150.468C54.2408 150.225 55.823 148.966 57.0016 144.074C58.9874 145.931 58.3254 147.836 57.0984 149.596C55.5485 151.84 52.2711 152.179 48.7031 150.468Z" fill="#F2A167"/>
<path d="M38.2751 139.702C36.1924 140.864 36.1924 140.864 36.4185 148.985C35.1269 146.612 34.578 144.368 34.5941 141.978C34.5941 138.523 35.03 138.265 38.2751 139.702Z" fill="#F2A167"/>
<path d="M42.1487 160.649C40.8572 159.244 40.7764 156.597 41.7936 155.515C42.1649 155.111 42.4878 155.208 42.843 155.45C43.295 155.757 43.8762 156.031 43.4888 156.774C43.4242 156.919 43.4403 157.097 43.3757 157.242C43.0044 158.308 42.6169 159.373 42.1487 160.649Z" fill="#F2A167"/>
<path d="M145.54 408.67C144.007 409.332 142.392 408.928 140.826 408.395C140.003 408.105 138.921 407.685 139.405 406.506C139.777 405.57 140.584 404.908 141.746 405.085C142.069 405.134 142.36 405.312 142.667 405.408C143.668 405.715 144.426 405.295 145.072 404.569C145.411 404.181 145.331 403.81 144.959 403.519C144.168 402.89 143.377 402.309 142.295 402.938C141.73 403.261 141.133 403.552 140.568 403.858C135.418 406.619 130.574 404.052 130.122 398.24C130.058 397.514 129.702 397.288 129.234 396.932C128.524 396.383 127.652 395.786 128.54 394.753C129.266 393.897 130.284 393.09 131.285 394.026C132.56 395.205 133.787 394.785 135.111 394.478C136.451 394.172 137.743 394.494 138.953 394.995C139.874 395.382 141.359 395.625 140.81 397.078C140.358 398.272 139.341 399.08 137.839 398.337C137.403 398.127 136.887 398.03 136.403 398.03C135.353 398.014 134.175 398.369 134.223 399.483C134.271 400.662 135.434 401.259 136.596 401.098C137.452 400.969 138.291 400.484 139.083 400.081C144.249 397.465 148.64 399.758 149.221 405.457C149.286 406.167 149.674 406.426 150.142 406.765C150.884 407.313 151.336 408.04 150.642 408.831C149.996 409.574 149.221 410.203 148.043 409.638C147.284 409.251 146.719 408.298 145.54 408.67ZM142.392 407.039C142.166 406.668 141.859 406.506 141.44 406.652C141.391 406.668 141.359 406.781 141.311 406.845C141.682 406.894 142.037 406.958 142.392 407.039C144.12 408.282 145.928 407.12 147.639 406.974C148.398 406.91 147.526 402.938 146.38 402.066C145.637 400.872 144.459 400.743 143.199 400.549C141.084 400.21 139.664 401.647 137.936 402.309C136.225 402.971 134.691 402.583 133.448 401.243C132.641 400.387 132.463 399.451 133.109 398.337C134.061 396.706 135.563 396.593 137.161 396.674C137.484 396.69 137.791 396.884 138.098 396.948C138.437 397.013 138.857 397.32 139.034 396.69C136.386 394.462 132.931 398.143 130.316 394.93C130.51 396.513 131.979 396.69 131.85 398.062C131.462 402.147 135.498 404.972 139.034 402.938C141.504 401.518 143.732 400.856 146.348 402.115C147.22 405.392 146.445 406.377 142.392 407.039ZM149.125 407.879C148.979 407.814 148.85 407.749 148.705 407.685C148.64 407.83 148.511 407.992 148.56 408.088C148.608 408.185 148.818 408.218 148.947 408.282C148.995 408.153 149.06 408.024 149.125 407.879Z" fill="#0E0B09"/>
<path d="M55.0814 446.058C54.8716 446.671 54.8554 447.462 54.4518 447.866C52.466 449.884 51.4166 452.483 49.899 454.792C48.4782 456.955 46.3955 458.586 43.4249 457.585C42.0526 457.133 41.7458 458.311 41.1485 458.99C38.9689 461.46 37.9034 458.505 36.4665 457.924C34.6906 457.198 36.6441 456.503 36.8863 455.793C37.0639 455.276 38.0487 454.953 37.1607 454.195C36.6441 453.759 35.3202 453.678 35.7238 452.887C36.2566 451.854 37.3383 450.384 38.3554 450.562C40.0829 450.853 40.4865 449.722 41.2292 448.883C42.4239 447.527 43.5863 446.138 44.668 444.701C45.1847 444.023 46.5086 443.507 45.0071 442.215C44.2321 441.553 45.7336 440.843 46.1372 440.132C46.4601 439.551 46.9445 438.986 47.6871 439.632C48.9464 440.746 49.7214 440.229 50.6416 439.083C52.6759 436.532 53.8867 439.454 55.3075 440.068C57.0995 440.843 55.259 441.812 54.807 442.199C53.1925 443.636 55.4689 444.766 55.0814 446.058ZM40.9547 452.031C40.0506 452.193 39.1304 452.37 38.1456 452.548C40.5996 455.518 44.668 457.052 46.783 455.906C48.9787 454.727 49.9313 452.257 49.1079 449.706C49.6891 449.626 50.2864 449.642 50.8031 449.464C52.9019 448.722 54.1935 445.654 52.805 444.475C51.1744 443.087 49.3662 441.86 46.783 441.23C47.6548 442.909 47.1059 443.894 46.3148 445.089C44.6842 447.543 42.1656 449.287 40.9547 452.031Z" fill="#0E0B09"/>
<path d="M345.428 247.767C345.477 257.954 337.211 266.366 327.056 266.479C316.82 266.592 308.312 258.1 308.344 247.815C308.392 237.483 316.578 229.297 326.878 229.281C337.146 229.281 345.38 237.483 345.428 247.767Z" fill="#FDA368"/>
<path d="M146.333 402.095C143.717 400.835 141.473 401.513 139.019 402.918C135.467 404.952 131.447 402.127 131.835 398.042C131.964 396.67 130.495 396.492 130.301 394.91C132.916 398.123 136.387 394.458 139.019 396.67C138.858 397.283 138.422 396.993 138.083 396.928C137.76 396.864 137.453 396.67 137.146 396.654C135.548 396.573 134.046 396.67 133.094 398.317C132.448 399.431 132.642 400.367 133.433 401.223C134.676 402.563 136.226 402.95 137.921 402.288C139.649 401.626 141.069 400.189 143.184 400.529C144.444 400.722 145.622 400.851 146.365 402.046C146.365 402.062 146.333 402.095 146.333 402.095Z" fill="#2D062E"/>
<path d="M142.393 407.042C146.445 406.397 147.236 405.412 146.332 402.118L146.364 402.086C147.51 402.958 148.382 406.929 147.624 406.994C145.928 407.123 144.12 408.269 142.393 407.042Z" fill="#2D062E"/>
<path d="M149.124 407.879C149.059 408.024 149.011 408.153 148.946 408.299C148.801 408.234 148.607 408.202 148.559 408.105C148.51 408.008 148.655 407.846 148.704 407.701C148.833 407.766 148.978 407.814 149.124 407.879Z" fill="#2D062E"/>
<path d="M142.39 407.022C142.035 406.957 141.664 406.892 141.309 406.828C141.357 406.763 141.373 406.666 141.438 406.634C141.858 406.505 142.164 406.666 142.39 407.022Z" fill="#2D062E"/>
<path d="M40.9532 452.049C42.1641 449.289 44.6988 447.545 46.3294 445.091C47.1205 443.896 47.6856 442.911 46.7976 441.232C49.3647 441.862 51.189 443.089 52.8196 444.478C54.2081 445.672 52.9326 448.724 50.8177 449.466C50.301 449.644 49.7037 449.628 49.1225 449.708C49.9458 452.259 48.9772 454.73 46.7976 455.908C44.6665 457.054 40.6142 455.521 38.1602 452.55C39.1288 452.372 40.0491 452.211 40.9532 452.049C40.8886 454.084 42.3094 454.729 43.9238 454.972C45.6998 455.23 47.2335 454.568 47.9278 452.841C48.6058 451.178 47.5887 450.128 46.2649 449.256C45.0378 448.433 44.1983 448.74 43.4718 449.951C42.8906 450.919 42.2771 451.936 40.9532 452.049ZM48.5897 449.095C50.1396 449.273 51.3182 448.481 51.7702 446.883C52.2061 445.317 51.1729 444.445 49.8651 443.88C47.9439 443.057 47.8955 445.123 46.9752 445.818C46.2971 446.334 45.3769 447.093 45.8289 448.013C46.2648 448.934 47.395 449.079 48.5897 449.095Z" fill="#2D062E"/>
<path d="M40.9533 452.048C42.2933 451.951 42.8907 450.918 43.4719 449.949C44.1984 448.722 45.0379 448.432 46.2649 449.255C47.5888 450.127 48.6059 451.176 47.9279 452.839C47.2175 454.566 45.6999 455.228 43.9239 454.97C42.3094 454.728 40.8887 454.066 40.9533 452.048ZM42.9391 452.887C44.3114 453.727 45.4092 453.905 46.3456 452.629C46.9269 451.838 46.5555 451.031 45.8452 450.789C44.0047 450.159 44.0693 452.177 42.9391 452.887Z" fill="#0E0B09"/>
<path d="M48.5901 449.094C47.3954 449.094 46.2814 448.933 45.8293 448.029C45.3611 447.093 46.2975 446.35 46.9756 445.833C47.8959 445.139 47.9443 443.072 49.8655 443.896C51.1732 444.461 52.2065 445.333 51.7706 446.899C51.3185 448.481 50.14 449.256 48.5901 449.094ZM47.4922 447.351C48.9291 448.077 49.7525 447.754 50.2691 446.737C50.5113 446.269 50.3821 445.656 49.8332 445.526C48.3802 445.171 48.4125 446.721 47.4922 447.351Z" fill="#0E0B09"/>
<path d="M42.9414 452.893C44.0715 452.182 44.0069 450.164 45.8475 450.794C46.5578 451.036 46.913 451.843 46.3479 452.634C45.4115 453.91 44.3137 453.732 42.9414 452.893Z" fill="#FED23F"/>
<path d="M47.4922 447.361C48.4286 446.716 48.3801 445.182 49.8332 445.537C50.3821 445.666 50.5113 446.296 50.2691 446.748C49.7525 447.765 48.9291 448.088 47.4922 447.361Z" fill="#FED23F"/>
<defs>
<linearGradient id="paint0_linear_649_4010" x1="229.551" y1="119.898" x2="229.551" y2="432.968" gradientUnits="userSpaceOnUse">
<stop stop-color="#573CFF"/>
<stop offset="1" stop-color="#B06AB3"/>
</linearGradient>
<linearGradient id="paint1_linear_649_4010" x1="344.991" y1="193.584" x2="344.991" y2="291.504" gradientUnits="userSpaceOnUse">
<stop stop-color="#573CFF"/>
<stop offset="1" stop-color="#B06AB3"/>
</linearGradient>
</defs>
</svg>
