<svg width="22" height="22" viewBox="0 0 22 22" fill="none" xmlns="http://www.w3.org/2000/svg">
<path d="M18.3335 3.20898H5.04184C4.76684 3.20898 4.49184 3.30065 4.30851 3.57565L2.93351 5.40898C2.47517 6.05065 2.93351 6.87565 3.66684 6.87565H16.9585C17.2335 6.87565 17.5085 6.78398 17.6918 6.50898L19.0668 4.67565C19.5252 4.03398 19.0668 3.20898 18.3335 3.20898Z" stroke="#747474" stroke-width="1.5" stroke-miterlimit="10"/>
<path d="M3.66684 9.16602H16.9585C17.2335 9.16602 17.5085 9.25768 17.6918 9.53268L19.0668 11.366C19.5252 12.0077 19.0668 12.8327 18.3335 12.8327H5.04184C4.76684 12.8327 4.49184 12.741 4.30851 12.466L2.93351 10.6327C2.47517 9.99102 2.93351 9.16602 3.66684 9.16602Z" stroke="#747474" stroke-width="1.5" stroke-miterlimit="10"/>
<path d="M18.3335 15.125H5.04184C4.76684 15.125 4.49184 15.2167 4.30851 15.4917L2.93351 17.325C2.47517 17.9667 2.93351 18.7917 3.66684 18.7917H16.9585C17.2335 18.7917 17.5085 18.7 17.6918 18.425L19.0668 16.5917C19.5252 15.95 19.0668 15.125 18.3335 15.125Z" stroke="#747474" stroke-width="1.5" stroke-miterlimit="10"/>
</svg>
