<svg width="22" height="22" viewBox="0 0 22 22" fill="none" xmlns="http://www.w3.org/2000/svg">
<path d="M18.7091 6.38031V8.05781C18.7091 8.64448 18.4341 9.19448 17.9574 9.53365L7.8741 16.922C7.22327 17.3986 6.33411 17.3986 5.69244 16.9128L4.37244 15.9228C3.7766 15.4736 3.29077 14.502 3.29077 13.7595V6.38031C3.29077 5.35365 4.0791 4.21698 5.0416 3.85948L10.0558 1.98031C10.5783 1.78781 11.4216 1.78781 11.9441 1.98031L16.9583 3.85948C17.9208 4.21698 18.7091 5.35365 18.7091 6.38031Z" fill="#573CFF"/>
<path d="M17.2516 11.3136C17.8566 10.8736 18.7091 11.3044 18.7091 12.0561V13.7794C18.7091 14.5219 18.2232 15.4844 17.6274 15.9336L12.6132 19.6828C12.1732 20.0036 11.5866 20.1686 10.9999 20.1686C10.4132 20.1686 9.82656 20.0036 9.38656 19.6736L8.62573 19.1053C8.13073 18.7386 8.13073 17.9961 8.63489 17.6294L17.2516 11.3136Z" fill="#573CFF"/>
</svg>
