<svg width="22" height="22" viewBox="0 0 22 22" fill="none" xmlns="http://www.w3.org/2000/svg">
<path d="M13.6118 3.62057V7.10391H12.2368V3.62057C12.2368 3.37307 12.0168 3.25391 11.8702 3.25391C11.8243 3.25391 11.7785 3.26307 11.7327 3.28141L4.46352 6.02224C3.97768 6.20557 3.66602 6.66391 3.66602 7.18641V7.80057C2.83185 8.42391 2.29102 9.42307 2.29102 10.5506V7.18641C2.29102 6.09557 2.96018 5.12391 3.97768 4.73891L11.256 1.98891C11.4577 1.91557 11.6685 1.87891 11.8702 1.87891C12.7868 1.87891 13.6118 2.62141 13.6118 3.62057Z" fill="#646464"/>
<path d="M19.7073 13.2923V14.209C19.7073 14.4565 19.5148 14.6582 19.2582 14.6673H17.9198C17.434 14.6673 16.994 14.3098 16.9573 13.8332C16.9298 13.549 17.0398 13.2832 17.2232 13.0998C17.3882 12.9257 17.6173 12.834 17.8648 12.834H19.249C19.5148 12.8432 19.7073 13.0448 19.7073 13.2923Z" fill="#646464"/>
<path d="M17.856 11.8702H18.791C19.2952 11.8702 19.7077 11.4577 19.7077 10.9535V10.5502C19.7077 8.65268 18.1585 7.10352 16.261 7.10352H5.73768C4.95852 7.10352 4.24352 7.36018 3.66602 7.80018C2.83185 8.42352 2.29102 9.42268 2.29102 10.5502V16.7193C2.29102 18.6168 3.84018 20.166 5.73768 20.166H16.261C18.1585 20.166 19.7077 18.6168 19.7077 16.7193V16.5452C19.7077 16.041 19.2952 15.6285 18.791 15.6285H17.9935C17.1135 15.6285 16.2702 15.0877 16.041 14.2352C15.8485 13.5385 16.0777 12.8693 16.536 12.4202C16.8752 12.0718 17.3427 11.8702 17.856 11.8702ZM12.8327 11.6868H6.41602C6.04018 11.6868 5.72852 11.3752 5.72852 10.9993C5.72852 10.6235 6.04018 10.3118 6.41602 10.3118H12.8327C13.2085 10.3118 13.5202 10.6235 13.5202 10.9993C13.5202 11.3752 13.2085 11.6868 12.8327 11.6868Z" fill="#646464"/>
</svg>
