<svg width="18" height="22" viewBox="0 0 18 22" fill="none" xmlns="http://www.w3.org/2000/svg">
<path d="M5.19508 4.31776C5.76075 4.42418 6.20601 4.77142 6.67648 5.06826C6.79969 5.17188 6.92291 5.27269 7.10774 5.42671C7.03773 5.21388 7.02372 5.08227 6.93131 4.98145C6.59247 4.18895 6.1192 3.48326 5.54793 2.84197C5.55073 2.72435 5.55072 2.60954 5.55352 2.49192C5.57593 2.49752 5.59834 2.50312 5.62074 2.50872C5.67675 2.61514 5.77476 2.66275 5.88117 2.70195C6.41884 2.80276 6.76329 3.22841 7.24215 3.52525C7.06293 2.65434 6.73808 1.89264 6.30683 1.17574C6.1528 0.920908 5.97918 0.682872 5.81116 0.436439C5.86717 0.164803 6.05759 0.422444 6.16121 0.346834C6.38244 0.562463 6.57006 0.820095 6.89771 0.887304C6.92011 1.06653 7.02372 1.15614 7.20015 1.17014C7.85823 1.77783 8.3147 2.53112 8.75996 3.36003C9.42365 2.13627 10.1797 1.04412 11.3783 0.34403C11.6527 0.388836 11.6135 0.523255 11.4679 0.677276C11.2663 0.892905 11.0787 1.11694 11.0591 1.43058V1.43338C10.9106 1.44738 10.9246 1.55099 10.9386 1.6546C10.6978 2.23148 10.4262 2.79716 10.2918 3.50845C10.8854 3.094 11.3895 2.70195 11.9944 2.48352C11.9972 2.58434 12 2.68234 12 2.78316C11.9916 2.80276 11.9916 2.82236 12 2.84476V2.84757C11.8376 2.96518 11.7172 3.1164 11.6247 3.29283C11.1319 3.8753 10.779 4.539 10.4934 5.27269C11.3363 4.74062 12.1708 4.18614 13.2826 4.02652C12.126 4.91144 11.2523 5.91398 10.653 7.26376C11.5743 6.8185 12.4508 6.54127 13.403 6.56927C12.5741 6.95292 11.9272 7.555 11.3167 8.21029C11.0927 8.45112 10.8462 8.70316 10.457 8.53793C10.3702 8.45672 10.2554 8.44832 10.1489 8.42031C9.16601 8.15988 8.17747 8.15428 7.20574 8.43712C6.80809 8.55193 6.50285 8.53513 6.21721 8.24669C5.66274 7.61101 5.05786 7.03133 4.20654 6.64768C4.6518 6.56087 4.99905 6.62247 5.3463 6.67568C5.85317 6.8437 6.36003 7.01453 6.8557 7.24136C6.77729 7.06493 6.75489 6.88291 6.61487 6.75969L6.60087 6.74569C6.43845 6.26122 6.0828 5.89437 5.81116 5.47712C5.78596 5.16627 5.07746 4.42978 4.75822 4.38497C4.73581 4.38217 4.71341 4.38218 4.69101 4.38218L4.677 4.37378C4.77502 4.13574 4.97385 4.30656 5.11947 4.26175C5.13347 4.26735 5.13907 4.27576 5.13627 4.29256C5.15867 4.29536 5.17827 4.30656 5.19508 4.31776Z" fill="#573CFF"/>
<path d="M7.26751 18.5107C8.45767 17.8358 9.53862 17.0041 10.5972 16.1472C11.6921 15.2595 12.7282 14.3073 13.6692 13.2544C13.9576 12.9324 14.2096 12.5823 14.4785 12.2463C14.8397 11.941 15.0806 11.535 15.3438 11.1513C15.7723 10.524 16.1587 9.86873 16.3603 9.12663C16.604 8.21931 16.5032 7.38761 15.1898 7.25319C15.1954 7.14398 15.2878 7.15237 15.355 7.14117C15.9207 7.04876 16.4864 6.98435 17.0408 7.19718C17.5085 7.3736 17.7465 7.72365 17.7829 8.21372C17.8417 8.98382 17.5393 9.65871 17.1976 10.314C16.4668 11.7114 15.4558 12.9043 14.3917 14.0525C14.3077 14.1421 14.2292 14.2345 14.148 14.3269C13.4899 14.9514 12.8319 15.5731 12.1738 16.1976C12.1542 16.1976 12.1402 16.2088 12.1346 16.2256C12.0646 16.2368 12.0197 16.276 12.0029 16.346C11.7957 16.5196 11.5913 16.6933 11.3841 16.8669C10.4767 17.5586 9.58063 18.2615 8.6397 18.9056C8.29805 19.1268 7.9564 19.348 7.61756 19.5692C6.99867 19.9137 6.391 20.2805 5.75811 20.5998C4.34112 21.3139 2.89612 21.9524 1.2551 21.9188C0.216162 21.7199 -0.161883 21.1543 0.0621469 20.1209C0.101352 19.9361 0.154557 19.7541 0.199363 19.572C0.350583 19.6393 0.442997 19.7429 0.445797 19.9193C0.448597 20.0957 0.552214 20.1965 0.720237 20.2357C0.854655 20.3001 0.921857 20.4794 1.10668 20.4542C1.13189 20.5214 1.1879 20.5158 1.2411 20.513C1.40632 20.6278 1.60235 20.6306 1.78718 20.6306C2.55728 20.6334 3.28818 20.443 3.99667 20.1601C4.14229 20.1013 4.28791 20.0425 4.43353 19.9865C4.53994 19.9669 4.64356 19.9417 4.71917 19.8549L4.74157 19.8521C4.85359 19.8381 4.9544 19.7961 5.03561 19.7149C5.07481 19.7009 5.11402 19.6841 5.15323 19.6701C5.30165 19.6141 5.45847 19.5748 5.57048 19.446C5.58728 19.4544 5.60409 19.4488 5.61249 19.432C5.70491 19.4292 5.77771 19.3928 5.82812 19.3172V19.32C5.94294 19.3144 6.02975 19.2528 6.10816 19.1772C6.20617 19.1632 6.29018 19.1184 6.35459 19.0428C6.68504 18.9055 6.98467 18.7235 7.26751 18.5107Z" fill="#573CFF"/>
<path d="M9.53299 19.444C9.23335 19.7016 8.8693 19.8361 8.50525 19.9705C8.48565 19.7969 8.72368 19.8865 8.73768 19.7716C8.60326 19.5728 8.29242 19.6596 8.22241 19.3936C8.26442 19.374 8.30923 19.3544 8.35124 19.3348C8.58367 19.472 9.19975 19.3124 9.29496 19.0856C9.32857 19.0071 9.30056 18.9343 9.22495 18.8867C9.28376 18.8223 9.35096 18.7719 9.44618 18.7747C9.47418 18.9119 9.5778 18.9371 9.66181 18.8643C9.76262 18.7747 9.68981 18.7159 9.5806 18.6963C9.64781 18.6067 9.74582 18.5815 9.84664 18.5535C10.0511 18.6375 10.1939 18.5871 10.2527 18.3631C10.3255 18.2622 10.4319 18.2118 10.5355 18.1502C10.7848 18.0046 11.0564 17.8982 11.2664 17.691C11.3448 17.6658 11.4232 17.6462 11.468 17.5678C11.6361 17.5201 11.7733 17.4305 11.8797 17.2933C14.0612 15.9267 16.0803 14.3809 17.4889 12.1406C17.5001 12.5831 17.3208 12.9415 17.1248 13.3028C16.5423 14.3725 15.6546 15.1678 14.7669 15.9631C13.6663 16.9461 12.4454 17.7722 11.1936 18.5479C11.1096 18.6011 11.0116 18.6319 10.9192 18.6739C10.936 18.4863 10.81 18.4947 10.6811 18.4919C10.4767 18.4891 10.5103 18.7243 10.3759 18.8055C10.3367 18.8307 10.4683 18.8867 10.5439 18.8895C10.3395 19.0716 10.1015 19.1976 9.84664 19.29C9.81303 19.1108 9.70661 19.1668 9.6086 19.22C9.51899 19.2676 9.38457 19.3124 9.53299 19.444Z" fill="#573CFF"/>
<path d="M8.22246 19.3945C8.29247 19.6606 8.60331 19.5766 8.73773 19.7726C8.72373 19.8902 8.4857 19.7978 8.5053 19.9714C7.89482 20.3607 7.22273 20.6183 6.55625 20.8815C5.29048 21.38 3.9967 21.7861 2.63851 21.9457C2.17925 21.9989 1.71159 22.0521 1.25513 21.9149C2.89335 21.9485 4.34115 21.31 5.75814 20.5959C6.39102 20.2767 6.9987 19.9098 7.61758 19.5654C7.84721 19.6074 8.00964 19.4169 8.22246 19.3945Z" fill="#573CFF"/>
<path d="M13.2098 10.9063C13.2322 10.8811 13.2546 10.8587 13.277 10.8335C13.4647 10.7887 13.5571 10.9147 13.6495 11.0407C13.8343 11.2983 14.0303 11.5476 14.1676 11.836C14.1648 11.948 14.1648 12.0628 14.162 12.1748C14.1368 12.2197 14.1088 12.2673 14.0836 12.3121C14.064 12.3345 14.0415 12.3541 14.0219 12.3765C13.9995 12.3877 13.9939 12.4017 14.0023 12.4269L13.9967 12.4325C13.8175 12.5697 13.6355 12.6761 13.4115 12.7461C12.8318 12.9337 12.9046 12.9533 12.5293 12.4465C12.3053 12.144 12.0869 11.8388 11.8489 11.5504C11.7452 11.4243 11.7116 11.3291 11.8881 11.2871C12.2885 11.1919 12.6582 10.9903 13.0754 10.9623C13.0894 11.0071 13.0838 11.0855 13.1566 11.0687C13.2294 11.0463 13.2014 10.9651 13.2098 10.9063ZM12.941 12.3121C13.0698 12.2953 13.1678 12.3541 13.2742 12.4185C13.3723 12.4773 13.5039 12.4241 13.4591 12.2925C13.4031 12.1272 13.207 12.0852 13.0642 12.0628C12.9018 12.0376 12.955 12.2112 12.941 12.3121C12.8906 12.3205 12.8346 12.3177 12.8402 12.3933C12.8402 12.4017 12.8542 12.4129 12.8598 12.4129C12.9326 12.4185 12.9298 12.3597 12.941 12.3121Z" fill="#573CFF"/>
<path d="M6.08565 9.21459C6.34609 9.09417 6.61493 8.98776 6.86696 8.85054C7.10779 8.71893 7.32622 8.69372 7.59226 8.80293C8.14673 9.02976 8.68441 9.279 9.18847 9.66265C8.72081 9.88948 8.23354 9.98189 7.83029 10.2647C7.60906 10.3235 7.37943 10.4272 7.24501 10.1247C7.1638 9.94269 6.97897 10.1863 6.88376 10.0407C6.79135 9.77187 6.70734 9.49183 6.33769 9.75786C6.32369 9.76906 6.29568 9.76347 6.27328 9.76347C6.15567 9.73827 6.04085 9.71586 5.92604 9.69066C5.70761 9.64025 5.6572 9.53104 5.81682 9.35741C5.90643 9.307 5.99604 9.2622 6.08565 9.21459Z" fill="#573CFF"/>
<path d="M3.80347 10.8418C4.0611 10.6346 4.32714 10.4385 4.57637 10.2229C4.83121 10.0017 5.09725 9.93166 5.43609 10.0241C5.95976 10.1669 6.47222 10.3209 6.97069 10.6346C6.48343 10.9258 6.02977 11.1918 5.58451 11.4691C5.4697 11.5391 5.39968 11.4747 5.31007 11.4355C4.99643 11.3038 4.69959 11.119 4.34395 11.0994C4.16472 11.0042 3.92388 11.049 3.80347 10.8418Z" fill="#573CFF"/>
<path d="M2.20709 18.3062C2.21829 18.3034 2.23229 18.3034 2.23789 18.295C2.82037 17.637 2.82317 17.637 3.39164 18.3539C3.43925 18.4155 3.47565 18.4855 3.55686 18.5079C3.63808 18.7151 3.95452 18.8635 3.73329 19.1464C3.49526 19.4488 3.25163 19.7484 2.99399 20.0341C2.76996 20.2833 2.57393 20.2721 2.3331 20.0229C2.3247 19.9641 2.3191 19.9025 2.3107 19.8437C2.2995 19.7344 2.3107 19.6168 2.2743 19.516C2.14548 19.1464 2.12308 18.7655 2.14268 18.3791L2.13428 18.3819C2.17628 18.3735 2.19869 18.3483 2.19869 18.3034L2.20709 18.3062Z" fill="#573CFF"/>
<path d="M10.796 10.4154C10.6252 10.225 10.4544 10.0318 10.2751 9.83016C10.6196 9.66214 11.0116 9.68454 11.3337 9.49691C11.9498 9.25888 12.3222 9.66494 12.7087 10.0262C12.8319 10.1382 12.9523 10.253 13.0727 10.3678C12.5687 10.6619 11.9918 10.7571 11.4513 10.9531C11.3309 10.9979 11.2553 10.8663 11.1797 10.7935C11.0844 10.7011 10.9976 10.6003 10.9052 10.5022C10.908 10.4686 10.8912 10.4518 10.8576 10.4574C10.838 10.4406 10.8184 10.4266 10.796 10.4154Z" fill="#573CFF"/>
<path d="M2.32487 15.068C2.46489 14.914 2.63292 14.9364 2.77574 15.0372C3.06698 15.2388 3.34141 15.4601 3.62425 15.6701C3.76987 15.7793 3.75026 15.8801 3.62985 15.9977C3.37221 16.2554 3.10338 16.5074 2.87655 16.7903C2.73373 16.9667 2.62732 16.9415 2.4957 16.8183C2.44529 16.7678 2.39768 16.7314 2.32768 16.7314C1.95242 16.4066 1.93002 15.6785 2.28006 15.1548C2.29687 15.1268 2.31087 15.096 2.32487 15.068Z" fill="#573CFF"/>
<path d="M3.85656 11.3806C4.22061 11.5654 4.64908 11.5822 5.00752 11.8399C4.64628 12.1423 4.28502 12.4419 3.92657 12.7416C3.83416 12.8172 3.75015 12.8564 3.62974 12.7696C3.53172 12.6996 3.41131 12.6576 3.29649 12.6184C2.88763 12.4727 2.89884 12.4811 3.07806 12.0639C3.17887 11.8287 3.3609 11.6354 3.4085 11.375C3.55692 11.3778 3.70534 11.3778 3.85656 11.3806Z" fill="#573CFF"/>
<path d="M10.6558 9.23249C9.96976 9.59654 9.42089 9.3109 8.88321 8.88524C8.70959 8.74522 8.47996 8.67522 8.23633 8.5548C8.49956 8.40638 8.746 8.40638 8.97283 8.45398C9.22486 8.50719 9.47689 8.53239 9.72892 8.5604C9.96976 8.5884 10.1966 8.70602 10.443 8.71162C10.6811 8.81243 10.9163 8.91045 11.1767 9.01966C11.0423 9.20729 10.8379 9.19048 10.6558 9.23249Z" fill="#573CFF"/>
<path d="M2.86237 13.6938C2.68314 13.8787 2.64673 14.1979 2.33309 14.2539C2.32749 14.2091 2.32469 14.1671 2.31909 14.1223C2.4115 13.7863 2.50672 13.4502 2.59913 13.1114C2.64954 12.9854 2.74755 12.9518 2.87077 12.963L2.86516 12.9854C2.90997 13.117 2.75595 13.3158 2.99678 13.383L2.99958 13.3858C2.99958 13.509 2.82596 13.5566 2.86237 13.6938Z" fill="#573CFF"/>
<path d="M11.0593 1.42981C11.0761 1.11337 11.2666 0.892139 11.4682 0.67651C11.611 0.522489 11.6502 0.38807 11.3786 0.343264C11.5606 0.150038 11.8126 0.0968359 12.0563 0.015625C11.6726 0.458084 11.3982 0.964949 11.0593 1.42981Z" fill="#573CFF"/>
<path d="M5.81144 5.47385C5.72463 5.39824 5.64061 5.32263 5.5538 5.24702C5.26816 4.95859 4.97973 4.66734 4.69409 4.37891C4.71649 4.37891 4.7389 4.37891 4.7613 4.38171C5.07774 4.42652 5.78624 5.16301 5.81144 5.47385Z" fill="#573CFF"/>
<path d="M0.723014 20.2361C0.554992 20.1969 0.451383 20.0989 0.448583 19.9197C0.445783 19.7433 0.353369 19.6369 0.202148 19.5725C0.283359 19.3764 0.364569 19.1804 0.44578 18.9844C0.389772 19.4072 0.470984 19.7741 0.700615 20.1129C0.706216 20.1521 0.714613 20.1941 0.723014 20.2361Z" fill="#573CFF"/>
<path d="M5.1251 4.25292C4.97948 4.29773 4.77786 4.1269 4.68264 4.36494C4.54262 4.26412 4.4054 4.16331 4.26538 4.0625C4.57342 4.0793 4.87026 4.0849 5.1251 4.25292Z" fill="#573CFF"/>
<path d="M6.15846 0.347252C6.05205 0.422863 5.86162 0.165221 5.80842 0.436858C5.6572 0.338845 5.57318 0.184825 5.45557 0C5.7412 0.0728098 5.97364 0.154026 6.15846 0.347252Z" fill="#573CFF"/>
<path d="M5.55075 2.49418C5.54795 2.61179 5.54794 2.72661 5.54514 2.84422C5.39392 2.7014 5.2455 2.55858 5.06348 2.38496C5.2735 2.35415 5.42473 2.36816 5.55075 2.49418Z" fill="#573CFF"/>
<path d="M10.5441 18.8899C10.4684 18.8871 10.3368 18.8283 10.376 18.8059C10.5105 18.7247 10.4768 18.4922 10.6813 18.4922C10.8101 18.4922 10.9361 18.4838 10.9193 18.6743C10.8941 18.7667 10.8129 18.7611 10.7429 18.7695C10.6589 18.7583 10.6001 18.7863 10.5805 18.8759L10.5665 18.8927L10.5441 18.8899Z" fill="#573CFF"/>
<path d="M6.89788 0.888127C6.57023 0.820918 6.37981 0.563285 6.16138 0.347656C6.44141 0.476474 6.69065 0.652895 6.89788 0.888127Z" fill="#573CFF"/>
<path d="M9.53289 19.4442C9.38447 19.3098 9.51888 19.2678 9.6085 19.2202C9.70651 19.167 9.81573 19.111 9.84653 19.2902C9.78772 19.4386 9.6477 19.4162 9.53289 19.4442Z" fill="#573CFF"/>
<path d="M2.99404 13.3859C2.75321 13.3187 2.90723 13.1199 2.86242 12.9883C2.92963 12.9883 2.99684 12.9883 3.06405 12.9911C3.08085 13.0135 3.09485 13.0359 3.11165 13.0583C2.91562 13.1115 3.02484 13.2739 2.99404 13.3859Z" fill="#573CFF"/>
<path d="M7.20039 1.16956C7.02396 1.15556 6.91755 1.06874 6.89795 0.886719C7.03517 0.942726 7.11637 1.05754 7.20039 1.16956Z" fill="#573CFF"/>
<path d="M5.8786 2.70495C5.77498 2.66574 5.67417 2.61813 5.61816 2.51172C5.73858 2.53132 5.81979 2.60413 5.8786 2.70495Z" fill="#573CFF"/>
<path d="M10.9389 1.65092C10.9249 1.54731 10.9109 1.44369 11.0593 1.42969C11.0593 1.5249 11.0145 1.59491 10.9389 1.65092Z" fill="#573CFF"/>
<path d="M10.583 18.8782C10.6026 18.7913 10.6614 18.7605 10.7454 18.7717C10.7062 18.8333 10.6642 18.8866 10.583 18.8782Z" fill="#573CFF"/>
<path d="M12.0029 16.347C12.0197 16.277 12.0673 16.2406 12.1345 16.2266C12.1317 16.3106 12.0841 16.3442 12.0029 16.347Z" fill="#573CFF"/>
<path d="M12.003 2.77808C12.0254 2.77248 12.0478 2.77248 12.0675 2.77528C12.045 2.79768 12.0226 2.81728 12.0002 2.83969C11.9946 2.81728 11.9946 2.79768 12.003 2.77808Z" fill="#573CFF"/>
<path d="M5.1953 4.31876C5.1785 4.30756 5.15889 4.29636 5.14209 4.28516C5.16449 4.29076 5.1813 4.30196 5.1953 4.31876Z" fill="#573CFF"/>
<path d="M2.2043 18.3008C2.2043 18.3456 2.1819 18.3708 2.13989 18.3792C2.13989 18.3372 2.1623 18.312 2.2043 18.3008Z" fill="#573CFF"/>
<path d="M9.98944 12.0504C10.3059 11.9187 10.6223 11.7899 10.936 11.6527C11.132 11.5659 11.2888 11.5799 11.426 11.7703C11.6837 12.1288 11.9441 12.4872 12.2241 12.8317C12.409 13.0585 12.3082 13.1481 12.0925 13.2293C11.8013 13.3385 11.5016 13.4338 11.2328 13.5794C10.9752 13.7194 10.8296 13.6466 10.6755 13.4365C10.3843 13.0389 10.0987 12.6384 9.729 12.3052C9.7318 12.1344 9.92783 12.1596 9.98944 12.0504Z" fill="#573CFF"/>
<path d="M8.4016 15.1189C8.08796 15.2869 7.78831 15.4745 7.51388 15.6986C7.37946 15.8106 7.29545 15.8022 7.18343 15.6762C6.85299 15.3065 6.51695 14.9369 6.1725 14.584C6.05769 14.4664 6.11929 14.4132 6.2089 14.3516C6.55055 14.108 6.90339 13.8755 7.23384 13.6151C7.39626 13.4891 7.47468 13.5843 7.56429 13.6823C7.84153 13.9847 8.11316 14.29 8.38759 14.5952C8.39879 14.6652 8.4296 14.7184 8.50801 14.7268C8.50801 14.7268 8.51361 14.7352 8.51361 14.7324C8.53041 14.8221 8.54721 14.9089 8.56402 14.9985L8.56962 14.9929C8.48561 14.9985 8.4408 15.0545 8.4016 15.1189Z" fill="#573CFF"/>
<path d="M7.46363 10.9453C7.54484 10.9761 7.61765 10.9845 7.66525 11.0237C8.0265 11.315 8.38495 11.609 8.73779 11.9114C8.85821 12.0123 8.84701 12.1075 8.69019 12.1915C8.32894 12.3875 7.9789 12.5975 7.62325 12.8048C7.50003 12.8776 7.41042 12.8636 7.2956 12.7712C6.90915 12.4575 6.55631 12.0991 6.09425 11.8946C6.01023 11.8582 5.99903 11.7826 6.05784 11.7406C6.5003 11.4214 6.97356 11.1637 7.46363 10.9453Z" fill="#573CFF"/>
<path d="M9.93059 13.2458C10.4963 13.9039 10.4963 13.9039 9.74017 14.2903C9.05128 14.6432 9.05128 14.6432 8.55001 14.0663C8.37639 13.8647 8.22236 13.649 8.01233 13.4782C7.81631 13.3186 7.85272 13.2038 8.06835 13.089C8.40999 12.9069 8.74324 12.7081 9.07648 12.5121C9.29771 12.3833 9.35932 12.5709 9.45733 12.6941C9.44333 13.0246 9.63935 13.1786 9.93059 13.2458Z" fill="#573CFF"/>
<path d="M5.81126 17.074C5.67964 17.1132 5.59562 17.0432 5.52561 16.9452C5.51161 16.9284 5.49761 16.9144 5.48361 16.8976C5.46961 16.878 5.45001 16.8696 5.4248 16.8696C5.23718 16.5532 4.97674 16.2955 4.71631 16.0435C4.54548 15.8783 4.50068 15.7662 4.71071 15.5926C4.97955 15.3658 5.23157 15.1138 5.50881 14.8925C5.64603 14.7861 5.73004 14.7917 5.85046 14.9065C6.2033 15.2426 6.51135 15.6206 6.82779 15.9903C6.93701 16.1163 6.8558 16.1695 6.75778 16.2507C6.44134 16.5195 6.08289 16.7492 5.81126 17.074Z" fill="#573CFF"/>
<path d="M4.88168 13.5124C4.78647 13.3331 4.58484 13.2995 4.43922 13.1875C4.32441 13.0979 4.302 13.0447 4.41962 12.9327C4.72766 12.6442 5.07771 12.4146 5.41096 12.1598C5.50057 12.0898 5.58457 12.087 5.68539 12.1542C6.09984 12.4286 6.5059 12.7198 6.88955 13.0363C7.04637 13.1651 7.00437 13.2463 6.86435 13.3275C6.5171 13.5292 6.18946 13.756 5.88422 14.0164C5.78341 14.1004 5.67138 14.0584 5.56217 14.0556C5.48096 13.8792 5.32694 13.7868 5.16172 13.7084V13.7168C5.15332 13.672 5.12531 13.6524 5.08331 13.6496L5.08611 13.6524C5.0441 13.5656 4.97689 13.518 4.88168 13.5124Z" fill="#573CFF"/>
<path d="M8.16924 10.5739C8.59489 10.4171 9.02335 10.2687 9.44061 10.0979C9.63384 10.0195 9.76825 10.0475 9.91947 10.1847C10.1631 10.4059 10.3647 10.672 10.6448 10.854C10.8744 11.1984 10.8716 11.1956 10.4515 11.3665C10.1743 11.4785 9.89987 11.5961 9.63103 11.7277C9.45181 11.8145 9.3202 11.8257 9.15497 11.6717C8.83293 11.3721 8.48848 11.0976 8.14403 10.8204C8.01242 10.714 8.04602 10.6467 8.16924 10.5739Z" fill="#573CFF"/>
<path d="M5.13909 14.2085C5.30992 14.3709 5.32112 14.4857 5.09429 14.6425C4.81425 14.8385 4.57901 15.0962 4.32698 15.3286C4.22336 15.4266 4.13376 15.4994 3.98814 15.3706C3.6885 15.1018 3.35806 14.8778 3.01361 14.6705C2.82599 14.5585 2.82878 14.4633 2.9828 14.3205C3.19843 14.1133 3.41126 13.9004 3.60168 13.668C3.80051 13.4272 3.98534 13.4216 4.22057 13.6064C4.32979 13.6932 4.4726 13.7436 4.59862 13.808C4.67423 13.9424 4.80304 14.0096 4.94026 14.0628H4.93747C5.00188 14.1188 5.03548 14.2113 5.13909 14.2085Z" fill="#573CFF"/>
<path d="M5.27355 17.55C4.97111 17.7852 4.69668 18.0512 4.45584 18.3453C4.26262 18.5805 4.1086 18.5329 3.96578 18.3173C3.81736 18.0933 3.63253 17.9056 3.44211 17.7208C3.03325 17.3203 3.03605 17.3176 3.4225 16.8863C3.53452 16.8975 3.60732 17.0963 3.73334 16.9871C3.83136 16.9031 3.62973 16.8387 3.66614 16.7323C3.67734 16.7043 3.66614 16.6679 3.66614 16.6343C4.22341 15.9874 4.13379 16.1022 4.60706 16.6371C4.74428 16.7911 4.8899 16.9395 5.02992 17.0879C5.02432 17.1215 5.03832 17.1355 5.07192 17.1327C5.09432 17.1439 5.11393 17.1551 5.13633 17.1691C5.16994 17.2979 5.36316 17.3764 5.27355 17.55Z" fill="#573CFF"/>
<path d="M9.63939 16.39C9.62819 16.474 9.57219 16.5328 9.51058 16.5776C9.21654 16.7932 8.90009 16.9753 8.63406 17.2273C8.50524 17.3477 8.39883 17.2973 8.30362 17.1713C8.11879 16.9221 7.93116 16.6784 7.74914 16.432C7.67913 16.3368 7.62873 16.1884 7.72674 16.1267C8.09079 15.8943 8.39322 15.5751 8.79928 15.4071C8.89449 15.3678 8.97291 15.3594 9.03452 15.4491C9.22774 15.7319 9.41817 16.0175 9.60859 16.3004C9.61979 16.3256 9.62819 16.3592 9.63939 16.39Z" fill="#573CFF"/>
<path d="M7.02679 18.2903C6.70195 18.5507 6.55073 18.2763 6.3715 18.0831C6.3687 17.9599 6.25668 17.9095 6.20068 17.8227C6.13627 17.705 6.07466 17.5902 6.01025 17.4726C6.06906 17.4614 6.08587 17.4166 6.09427 17.3662C6.40511 17.1226 6.72715 16.8873 7.02679 16.6269C7.17801 16.4981 7.25082 16.5093 7.35723 16.6717C7.52526 16.9321 7.71288 17.1786 7.90051 17.4222C8.00972 17.5622 7.99572 17.6546 7.8473 17.747C7.59247 17.9067 7.34603 18.0747 7.094 18.2399C7.05479 18.2315 7.03239 18.2511 7.02679 18.2903Z" fill="#573CFF"/>
<path d="M10.1436 16.0557C10.0512 16.0641 10.0092 16.0109 9.96715 15.9577C9.89154 15.8625 9.81873 15.7645 9.74592 15.6665C9.29226 15.056 9.29226 15.056 9.95875 14.7031C10.0288 14.6667 10.0988 14.6331 10.1688 14.5967C10.7989 14.2887 10.8689 14.3167 11.2021 14.9608C11.2525 15.0588 11.2581 15.1176 11.1797 15.1876C10.8605 15.462 10.5412 15.7365 10.2192 16.0081C10.194 16.0333 10.1632 16.0445 10.1436 16.0557Z" fill="#573CFF"/>
<path d="M6.24816 18.6968C6.15014 18.7668 6.05213 18.8396 5.95132 18.9096C5.87011 18.9068 5.8197 18.9488 5.7945 19.0216C5.63208 18.9852 5.54246 19.128 5.41644 19.1756C5.27643 19.1952 5.17841 19.2904 5.0664 19.3604C4.78356 19.5453 4.71915 19.2232 4.58193 19.1252C4.45591 19.0356 4.59033 18.9012 4.66874 18.7892C4.77515 18.6379 4.97119 18.5651 5.01599 18.3663C5.0916 18.3551 5.15041 18.3243 5.15321 18.2375C5.28483 18.1871 5.38844 18.1115 5.42765 17.9687C5.50886 17.9687 5.56207 17.9351 5.55927 17.8454C5.59847 17.8426 5.63767 17.8426 5.67688 17.8398C5.67968 17.9155 5.72168 17.9575 5.79729 17.9659C5.79729 18.1227 5.88691 18.2207 6.01012 18.2991C6.06613 18.3747 6.08013 18.4895 6.20335 18.5035C6.21735 18.5679 6.23135 18.6323 6.24816 18.6968Z" fill="#573CFF"/>
<path d="M12.7843 13.6742C12.7619 13.705 12.7367 13.7414 12.7059 13.7722C12.3923 14.0719 12.0759 14.3687 11.765 14.6683C11.6782 14.7523 11.6194 14.7299 11.5466 14.6459C11.1405 14.1643 11.1405 14.1391 11.7062 13.8674C11.9638 13.7442 12.2355 13.6406 12.5043 13.5398C12.6247 13.4922 12.7507 13.4866 12.7843 13.6742Z" fill="#573CFF"/>
<path d="M2.10911 17.6953C2.0195 17.6113 2.0139 17.5077 2.0055 17.4181C1.9971 17.3173 1.94949 17.1744 2.07831 17.1268C2.14552 17.1016 2.23793 17.1632 2.30234 17.2361C2.40035 17.3509 2.33314 17.4433 2.27434 17.5329C2.23513 17.5973 2.16792 17.6393 2.10911 17.6953Z" fill="#573CFF"/>
<path d="M4.06945 19.828C3.44497 19.8028 4.13666 19.5704 4.01344 19.464C4.03304 19.4528 4.04985 19.4388 4.06945 19.4276C4.15906 19.3996 4.24867 19.3911 4.32988 19.4528C4.33828 19.4864 4.34949 19.5228 4.35789 19.5564C4.35229 19.6852 4.18147 19.6908 4.16747 19.8112C4.13666 19.8196 4.10306 19.8224 4.06945 19.828Z" fill="#573CFF"/>
<path d="M6.27612 9.76476C6.29853 9.76196 6.32652 9.76755 6.34053 9.75915C6.71018 9.49312 6.79699 9.77596 6.8866 10.042C6.69058 9.92998 6.45535 9.91318 6.27612 9.76476Z" fill="#573CFF"/>
<path d="M9.93067 13.2481C9.63943 13.1809 9.44621 13.0269 9.45461 12.6992C9.65064 12.8504 9.81305 13.0297 9.93067 13.2481Z" fill="#573CFF"/>
<path d="M3.66893 16.6328C3.66893 16.6664 3.67733 16.7028 3.66893 16.7308C3.63253 16.8344 3.83135 16.8989 3.73614 16.9857C3.61012 17.0977 3.53731 16.896 3.42529 16.8848C3.4757 16.7728 3.54292 16.6748 3.66893 16.6328Z" fill="#573CFF"/>
<path d="M2.99416 13.3851C3.02496 13.2731 2.91575 13.1079 3.11177 13.0547L3.12578 13.0659C3.13138 13.1751 3.277 13.2059 3.2658 13.3235C3.24339 13.3459 3.22379 13.3683 3.20139 13.3907C3.13418 13.3907 3.06416 13.3907 2.99696 13.3907L2.99416 13.3851Z" fill="#573CFF"/>
<path d="M2.997 13.3906C3.06421 13.3906 3.13422 13.3906 3.20143 13.3906C3.10342 13.511 3.05021 13.6791 2.85979 13.6959C2.82618 13.5615 2.9998 13.5138 2.997 13.3906Z" fill="#573CFF"/>
<path d="M3.26575 13.3201C3.27695 13.2025 3.12853 13.1717 3.12573 13.0625C3.23215 13.1185 3.49258 13.0849 3.26575 13.3201Z" fill="#573CFF"/>
<path d="M13.2098 10.9063C13.2014 10.9651 13.2294 11.0463 13.151 11.0659C13.0782 11.0827 13.0838 11.0071 13.0698 10.9595C13.1034 10.9063 13.151 10.8951 13.2098 10.9063Z" fill="#573CFF"/>
<path d="M5.03842 19.7105C4.95721 19.7917 4.8564 19.8337 4.74438 19.8477C4.76959 19.6461 4.92081 19.7161 5.03842 19.7105Z" fill="#573CFF"/>
<path d="M5.13926 14.2096C5.03565 14.2124 4.99924 14.12 4.94043 14.064C5.04684 14.0584 5.14486 14.0612 5.13926 14.2096Z" fill="#573CFF"/>
<path d="M13.9997 12.4297C14.0417 12.4549 14.1089 12.4465 14.1145 12.5137C14.1145 12.5249 14.0921 12.5501 14.0809 12.5501C14.0137 12.5445 14.0221 12.4773 13.9969 12.4353C13.9941 12.4353 13.9997 12.4297 13.9997 12.4297Z" fill="#573CFF"/>
<path d="M8.50518 14.7254C8.42677 14.717 8.39597 14.6666 8.38477 14.5938C8.46598 14.6022 8.50518 14.647 8.50518 14.7254Z" fill="#573CFF"/>
<path d="M8.40161 15.1182C8.44082 15.0538 8.48562 15.0006 8.56964 14.9922C8.54163 15.0706 8.49402 15.1238 8.40161 15.1182Z" fill="#573CFF"/>
<path d="M14.0193 12.3769C14.0389 12.3545 14.0613 12.3349 14.0809 12.3125C14.0613 12.3349 14.0389 12.3573 14.0193 12.3769Z" fill="#573CFF"/>
<path d="M5.0747 17.1307C5.04109 17.1363 5.02709 17.1223 5.03269 17.0859C5.0523 17.0971 5.0663 17.1111 5.0747 17.1307Z" fill="#573CFF"/>
<path d="M5.48364 16.9023C5.49764 16.9191 5.51164 16.9332 5.52565 16.95C5.50604 16.936 5.49204 16.9219 5.48364 16.9023Z" fill="#573CFF"/>
<path d="M7.09655 18.293C7.10495 18.2986 7.11336 18.3042 7.12456 18.3098C7.11336 18.3042 7.10495 18.3014 7.09375 18.2958L7.09655 18.293Z" fill="#573CFF"/>
<path d="M5.08325 13.6445C5.12526 13.6473 5.15326 13.6669 5.16166 13.7117C5.13646 13.6893 5.11126 13.6669 5.08325 13.6445Z" fill="#573CFF"/>
<path d="M10.8604 10.4503C10.894 10.4447 10.9108 10.4615 10.908 10.4951C10.8912 10.4811 10.8772 10.4643 10.8604 10.4503Z" fill="#573CFF"/>
<path d="M7.02661 18.2945C7.03221 18.2553 7.05461 18.2357 7.09382 18.2441C7.09382 18.2609 7.09382 18.2777 7.09382 18.2945L7.09102 18.2973C7.07142 18.2945 7.04901 18.2945 7.02661 18.2945Z" fill="#573CFF"/>
<path d="M8.35132 19.3376C8.51654 19.2368 8.68176 19.1388 8.84698 19.0379C8.973 18.9875 9.09902 18.9371 9.22503 18.8867C9.30064 18.9343 9.32865 19.0071 9.29504 19.0856C9.19983 19.3124 8.58375 19.4748 8.35132 19.3376Z" fill="#573CFF"/>
<path d="M9.84668 18.5576C9.9699 18.468 10.0903 18.3728 10.2527 18.3672C10.1911 18.5884 10.0511 18.6416 9.84668 18.5576Z" fill="#573CFF"/>
<path d="M9.44604 18.7737C9.49085 18.7485 9.53566 18.7233 9.58047 18.6953C9.68968 18.7121 9.76249 18.7737 9.66168 18.8633C9.58047 18.9361 9.47405 18.9109 9.44604 18.7737Z" fill="#573CFF"/>
<path d="M12.9382 12.3142C12.955 12.2134 12.899 12.0398 13.0643 12.065C13.2099 12.0874 13.4031 12.1294 13.4591 12.2946C13.5039 12.4262 13.3695 12.4794 13.2743 12.4206C13.1651 12.3562 13.0699 12.2974 12.9382 12.3142Z" fill="#573CFF"/>
<path d="M12.941 12.3125C12.9326 12.3601 12.9326 12.4189 12.8598 12.4133C12.8514 12.4133 12.8402 12.3993 12.8402 12.3937C12.8346 12.3181 12.8906 12.3209 12.941 12.3125Z" fill="#573CFF"/>
<path d="M4.00513 19.3711C4.02753 19.3907 4.04714 19.4131 4.06954 19.4327C4.04994 19.4439 4.03313 19.4579 4.01353 19.4691C4.01073 19.4355 4.00793 19.4019 4.00513 19.3711Z" fill="#573CFF"/>
</svg>
