<svg width="22" height="22" viewBox="0 0 22 22" fill="none" xmlns="http://www.w3.org/2000/svg">
<path d="M3.74852 7.40602C3.70268 7.68102 3.66602 7.95602 3.66602 8.24935C3.66602 7.96518 3.70268 7.68102 3.74852 7.40602ZM3.66602 13.7493C3.66602 14.0427 3.70268 14.3177 3.74852 14.5927C3.70268 14.3177 3.66602 14.0335 3.66602 13.7493ZM7.41518 18.2502C7.68102 18.296 7.96518 18.3327 8.24935 18.3327C7.96518 18.3327 7.69018 18.296 7.41518 18.2502ZM7.41518 3.74852C7.69018 3.70268 7.96518 3.66602 8.24935 3.66602C7.96518 3.66602 7.68102 3.70268 7.41518 3.74852ZM14.5927 3.74852C14.3177 3.70268 14.0427 3.66602 13.7493 3.66602C14.0335 3.66602 14.3177 3.70268 14.5927 3.74852ZM18.2502 7.40602C18.296 7.68102 18.3327 7.96518 18.3327 8.24935C18.3327 7.95602 18.296 7.68102 18.2502 7.40602Z" fill="#646464"/>
<path d="M20.1673 7.60898C20.1673 7.99398 19.8648 8.29648 19.4798 8.29648H18.334V9.98047C18.334 10.2863 18.0021 10.4766 17.7382 10.3223C17.344 10.0932 16.8857 10.0198 16.4457 10.139C16.1634 10.2067 15.8223 10.0243 15.8223 9.73408V8.92898C15.8223 7.41648 14.5848 6.17898 13.0723 6.17898H8.92898C7.41648 6.17898 6.17898 7.41648 6.17898 8.92898V13.0723C6.17898 14.5848 7.41648 15.8223 8.92898 15.8223H9.34149C9.4478 15.8223 9.53398 15.9085 9.53398 16.0148C9.53398 16.8981 10.174 17.6406 11.0167 17.8113C11.1751 17.8434 11.2824 18.0329 11.2298 18.1858C11.1997 18.2732 11.12 18.334 11.0275 18.334H8.30565V19.4798C8.30565 19.8557 7.99398 20.1673 7.61815 20.1673C7.23315 20.1673 6.93065 19.8557 6.93065 19.4798V18.1323C5.46398 17.6832 4.31815 16.5373 3.87815 15.0798H2.52148C2.14565 15.0798 1.83398 14.7682 1.83398 14.3923C1.83398 14.0073 2.14565 13.7048 2.52148 13.7048H3.66732V11.6882H2.52148C2.14565 11.6882 1.83398 11.3765 1.83398 11.0007C1.83398 10.6157 2.14565 10.3132 2.52148 10.3132H3.66732V8.29648H2.52148C2.14565 8.29648 1.83398 7.99398 1.83398 7.60898C1.83398 7.23315 2.14565 6.92148 2.52148 6.92148H3.87815C4.31815 5.46398 5.46398 4.31815 6.93065 3.86898V2.52148C6.93065 2.14565 7.23315 1.83398 7.61815 1.83398C7.99398 1.83398 8.30565 2.14565 8.30565 2.52148V3.66732H10.3132V2.52148C10.3132 2.14565 10.6248 1.83398 11.0007 1.83398C11.3765 1.83398 11.6882 2.14565 11.6882 2.52148V3.66732H13.7048V2.52148C13.7048 2.14565 14.0165 1.83398 14.3923 1.83398C14.7682 1.83398 15.0798 2.14565 15.0798 2.52148V3.87815C16.5373 4.31815 17.6832 5.46398 18.1232 6.92148H19.4798C19.8648 6.92148 20.1673 7.23315 20.1673 7.60898Z" fill="#646464"/>
<path d="M19.2401 14.2352C18.6167 14.2352 18.2592 13.9236 18.2592 13.4652C18.2592 13.2819 18.3142 13.0711 18.4426 12.8511C18.6992 12.4111 18.5434 11.8427 18.1034 11.5952L17.2692 11.1094C16.8842 10.8802 16.3892 11.0177 16.1601 11.4027L16.1051 11.4944C15.6651 12.2552 14.9501 12.2552 14.5101 11.4944L14.4551 11.4027C14.2351 11.0177 13.7309 10.8802 13.3551 11.1094L12.5117 11.5952C12.2184 11.7602 12.0442 12.0719 12.0442 12.3927C12.0442 12.5486 12.0901 12.7044 12.1726 12.8511C12.3009 13.0711 12.3651 13.2819 12.3651 13.4652C12.3651 13.9236 11.9984 14.2352 11.3751 14.2352C10.8709 14.2352 10.4492 14.6477 10.4492 15.1519V16.0136C10.4492 16.5177 10.8709 16.9302 11.3751 16.9302C11.9984 16.9302 12.3651 17.2419 12.3651 17.7002C12.3651 17.8836 12.3009 18.0944 12.1726 18.3144C11.9159 18.7544 12.0717 19.3227 12.5117 19.5702L13.3551 20.0561C13.7309 20.2852 14.2351 20.1477 14.4551 19.7627L14.5101 19.6711C14.9501 18.9102 15.6651 18.9102 16.1051 19.6711L16.1601 19.7627C16.3892 20.1477 16.8842 20.2852 17.2692 20.0561L18.1034 19.5702C18.3967 19.4052 18.5709 19.0936 18.5709 18.7727C18.5709 18.6169 18.5251 18.4611 18.4426 18.3144C18.3142 18.0944 18.2592 17.8836 18.2592 17.7002C18.2592 17.2419 18.6167 16.9302 19.2401 16.9302C19.7534 16.9302 20.1659 16.5177 20.1659 16.0136V15.1519C20.1659 14.6477 19.7534 14.2352 19.2401 14.2352ZM15.3076 17.1594C14.4367 17.1594 13.7309 16.4536 13.7309 15.5827C13.7309 14.7119 14.4367 14.0061 15.3076 14.0061C16.1784 14.0061 16.8842 14.7119 16.8842 15.5827C16.8842 16.4536 16.1784 17.1594 15.3076 17.1594Z" fill="#646464"/>
<path d="M14.8952 9.18435V9.70918C14.8952 10.0154 14.487 10.2095 14.1893 10.1377C13.731 10.0185 13.2727 10.0827 12.8968 10.3118L12.0627 10.7977C11.4852 11.1185 11.1277 11.7327 11.1277 12.3927C11.1277 12.4231 11.1284 12.4537 11.1298 12.4843C11.1479 12.8715 10.8739 13.3458 10.5298 13.5242C10.1187 13.7373 9.79743 14.1004 9.63951 14.5399C9.56834 14.738 9.39482 14.8952 9.18435 14.8952C8.02935 14.8952 7.10352 13.9693 7.10352 12.8143V9.18435C7.10352 8.02935 8.02935 7.10352 9.18435 7.10352H12.8143C13.9693 7.10352 14.8952 8.02935 14.8952 9.18435Z" fill="#646464"/>
</svg>
