<svg width="22" height="22" viewBox="0 0 22 22" fill="none" xmlns="http://www.w3.org/2000/svg">
<path d="M10.0833 16.5V19.25C10.0833 19.7542 9.67083 20.1667 9.16667 20.1667C8.6625 20.1667 8.25 19.7542 8.25 19.25V16.5H10.0833Z" fill="#646464"/>
<path d="M13.7493 16.5V19.25C13.7493 19.7542 13.3368 20.1667 12.8327 20.1667C12.3285 20.1667 11.916 19.7542 11.916 19.25V16.5H13.7493Z" fill="#646464"/>
<path d="M15.5827 10.0833V14.6667C15.5827 15.675 14.7577 16.5 13.7493 16.5H8.24935C7.24102 16.5 6.41602 15.675 6.41602 14.6667V10.0833C6.41602 9.075 7.24102 8.25 8.24935 8.25H13.7493C14.7577 8.25 15.5827 9.075 15.5827 10.0833Z" fill="#646464"/>
<path d="M4.58333 10.0827V13.7493C4.58333 14.2535 4.17083 14.666 3.66667 14.666C3.1625 14.666 2.75 14.2535 2.75 13.7493V10.0827C2.75 9.57852 3.1625 9.16602 3.66667 9.16602C4.17083 9.16602 4.58333 9.57852 4.58333 10.0827Z" fill="#646464"/>
<path d="M19.2493 10.0827V13.7493C19.2493 14.2535 18.8368 14.666 18.3327 14.666C17.8285 14.666 17.416 14.2535 17.416 13.7493V10.0827C17.416 9.57852 17.8285 9.16602 18.3327 9.16602C18.8368 9.16602 19.2493 9.57852 19.2493 10.0827Z" fill="#646464"/>
<path d="M8.80063 6.96732H13.2007C14.0073 6.96732 14.6673 6.30732 14.6673 5.50065C14.6673 3.47482 13.0265 1.83398 11.0007 1.83398C8.97482 1.83398 7.33398 3.47482 7.33398 5.50065C7.33398 6.30732 7.99396 6.96732 8.80063 6.96732Z" fill="#646464"/>
</svg>
