<svg width="21" height="19" viewBox="0 0 21 19" fill="none" xmlns="http://www.w3.org/2000/svg">
<path d="M16.6543 19C17.9039 17.7539 18.8949 16.2731 19.5703 14.6428C20.2458 13.0125 20.5924 11.2647 20.5902 9.5C20.5924 7.73528 20.2458 5.98754 19.5703 4.35721C18.8949 2.72688 17.9039 1.24611 16.6543 0L15.5352 1.11755C16.6377 2.21707 17.5121 3.52365 18.1081 4.9622C18.7041 6.40074 19.0099 7.94289 19.008 9.5C19.008 12.7736 17.6802 15.7374 15.5352 17.8824L16.6543 19Z" fill="#573CFF"/>
<path d="M14.4144 16.7661C15.3699 15.8131 16.1277 14.6807 16.6442 13.434C17.1607 12.1872 17.4257 10.8507 17.4241 9.50122C17.4257 8.15172 17.1607 6.8152 16.6442 5.56845C16.1277 4.3217 15.3699 3.18931 14.4144 2.23633L13.2969 3.35388C14.1054 4.16027 14.7466 5.11847 15.1836 6.17344C15.6206 7.2284 15.8448 8.35932 15.8434 9.50122C15.8452 10.6433 15.6213 11.7744 15.1846 12.8297C14.7479 13.8849 14.1069 14.8434 13.2985 15.6501L14.4144 16.7661Z" fill="#573CFF"/>
<path d="M12.1824 14.5307C12.8439 13.8709 13.3685 13.0869 13.7261 12.2237C14.0836 11.3606 14.267 10.4352 14.2658 9.50094C14.267 8.56665 14.0836 7.64133 13.7261 6.77815C13.3685 5.91497 12.8439 5.13095 12.1824 4.47116L11.0649 5.58871C11.5794 6.10192 11.9874 6.71174 12.2654 7.38313C12.5435 8.05453 12.6861 8.77425 12.6851 9.50094C12.686 10.2276 12.5434 10.9473 12.2653 11.6187C11.9873 12.2901 11.5793 12.8999 11.0649 13.4132L12.1824 14.5307ZM9.03685 2.46683C9.17076 2.53134 9.28376 2.6323 9.36289 2.75812C9.44201 2.88394 9.48406 3.02952 9.48419 3.17815V15.8237C9.48398 15.9725 9.44181 16.1181 9.36253 16.2439C9.28325 16.3698 9.17008 16.4707 9.03602 16.5351C8.90197 16.5994 8.75246 16.6247 8.60469 16.6079C8.45692 16.5911 8.31688 16.533 8.20067 16.4402L4.46547 13.4527H0.790349C0.580736 13.4527 0.379707 13.3694 0.231488 13.2212C0.0832687 13.073 0 12.872 0 12.6623V6.33955C0 6.12993 0.0832687 5.9289 0.231488 5.78068C0.379707 5.63247 0.580736 5.5492 0.790349 5.5492H4.46547L8.20067 2.56168C8.31696 2.46871 8.45715 2.41049 8.60509 2.39371C8.75302 2.37693 8.90269 2.40228 9.03685 2.46683Z" fill="#573CFF"/>
</svg>
