<svg width="21" height="22" viewBox="0 0 21 22" fill="none" xmlns="http://www.w3.org/2000/svg">
<path d="M11.9715 18.8134C11.9216 18.8696 11.8718 18.9265 11.8219 18.9827C11.6631 19.0993 11.524 19.2356 11.4208 19.4049C11.3997 19.4148 11.3849 19.4295 11.3758 19.4506C11.0238 19.7885 10.6719 20.1271 10.3206 20.465C10.2581 20.5205 10.1956 20.576 10.1323 20.6315C9.86117 20.8078 9.5893 20.9842 9.31813 21.1598C9.04907 21.2806 8.78001 21.4015 8.51094 21.5223C8.16039 21.615 7.80913 21.7085 7.45858 21.8012C7.41292 21.804 7.36655 21.8061 7.32088 21.8089C7.2977 21.8131 7.27382 21.8166 7.25063 21.8209C7.1586 21.8328 7.06658 21.8455 6.97525 21.8574C6.5973 21.8588 6.21864 21.8609 5.84069 21.8623C5.75007 21.8546 5.65944 21.8469 5.56882 21.8391C5.45712 21.7696 5.33418 21.7752 5.20983 21.7871C5.16487 21.7759 5.12061 21.7654 5.07565 21.7541C5.00329 21.7373 4.93164 21.7211 4.85928 21.7042C4.76936 21.6811 4.68014 21.6586 4.59022 21.6354C4.54104 21.6249 4.49116 21.6136 4.44198 21.6031C4.37173 21.5785 4.30148 21.5546 4.23193 21.53C4.17292 21.4752 4.10478 21.445 4.02188 21.4563C3.88068 21.3347 3.69311 21.3242 3.53223 21.2497C3.15919 21.0109 2.78616 20.7727 2.41313 20.5339C1.27365 19.4548 0.427823 18.2064 0.123635 16.6342C-0.122245 15.3641 0.00350504 14.1311 0.457329 12.9263C0.566921 12.6369 0.682835 12.3496 0.79594 12.0615C0.936442 11.9119 1.06149 11.7503 1.14649 11.5614C1.17389 11.5255 1.20129 11.4897 1.22869 11.4539C1.38043 11.2972 1.5399 11.1469 1.64036 10.9481C1.66144 10.9242 1.68321 10.9003 1.70429 10.8764L1.72326 10.8785L1.71202 10.8652C1.73309 10.8406 1.75487 10.816 1.77595 10.7914C1.85041 10.7696 1.9024 10.7261 1.91575 10.646C1.93261 10.6446 1.94033 10.6354 1.93752 10.6186C1.96281 10.5912 1.98881 10.5638 2.0141 10.5357L2.01902 10.5336C2.44123 10.098 2.86344 9.66176 3.28565 9.2262C3.51537 9.2269 3.70154 8.99718 3.95093 9.10045C3.96006 9.15103 3.95866 9.21074 4.03523 9.20582C4.04296 9.20512 4.0563 9.19177 4.05701 9.18405C4.06192 9.10747 4.00151 9.10888 3.95163 9.09975C3.9994 8.96416 3.97622 8.79766 4.10337 8.69721C4.17924 8.63749 4.37735 8.73514 4.34574 8.54546C4.32537 8.42182 4.17714 8.40988 4.06473 8.3888C4.17433 8.26797 4.28392 8.14714 4.39281 8.02631C4.42864 8.02771 4.49397 8.05441 4.43637 7.97572C4.55017 7.83382 4.66468 7.69121 4.77849 7.5493C4.83329 7.50574 4.88878 7.46219 4.94358 7.41863C4.99838 7.43198 5.08619 7.47413 5.10305 7.45446C5.42129 7.08915 5.91375 6.85662 5.99032 6.30585C6.02967 6.2651 6.06971 6.22365 6.10905 6.18291C6.33315 6.35573 6.42588 6.13022 6.53407 6.02203C6.62821 5.9286 6.76309 5.79021 6.55093 5.66164C6.56568 5.58437 6.61837 5.54081 6.68652 5.5099C6.91694 5.63565 6.79611 5.42841 6.82491 5.36378C6.81999 5.34411 6.8221 5.32514 6.83053 5.30758L6.86285 5.30828L6.89516 5.30617C7.36233 5.22257 7.83723 4.6978 7.885 4.21096C7.91802 4.17794 7.95104 4.14562 7.98476 4.1126C8.55239 4.12033 8.57487 4.09574 8.37325 3.6925C8.39643 3.66861 8.41891 3.64473 8.4421 3.62155C8.46739 3.59766 8.49268 3.57448 8.51797 3.55059C8.64864 3.36232 8.80319 3.19652 8.98865 3.06094C9.17271 3.08131 9.24015 2.9935 9.21416 2.81857C9.21837 2.79258 9.23313 2.77642 9.25912 2.7708C9.3097 2.93238 9.44669 2.94222 9.6448 2.97242C9.46355 2.80242 9.59562 2.63522 9.55136 2.47996L9.54856 2.48488C9.59633 2.48066 9.62092 2.45467 9.62302 2.4069L9.61881 2.40971C9.74315 2.43289 9.77968 2.36756 9.77125 2.25726C9.78741 2.24111 9.80357 2.22495 9.81973 2.20879C10.0635 2.28677 10.0951 1.97907 10.2707 1.95448C10.7836 1.88423 10.8349 1.33065 11.1889 1.09812C11.3821 1.08828 11.5388 1.07142 11.7102 0.905628C11.8781 0.743347 12.1429 0.616193 12.3783 0.551562C12.6551 0.47569 12.9248 0.377338 13.1981 0.307087C13.4299 0.248076 13.758 0.0541818 13.9428 0.450399C13.9997 0.572637 14.0636 0.473582 14.1212 0.413166C14.299 0.227703 14.4676 -0.00131709 14.7717 0.210842C14.8216 0.245968 14.8898 0.263531 14.934 0.21857C15.0731 0.0752569 15.189 0.103358 15.3183 0.23543C15.385 0.303574 15.475 0.310599 15.5775 0.278284C15.737 0.227703 15.8831 0.26072 16.0405 0.345724C16.3292 0.501682 16.5849 0.767233 16.9552 0.711734C17.3057 0.659046 17.5467 1.04121 17.905 0.940051L17.9274 0.954101C17.978 1.27585 18.1768 1.50066 18.4459 1.64537C18.6679 1.7641 18.8407 1.92357 19.0107 2.1006C19.1772 2.27412 19.3156 2.50244 19.6029 2.50455L19.6078 2.51017C19.7322 2.87829 19.7687 3.29488 20.0518 3.5815C20.3335 3.86742 20.4045 4.22852 20.4403 4.57907C20.4797 4.96545 20.682 5.32795 20.6005 5.72909C20.5886 5.78739 20.6441 5.82463 20.6862 5.86818C20.8141 5.99885 20.8906 6.85802 20.7529 6.94654C20.5548 7.0744 20.616 7.24019 20.5928 7.40247C20.531 7.83171 20.5773 8.27921 20.3413 8.67964C20.2766 8.78994 20.2661 8.95503 20.4235 9.04917C20.4129 9.12574 20.3919 9.19669 20.3279 9.24798C20.0968 9.20723 19.9563 9.25711 20.0329 9.5353C20.0532 9.61047 20.0638 9.68775 20.0792 9.76432C20.0792 9.76432 20.0722 9.78259 20.0722 9.78189C19.669 9.72498 19.7947 10.0376 19.7554 10.235C19.7554 10.2568 19.7547 10.2786 19.754 10.3003C19.605 10.4774 19.4554 10.6551 19.3065 10.8321L19.3304 10.849L19.3051 10.8335C18.8126 11.3696 18.3208 11.9049 17.8284 12.4409L17.8249 12.4444C17.6092 12.606 17.4462 12.8153 17.2917 13.0324C16.0595 14.3749 14.8265 15.7167 13.595 17.0599C13.3267 17.3522 13.0625 17.6486 12.797 17.943C12.6185 18.0708 12.4801 18.2373 12.3544 18.4151L12.3727 18.4376L12.353 18.4165C12.1998 18.5261 12.0741 18.6588 11.9715 18.8134ZM15.8768 1.1206C15.8058 0.845914 15.64 1.0103 15.5038 1.04051L15.4834 1.04964L15.4672 1.03419C15.4511 0.988525 15.43 0.970962 15.397 1.02154C15.3499 1.01733 15.3028 1.01241 15.2565 1.0082C15.1799 0.819219 15.0766 0.859965 14.9656 0.975177C14.7373 1.02014 14.4971 0.917571 14.2737 1.02787C14.2273 1.03068 14.1809 1.03419 14.1346 1.037C13.987 1.01171 13.8451 1.02365 13.7102 1.0932C13.6646 1.09952 13.6189 1.10585 13.5733 1.11287C13.5255 1.10725 13.4784 1.10163 13.4306 1.09601C13.2487 0.902817 12.8609 1.02225 12.667 1.33065C12.6249 1.34892 12.5827 1.36718 12.5413 1.38545C12.4457 1.37842 12.3474 1.36507 12.3003 1.48099C12.1949 1.55616 12.0895 1.63203 11.9842 1.7072C11.9476 1.72827 11.9104 1.74935 11.8739 1.77042C11.831 1.77815 11.7875 1.78588 11.7446 1.79361C11.7095 1.73459 11.6694 1.65662 11.5929 1.69455C11.4966 1.74232 11.55 1.83154 11.5711 1.90601L11.569 1.90531C11.3631 1.88704 11.1889 1.90811 11.2205 2.1849L11.2058 2.15962L11.2177 2.18701C10.8475 2.16594 10.7681 2.23759 10.8545 2.51719L10.8538 2.51368C10.8054 2.52281 10.7794 2.55232 10.7723 2.60009C10.662 2.7989 10.433 2.90006 10.3445 3.11714C10.3262 3.10871 10.3178 3.09466 10.3178 3.07429C10.2553 3.08623 10.2216 3.12346 10.2152 3.18669L10.2054 3.20566C10.1085 3.17545 9.98903 3.05953 9.93072 3.23306C9.90333 3.31455 9.67501 3.40868 9.91246 3.51266C9.87874 3.59977 9.8127 3.65527 9.73402 3.69882C9.60405 3.69601 9.46496 3.69461 9.40103 3.83019C9.37222 3.89131 9.45442 3.91801 9.50781 3.93838C9.45161 3.99809 9.3947 4.05781 9.3385 4.11682C9.21275 4.1133 9.13618 4.15756 9.16147 4.29947L9.15796 4.32055L9.13759 4.32757C8.95142 4.38096 8.76033 4.42873 8.80249 4.69217C8.7793 4.71817 8.75682 4.74346 8.73364 4.76945C8.721 4.70552 8.70343 4.60225 8.62616 4.64581C8.4976 4.71957 8.40978 4.839 8.51446 5.00198C8.50743 5.01182 8.50041 5.02095 8.49338 5.03008C8.08241 4.90925 8.18357 5.26964 8.09576 5.4523C8.08381 5.48461 8.07187 5.51693 8.05993 5.54854L8.0515 5.55767C7.99741 5.5928 7.94331 5.62863 7.88922 5.66375C7.81897 5.6504 7.79719 5.49304 7.70797 5.57805C7.63772 5.64549 7.66442 5.74524 7.75504 5.80706C7.68619 5.94265 7.5773 6.0403 7.45436 6.1246C7.33002 6.06419 7.22113 6.10353 7.14877 6.20328C7.08484 6.2911 7.15509 6.35011 7.23518 6.38875C7.23588 6.41755 7.22183 6.4323 7.19373 6.43441C7.03004 6.41755 6.95277 6.4871 6.97595 6.655C6.95628 6.69855 6.93661 6.74211 6.91694 6.78637C6.87198 6.80604 6.83123 6.83976 6.87198 6.88402C6.89446 6.90861 6.95206 6.90158 6.99351 6.90931L6.99 6.90509C6.96471 7.05262 6.95979 7.17767 7.16985 7.07159C7.20286 7.10531 7.23658 7.13903 7.2696 7.17275C7.30122 7.50855 7.68619 7.64765 7.70516 8.02279C7.79087 7.92304 7.84988 7.85419 7.90819 7.78605C7.97352 7.84997 8.03956 7.9139 8.10489 7.97713C7.98968 8.10218 8.06274 8.23565 8.10981 8.38248C8.15196 8.29537 8.19411 8.20755 8.23626 8.12044C8.37114 8.21669 8.499 8.32066 8.59103 8.46116C8.62756 8.70634 8.64231 8.97329 9.01324 8.88688C9.03361 8.88688 9.04977 8.89531 9.06171 8.91217C9.02026 8.9754 8.97952 9.03863 8.93807 9.10256C8.93245 9.11239 8.92753 9.12223 8.92191 9.13206C8.92753 9.12223 8.93245 9.11239 8.93807 9.10326C9.06172 9.11028 9.17201 9.20231 9.30338 9.16157L9.30408 9.16086C9.2816 9.21847 9.20713 9.27889 9.26193 9.33509C9.33218 9.40674 9.39822 9.30699 9.46917 9.29715C9.52608 9.32666 9.58228 9.35616 9.63918 9.38567C9.6448 9.40393 9.64691 9.4222 9.6455 9.44117C9.65815 9.53109 9.69187 9.62452 9.67922 9.71093C9.63848 9.98843 9.71997 10.1086 10.0136 10.0179C10.0783 9.99756 10.152 10.0053 10.2216 9.99967L10.2181 9.99615C10.1752 10.1865 10.2721 10.2399 10.4407 10.2231C10.4569 10.2315 10.4696 10.2448 10.4773 10.2617C10.511 10.2933 10.5447 10.3256 10.5784 10.3572C10.6698 10.3924 10.7323 10.4577 10.7751 10.5441C10.7646 10.6628 10.8187 10.7162 10.9367 10.7064C11.2233 10.9748 11.5641 11.1883 11.7692 11.5382C11.7221 11.5585 11.6547 11.5536 11.6456 11.6246C11.6442 11.6358 11.6694 11.6632 11.6814 11.6625C11.753 11.6569 11.7488 11.5873 11.7741 11.5431L11.7973 11.5304L11.8177 11.548C11.8022 11.7609 11.8957 11.862 12.1134 11.8353C12.1338 11.8564 12.1535 11.8775 12.1738 11.8986C12.1338 12.2899 12.4071 12.3931 12.7035 12.4746C12.785 12.5364 12.9094 12.5414 12.9501 12.658C12.9136 12.9896 13.0801 13.109 13.3899 13.0788L13.3681 13.0963L13.3878 13.076C13.4812 13.6359 13.8515 13.9028 14.3741 14.0075C14.4149 14.0483 14.4549 14.0897 14.4957 14.1304C14.502 14.2084 14.4725 14.3264 14.6214 14.24C14.7001 14.1719 14.7865 14.1115 14.8567 14.0356C15.6998 13.1301 16.5435 12.2252 17.3802 11.3141C17.893 10.7556 18.5105 10.2793 18.9208 9.64279C20.1951 7.66732 20.1881 5.62652 19.107 3.56956C18.7121 2.81928 18.0925 2.26921 17.4237 1.77042C17.4174 1.66434 17.4961 1.5126 17.3465 1.47326C17.2102 1.43743 17.2355 1.57793 17.2235 1.66223C17.1336 1.63694 17.043 1.61095 16.953 1.58566C16.9032 1.56248 16.8533 1.54 16.8034 1.51682C16.5969 1.35524 16.3615 1.26602 16.1016 1.23721C16.0398 1.18663 15.9688 1.16415 15.8887 1.17118C15.8845 1.15361 15.881 1.13675 15.8768 1.1206ZM10.766 18.5155C10.825 18.4853 10.8349 18.4298 10.8405 18.3722C10.8475 18.3582 10.8489 18.3434 10.8461 18.328C10.9156 18.3034 11.0014 18.3132 11.0449 18.2338C11.3856 17.9577 11.6701 17.6339 11.8914 17.2552V17.2545C11.9933 17.2531 12.0593 17.2018 12.0959 17.1084C12.1198 17.0845 12.1429 17.0606 12.1668 17.0367C12.5047 16.7852 12.7295 16.4284 13.0127 16.1256C13.0183 16.1087 13.019 16.0912 13.0169 16.0736C13.0429 16.0462 13.0696 16.0188 13.0955 15.9914C13.3766 15.8066 13.5571 15.5207 13.7981 15.2959C13.8803 15.2193 13.8599 15.128 13.7868 15.05C13.4819 14.7248 13.1384 14.4424 12.7963 14.1592C12.7857 14.0686 12.7155 14.023 12.6565 13.9661C12.0432 13.3745 11.432 12.7802 10.818 12.1894C9.3385 10.7668 7.8562 9.34633 6.37882 7.92163C6.24042 7.78815 6.13575 7.72633 5.97627 7.89845C5.5646 8.34244 5.12483 8.76113 4.72369 9.21425C4.09846 9.92169 3.41842 10.5757 2.77633 11.267C2.39205 11.6808 1.96492 12.0651 1.75768 12.6144L1.74995 12.632L1.7619 12.6467C1.63825 12.6952 1.60875 12.8118 1.56308 12.9186C1.03971 14.1326 0.89359 15.3788 1.23993 16.6679C1.20551 16.7621 1.24274 16.8162 1.33617 16.8386C1.3425 16.8583 1.34812 16.878 1.35303 16.8976C1.35374 16.9686 1.35444 17.0389 1.35444 17.1098C1.55255 17.7695 1.80967 18.3968 2.32672 18.8808C2.32672 18.8998 2.32953 18.9181 2.33515 18.9356C3.40367 20.2493 4.76795 20.9181 6.47717 20.8317C6.61767 20.8289 6.75817 20.8268 6.89797 20.824C7.715 20.7755 8.45334 20.4657 9.1432 20.0653C9.43475 19.896 9.78952 19.7344 9.9237 19.3628L9.9251 19.3621C10.2855 19.1604 10.5602 18.8738 10.766 18.5176V18.5155ZM8.12386 8.82717C8.04588 8.84895 7.92645 8.8637 7.9405 8.9473C7.96579 9.09764 8.07539 9.21074 8.23696 9.23252C8.33953 9.24657 8.37957 9.16719 8.36693 9.07586C8.34796 8.93676 8.26225 8.85316 8.12386 8.82717ZM12.4289 12.6671C12.3853 12.6397 12.3354 12.5948 12.2771 12.5744C12.2048 12.5491 12.1717 12.6004 12.1788 12.6671C12.1865 12.7416 12.2279 12.7971 12.308 12.7999C12.3713 12.8006 12.4085 12.7577 12.4289 12.6671ZM10.0895 10.9839C10.1373 10.9776 10.1794 10.9628 10.1843 10.9059C10.1885 10.856 10.1717 10.8153 10.1176 10.8047C10.0466 10.7907 10.0073 10.8279 10.0052 10.8947C10.0031 10.9452 10.0368 10.9769 10.0895 10.9839ZM10.8313 11.1413C10.7414 11.2705 10.7513 11.3625 10.8292 11.4504C10.8672 11.3555 10.9016 11.26 10.8313 11.1413ZM7.55412 8.11763C7.53937 8.09304 7.52742 8.06073 7.5197 8.06213C7.48738 8.06635 7.44453 8.07127 7.42837 8.09234C7.40519 8.12396 7.42837 8.16259 7.46912 8.16119C7.49722 8.15978 7.52532 8.13379 7.55412 8.11763ZM12.6319 12.7353C12.6122 12.7268 12.5883 12.7079 12.5743 12.7135C12.5602 12.7191 12.556 12.7493 12.5476 12.769C12.5673 12.7774 12.5904 12.7964 12.6045 12.7908C12.6192 12.7851 12.6235 12.7549 12.6319 12.7353ZM10.4618 11.3759C10.4534 11.3956 10.4337 11.4187 10.4393 11.4328C10.445 11.4468 10.4752 11.4511 10.4948 11.4595C10.5033 11.4398 10.5229 11.4166 10.5173 11.4026C10.5117 11.3885 10.4815 11.3843 10.4618 11.3759ZM11.8661 0.982905C11.8577 1.00258 11.838 1.02576 11.8437 1.03981C11.8493 1.05386 11.8795 1.05807 11.8992 1.0665C11.9076 1.04683 11.9273 1.02365 11.9216 1.0096C11.916 0.99555 11.8858 0.991335 11.8661 0.982905ZM12.7611 1.02154C12.7794 1.01171 12.7977 1.00257 12.8152 0.993442C12.7984 0.982904 12.7815 0.964639 12.7647 0.963937C12.7471 0.963234 12.7288 0.980095 12.7113 0.988525C12.7274 0.999063 12.7436 1.0103 12.7611 1.02154ZM6.1238 6.54119C6.11397 6.52222 6.10484 6.50466 6.0957 6.4871C6.08516 6.50396 6.0669 6.52012 6.06549 6.53698C6.06479 6.55454 6.08095 6.5728 6.09008 6.59107C6.10132 6.57421 6.11186 6.55805 6.1238 6.54119Z" fill="#646464"/>
<path d="M17.8996 0.939261C17.5413 1.04042 17.3003 0.658256 16.9498 0.710945C16.5796 0.766443 16.3239 0.500893 16.0351 0.344935C15.8771 0.25993 15.7316 0.226913 15.5722 0.277494C15.4696 0.309809 15.3797 0.302784 15.3129 0.23464C15.1837 0.102568 15.0678 0.074467 14.9287 0.21778C14.8851 0.262741 14.817 0.245178 14.7664 0.210052C14.4622 -0.00210705 14.2936 0.226913 14.1159 0.412376C14.0582 0.472792 13.9943 0.571847 13.9374 0.449609C13.7527 0.0533918 13.4253 0.247286 13.1928 0.306297C12.9195 0.376548 12.6497 0.474198 12.3729 0.550772C12.1369 0.615403 11.872 0.742557 11.7048 0.904838C11.5334 1.07133 11.3768 1.08749 11.1836 1.09733C11.1716 1.08538 11.1604 1.07274 11.1484 1.0608C11.1632 1.0348 11.1779 1.00811 11.1927 0.982115C11.237 0.952609 11.2812 0.923104 11.3262 0.894301C11.3599 0.873225 11.3936 0.852852 11.428 0.831777C12.9539 -0.0224795 14.576 -0.186867 16.2599 0.193192C16.85 0.32667 17.4078 0.569037 17.8996 0.939261Z" fill="#646464"/>
<path d="M20.4211 9.04876C20.2637 8.95463 20.2743 8.78953 20.3389 8.67924C20.5749 8.27881 20.5286 7.83131 20.5904 7.40207C20.6136 7.23909 20.5525 7.07329 20.7506 6.94614C20.8883 6.85762 20.8117 5.99845 20.6838 5.86778C20.6417 5.82493 20.5862 5.78769 20.5981 5.72868C20.6796 5.32755 20.4773 4.96505 20.4379 4.57867C20.4021 4.22811 20.3312 3.86702 20.0495 3.5811C19.7663 3.29377 19.7298 2.87718 19.6055 2.50977C20.4773 3.61412 20.8883 4.87864 20.896 6.27735C20.9009 7.22785 20.8461 8.17062 20.4211 9.04876Z" fill="#646464"/>
<path d="M9.81727 2.2081C9.80111 2.22425 9.78495 2.24041 9.7688 2.25657C9.69854 2.28818 9.64234 2.33314 9.61635 2.40901L9.62056 2.4062C9.59598 2.4322 9.57069 2.45819 9.5461 2.48418L9.54891 2.47927C9.41543 2.53968 9.33253 2.65138 9.25666 2.77011C9.23067 2.77573 9.21592 2.79118 9.2117 2.81788C9.11054 2.87478 9.03326 2.95346 8.98619 3.06024C8.80073 3.19653 8.64618 3.36162 8.51551 3.5499C8.49303 3.55481 8.47055 3.55692 8.44737 3.55622C8.31319 3.34757 8.512 3.23025 8.61316 3.1607C8.94896 2.92817 9.14145 2.59307 9.3508 2.2657C9.38241 2.21652 9.40349 2.14838 9.44845 2.12309C9.74913 1.9573 9.87628 1.73811 9.67185 1.36719C9.86574 1.72898 10.1292 1.66575 10.3968 1.58496C10.2044 1.79291 10.0112 2.00015 9.81727 2.2081Z" fill="#DFE9E8"/>
<path d="M19.6013 2.50357C19.3139 2.50147 19.1756 2.27385 19.0091 2.09963C18.839 1.92189 18.6662 1.76312 18.4442 1.6444C18.1752 1.49968 17.9764 1.27488 17.9258 0.953125C18.5967 1.34724 19.1566 1.86358 19.6013 2.50357Z" fill="#646464"/>
<path d="M3.28616 9.22652C2.86395 9.66207 2.44174 10.0983 2.01953 10.5339C2.1214 10.1173 2.37149 9.79696 2.69956 9.54124C2.78738 9.4724 2.878 9.41198 2.88854 9.30941C2.92648 8.93427 3.1562 8.92935 3.4372 9.00593C3.38662 9.07899 3.33604 9.15275 3.28616 9.22652Z" fill="#DFE9E8"/>
<path d="M17.8281 12.4413C18.3206 11.9053 18.8123 11.37 19.3048 10.834C19.342 11.1881 19.0547 11.3798 18.87 11.592C18.6543 11.8386 18.3958 12.0486 18.1991 12.3212C18.1232 12.4245 17.9883 12.5165 17.8281 12.4413Z" fill="#DFE9E8"/>
<path d="M4.39317 8.02699C4.28357 8.14782 4.17398 8.26865 4.06509 8.38948C3.9274 8.51594 3.79041 8.64239 3.65272 8.76814C3.47428 8.62834 3.35626 8.51734 3.70541 8.44217C3.94847 8.39019 4.0679 8.15695 4.15361 7.95252C4.27655 7.65746 4.45639 7.50783 4.77955 7.54998C4.66574 7.69189 4.55123 7.8345 4.43743 7.97641C4.42197 7.99327 4.40792 8.01013 4.39317 8.02699Z" fill="#DFE9E8"/>
<path d="M3.65187 8.76928C3.78956 8.64283 3.92655 8.51637 4.06424 8.39062C4.17665 8.4117 4.32488 8.42364 4.34525 8.54728C4.37686 8.73767 4.17805 8.63931 4.10288 8.69903C3.97643 8.79949 3.99961 8.96598 3.95114 9.10157L3.95044 9.10227C3.70104 8.999 3.51488 9.22872 3.28516 9.22802C3.33503 9.15426 3.38562 9.08049 3.43549 9.00673L3.44322 8.99619C3.49029 8.95053 3.53736 8.90486 3.58443 8.8592C3.63641 8.85077 3.64906 8.81424 3.65187 8.76928Z" fill="#646464"/>
<path d="M9.81641 2.20705C10.0103 1.99981 10.2035 1.79186 10.3974 1.58462C10.4529 1.5221 10.5084 1.45957 10.5632 1.39705C10.814 1.38089 10.9208 1.11324 11.1505 1.06055C11.1624 1.07249 11.1737 1.08513 11.1856 1.09708C10.8315 1.32961 10.7803 1.88249 10.2674 1.95344C10.0918 1.97662 10.0602 2.28433 9.81641 2.20705Z" fill="#646464"/>
<path d="M10.3203 20.4656C10.6723 20.1277 11.0242 19.7891 11.3755 19.4512C11.3502 19.6416 11.4788 19.8453 11.143 19.971C10.9856 20.03 10.6463 20.1614 10.6182 20.4761C10.4784 20.4825 10.4784 20.5822 10.4798 20.6834C10.3077 20.6981 10.4608 20.4747 10.3203 20.4656Z" fill="#DFE9E8"/>
<path d="M7.88437 4.21054C7.8366 4.69668 7.36241 5.22146 6.89453 5.30576C6.90577 5.26712 6.91771 5.22778 6.92895 5.18914C6.95073 5.16807 6.97251 5.14699 6.99359 5.12522C7.03925 5.11187 7.06665 5.08517 7.054 5.03319C7.12425 4.96715 7.1945 4.90182 7.26476 4.83578C7.28724 4.80838 7.30901 4.78028 7.33149 4.75288C7.35187 4.72759 7.37224 4.7016 7.39191 4.67631C7.55419 4.5604 7.69118 4.4213 7.79586 4.25129C7.81623 4.24356 7.82536 4.22881 7.82325 4.20703C7.84433 4.20773 7.8647 4.20844 7.88437 4.21054Z" fill="#646464"/>
<path d="M5.99206 6.30679C5.91478 6.85757 5.42232 7.0901 5.10478 7.4554C5.08792 7.47507 5.00011 7.43292 4.94531 7.41958C4.96639 7.37883 4.98746 7.33808 5.00854 7.29804C5.09706 7.27135 5.13359 7.19266 5.18065 7.12522C5.1933 7.1189 5.20173 7.10977 5.20595 7.09642C5.42794 6.90112 5.62535 6.68264 5.79465 6.44027C5.81503 6.43606 5.8354 6.43395 5.85577 6.43395C5.87966 6.40796 5.90284 6.38126 5.92672 6.35527C5.92181 6.33771 5.92321 6.32155 5.93094 6.30469L5.96185 6.31031L5.99206 6.30679Z" fill="#646464"/>
<path d="M2.41503 20.5332C2.78806 20.7721 3.1611 21.0102 3.53413 21.2491C3.36412 21.3594 3.19833 21.4022 3.08733 21.1795C3.02832 21.0615 2.91522 21.0833 2.8267 21.0432C2.604 20.9421 2.37358 20.8472 2.41503 20.5332Z" fill="#DFE9E8"/>
<path d="M7.45703 21.8004C7.80759 21.7076 8.15884 21.6142 8.5094 21.5215C8.49815 21.617 8.53398 21.8032 8.42861 21.7807C8.09772 21.7105 7.78159 21.9697 7.45703 21.8004Z" fill="#DFE9E8"/>
<path d="M5.83984 21.8623C6.2178 21.8609 6.59645 21.8588 6.9744 21.8574C6.6372 22.012 6.27329 21.9804 5.91782 22.0007C5.85741 22.0049 5.85038 21.9185 5.83984 21.8623Z" fill="#DFE9E8"/>
<path d="M11.4219 19.4046C11.5251 19.2353 11.6642 19.099 11.823 18.9824C11.9516 18.9944 12.0584 19.0555 12.0605 19.1876C12.0633 19.3238 11.9164 19.2929 11.8448 19.2964C11.693 19.3049 11.6073 19.5571 11.4219 19.4046Z" fill="#DFE9E8"/>
<path d="M6.55126 5.66211C6.76342 5.79067 6.62853 5.92906 6.5344 6.0225C6.42621 6.12998 6.33418 6.35549 6.10938 6.18337C6.1157 6.14895 6.12132 6.11523 6.12764 6.08081C6.1726 6.03023 6.21756 5.98035 6.26323 5.92977C6.34823 5.89464 6.41005 5.83844 6.42902 5.7443C6.46976 5.7162 6.51051 5.68951 6.55126 5.66211Z" fill="#646464"/>
<path d="M5.79326 6.43945C5.62396 6.68182 5.42655 6.9003 5.20456 7.0956C5.18278 6.74505 5.41109 6.49074 5.79326 6.43945Z" fill="#DFE9E8"/>
<path d="M9.32031 21.1591C9.59148 20.9828 9.86336 20.8065 10.1345 20.6309C10.1507 20.8009 10.1338 20.9245 9.91042 20.9477C9.70318 20.9695 9.57954 21.2568 9.32031 21.1591Z" fill="#DFE9E8"/>
<path d="M17.2891 13.0314C17.4436 12.8143 17.6066 12.6049 17.8223 12.4434C17.7871 12.8452 17.5904 13.0623 17.2891 13.0314Z" fill="#DFE9E8"/>
<path d="M8.37286 3.69141C8.57449 4.09535 8.55201 4.11994 7.98438 4.11151C8.00264 4.06795 8.02161 4.0251 8.03987 3.98154C8.15087 3.8853 8.26187 3.78835 8.37286 3.69141Z" fill="#646464"/>
<path d="M1.14585 11.5609C1.06084 11.7499 0.935796 11.9107 0.795293 12.0611C0.791078 11.9929 0.793889 11.9227 0.781946 11.8559C0.71591 11.4829 0.7693 11.4386 1.14585 11.5609Z" fill="#DFE9E8"/>
<path d="M11.9727 18.8129C12.0752 18.6584 12.201 18.5249 12.352 18.416C12.423 18.5502 12.3626 18.7062 12.3295 18.8101C12.2551 19.0434 12.0963 18.8776 11.9727 18.8129Z" fill="#DFE9E8"/>
<path d="M11.1498 1.06084C10.9201 1.11423 10.8133 1.38119 10.5625 1.39735C10.5969 1.11915 10.9369 0.89575 11.1941 0.981457C11.1793 1.00815 11.1646 1.03485 11.1498 1.06084Z" fill="#DFE9E8"/>
<path d="M20.0751 9.76118C20.0597 9.68461 20.0491 9.60663 20.0288 9.53216C19.9522 9.25467 20.0934 9.20409 20.3238 9.24483C20.2831 9.43732 20.1798 9.5996 20.0751 9.76118Z" fill="#646464"/>
<path d="M1.64019 10.9487C1.53973 11.1475 1.38026 11.2978 1.22851 11.4545C1.17091 11.1875 1.38166 11.0386 1.50882 10.8623C1.56783 10.7801 1.60717 10.8981 1.64019 10.9487Z" fill="#DFE9E8"/>
<path d="M12.3516 18.4135C12.4773 18.2358 12.6157 18.07 12.7941 17.9414C12.7485 18.1943 12.7794 18.5189 12.3516 18.4135Z" fill="#DFE9E8"/>
<path d="M19.3047 10.8326C19.4536 10.6556 19.6033 10.4778 19.7522 10.3008C19.7676 10.6169 19.6496 10.8206 19.3047 10.8326Z" fill="#DFE9E8"/>
<path d="M19.7539 10.2353C19.7925 10.0379 19.6668 9.7253 20.0707 9.7822C19.9829 9.94589 19.9071 10.1173 19.7539 10.2353Z" fill="#646464"/>
<path d="M10.4806 20.6819C10.4799 20.5814 10.4792 20.4809 10.619 20.4746C10.699 20.5322 10.7524 20.6123 10.737 20.7085C10.7236 20.79 10.6534 20.8666 10.5733 20.8673C10.4532 20.8687 10.4946 20.7542 10.4806 20.6819Z" fill="#F6FAF7"/>
<path d="M7.79459 4.25195C7.68992 4.42196 7.55223 4.56176 7.39065 4.67698C7.38854 4.4058 7.52202 4.26249 7.79459 4.25195Z" fill="#DFE9E8"/>
<path d="M8.03697 3.9846C8.01871 4.02816 7.99974 4.07101 7.98148 4.11457C7.94846 4.14758 7.91544 4.1799 7.88172 4.21292C7.86205 4.21081 7.84168 4.2094 7.8213 4.2094C7.83044 4.11878 7.72014 4.02956 7.78758 3.95018C7.86907 3.85604 7.95408 3.96352 8.03697 3.9846Z" fill="#DFE9E8"/>
<path d="M5.21094 21.7843C5.33458 21.7731 5.45752 21.7668 5.56992 21.8363C5.41467 22.0632 5.31702 21.896 5.21094 21.7843Z" fill="#DFE9E8"/>
<path d="M5.1771 7.1235C5.12933 7.19094 5.0935 7.26962 5.00499 7.29632C4.91998 7.26892 4.83989 7.21131 4.89961 7.12561C4.97197 7.02304 5.08296 7.0687 5.1771 7.1235Z" fill="#DFE9E8"/>
<path d="M4.85938 21.7031C4.93173 21.72 5.00339 21.7361 5.07575 21.753C5.06381 21.8275 5.0336 21.8865 4.94508 21.8661C4.85938 21.8464 4.8671 21.7685 4.85938 21.7031Z" fill="#DFE9E8"/>
<path d="M6.12584 6.08204C6.11952 6.11646 6.1139 6.15018 6.10757 6.18461C6.06823 6.22535 6.02819 6.2668 5.98885 6.30755L5.95724 6.31106L5.92633 6.30544C5.90244 6.14948 5.9755 6.08133 6.12584 6.08204Z" fill="#B9CECE"/>
<path d="M4.02344 21.4554C4.10563 21.4442 4.17377 21.4751 4.23349 21.5292C4.11406 21.6437 4.04873 21.6065 4.02344 21.4554Z" fill="#DFE9E8"/>
<path d="M6.8259 5.36328C6.79639 5.42791 6.91792 5.63586 6.6875 5.5094C6.70506 5.43423 6.75564 5.38998 6.8259 5.36328Z" fill="#646464"/>
<path d="M6.42751 5.74479C6.40854 5.83893 6.34672 5.89513 6.26172 5.93025C6.26664 5.82417 6.29263 5.73566 6.42751 5.74479Z" fill="#B9CECE"/>
<path d="M1.9174 10.6465C1.90405 10.7273 1.85206 10.7701 1.7776 10.7919C1.77338 10.695 1.82185 10.6486 1.9174 10.6465Z" fill="#DFE9E8"/>
<path d="M3.58492 8.85704C3.53785 8.90271 3.49078 8.94837 3.44371 8.99403C3.38119 8.83597 3.46057 8.82332 3.58492 8.85704Z" fill="#DFE9E8"/>
<path d="M4.44141 21.6016C4.49058 21.6121 4.54046 21.6233 4.58964 21.6339C4.57699 21.6795 4.54749 21.7252 4.50182 21.7076C4.47302 21.6957 4.46108 21.6381 4.44141 21.6016Z" fill="#DFE9E8"/>
<path d="M5.92252 6.35366C5.89863 6.37965 5.87545 6.40635 5.85156 6.43234C5.85718 6.38949 5.86702 6.35085 5.92252 6.35366Z" fill="#646464"/>
<path d="M6.92719 5.18945C6.91595 5.22809 6.90401 5.26743 6.89277 5.30607L6.86045 5.30818L6.82814 5.30748C6.82744 5.24004 6.85132 5.19297 6.92719 5.18945Z" fill="#B9CECE"/>
<path d="M1.71085 10.8652L1.72209 10.8779L1.70312 10.8758L1.71085 10.8652Z" fill="#DFE9E8"/>
<path d="M2.01457 10.5353C1.98928 10.5627 1.96329 10.5901 1.93799 10.6182C1.93378 10.5634 1.95626 10.5325 2.01457 10.5353Z" fill="#DFE9E8"/>
<path d="M11.43 0.83076C11.3963 0.851835 11.3625 0.872208 11.3281 0.893283C11.3471 0.84762 11.3801 0.825842 11.43 0.83076Z" fill="#DFE9E8"/>
<path d="M8.44913 3.5571C8.47232 3.55781 8.4948 3.555 8.51728 3.55078C8.49199 3.57467 8.4667 3.59785 8.44141 3.62174C8.44141 3.59996 8.44351 3.57818 8.44913 3.5571Z" fill="#646464"/>
<path d="M7.05342 5.03516C7.06606 5.08714 7.03866 5.11314 6.993 5.12719C6.98738 5.07871 7.01127 5.05061 7.05342 5.03516Z" fill="#B9CECE"/>
<path d="M7.33238 4.75391C7.3099 4.7813 7.28812 4.8094 7.26564 4.8368C7.26494 4.79044 7.28812 4.76374 7.33238 4.75391Z" fill="#B9CECE"/>
<path d="M7.25 21.8186C7.27318 21.8144 7.29707 21.8109 7.32025 21.8066C7.30409 21.8537 7.28232 21.8671 7.25 21.8186Z" fill="#DFE9E8"/>
<path d="M12.1703 11.8975C12.15 11.8764 12.1303 11.8553 12.1099 11.8343C12.0312 11.7183 11.9378 11.6165 11.8142 11.5469L11.7938 11.5294L11.7706 11.542L11.7664 11.5371C11.5613 11.1873 11.2205 10.9737 10.9339 10.7053C10.9044 10.6266 10.8475 10.5761 10.7723 10.543C10.7295 10.4566 10.667 10.3913 10.5756 10.3562C10.5419 10.3246 10.5082 10.2922 10.4745 10.2606C10.4668 10.2431 10.4541 10.2304 10.4379 10.222C10.386 10.125 10.3178 10.0429 10.2153 9.99508L10.2188 9.9986C10.0516 9.78644 9.86469 9.59535 9.6427 9.4401C9.6441 9.42113 9.642 9.40286 9.63638 9.3846C9.62654 9.26096 9.69047 9.09095 9.57104 9.02772C9.32868 8.89916 9.15726 8.65609 8.87134 8.60411C8.8608 8.51278 8.9163 8.45447 8.9718 8.39476C9.0266 8.33645 9.09614 8.27603 9.02168 8.18822C8.94862 8.10251 8.87907 8.15028 8.81233 8.20367C8.71187 8.28446 8.61914 8.26198 8.53694 8.17628C8.45264 8.08776 8.3571 8.03296 8.23065 8.04982C8.1878 8.02524 8.14424 8.00135 8.10139 7.97676C8.03605 7.91283 7.97002 7.8489 7.90468 7.78568C7.73116 7.596 7.55764 7.40632 7.38412 7.21664C7.51479 6.982 7.3792 6.93072 7.18109 6.92299C7.18039 6.78389 7.18039 6.6448 7.17969 6.5064C7.1832 6.48252 7.18671 6.45793 7.19023 6.43404C7.21903 6.43194 7.23238 6.41718 7.23167 6.38838C7.25978 6.37995 7.28788 6.37082 7.31668 6.36239C7.72343 6.24788 8.01428 5.92823 8.0487 5.5573L8.05713 5.54817C8.12949 5.58611 8.18288 5.52569 8.24189 5.51516C8.48636 5.47301 8.45054 5.14634 8.65216 5.1077C8.96267 5.04798 9.01114 4.87727 8.93597 4.61524C8.93597 4.59486 8.94581 4.58503 8.96618 4.58433C9.02449 4.59627 9.07367 4.58432 9.12846 4.55412C9.52538 4.33985 9.727 3.92607 10.0579 3.64366C10.1605 3.55584 10.367 3.47716 10.1991 3.27343C10.2005 3.24955 10.2012 3.22637 10.2026 3.20248L10.2124 3.18351C10.2686 3.16595 10.3024 3.12872 10.315 3.07181C10.315 3.09148 10.3241 3.10624 10.3417 3.11467C10.5082 3.46944 10.603 3.12801 10.6663 3.05776C10.8517 2.85263 10.9529 2.58216 11.2339 2.44939C11.3491 2.39529 11.4706 2.26252 11.4749 2.09251C11.6695 2.0616 11.9877 2.18173 11.8711 1.76935C11.9076 1.74828 11.9448 1.7272 11.9814 1.70613C12.1486 1.76444 12.3108 1.68786 12.4535 1.6429C12.8476 1.51855 13.2417 1.37735 13.5712 1.1111C13.6168 1.10478 13.6625 1.09845 13.7081 1.09143C13.8655 1.19399 14.0376 1.40475 14.1325 1.03523C14.1788 1.03242 14.2252 1.0289 14.2716 1.02609C14.5055 1.06614 14.7394 1.28813 14.9734 1.02539C15.0429 1.03031 15.1125 1.03523 15.182 1.03944C15.267 1.25792 15.3745 1.34082 15.5347 1.09634C15.6091 1.08089 15.6787 1.08862 15.7412 1.13568C15.7714 1.2249 15.8136 1.25933 15.8845 1.1687C15.9646 1.16168 16.0356 1.18416 16.0974 1.23474C16.1402 1.40053 16.6538 1.66117 16.7838 1.58038C16.7971 1.57195 16.7943 1.53752 16.7992 1.51504C16.8491 1.53823 16.899 1.56071 16.9488 1.58389C16.8688 1.76233 17.024 1.80237 17.1196 1.88386C17.4174 2.13958 17.6865 2.42129 17.8656 2.77746C17.7293 2.79994 17.6823 2.84771 17.7701 2.98681C17.9022 3.19686 18.0785 3.38373 18.0918 3.65911C18.0982 3.78908 18.2106 3.8509 18.3482 3.83404C18.4178 4.13893 18.5906 4.41923 18.5646 4.74661C18.455 4.74942 18.349 4.75504 18.3454 4.90608C18.3314 5.50462 18.3581 6.10246 18.318 6.7031C18.2935 7.07544 18.0989 7.50678 17.7862 7.72245C17.6148 7.84047 17.3746 7.9585 17.3626 8.22896C17.3542 8.42567 17.3647 8.61886 17.2699 8.80784C17.18 8.98698 17.35 8.94693 17.4406 8.96379C17.3999 9.22724 17.1462 9.31154 16.9938 9.47663C15.9997 10.5501 14.993 11.6109 13.9779 12.6639C13.8227 12.8248 13.7496 13.0861 13.4784 13.1227C13.4468 13.1072 13.4152 13.0918 13.3836 13.0763L13.3639 13.0967L13.3857 13.0791C13.2621 12.9154 13.118 12.7721 12.9459 12.6583C12.9052 12.5417 12.7808 12.5368 12.6993 12.475C12.5862 12.2249 12.3755 12.064 12.1703 11.8975ZM18.2218 4.16071C18.2302 4.14104 18.2492 4.11785 18.2436 4.1038C18.238 4.08975 18.2077 4.08554 18.1888 4.07711C18.1803 4.09678 18.1614 4.11996 18.167 4.13401C18.1719 4.14806 18.2021 4.15228 18.2218 4.16071Z" fill="#FDFDFD"/>
<path d="M12.7969 14.1562C13.1398 14.4394 13.4833 14.7218 13.7875 15.047C13.8598 15.1243 13.8802 15.2163 13.7987 15.2929C13.5578 15.5177 13.3765 15.8036 13.0955 15.9884C13.0695 16.0158 13.0428 16.0432 13.0168 16.0706C13.0196 16.0882 13.0182 16.1057 13.0126 16.1226C12.8433 16.0924 12.7112 16.1654 12.629 16.2996C12.5623 16.4078 12.5173 16.5209 12.3902 16.5799C12.1984 16.6684 12.1296 16.8279 12.1668 17.0344C12.1429 17.0583 12.1197 17.0822 12.0958 17.1061C11.9933 17.1068 11.8865 17.1019 11.8914 17.2522V17.2529C11.5479 17.1897 11.4776 17.5466 11.2542 17.6681C10.8552 17.6969 10.7245 17.8711 10.8334 18.2301C10.8376 18.2624 10.8419 18.2941 10.8468 18.3264C10.8503 18.3418 10.8482 18.3566 10.8411 18.3706C10.8152 18.3706 10.7885 18.3706 10.7625 18.3706C10.5468 18.3854 10.3768 18.3278 10.277 18.1114C10.1836 17.9084 10.0227 17.8718 9.81196 17.9463C9.45298 18.0721 9.37781 18.4662 9.10313 18.6832C9.00056 18.7647 8.91064 18.9102 8.77365 18.9165C8.57976 18.9249 8.43363 19.135 8.22288 19.0324C8.16738 19.2242 7.89902 19.1919 7.85336 19.3541C7.81753 19.4834 7.99597 19.548 8.07114 19.6471C8.11399 19.7033 8.17089 19.7546 8.1456 19.8319C8.11118 19.9358 8.01564 19.9126 7.93766 19.9141C7.84563 19.9155 7.73463 19.9407 7.6707 19.8635C7.37494 19.5059 7.06584 19.6801 6.77219 19.8473C6.59516 19.9478 6.47081 20.0412 6.31766 19.8052C6.20737 19.6352 5.96079 19.652 5.83293 19.7237C5.41353 19.9597 4.95479 19.8016 4.52625 19.9098C4.36959 19.9492 4.14057 19.8452 4.20029 19.7012C4.36748 19.2979 4.12652 19.3464 3.88907 19.3527C3.80056 19.3549 3.73663 19.305 3.66989 19.2565C3.18234 18.9081 2.60769 18.6868 2.19531 18.2308C2.19602 18.1465 2.18829 18.0594 2.27961 18.0102C2.6105 18.1521 2.8346 18.4395 3.14581 18.6228C4.14198 19.2101 5.19224 19.4658 6.33804 19.3415C6.3851 19.3401 6.43147 19.3394 6.47854 19.338C7.82455 19.2038 8.80456 18.4563 9.63423 17.4567L9.63704 17.4538C9.74733 17.3962 9.83444 17.319 9.85692 17.1883C9.97846 17.1686 9.99462 17.0738 10.0087 16.9775C10.0297 16.9565 10.0501 16.9361 10.0712 16.915C10.1485 16.9017 10.1991 16.8602 10.2103 16.7787C10.433 16.6656 10.603 16.4998 10.7063 16.2701C10.7266 16.2497 10.7477 16.2294 10.7681 16.2083C10.8868 16.1809 10.9613 16.1092 10.9838 15.9877C11.5064 15.5044 12.0291 15.0203 12.3881 14.3923C12.575 14.3993 12.6522 14.2195 12.7969 14.1562Z" fill="#646464"/>
<path d="M1.76305 12.6457L1.75111 12.6309L1.75884 12.6134C1.92182 12.5804 2.16419 12.7195 2.21337 12.4349C2.25481 12.1947 2.37846 12.0485 2.59975 11.9621C2.65806 11.9397 2.74166 11.8666 2.73885 11.8223C2.70723 11.3924 3.03952 11.3657 3.31982 11.2793C3.59872 11.4788 3.57133 11.9073 3.90853 12.0682C3.93523 12.0809 3.93452 12.175 3.9282 12.2291C3.89518 12.4989 3.97246 12.7848 3.81158 13.0356C3.54884 13.0503 3.45682 13.2119 3.45541 13.4508C3.1175 13.6707 3.09713 13.7444 3.31842 13.9488C3.45119 14.428 3.68794 14.0395 3.88113 14.0163C3.82634 14.2292 4.07713 14.3661 4.02234 14.579C3.84601 14.9773 3.80456 15.4185 3.90572 15.8112C3.99845 16.1716 3.81018 16.1885 3.60083 16.2643C3.40061 15.7396 3.46946 15.1909 3.46103 14.6493C3.58819 14.7076 3.72166 14.7764 3.84741 14.664C3.9001 14.6162 3.88675 14.5319 3.83969 14.4722C3.74976 14.3598 3.6479 14.2818 3.48632 14.2973C3.2854 14.3156 3.32966 14.4589 3.32053 14.579C3.16738 14.6261 2.88708 14.4399 2.90815 14.8045C2.91026 14.8235 2.90675 14.8417 2.89691 14.8586C2.6974 14.8354 2.60396 14.9085 2.61591 15.1256C2.63066 15.3869 2.61942 15.6489 2.61942 15.911C2.42201 15.9932 2.39672 16.1168 2.4754 16.3163C2.56322 16.5383 2.70794 16.7659 2.67 17.0076C2.60607 17.4214 2.61029 17.4537 3.03952 17.5282C3.06552 17.7031 2.82596 17.7185 2.82877 17.8794C2.61942 17.8752 1.99488 17.4516 1.94009 17.2774C1.90777 17.1741 1.95063 17.1095 2.05179 17.1123C2.42131 17.1228 2.3897 16.865 2.34755 16.6416C2.31593 16.4737 2.44449 16.2145 2.20002 16.1505C1.9429 16.0831 1.93939 16.4006 1.81364 16.4983C1.21018 16.3142 1.36824 15.8267 1.35068 15.4023C1.34295 15.2218 1.4132 15.0293 1.28394 14.8607C1.1048 14.6275 1.40126 14.4961 1.4132 14.3001C1.41601 14.2488 1.51085 14.2313 1.55933 14.2804C1.6928 14.416 1.62115 14.5895 1.62817 14.7469C1.63028 14.7912 1.60218 14.8354 1.59305 14.8811C1.56143 15.0413 1.5242 15.2035 1.62255 15.3532C1.64854 15.3925 1.71037 15.4143 1.73987 15.3665C1.83471 15.2134 1.87686 15.042 1.8326 14.8649C1.74268 14.5059 1.72723 14.1582 1.9162 13.8203C1.95344 13.7536 2.0286 13.6348 1.86843 13.6018C1.53825 13.5344 1.61201 13.3208 1.70194 13.122C1.77289 12.9653 1.78202 12.8101 1.76305 12.6457Z" fill="#646464"/>
<path d="M2.19611 18.23C2.60848 18.6859 3.18314 18.9079 3.67069 19.2556C3.73813 19.3034 3.80135 19.354 3.88987 19.3519C4.12732 19.3456 4.36828 19.2971 4.20108 19.7003C4.14137 19.8443 4.37039 19.9483 4.52705 19.909C4.95488 19.8008 5.41432 19.9581 5.83372 19.7228C5.96158 19.6511 6.20816 19.6343 6.31846 19.8043C6.47161 20.041 6.59595 19.9476 6.77298 19.8464C7.06593 19.6792 7.37574 19.5057 7.6715 19.8626C7.73543 19.9399 7.84643 19.9153 7.93845 19.9132C8.01643 19.9118 8.11198 19.935 8.1464 19.831C8.17169 19.7544 8.11479 19.7024 8.07193 19.6462C7.99606 19.5472 7.81762 19.4825 7.85415 19.3533C7.89982 19.191 8.16818 19.2226 8.22367 19.0315C8.43443 19.1341 8.57985 18.924 8.77445 18.9156C8.91214 18.9093 9.00136 18.7639 9.10393 18.6824C9.37791 18.4653 9.45378 18.0712 9.81276 17.9454C10.0242 17.8717 10.1844 17.9075 10.2778 18.1105C10.3776 18.3269 10.5476 18.3845 10.7633 18.3698C10.7647 18.4175 10.7661 18.4653 10.7675 18.5131L10.7682 18.5138C10.4935 18.5615 9.98347 19.0512 9.92516 19.3238C9.92305 19.3343 9.92657 19.3463 9.92727 19.3582L9.92587 19.3589C9.80152 19.3526 9.69404 19.4116 9.60692 19.4811C9.22757 19.7825 8.8461 20.0677 8.32624 20.0677C8.26021 20.0677 8.17239 20.1373 8.13305 20.1991C8.01292 20.3888 7.84994 20.4492 7.63427 20.5082C7.4474 20.5595 7.26896 20.6206 7.07366 20.6164C6.93035 20.6129 6.89803 20.7 6.90155 20.8187C6.76104 20.8215 6.62054 20.8236 6.48074 20.8265C6.28052 20.641 6.04448 20.5876 5.77752 20.6122C5.64053 20.6248 5.49863 20.556 5.37569 20.549C4.90149 20.5223 4.51721 20.3375 4.1772 20.0256C4.14418 19.9954 4.0936 19.9708 4.05075 19.9687C3.64329 19.949 3.3946 19.6687 3.09884 19.439C2.86209 19.2549 2.69068 18.9493 2.33942 18.9304C2.3338 18.9128 2.33099 18.8945 2.33099 18.8756C2.40967 18.636 2.1364 18.4667 2.19611 18.23Z" fill="#646464"/>
<path d="M1.76288 12.6445C1.78185 12.8089 1.77272 12.9642 1.70106 13.1222C1.61114 13.3211 1.53738 13.5346 1.86756 13.6021C2.02773 13.6351 1.95256 13.7538 1.91533 13.8205C1.72635 14.1584 1.74181 14.5062 1.83173 14.8652C1.87599 15.0422 1.83384 15.2136 1.739 15.3668C1.70949 15.4138 1.64837 15.3928 1.62168 15.3534C1.52262 15.2038 1.55986 15.0415 1.59217 14.8813C1.60131 14.8357 1.62941 14.7914 1.6273 14.7472C1.62027 14.5891 1.69263 14.4163 1.55845 14.2807C1.51068 14.2315 1.41584 14.2491 1.41233 14.3004C1.40109 14.4964 1.10463 14.6277 1.28307 14.861C1.41233 15.0296 1.34278 15.2213 1.34981 15.4026C1.36737 15.8269 1.2086 16.3145 1.81276 16.4985C1.93851 16.4009 1.94203 16.0833 2.19915 16.1508C2.44362 16.2147 2.31576 16.4732 2.34667 16.6418C2.38882 16.8659 2.42044 17.1231 2.05091 17.1125C1.94975 17.1097 1.9062 17.1743 1.93922 17.2776C1.99401 17.4518 2.61855 17.8754 2.82789 17.8797C2.85108 17.9028 2.87496 17.9267 2.89815 17.9499C2.91501 18.0448 2.85529 18.2155 2.99299 18.2035C3.11733 18.193 3.2754 18.1178 3.31965 17.9499C3.32036 17.3739 3.32738 17.3956 3.85427 17.2305C4.09734 17.1547 4.30458 16.9748 4.29264 17.4209C4.29193 17.4567 4.34462 17.4947 4.37483 17.5298C4.65865 17.8614 4.66918 18.1656 4.40925 18.5119C4.35656 18.5822 4.24838 18.6637 4.41066 18.7178C4.50971 18.7508 4.57786 18.9686 4.72328 18.7852C4.79493 18.6946 4.86518 18.6025 4.93614 18.5112C5.05205 18.5084 5.149 18.5288 5.14619 18.677C5.14197 18.9074 5.29091 18.9292 5.47356 18.9362C5.65832 18.9433 5.84098 18.9854 6.02574 19.0016C6.2379 19.0205 6.34187 19.1294 6.34046 19.3409C5.19466 19.4652 4.1444 19.2102 3.14824 18.6222C2.83703 18.4389 2.61293 18.1515 2.28204 18.0096C1.99331 17.6218 1.69615 17.2397 1.35613 16.8947C1.35121 16.8751 1.34489 16.8554 1.33927 16.8357C1.36245 16.7479 1.3203 16.6966 1.24302 16.665C0.895983 15.3759 1.04281 14.1296 1.56618 12.9157C1.60974 12.8096 1.63924 12.693 1.76288 12.6445ZM4.36289 18.044C4.36218 17.8635 3.9463 17.4525 3.77067 17.4743C3.65335 17.4891 3.54446 17.5425 3.54446 17.6921C3.54446 17.853 3.96526 18.278 4.13246 18.2843C4.29755 18.2913 4.35656 18.1916 4.36289 18.044Z" fill="#646464"/>
<path d="M3.3188 11.2759C3.03849 11.363 2.70621 11.3897 2.73782 11.819C2.74133 11.8632 2.65703 11.9363 2.59872 11.9588C2.37673 12.0452 2.25379 12.1906 2.21234 12.4315C2.16316 12.7154 1.9208 12.577 1.75781 12.61C1.96435 12.0606 2.39148 11.6763 2.77576 11.2626C3.41715 10.5713 4.09788 9.91795 4.72312 9.20982C5.12355 8.75599 5.56333 8.3373 5.9757 7.89401C6.13517 7.72189 6.24055 7.78442 6.37824 7.91719C7.85563 9.34189 9.33793 10.7624 10.8174 12.185C11.4314 12.7758 12.0426 13.3701 12.6559 13.9616C12.7149 14.0185 12.7852 14.0642 12.7957 14.1548C12.651 14.218 12.5737 14.3979 12.3875 14.3894C12.384 14.3143 12.436 14.2525 12.3904 14.1611C12.1487 13.6736 11.7307 13.3582 11.3225 13.0308C11.2762 13.0076 11.2291 12.9837 11.1827 12.9605C11.1827 12.9374 11.1827 12.9142 11.182 12.8903C11.1757 12.7561 11.1055 12.6859 10.972 12.6795C10.9488 12.6563 10.9249 12.6332 10.9017 12.6093C10.6348 12.2208 10.2962 11.904 9.91821 11.6265C9.63439 11.3391 9.31686 11.0862 9.02391 10.8101C8.87498 10.6689 8.87849 10.4181 8.65439 10.3633C8.50756 10.2404 8.42958 9.99593 8.16333 10.0816C8.00386 9.71914 7.69335 9.48169 7.4271 9.21052C7.26482 9.04473 6.99294 9.00398 6.9248 8.71876C6.90021 8.61479 6.77306 8.51082 6.6185 8.53681C6.51102 8.54594 6.42812 8.48342 6.33399 8.44829C6.16538 8.38507 5.96798 8.29093 5.84574 8.53681C5.53874 8.80728 5.28584 9.13324 4.91069 9.33838C4.80391 9.39669 4.73647 9.61587 4.59316 9.71984C4.47303 9.80695 4.41683 9.92989 4.44141 10.0823C4.38521 10.1125 4.37257 10.1652 4.37116 10.2228C4.06206 10.1589 3.88502 10.2917 3.80915 10.6444C3.70307 10.7722 3.43331 10.7364 3.4579 10.9949C3.33215 11.0483 3.31248 11.1558 3.3188 11.2759Z" fill="#646464"/>
<path d="M2.33594 18.9336C2.68719 18.9519 2.85861 19.2582 3.09535 19.4422C3.39111 19.6719 3.6391 19.9522 4.04726 19.9719C4.09082 19.974 4.1414 19.9986 4.17371 20.0288C4.51373 20.3414 4.89871 20.5262 5.3722 20.5522C5.49584 20.5592 5.63775 20.6281 5.77404 20.6154C6.04099 20.5908 6.27774 20.6442 6.47725 20.8297C4.76874 20.9161 3.40516 20.2473 2.33594 18.9336Z" fill="#646464"/>
<path d="M6.8986 20.8217C6.89579 20.703 6.92741 20.6159 7.07072 20.6194C7.26602 20.6236 7.44446 20.5625 7.63133 20.5112C7.8477 20.4522 8.00998 20.3911 8.13011 20.2021C8.16945 20.1403 8.25797 20.0707 8.3233 20.0707C8.84316 20.0707 9.22393 19.7855 9.60399 19.4841C9.6918 19.4146 9.79858 19.3549 9.92292 19.3619C9.78874 19.7335 9.43468 19.8951 9.14243 20.0644C8.45397 20.4634 7.71563 20.7732 6.8986 20.8217Z" fill="#646464"/>
<path d="M2.19497 18.2307C2.13526 18.4682 2.40854 18.6368 2.32775 18.8785C1.80999 18.3944 1.55288 17.7671 1.35547 17.1074C1.43275 17.1159 1.46928 17.1566 1.49457 17.2332C1.62875 17.6336 1.93996 17.9132 2.19497 18.2307Z" fill="#646464"/>
<path d="M10.2017 3.27344C10.3696 3.47717 10.163 3.55585 10.0605 3.64366C9.72957 3.92607 9.52865 4.33985 9.13103 4.55412C9.07623 4.58363 9.02706 4.59627 8.96875 4.58433C9.02495 4.49792 9.08115 4.41151 9.13735 4.3258L9.15773 4.31878C9.15773 4.31878 9.16124 4.2977 9.16054 4.297C9.23781 4.25415 9.31298 4.20848 9.33757 4.11435C9.39377 4.05463 9.45067 3.99492 9.50688 3.93591C9.60944 3.88181 9.68461 3.80103 9.73309 3.69565C9.81177 3.65209 9.8778 3.59659 9.91152 3.50948C10.0078 3.4308 10.1047 3.35212 10.2017 3.27344Z" fill="#DFE9E8"/>
<path d="M11.4769 2.09372C11.4727 2.26373 11.3512 2.3965 11.2359 2.4506C10.9549 2.58337 10.8531 2.85314 10.6683 3.05897C10.6051 3.12922 10.5102 3.47065 10.3438 3.11588C10.4323 2.8988 10.6613 2.79834 10.7716 2.59883C10.799 2.57002 10.8257 2.54122 10.8531 2.51242L10.8538 2.51593C10.9922 2.4246 11.1228 2.32555 11.217 2.18575L11.205 2.15835L11.2198 2.18364C11.2957 2.14149 11.3708 2.10004 11.4467 2.05859C11.4558 2.07054 11.4664 2.08178 11.4769 2.09372Z" fill="#DFE9E8"/>
<path d="M13.5742 1.11186C13.244 1.37811 12.8506 1.51932 12.4565 1.64366C12.3139 1.68863 12.1516 1.7652 11.9844 1.70689C12.0898 1.63172 12.1951 1.55585 12.3005 1.48068C12.3806 1.44907 12.4614 1.41675 12.5415 1.38514C12.5836 1.36688 12.6258 1.34861 12.6672 1.33034C12.9215 1.25237 13.1765 1.17368 13.4309 1.0957C13.4793 1.10062 13.5271 1.10624 13.5742 1.11186Z" fill="#DFE9E8"/>
<path d="M2.19638 18.23C1.94137 17.9125 1.63015 17.6336 1.49597 17.2324C1.46998 17.1559 1.43345 17.1151 1.35687 17.1067C1.35617 17.0357 1.35547 16.9655 1.35547 16.8945C1.69619 17.2402 1.99265 17.6216 2.28138 18.0094C2.18935 18.0586 2.19708 18.1457 2.19638 18.23Z" fill="#646464"/>
<path d="M13.4777 13.1199C13.7537 13.436 14.1226 13.6594 14.3691 14.0058C13.8465 13.9011 13.4762 13.6341 13.3828 13.0742C13.4151 13.089 13.4467 13.1044 13.4777 13.1199Z" fill="#646464"/>
<path d="M11.253 17.6687C11.4764 17.5472 11.5467 17.1903 11.8902 17.2535C11.6689 17.6322 11.3837 17.9568 11.0437 18.2321L11.0395 18.2279C10.9685 17.9877 11.2313 17.8739 11.253 17.6687Z" fill="#646464"/>
<path d="M8.93744 4.61328C9.01261 4.87462 8.96413 5.04603 8.65362 5.10574C8.452 5.14438 8.48783 5.47105 8.24336 5.5132C8.18364 5.52374 8.13095 5.58415 8.05859 5.54622C8.07054 5.5139 8.08248 5.48159 8.09442 5.44998C8.25741 5.33757 8.38737 5.19426 8.49205 5.02776C8.49907 5.01863 8.5068 5.0088 8.51312 4.99966C8.60796 4.94276 8.67962 4.86338 8.7323 4.76713C8.75549 4.74114 8.77797 4.71585 8.80115 4.68985C8.84611 4.66316 8.89178 4.63787 8.93744 4.61328Z" fill="#DFE9E8"/>
<path d="M8.87348 8.60156C9.1594 8.65355 9.33082 8.89662 9.57318 9.02588C9.69191 9.08911 9.62868 9.25982 9.63852 9.38276C9.58161 9.35325 9.52541 9.32375 9.46851 9.29424C9.41371 9.24858 9.35892 9.20291 9.30342 9.15725L9.30272 9.15795C9.24652 9.05187 9.16221 8.97249 9.06105 8.90926C9.04911 8.8924 9.03365 8.88397 9.01258 8.88468C8.99712 8.77157 8.8805 8.73363 8.83203 8.64512C8.84538 8.63037 8.85943 8.61561 8.87348 8.60156Z" fill="#DFE9E8"/>
<path d="M8.04842 5.55664C8.014 5.92757 7.72316 6.24721 7.31641 6.36172C7.36137 6.28234 7.40633 6.20295 7.45129 6.12357C7.57423 6.03927 7.68312 5.94162 7.75196 5.80603C7.82081 5.78145 7.86647 5.73438 7.88614 5.66342C7.94024 5.6276 7.99433 5.59177 8.04842 5.55664Z" fill="#DFE9E8"/>
<path d="M9.92465 19.3581C9.92395 19.3469 9.92043 19.3349 9.92254 19.3237C9.98015 19.0511 10.4909 18.5614 10.7656 18.5137C10.5597 18.8698 10.2843 19.1565 9.92465 19.3581Z" fill="#646464"/>
<path d="M9.64453 9.43945C9.86653 9.59471 10.0534 9.78579 10.2206 9.99795C10.151 10.0036 10.078 9.99585 10.0126 10.0162C9.719 10.1068 9.63751 9.98671 9.67825 9.70922C9.6909 9.62281 9.65718 9.52937 9.64453 9.43945Z" fill="#646464"/>
<path d="M8.23463 8.04992C8.36108 8.03305 8.45662 8.08785 8.54092 8.17637C8.62312 8.26278 8.71585 8.28455 8.81631 8.20377C8.88305 8.15037 8.9526 8.1026 9.02566 8.18831C9.10013 8.27542 9.03058 8.33584 8.97578 8.39485C8.91958 8.45456 8.86408 8.51287 8.87532 8.6042C8.86127 8.61825 8.84792 8.6323 8.83387 8.64705C8.75308 8.58453 8.67229 8.52271 8.59221 8.46018C8.50018 8.31968 8.37232 8.21571 8.23744 8.11946C8.23463 8.09628 8.23393 8.0731 8.23463 8.04992Z" fill="#DFE9E8"/>
<path d="M12.166 17.0339C12.1287 16.8273 12.1976 16.6686 12.3894 16.5793C12.5165 16.5203 12.5622 16.4079 12.6282 16.299C12.7104 16.1649 12.8425 16.0918 13.0118 16.122C12.7287 16.4248 12.5039 16.7817 12.166 17.0339Z" fill="#646464"/>
<path d="M7.38365 7.21418C7.55717 7.40386 7.73069 7.59354 7.90421 7.78322C7.8452 7.85136 7.78689 7.92021 7.70118 8.01996C7.68221 7.64412 7.29724 7.50572 7.26562 7.16992C7.30497 7.18467 7.34431 7.19943 7.38365 7.21418Z" fill="#646464"/>
<path d="M16.7995 1.51468C16.7945 1.53716 16.7974 1.57158 16.784 1.58001C16.654 1.6608 16.1412 1.40087 16.0977 1.23438C16.3576 1.26388 16.5929 1.3531 16.7995 1.51468Z" fill="#DFE9E8"/>
<path d="M8.12199 8.82812C8.26039 8.85412 8.34539 8.93772 8.36506 9.07682C8.37771 9.16744 8.33766 9.24682 8.2351 9.23347C8.07352 9.2117 7.96463 9.09929 7.93864 8.94825C7.92459 8.86466 8.04401 8.8499 8.12199 8.82812Z" fill="#646464"/>
<path d="M12.1718 11.8965C12.3769 12.0623 12.587 12.2232 12.7015 12.4725C12.405 12.3911 12.1324 12.2878 12.1718 11.8965Z" fill="#646464"/>
<path d="M13.4316 1.09326C13.1773 1.17124 12.9223 1.24992 12.668 1.3279C12.8619 1.01949 13.2497 0.90077 13.4316 1.09326Z" fill="#646464"/>
<path d="M14.9752 1.02506C14.7413 1.28781 14.5074 1.06511 14.2734 1.02577C14.4968 0.915474 14.7371 1.01874 14.9654 0.97308C14.9682 0.990642 14.9717 1.0075 14.9752 1.02506Z" fill="#DFE9E8"/>
<path d="M12.9464 12.6562C13.1178 12.7701 13.2625 12.9134 13.3862 13.0771C13.0763 13.1073 12.9098 12.9871 12.9464 12.6562Z" fill="#646464"/>
<path d="M9.25781 2.76936C9.33368 2.65063 9.41588 2.53893 9.55006 2.47852C9.59432 2.63377 9.46225 2.80097 9.64349 2.97098C9.44539 2.94007 9.30839 2.93094 9.25781 2.76936Z" fill="#646464"/>
<path d="M11.8724 1.76953C11.9891 2.18191 11.6715 2.06248 11.4762 2.09269C11.4664 2.08074 11.4559 2.0695 11.4453 2.05756C11.4861 2.00628 11.5268 1.95499 11.5668 1.90371L11.569 1.90441C11.6427 1.89177 11.7052 1.86156 11.7425 1.79271C11.786 1.78569 11.8296 1.77796 11.8724 1.76953Z" fill="#DFE9E8"/>
<path d="M8.58984 8.45898C8.67063 8.52151 8.75142 8.58333 8.83151 8.64585C8.87998 8.73507 8.9966 8.77231 9.01205 8.88541C8.64113 8.97182 8.62637 8.70486 8.58984 8.45898Z" fill="#646464"/>
<path d="M8.49137 5.02817C8.3867 5.19467 8.25673 5.33868 8.09375 5.45038C8.18156 5.26773 8.0804 4.90734 8.49137 5.02817Z" fill="#646464"/>
<path d="M11.215 2.18508C11.1208 2.32488 10.9902 2.42464 10.8518 2.51526C10.7661 2.23566 10.8454 2.164 11.215 2.18508Z" fill="#646464"/>
<path d="M10.2014 3.2733C10.1045 3.35198 10.0082 3.43066 9.91126 3.50935C9.67452 3.40537 9.90213 3.31124 9.92953 3.22974C9.98784 3.05693 10.1066 3.17214 10.2042 3.20235C10.2035 3.22623 10.2021 3.25012 10.2014 3.2733Z" fill="#646464"/>
<path d="M14.1353 1.03576C14.0404 1.40528 13.8683 1.19453 13.7109 1.09196C13.8458 1.02171 13.9884 1.01047 14.1353 1.03576Z" fill="#DFE9E8"/>
<path d="M7.18352 6.50586C7.18422 6.64496 7.18422 6.78405 7.18492 6.92245C7.16806 6.94001 7.1512 6.95687 7.13434 6.97444C7.08657 6.95055 7.0381 6.92737 6.99033 6.90348L6.99384 6.9077C6.96855 6.86695 6.94326 6.82621 6.91797 6.78476C6.93764 6.7412 6.95731 6.69765 6.97698 6.65339C7.04512 6.60421 7.11397 6.55504 7.18352 6.50586Z" fill="#DFE9E8"/>
<path d="M15.5363 1.09773C15.3761 1.34221 15.2693 1.25861 15.1836 1.04083C15.2075 1.02959 15.2321 1.01905 15.256 1.00781C15.303 1.01203 15.3501 1.01695 15.3965 1.02116C15.4196 1.02538 15.4435 1.02959 15.4667 1.03381L15.4829 1.04926L15.5032 1.04013C15.5166 1.05769 15.5271 1.07736 15.5363 1.09773Z" fill="#DFE9E8"/>
<path d="M8.73415 4.76681C8.68146 4.86376 8.6098 4.94244 8.51496 4.99934C8.41029 4.83636 8.49881 4.71693 8.62737 4.64317C8.70394 4.59961 8.7215 4.70359 8.73415 4.76681Z" fill="#646464"/>
<path d="M7.45228 6.1224C7.40731 6.20178 7.36236 6.28117 7.31739 6.36055C7.28929 6.36898 7.26119 6.37811 7.23239 6.38654C7.1523 6.3479 7.08205 6.28889 7.14598 6.20108C7.21904 6.10132 7.32793 6.06198 7.45228 6.1224Z" fill="#646464"/>
<path d="M7.38712 7.21357C7.34778 7.19882 7.30844 7.18407 7.2684 7.16931C7.23538 7.13559 7.20166 7.10187 7.16864 7.06815C7.1567 7.03584 7.14476 7.00422 7.13281 6.97191C7.14967 6.95434 7.16653 6.93748 7.18339 6.91992C7.38291 6.92835 7.51779 6.97893 7.38712 7.21357Z" fill="#DFE9E8"/>
<path d="M8.23333 8.04962C8.23263 8.07281 8.23333 8.09599 8.23544 8.11988C8.19329 8.20699 8.15114 8.2948 8.10899 8.38191C8.06262 8.23579 7.98956 8.10161 8.10407 7.97656C8.14692 8.00045 8.18978 8.02504 8.23333 8.04962Z" fill="#646464"/>
<path d="M17.419 1.76774C17.3396 1.75509 17.2658 1.73121 17.2188 1.65955C17.23 1.57525 17.2054 1.43475 17.3417 1.47058C17.492 1.51062 17.4133 1.66166 17.419 1.76774Z" fill="#646464"/>
<path d="M12.4306 12.6662C12.4109 12.7568 12.3737 12.8003 12.3097 12.7982C12.2296 12.7961 12.1882 12.7399 12.1805 12.6655C12.1741 12.5987 12.2065 12.5481 12.2788 12.5727C12.3371 12.5931 12.387 12.6388 12.4306 12.6662Z" fill="#646464"/>
<path d="M11.567 1.90335C11.5263 1.95463 11.4855 2.00591 11.4455 2.0572C11.3696 2.09865 11.2944 2.1408 11.2186 2.18224C11.187 1.90545 11.3612 1.88508 11.567 1.90335Z" fill="#646464"/>
<path d="M8.93975 4.61365C8.89409 4.63894 8.84842 4.66353 8.80276 4.68882C8.76061 4.42608 8.95239 4.37761 9.13786 4.32422C9.08166 4.41063 9.02546 4.49704 8.96926 4.58274C8.94959 4.58345 8.93905 4.59328 8.93975 4.61365Z" fill="#646464"/>
<path d="M9.73348 3.69607C9.68501 3.80145 9.60984 3.88153 9.50727 3.93633C9.45388 3.91596 9.37168 3.88926 9.40049 3.82814C9.46442 3.69115 9.60352 3.69326 9.73348 3.69607Z" fill="#646464"/>
<path d="M10.089 10.9829C10.037 10.9758 10.0025 10.9442 10.0039 10.8936C10.0061 10.8269 10.0461 10.7897 10.1164 10.8037C10.1704 10.8143 10.1873 10.855 10.1831 10.9049C10.1789 10.9625 10.1367 10.9772 10.089 10.9829Z" fill="#646464"/>
<path d="M10.8299 11.1387C10.9009 11.2567 10.8665 11.3522 10.8278 11.4478C10.7499 11.3607 10.7393 11.2679 10.8299 11.1387Z" fill="#646464"/>
<path d="M11.8141 11.5449C11.9378 11.6145 12.0305 11.7163 12.1099 11.8322C11.8914 11.8589 11.7987 11.7578 11.8141 11.5449Z" fill="#646464"/>
<path d="M7.88913 5.6619C7.86946 5.73356 7.8238 5.77992 7.75495 5.80451C7.66433 5.74269 7.63763 5.64363 7.70789 5.57549C7.79711 5.49119 7.81888 5.64855 7.88913 5.6619Z" fill="#646464"/>
<path d="M9.06114 8.91211C9.1623 8.97534 9.2466 9.05402 9.30281 9.1608C9.17144 9.20155 9.06114 9.10952 8.9375 9.10249C8.97895 9.03856 9.0204 8.97534 9.06114 8.91211Z" fill="#646464"/>
<path d="M15.2557 1.00755C15.2318 1.01879 15.2079 1.02933 15.1833 1.04057C15.1138 1.03565 15.0442 1.03073 14.9747 1.02652C14.9712 1.00896 14.9677 0.992096 14.9648 0.974534C15.0765 0.859321 15.1791 0.818575 15.2557 1.00755Z" fill="#646464"/>
<path d="M7.13278 6.9733C7.14472 7.00561 7.15666 7.03723 7.16861 7.06954C6.95855 7.17562 6.96347 7.04987 6.98876 6.90234C7.03724 6.92553 7.08501 6.94941 7.13278 6.9733Z" fill="#646464"/>
<path d="M11.7425 1.7933C11.7053 1.86214 11.6428 1.89305 11.569 1.905C11.5479 1.83053 11.4945 1.74131 11.5908 1.69354C11.6674 1.6556 11.7074 1.73429 11.7425 1.7933Z" fill="#646464"/>
<path d="M15.5362 1.09877C15.5271 1.07839 15.5166 1.05943 15.5039 1.04116C15.6402 1.01095 15.806 0.846564 15.8769 1.12125C15.832 1.12687 15.7877 1.13249 15.7428 1.13811C15.6809 1.09104 15.6107 1.08331 15.5362 1.09877Z" fill="#646464"/>
<path d="M10.2171 9.99414C10.319 10.0426 10.3879 10.1241 10.4398 10.2211C10.2712 10.2379 10.1743 10.1845 10.2171 9.99414Z" fill="#646464"/>
<path d="M7.18052 6.50434C7.11097 6.55351 7.04212 6.60269 6.97257 6.65257C6.95009 6.48467 7.02737 6.41582 7.19035 6.43198C7.18754 6.45586 7.18403 6.47975 7.18052 6.50434Z" fill="#646464"/>
<path d="M9.29986 9.1582C9.35466 9.20387 9.40945 9.24953 9.46495 9.29519C9.394 9.30433 9.32796 9.40479 9.25841 9.33313C9.20291 9.27623 9.27738 9.21511 9.29986 9.1582Z" fill="#646464"/>
<path d="M8.98438 3.05877C9.03215 2.95199 9.10872 2.87331 9.20988 2.81641C9.23587 2.99133 9.16843 3.07985 8.98438 3.05877Z" fill="#646464"/>
<path d="M9.3381 4.11543C9.31351 4.20956 9.23834 4.25523 9.16107 4.29808C9.13577 4.15617 9.21235 4.11191 9.3381 4.11543Z" fill="#646464"/>
<path d="M11.8908 17.2536C11.8859 17.1032 11.9927 17.1074 12.0952 17.1074C12.0594 17.2009 11.9927 17.2514 11.8908 17.2536Z" fill="#646464"/>
<path d="M7.55281 8.11606C7.52401 8.13151 7.49661 8.15821 7.46781 8.15961C7.42776 8.16102 7.40388 8.12238 7.42706 8.09077C7.44322 8.06899 7.48607 8.06407 7.51839 8.06056C7.52612 8.05986 7.53806 8.09147 7.55281 8.11606Z" fill="#646464"/>
<path d="M12.6305 12.7337C12.622 12.7534 12.6178 12.7836 12.6038 12.7892C12.5897 12.7949 12.5658 12.7759 12.5469 12.7675C12.5553 12.7478 12.5595 12.7176 12.5736 12.712C12.5876 12.7063 12.6115 12.7253 12.6305 12.7337Z" fill="#646464"/>
<path d="M11.7731 11.542C11.7472 11.5863 11.7514 11.6558 11.6804 11.6615C11.6692 11.6622 11.6432 11.6348 11.6446 11.6235C11.6537 11.5526 11.7212 11.5582 11.7682 11.5371L11.7731 11.542Z" fill="#646464"/>
<path d="M10.4613 11.375C10.481 11.3834 10.5105 11.3876 10.5161 11.4017C10.5217 11.4157 10.502 11.4389 10.4936 11.4586C10.4739 11.4502 10.4437 11.446 10.4381 11.4319C10.4339 11.4179 10.4529 11.394 10.4613 11.375Z" fill="#646464"/>
<path d="M6.91355 6.7832C6.93884 6.82395 6.96413 6.8654 6.98942 6.90614C6.94797 6.89842 6.89107 6.90544 6.86789 6.88085C6.82784 6.8366 6.86859 6.80287 6.91355 6.7832Z" fill="#646464"/>
<path d="M10.771 10.543C10.8461 10.576 10.903 10.6266 10.9325 10.7052C10.8145 10.7151 10.7597 10.661 10.771 10.543Z" fill="#646464"/>
<path d="M11.867 0.982422C11.8867 0.990852 11.9162 0.995067 11.9225 1.00912C11.9282 1.02317 11.9085 1.04635 11.9001 1.06602C11.8804 1.05759 11.8502 1.05338 11.8446 1.03933C11.8396 1.02528 11.8586 1.00139 11.867 0.982422Z" fill="#646464"/>
<path d="M3.94922 9.09961C3.9998 9.10944 4.05951 9.10734 4.0546 9.18391C4.05389 9.19164 4.04055 9.20499 4.03282 9.20569C3.95624 9.21061 3.95835 9.15089 3.94922 9.09961Z" fill="#646464"/>
<path d="M15.7422 1.136C15.7871 1.13038 15.8314 1.12476 15.8764 1.11914C15.8806 1.1353 15.8841 1.15216 15.8862 1.16902C15.8145 1.25964 15.7724 1.22452 15.7422 1.136Z" fill="#DFE9E8"/>
<path d="M1.23919 16.666C1.31646 16.6969 1.35861 16.7482 1.33543 16.8367C1.242 16.8142 1.20476 16.7602 1.23919 16.666Z" fill="#646464"/>
<path d="M14.4922 14.1289C14.5343 14.1654 14.5765 14.202 14.6179 14.2385C14.469 14.3256 14.4985 14.2069 14.4922 14.1289Z" fill="#646464"/>
<path d="M9.61719 2.4083C9.64318 2.33313 9.69938 2.28747 9.76963 2.25586C9.77806 2.36686 9.74153 2.43149 9.61719 2.4083Z" fill="#646464"/>
<path d="M12.5417 1.38332C12.4617 1.41493 12.3809 1.44654 12.3008 1.47886C12.3478 1.36294 12.4455 1.37629 12.5417 1.38332Z" fill="#646464"/>
<path d="M12.7615 1.02052C12.7447 1.00928 12.7278 0.998741 12.7109 0.987501C12.7285 0.978369 12.7468 0.96221 12.7643 0.962913C12.7812 0.963615 12.798 0.981881 12.8149 0.992418C12.7973 1.00085 12.7798 1.01068 12.7615 1.02052Z" fill="#646464"/>
<path d="M10.8454 18.3256C10.8412 18.2933 10.8369 18.2617 10.832 18.2294C10.9016 18.2287 10.9704 18.2273 11.04 18.2266L11.0442 18.2308C11.0006 18.3109 10.9149 18.3017 10.8454 18.3256Z" fill="#646464"/>
<path d="M6.12474 6.54112C6.1135 6.55798 6.10226 6.57414 6.09102 6.5903C6.08188 6.57204 6.06573 6.55377 6.06643 6.53621C6.06713 6.51935 6.0854 6.50319 6.09664 6.48633C6.10577 6.50459 6.1149 6.52216 6.12474 6.54112Z" fill="#646464"/>
<path d="M10.7659 18.5144C10.7645 18.4666 10.7631 18.4189 10.7617 18.3711C10.7877 18.3711 10.8144 18.3711 10.8404 18.3711C10.8355 18.4287 10.8249 18.4842 10.7659 18.5144Z" fill="#646464"/>
<path d="M15.4687 1.03352C15.4455 1.0293 15.4216 1.02509 15.3984 1.02087C15.4315 0.970293 15.4525 0.987856 15.4687 1.03352Z" fill="#646464"/>
<path d="M10.851 2.51172C10.8236 2.54052 10.7969 2.56933 10.7695 2.59813C10.7766 2.55036 10.8025 2.52085 10.851 2.51172Z" fill="#646464"/>
<path d="M10.4766 10.2617C10.5103 10.2933 10.544 10.3256 10.5777 10.3573C10.544 10.3249 10.5103 10.2933 10.4766 10.2617Z" fill="#646464"/>
<path d="M9.54688 2.48423C9.57146 2.45824 9.59675 2.43224 9.62134 2.40625C9.61994 2.45402 9.59465 2.48002 9.54688 2.48423Z" fill="#646464"/>
<path d="M10.3174 3.07227C10.3048 3.12987 10.271 3.1671 10.2148 3.18397C10.2212 3.12144 10.2556 3.08351 10.3174 3.07227Z" fill="#646464"/>
<path d="M8.93803 9.10156C8.93241 9.1114 8.9275 9.12123 8.92188 9.13037C8.92679 9.12053 8.93241 9.1107 8.93803 9.10156Z" fill="#646464"/>
<path d="M4.39062 8.02714C4.40538 8.01028 4.41943 7.99342 4.43418 7.97656C4.49179 8.05524 4.42645 8.02855 4.39062 8.02714Z" fill="#646464"/>
<path d="M18.5656 4.74609C18.7054 5.61651 18.6562 6.46866 18.3731 7.31167C18.1666 7.92567 17.8259 8.45396 17.4423 8.96258C17.3517 8.94572 17.1816 8.98576 17.2716 8.80662C17.3664 8.61765 17.3552 8.42445 17.3643 8.22775C17.3762 7.95728 17.6165 7.83926 17.7879 7.72124C18.1005 7.50627 18.2951 7.07422 18.3197 6.70189C18.3598 6.10124 18.3331 5.5034 18.3471 4.90486C18.3499 4.75452 18.456 4.7489 18.5656 4.74609Z" fill="#F6FAF7"/>
<path d="M17.8662 2.77734C18.1304 3.08223 18.2891 3.4349 18.3489 3.83322C18.2119 3.85008 18.0988 3.78826 18.0924 3.6583C18.0798 3.38291 17.9035 3.19604 17.7707 2.98599C17.6836 2.8476 17.7306 2.79982 17.8662 2.77734Z" fill="#F6FAF7"/>
<path d="M18.2238 4.15977C18.2041 4.15134 18.1739 4.14713 18.169 4.13308C18.1634 4.11903 18.1823 4.09514 18.1908 4.07617C18.2104 4.0846 18.2406 4.08882 18.2456 4.10287C18.2512 4.11621 18.2322 4.1401 18.2238 4.15977Z" fill="#F6FAF7"/>
<path d="M11.323 13.0332C11.7311 13.3606 12.1491 13.676 12.3908 14.1636C12.4364 14.2549 12.3845 14.3167 12.388 14.3919C12.029 15.0199 11.5063 15.504 10.9836 15.9873C10.8122 15.9641 10.742 16.0393 10.768 16.2079C10.7476 16.2283 10.7265 16.2486 10.7061 16.2697C10.3809 16.2831 10.2432 16.4798 10.2102 16.7783C10.1989 16.8598 10.1484 16.9006 10.0711 16.9146C10.0486 16.8753 10.0121 16.8282 9.97343 16.857C9.90458 16.909 9.96429 16.9455 10.0086 16.9771C9.9938 17.0734 9.97764 17.1689 9.85681 17.1879C9.60601 17.1296 9.66081 17.3235 9.63692 17.4535L9.63411 17.4563C9.23017 17.4401 8.93019 17.6544 8.74965 17.9712C8.59439 18.2431 8.50517 18.5037 8.11668 18.3407C8.01692 18.2986 7.9811 18.392 7.95721 18.4756C7.85745 18.8227 7.60666 18.9238 7.27648 18.8796C6.92943 18.8332 6.54024 19.0531 6.47842 19.3376C6.43135 19.339 6.38499 19.3404 6.33792 19.3411C6.33932 19.1289 6.23535 19.0201 6.02319 19.0018C5.83843 18.9856 5.65578 18.9428 5.47102 18.9365C5.28836 18.9294 5.13943 18.9077 5.14364 18.6772C5.14645 18.529 5.04951 18.5086 4.93359 18.5114C4.95186 18.3506 5.046 18.2698 5.19985 18.2304C5.47804 18.1602 5.71619 17.8089 5.72392 17.53C5.72954 17.327 5.80471 17.1169 6.0253 17.0671C6.21779 17.0235 6.33862 16.9427 6.40957 16.7629C6.45173 16.6554 6.54094 16.576 6.65686 16.6491C6.83038 16.7587 6.74959 16.9708 6.81282 17.1296C6.85145 17.2265 6.74959 17.2841 6.65264 17.32C6.12857 17.5153 6.22692 17.6593 6.51706 18.0197C6.59715 18.1194 6.69409 18.2065 6.79034 18.2916C6.89642 18.3864 7.00601 18.4145 7.04605 18.2346C7.09874 17.9958 7.23924 17.889 7.4788 17.8546C7.57856 17.8398 7.73943 17.6916 7.61158 17.6087C7.35867 17.4443 7.40995 17.2188 7.38256 16.9947C7.33408 16.6076 7.37553 16.5577 7.76753 16.5437C7.95019 16.5367 8.18272 16.6322 8.30496 16.4791C8.47707 16.2641 8.62741 16.132 8.91895 16.2339C9.02714 16.2718 9.07421 16.1538 9.0714 16.0512C9.06859 15.929 8.99974 15.9262 8.9049 15.9669C8.7925 16.0154 8.66394 16.1236 8.56348 15.9711C8.46864 15.8271 8.50166 15.6508 8.53397 15.4941C8.56208 15.36 8.6801 15.3227 8.7651 15.4365C8.91263 15.6353 9.1276 15.6122 9.32711 15.6606C9.63341 15.7344 9.658 15.5054 9.69734 15.322C9.7437 15.1064 9.64605 14.9321 9.41071 14.9406C9.17256 14.949 9.00185 14.864 8.81568 14.7291C8.66605 14.6216 8.54451 14.5219 8.5958 14.342C8.64848 14.1587 8.62109 13.9437 8.89436 13.8425C9.11847 13.7596 9.41984 13.8376 9.55262 13.6767C9.8266 13.3452 10.2874 13.2693 10.5186 12.8991C10.5621 12.8295 10.6345 12.7305 10.7469 12.7979C10.8593 12.8653 10.7701 12.9623 10.7736 13.048C10.7855 13.3156 10.6703 13.6121 10.9078 13.8812C10.99 13.7266 10.9703 13.544 11.1087 13.5145C11.4227 13.4456 11.3862 13.2524 11.323 13.0332ZM7.94035 17.9881C7.93614 17.9396 7.92068 17.8981 7.86518 17.8932C7.81882 17.8897 7.76402 17.8995 7.77456 17.9593C7.78088 17.9958 7.81741 18.0401 7.85183 18.0548C7.8975 18.0745 7.93614 18.0457 7.94035 17.9881Z" fill="#646464"/>
<path d="M6.48047 19.3373C6.54229 19.0528 6.93148 18.8329 7.27853 18.8793C7.60871 18.9236 7.8595 18.8224 7.95926 18.4754C7.98314 18.3918 8.01968 18.2983 8.11873 18.3405C8.50722 18.5035 8.59644 18.2428 8.75169 17.9709C8.93224 17.6534 9.23151 17.4391 9.63616 17.456C8.80649 18.4557 7.82648 19.2032 6.48047 19.3373Z" fill="#646464"/>
<path d="M11.0416 18.2291C10.9721 18.2298 10.9032 18.2312 10.8337 18.2319C10.7248 17.8729 10.8554 17.6987 11.2545 17.6699C11.2327 17.8744 10.97 17.9882 11.0416 18.2291Z" fill="#646464"/>
<path d="M10.2109 16.7782C10.244 16.4803 10.3816 16.2829 10.7069 16.2695C10.6036 16.5 10.4336 16.665 10.2109 16.7782Z" fill="#646464"/>
<path d="M9.63672 17.4539C9.6599 17.324 9.60511 17.1301 9.85661 17.1884C9.83342 17.3191 9.74701 17.3963 9.63672 17.4539Z" fill="#646464"/>
<path d="M10.767 16.2093C10.741 16.0407 10.8112 15.9648 10.9826 15.9887C10.9602 16.1102 10.8864 16.1819 10.767 16.2093Z" fill="#646464"/>
<path d="M10.0079 16.9767C9.96361 16.9451 9.90389 16.9085 9.97274 16.8565C10.0114 16.8277 10.0486 16.8748 10.0704 16.9142C10.0493 16.9352 10.0282 16.9556 10.0079 16.9767Z" fill="#646464"/>
<path d="M4.44467 10.0847C4.42008 9.93228 4.47628 9.81004 4.59641 9.72223C4.73973 9.61755 4.80717 9.39907 4.91395 9.34076C5.28909 9.13563 5.542 8.80966 5.84899 8.5392C5.91784 8.64176 5.98107 8.74854 6.05694 8.84549C6.11384 8.91785 6.19814 8.99723 6.28245 8.90099C6.39134 8.77594 6.57961 8.72536 6.62176 8.5392C6.77561 8.5132 6.90276 8.61717 6.92805 8.72115C6.9962 9.00637 7.26807 9.04711 7.43035 9.21291C7.6966 9.48408 8.00712 9.72223 8.16659 10.084C7.9734 10.2294 7.93897 10.4557 7.89612 10.6657C7.87223 10.7837 7.97972 10.8491 8.09985 10.8561C8.24105 10.8645 8.33168 10.9643 8.3373 11.0767C8.35416 11.3956 8.54103 11.475 8.81571 11.4954C9.05597 11.5129 9.10444 11.7293 9.12622 11.9056C9.15151 12.108 8.93443 12.1066 8.82414 12.1066C8.43987 12.1066 8.38858 12.2808 8.49817 12.5997C8.54313 12.7311 8.54946 12.9362 8.36891 12.9404C7.97902 12.9489 8.02679 13.199 8.02327 13.447C8.01976 13.6675 8.0317 13.931 7.78442 14.0188C7.48093 14.1263 7.46899 14.3335 7.45845 14.5949C7.43527 15.166 7.61371 15.7709 7.18799 16.2865C7.12054 16.368 7.09525 16.4685 6.97021 16.4692C6.84305 16.4692 6.79598 16.3891 6.75313 16.2802C6.71028 16.1706 6.72573 15.9774 6.55362 15.9936C6.29088 16.0182 6.2143 15.8538 6.1293 15.669C6.08293 15.5678 5.95437 15.4779 6.04148 15.3585C6.1307 15.2363 6.2712 15.2728 6.39695 15.3107C6.65197 15.388 6.7447 15.2489 6.75805 15.029C6.76578 14.9061 6.80652 14.7389 6.65688 14.6862C6.45316 14.6145 6.18901 14.467 6.02603 14.6237C5.82722 14.8147 5.62138 14.755 5.41344 14.8035C5.10082 14.8766 4.90763 14.8766 4.9273 14.4789C4.93502 14.3293 4.79312 14.3089 4.68142 14.2738C4.62311 14.2555 4.5374 14.2394 4.53529 14.3061C4.52405 14.7087 4.22268 14.5436 4.02386 14.5787C4.07866 14.3658 3.82786 14.2289 3.88266 14.016C3.91778 13.8699 4.01614 13.7743 4.15383 13.7399C4.35896 13.6886 4.33859 13.5165 4.28309 13.416C4.18474 13.2369 4.08709 13.0142 3.81311 13.0346C3.97399 12.7838 3.89671 12.4979 3.92973 12.2281C3.93605 12.174 3.93675 12.0799 3.91006 12.0672C3.57285 11.9063 3.59955 11.4778 3.32135 11.2783C3.31503 11.1582 3.3347 11.0507 3.46185 10.9966C3.51454 11.0394 3.57004 11.0795 3.62062 11.1251C3.72319 11.2172 3.82224 11.3373 3.97609 11.2432C4.05548 11.1947 4.11449 11.0921 4.07655 11.0057C4.01684 10.8708 4.09341 10.6221 3.81381 10.646C3.88968 10.2934 4.06602 10.1613 4.37582 10.2245C4.40392 10.2653 4.44607 10.2934 4.48261 10.2519C4.5367 10.1894 4.50579 10.1304 4.44467 10.0847ZM4.74394 10.2885C4.70319 10.2351 4.68563 10.2112 4.66807 10.1873C4.64559 10.2049 4.60906 10.2182 4.60274 10.24C4.59009 10.2828 4.59922 10.332 4.65964 10.3292C4.68704 10.3278 4.71373 10.3039 4.74394 10.2885Z" fill="#646464"/>
<path d="M4.01922 14.5787C4.21803 14.5435 4.51941 14.7093 4.53065 14.3061C4.53276 14.2401 4.61846 14.2555 4.67677 14.2738C4.78847 14.3089 4.92968 14.3293 4.92265 14.4789C4.90298 14.8765 5.09617 14.8758 5.40879 14.8035C5.61744 14.755 5.82257 14.8147 6.02138 14.6236C6.18437 14.467 6.44851 14.6145 6.65224 14.6862C6.80188 14.7388 6.76113 14.906 6.7534 15.029C6.74005 15.2496 6.64732 15.388 6.39231 15.3107C6.26656 15.2727 6.12606 15.2355 6.03684 15.3585C5.94973 15.4779 6.07829 15.5678 6.12465 15.669C6.20966 15.8537 6.28623 16.0181 6.54897 15.9935C6.72109 15.9774 6.70563 16.1706 6.74848 16.2802C6.79134 16.389 6.83841 16.4691 6.96556 16.4691C7.09061 16.4691 7.1166 16.368 7.18334 16.2865C7.60977 15.7715 7.43063 15.1667 7.45381 14.5948C7.46435 14.3335 7.47629 14.1262 7.77977 14.0188C8.02706 13.9309 8.01582 13.6675 8.01863 13.4469C8.02214 13.1982 7.97437 12.9488 8.36427 12.9404C8.54481 12.9362 8.53849 12.7311 8.49353 12.5997C8.38394 12.28 8.43522 12.1065 8.8195 12.1065C8.92979 12.1065 9.14687 12.1079 9.12158 11.9056C9.09909 11.7286 9.05062 11.5122 8.81107 11.4953C8.53638 11.4757 8.34951 11.3956 8.33265 11.0766C8.32633 10.9642 8.23641 10.8645 8.0952 10.856C7.97507 10.849 7.86759 10.7837 7.89148 10.6657C7.93433 10.4556 7.96945 10.2294 8.16194 10.084C8.11628 10.2744 8.3172 10.3179 8.38113 10.4444C8.42749 10.5364 8.44646 10.7134 8.58766 10.6713C8.71833 10.6326 8.63122 10.4704 8.6537 10.3657C8.8778 10.4205 8.87429 10.672 9.02322 10.8125C9.31617 11.0893 9.63371 11.3415 9.91752 11.6288C9.68218 11.6984 9.83252 11.8009 9.91331 11.8557C10.0932 11.9794 10.0875 12.1016 9.96389 12.2604C9.90066 12.3412 9.86835 12.4458 9.81004 12.5315C9.74962 12.6208 9.66181 12.7198 9.80512 12.7859C9.91471 12.8364 10.0594 12.9615 10.1732 12.7901C10.3643 12.5027 10.6081 12.4669 10.901 12.6116C10.9242 12.6348 10.9481 12.658 10.9713 12.6819C11.1055 12.6882 11.175 12.7585 11.1813 12.8926C11.1294 12.8793 11.0781 12.8652 11.0254 12.8554C11.0219 12.8547 11.0015 12.8954 11.0071 12.9074C11.0444 12.9854 11.1202 12.9538 11.1813 12.9629C11.2277 12.9861 11.2748 13.01 11.3211 13.0331C11.3844 13.2523 11.4216 13.4455 11.1076 13.5115C10.9692 13.5411 10.9889 13.7237 10.9067 13.8783C10.6685 13.6099 10.7837 13.3134 10.7725 13.0451C10.769 12.9594 10.8575 12.8624 10.7458 12.795C10.6327 12.7275 10.5603 12.8266 10.5175 12.8961C10.2856 13.2657 9.82479 13.3422 9.55151 13.6738C9.41874 13.8347 9.11736 13.7567 8.89326 13.8396C8.61928 13.9408 8.64668 14.1558 8.59469 14.3391C8.54341 14.519 8.66494 14.6187 8.81458 14.7262C9.00145 14.8611 9.17145 14.9461 9.40961 14.9377C9.64495 14.9299 9.7426 15.1041 9.69623 15.3191C9.65689 15.5025 9.6323 15.7315 9.32601 15.6577C9.12579 15.6093 8.91152 15.6324 8.764 15.4336C8.67899 15.3198 8.56097 15.3571 8.53287 15.4912C8.49985 15.6479 8.46754 15.8242 8.56238 15.9682C8.66283 16.1207 8.79139 16.0125 8.9038 15.964C8.99793 15.9233 9.06748 15.9261 9.07029 16.0483C9.0724 16.1509 9.02533 16.2689 8.91785 16.231C8.6263 16.1291 8.47597 16.2612 8.30385 16.4762C8.18161 16.6286 7.94908 16.5338 7.76643 16.5408C7.37513 16.5548 7.33298 16.6054 7.38145 16.9918C7.40955 17.2159 7.35756 17.4414 7.61047 17.6058C7.73833 17.6887 7.57745 17.8369 7.47769 17.8517C7.23814 17.8868 7.09763 17.9936 7.04495 18.2317C7.0056 18.4116 6.89601 18.3835 6.78923 18.2886C6.69369 18.2029 6.59604 18.1165 6.51595 18.0168C6.22581 17.6564 6.12746 17.5124 6.65154 17.3171C6.74849 17.2812 6.85035 17.2236 6.81171 17.1267C6.74848 16.9679 6.82857 16.7558 6.65575 16.6462C6.54054 16.5731 6.45062 16.6525 6.40847 16.76C6.33751 16.9398 6.21668 17.0206 6.02419 17.0642C5.8036 17.114 5.72844 17.3241 5.72282 17.5271C5.71509 17.8067 5.47693 18.1573 5.19874 18.2275C5.04489 18.2669 4.95075 18.3477 4.93249 18.5085C4.86153 18.5999 4.79198 18.6919 4.71963 18.7825C4.57421 18.9659 4.50606 18.7481 4.40701 18.7151C4.24473 18.661 4.35291 18.5795 4.4056 18.5092C4.66623 18.1629 4.65499 17.8587 4.37118 17.5271C4.34097 17.492 4.28828 17.4541 4.28898 17.4182C4.30093 16.9714 4.09369 17.1513 3.85062 17.2278C3.32373 17.3929 3.31671 17.3712 3.316 17.9472C3.1755 17.9472 3.035 17.9472 2.89449 17.9472C2.87131 17.924 2.84743 17.9001 2.82424 17.877C2.82143 17.7161 3.06099 17.7006 3.035 17.5257C3.04413 17.4189 2.99917 17.3339 2.94367 17.2433C2.87412 17.1295 2.84251 17.003 3.0357 16.9637C3.36448 17.0452 3.53378 16.9616 3.58226 16.6757C3.60544 16.5408 3.59209 16.3996 3.5956 16.2619C3.80566 16.186 3.99323 16.1699 3.90049 15.8088C3.80144 15.4175 3.84289 14.9763 4.01922 14.5787ZM5.63922 15.1435C5.50152 15.0479 5.4116 15.0536 5.28445 15.1428C5.40739 15.2243 5.49661 15.2257 5.63922 15.1435ZM4.5166 14.8028C4.4892 14.8372 4.45899 14.8583 4.45689 14.8822C4.45478 14.9095 4.47094 14.9573 4.4899 14.9636C4.54189 14.9805 4.56999 14.9405 4.56788 14.8934C4.56648 14.8674 4.54048 14.8428 4.5166 14.8028Z" fill="#646464"/>
<path d="M2.89514 14.8596C2.90427 14.8428 2.90849 14.8245 2.90568 14.8056C3.00403 14.7269 3.09606 14.6046 3.24007 14.6882C3.36442 14.7606 3.31735 14.8983 3.31665 15.0093C3.31313 15.4989 3.28293 15.9851 3.43116 16.4684C3.52529 16.7754 3.37074 16.873 3.04196 16.7522L3.04337 16.7543C2.84245 16.134 2.89022 15.4947 2.89514 14.8596Z" fill="#DFE9E8"/>
<path d="M3.03993 16.9653C2.84674 17.0047 2.87836 17.1311 2.9479 17.2449C3.0034 17.3349 3.04766 17.4199 3.03923 17.5273C2.6107 17.4536 2.60578 17.4206 2.66971 17.0068C2.70765 16.7644 2.56293 16.5375 2.47511 16.3155C2.39643 16.1167 2.42172 15.9931 2.61913 15.9102C2.78703 15.9333 2.73856 16.0675 2.76174 16.1729C2.80951 16.3865 2.86571 16.6007 3.04485 16.7518L3.04345 16.7497C3.04204 16.822 3.04064 16.8937 3.03993 16.9653Z" fill="#646464"/>
<path d="M3.03945 16.9669C3.04085 16.8953 3.04226 16.8236 3.04366 16.7512C3.37244 16.8721 3.52699 16.7744 3.43285 16.4674C3.28462 15.9841 3.31483 15.498 3.31834 15.0083C3.31905 14.8973 3.36612 14.7596 3.24177 14.6873C3.09776 14.6037 3.00573 14.7259 2.90737 14.8046C2.8863 14.44 3.1666 14.6261 3.31975 14.5791C3.37665 14.5819 3.42934 14.5931 3.46025 14.6493C3.46868 15.191 3.39984 15.7389 3.60005 16.2644C3.59654 16.4028 3.60919 16.5433 3.5867 16.6782C3.53753 16.9648 3.36752 17.0484 3.03945 16.9669Z" fill="#646464"/>
<path d="M3.80957 13.0345C4.08425 13.0141 4.1812 13.2368 4.27955 13.416C4.33435 13.5157 4.35542 13.6878 4.15029 13.7398C4.0133 13.7743 3.91424 13.8698 3.87912 14.0159C3.68593 14.0391 3.44918 14.4276 3.31641 13.9485C3.32835 13.9365 3.33959 13.9246 3.35153 13.9134C3.68944 14.0426 3.82643 13.7609 3.99784 13.5783C4.06458 13.5073 4.04281 13.3773 3.95007 13.2965C3.86156 13.2207 3.78288 13.2544 3.70279 13.3183C3.63183 13.3752 3.55245 13.4216 3.47658 13.4729L3.4534 13.4497C3.4548 13.2108 3.54683 13.0493 3.80957 13.0345Z" fill="#646464"/>
<path d="M3.04353 16.7514C2.86369 16.6003 2.80819 16.3861 2.76042 16.1725C2.73653 16.0671 2.78571 15.933 2.61781 15.9098C2.61781 15.6477 2.62905 15.385 2.6143 15.1244C2.60235 14.908 2.69579 14.8349 2.8953 14.8574C2.89038 15.4932 2.84261 16.1325 3.04353 16.7514Z" fill="#646464"/>
<path d="M3.46082 14.6487C3.43061 14.5925 3.37722 14.5812 3.32031 14.5784C3.32945 14.4583 3.28519 14.315 3.48611 14.2967C3.64768 14.282 3.74955 14.3599 3.83947 14.4716C3.88724 14.5314 3.90059 14.6157 3.8472 14.6634C3.72145 14.7758 3.58797 14.707 3.46082 14.6487Z" fill="#646464"/>
<path d="M3.31748 13.9493C3.09619 13.7455 3.11586 13.6711 3.45447 13.4512C3.45447 13.4512 3.47765 13.4744 3.47765 13.4737C3.44042 13.6212 3.26268 13.7294 3.35261 13.9134C3.34137 13.9254 3.32942 13.9373 3.31748 13.9493Z" fill="#646464"/>
<path d="M4.3614 18.0432C4.35508 18.1908 4.29606 18.2905 4.13097 18.2835C3.96307 18.2765 3.54297 17.8521 3.54297 17.6913C3.54297 17.5416 3.65186 17.4882 3.76918 17.4735C3.9441 17.4517 4.35999 17.862 4.3614 18.0432Z" fill="#DFE9E8"/>
<path d="M2.89844 17.9492C3.03894 17.9492 3.17944 17.9492 3.31995 17.9492C3.27569 18.1164 3.11762 18.1923 2.99328 18.2028C2.85558 18.2148 2.9153 18.0434 2.89844 17.9492Z" fill="#646464"/>
<path d="M10.9038 12.6137C10.6108 12.469 10.367 12.5048 10.176 12.7921C10.0622 12.9635 9.91744 12.8385 9.80785 12.7879C9.66453 12.7219 9.75305 12.6228 9.81277 12.5336C9.87107 12.4479 9.90339 12.3432 9.96662 12.2624C10.0903 12.1044 10.0959 11.9814 9.91604 11.8578C9.83525 11.8023 9.68561 11.7004 9.92025 11.6309C10.2982 11.9084 10.6368 12.2252 10.9038 12.6137Z" fill="#646464"/>
<path d="M3.81048 10.6461C4.09008 10.6223 4.01421 10.8702 4.07322 11.0058C4.11116 11.0922 4.05215 11.1955 3.97276 11.2433C3.81821 11.3374 3.71986 11.2173 3.61729 11.1253C3.56671 11.0796 3.51191 11.0395 3.45852 10.9967C3.43464 10.7375 3.7044 10.774 3.81048 10.6461Z" fill="#646464"/>
<path d="M6.62042 8.53883C6.57827 8.72429 6.39 8.77557 6.28111 8.90062C6.19681 8.99687 6.1125 8.91818 6.0556 8.84512C5.97973 8.74818 5.9165 8.6414 5.84766 8.53883C5.96989 8.29295 6.1673 8.38779 6.3359 8.45031C6.43004 8.48544 6.51294 8.54796 6.62042 8.53883Z" fill="#646464"/>
<path d="M8.65452 10.3659C8.63204 10.4713 8.71916 10.6329 8.58849 10.6715C8.44728 10.7137 8.42831 10.5374 8.38195 10.4446C8.31802 10.3175 8.1178 10.2746 8.16276 10.0842C8.43042 9.99853 8.5077 10.243 8.65452 10.3659Z" fill="#646464"/>
<path d="M4.44135 10.084C4.50317 10.1296 4.53337 10.1887 4.47788 10.2519C4.44135 10.2933 4.39919 10.2645 4.37109 10.2245C4.3725 10.1669 4.38444 10.1142 4.44135 10.084Z" fill="#646464"/>
<path d="M11.183 12.963C11.1212 12.9538 11.046 12.9854 11.0088 12.9075C11.0032 12.8948 11.0235 12.8548 11.0271 12.8555C11.0797 12.8653 11.131 12.8794 11.183 12.8927C11.183 12.9166 11.183 12.9398 11.183 12.963Z" fill="#646464"/>
<path d="M10.9726 12.6835C10.9494 12.6603 10.9255 12.6372 10.9023 12.6133C10.9262 12.6365 10.9494 12.6596 10.9726 12.6835Z" fill="#646464"/>
<path d="M7.94055 17.988C7.93633 18.0449 7.89769 18.0738 7.85203 18.0548C7.81761 18.04 7.78108 17.9958 7.77475 17.9592C7.76422 17.8995 7.81901 17.8897 7.86538 17.8932C7.92088 17.8981 7.93703 17.9403 7.94055 17.988Z" fill="#646464"/>
<path d="M4.7406 10.2867C4.71039 10.3022 4.68369 10.3268 4.65559 10.3275C4.59518 10.3303 4.58604 10.2811 4.59869 10.2382C4.60571 10.2158 4.64154 10.2031 4.66402 10.1855C4.68229 10.2094 4.69985 10.2326 4.7406 10.2867Z" fill="#646464"/>
<path d="M5.63993 15.1436C5.49732 15.2251 5.4081 15.2244 5.28516 15.1429C5.41231 15.0544 5.50223 15.0481 5.63993 15.1436Z" fill="#646464"/>
<path d="M4.52084 14.8027C4.54472 14.8428 4.57072 14.8667 4.57212 14.8927C4.57493 14.9404 4.54683 14.9798 4.49414 14.9629C4.47517 14.9566 4.45902 14.9088 4.46112 14.8814C4.46323 14.8589 4.49274 14.8379 4.52084 14.8027Z" fill="#646464"/>
<path d="M3.3535 13.9119C3.26287 13.7278 3.44131 13.6196 3.47854 13.4721C3.55441 13.4208 3.6338 13.3745 3.70475 13.3176C3.78554 13.2536 3.86352 13.2192 3.95204 13.2958C4.04547 13.3759 4.06655 13.5065 3.99981 13.5775C3.82839 13.7594 3.6914 14.0404 3.3535 13.9119Z" fill="#DFE9E8"/>
</svg>
