<svg width="22" height="22" viewBox="0 0 22 22" fill="none" xmlns="http://www.w3.org/2000/svg">
<path d="M2.52115 17.0956C2.14532 17.0956 1.83366 16.7839 1.83366 16.4081V11.1831C1.78782 8.69891 2.71366 6.35224 4.43699 4.59224C6.16032 2.84141 8.47032 1.87891 10.9545 1.87891C16.0328 1.87891 20.167 6.01307 20.167 11.0914V16.3164C20.167 16.6922 19.8553 17.0039 19.4795 17.0039C19.1037 17.0039 18.792 16.6922 18.792 16.3164V11.0914C18.792 6.77391 15.2812 3.25391 10.9545 3.25391C8.83699 3.25391 6.87532 4.06974 5.41782 5.55474C3.95115 7.04891 3.17199 9.03807 3.20865 11.1647V16.3989C3.20865 16.7839 2.90615 17.0956 2.52115 17.0956Z" fill="#747474"/>
<path d="M5.44565 11.4121H5.32648C3.40148 11.4121 1.83398 12.9796 1.83398 14.9046V16.6279C1.83398 18.5529 3.40148 20.1204 5.32648 20.1204H5.44565C7.37065 20.1204 8.93815 18.5529 8.93815 16.6279V14.9046C8.93815 12.9796 7.37065 11.4121 5.44565 11.4121Z" fill="#747474"/>
<path d="M16.6742 11.4121H16.555C14.63 11.4121 13.0625 12.9796 13.0625 14.9046V16.6279C13.0625 18.5529 14.63 20.1204 16.555 20.1204H16.6742C18.5992 20.1204 20.1667 18.5529 20.1667 16.6279V14.9046C20.1667 12.9796 18.5992 11.4121 16.6742 11.4121Z" fill="#747474"/>
</svg>
