<svg width="22" height="22" viewBox="0 0 22 22" fill="none" xmlns="http://www.w3.org/2000/svg">
<path d="M9.57705 10.9988C9.57705 10.2147 10.2163 9.57541 11.0005 9.57541C11.7847 9.57541 12.424 10.2104 12.424 10.9988C12.424 11.783 11.7847 12.4223 11.0005 12.4223C10.2163 12.4223 9.57705 11.7873 9.57705 10.9988ZM13.412 8.88938L16.8258 6.91613C17.4992 6.52826 17.627 5.60769 17.0815 5.0494C16.0117 3.95408 14.6479 3.14857 13.1136 2.7565C12.355 2.5647 11.6177 3.12731 11.6177 3.91145V7.85802C11.622 8.77433 12.615 9.34967 13.412 8.88938ZM10.3784 7.85802V3.91571C10.3784 3.13578 9.64106 2.56902 8.88245 2.76076C7.35237 3.15289 5.98856 3.95835 4.91456 5.05367C4.36906 5.60775 4.49691 6.52832 5.17031 6.92039L8.58406 8.89365C9.38531 9.34967 10.3784 8.77433 10.3784 7.85802ZM14.0341 12.0346L17.4522 14.0078C18.1255 14.3957 18.9865 14.0462 19.1953 13.3004C19.4049 12.5527 19.511 11.7798 19.5106 11.0032C19.5106 10.2062 19.3998 9.43909 19.1953 8.70605C18.9865 7.95591 18.1255 7.61074 17.4522 7.99854L14.0341 9.9718C13.2371 10.4278 13.2371 11.5743 14.0341 12.0346ZM8.59185 13.1085L5.17804 15.0818C4.5047 15.4696 4.37685 16.3902 4.92235 16.9485C5.99208 18.0438 7.35589 18.8493 8.89018 19.2414C9.64879 19.4332 10.3861 18.8706 10.3861 18.0864V14.1399C10.3776 13.2236 9.38457 12.6525 8.59185 13.1085ZM7.97 9.96759L4.55194 7.99428C3.87853 7.60647 3.01765 7.95596 2.80879 8.70179C2.59915 9.4495 2.49304 10.2224 2.49341 10.999C2.49341 11.7959 2.60426 12.5631 2.80879 13.2961C3.01765 14.0462 3.87853 14.3914 4.55194 14.0036L7.97 12.0303C8.76267 11.5743 8.76267 10.4279 7.97 9.96759ZM11.6233 14.1442V18.0907C11.6233 18.8707 12.3606 19.4375 13.1192 19.2457C14.6492 18.8536 16.013 18.0481 17.087 16.9528C17.6326 16.3988 17.5047 15.4782 16.8314 15.0861L13.4175 13.1128C12.6163 12.6525 11.6233 13.2236 11.6233 14.1442Z" fill="#573CFF"/>
<path fill-rule="evenodd" clip-rule="evenodd" d="M11 22C4.92677 22 0 17.0775 0 11C0 4.92677 4.92677 0 11 0C17.0775 0 22.0043 4.92677 22 11C22 17.0732 17.0775 22 11 22ZM20.7559 10.9999C20.7559 5.62138 16.379 1.24863 11.0004 1.24863C5.62189 1.24863 1.24915 5.62138 1.24915 10.9999C1.24915 16.3784 5.62189 20.7554 11.0004 20.7554C16.379 20.7554 20.7559 16.3784 20.7559 10.9999Z" fill="#573CFF"/>
</svg>
