<svg width="22" height="22" viewBox="0 0 22 22" fill="none" xmlns="http://www.w3.org/2000/svg">
<path d="M7.01243 19.1657C6.98493 19.1657 6.94827 19.1841 6.92076 19.1841C5.14243 18.3041 3.6941 16.8466 2.80493 15.0682C2.80493 15.0407 2.82326 15.0041 2.82326 14.9766C3.9416 15.3066 5.0966 15.5541 6.24243 15.7466C6.4441 16.9016 6.68243 18.0474 7.01243 19.1657Z" fill="#573CFF"/>
<path d="M19.1951 15.0774C18.2876 16.9016 16.7751 18.3774 14.9326 19.2666C15.281 18.1024 15.5743 16.9291 15.7668 15.7466C16.9218 15.5541 18.0584 15.3066 19.1768 14.9766C19.1676 15.0132 19.1951 15.0499 19.1951 15.0774Z" fill="#573CFF"/>
<path d="M19.2685 7.07021C18.1135 6.72188 16.9493 6.43771 15.7668 6.23604C15.5743 5.05354 15.2901 3.88021 14.9326 2.73438C16.8301 3.64188 18.361 5.17271 19.2685 7.07021Z" fill="#573CFF"/>
<path d="M7.01252 2.83219C6.68252 3.95052 6.44419 5.08719 6.25169 6.24219C5.06919 6.42552 3.89586 6.71885 2.73169 7.06719C3.62086 5.22469 5.09669 3.71219 6.92086 2.80469C6.94836 2.80469 6.98502 2.83219 7.01252 2.83219Z" fill="#573CFF"/>
<path d="M14.1991 6.04344C12.0724 5.8051 9.92745 5.8051 7.80078 6.04344C8.02995 4.7876 8.32328 3.53177 8.73578 2.32177C8.75411 2.24844 8.74495 2.19344 8.75411 2.1201C9.47828 1.94594 10.2208 1.83594 10.9999 1.83594C11.7699 1.83594 12.5216 1.94594 13.2366 2.1201C13.2458 2.19344 13.2458 2.24844 13.2641 2.32177C13.6766 3.54094 13.9699 4.7876 14.1991 6.04344Z" fill="#573CFF"/>
<path d="M6.04075 14.203C4.77575 13.9739 3.52909 13.6805 2.31909 13.268C2.24575 13.2497 2.19075 13.2589 2.11742 13.2497C1.94325 12.5255 1.83325 11.783 1.83325 11.0039C1.83325 10.2339 1.94325 9.48219 2.11742 8.76719C2.19075 8.75802 2.24575 8.75802 2.31909 8.73969C3.53825 8.33635 4.77575 8.03385 6.04075 7.80469C5.81159 9.93135 5.81159 12.0764 6.04075 14.203Z" fill="#573CFF"/>
<path d="M20.1667 11.0039C20.1667 11.783 20.0567 12.5255 19.8826 13.2497C19.8092 13.2589 19.7542 13.2497 19.6809 13.268C18.4617 13.6714 17.2151 13.9739 15.9592 14.203C16.1976 12.0764 16.1976 9.93135 15.9592 7.80469C17.2151 8.03385 18.4709 8.32719 19.6809 8.73969C19.7542 8.75802 19.8092 8.76719 19.8826 8.76719C20.0567 9.49135 20.1667 10.2339 20.1667 11.0039Z" fill="#573CFF"/>
<path d="M14.1991 15.9609C13.9699 17.2259 13.6766 18.4726 13.2641 19.6826C13.2458 19.7559 13.2458 19.8109 13.2366 19.8843C12.5216 20.0584 11.7699 20.1684 10.9999 20.1684C10.2208 20.1684 9.47828 20.0584 8.75411 19.8843C8.74495 19.8109 8.75411 19.7559 8.73578 19.6826C8.33245 18.4634 8.02995 17.2259 7.80078 15.9609C8.86411 16.0801 9.92745 16.1626 10.9999 16.1626C12.0724 16.1626 13.1449 16.0801 14.1991 15.9609Z" fill="#573CFF"/>
<path d="M14.4496 14.4523C12.157 14.7416 9.84287 14.7416 7.5502 14.4523C7.26094 12.1597 7.26094 9.84556 7.5502 7.55288C9.84287 7.26362 12.157 7.26362 14.4496 7.55288C14.7389 9.84556 14.7389 12.1597 14.4496 14.4523Z" fill="#573CFF"/>
</svg>
