<svg width="22" height="22" viewBox="0 0 22 22" fill="none" xmlns="http://www.w3.org/2000/svg">
<path d="M14.6668 11.8276V15.6776C14.6668 18.8859 13.3835 20.1693 10.1752 20.1693H6.32516C3.11683 20.1693 1.8335 18.8859 1.8335 15.6776V11.8276C1.8335 8.61927 3.11683 7.33594 6.32516 7.33594H10.1752C13.3835 7.33594 14.6668 8.61927 14.6668 11.8276Z" fill="#573CFF"/>
<path d="M15.6748 1.83594H11.8248C9.0313 1.83594 7.70403 2.8158 7.40705 5.17985C7.33763 5.73242 7.79728 6.1901 8.35419 6.1901H10.1748C14.0248 6.1901 15.8123 7.9776 15.8123 11.8276V13.6482C15.8123 14.2051 16.27 14.6648 16.8225 14.5953C19.1866 14.2984 20.1665 12.9711 20.1665 10.1776V6.3276C20.1665 3.11927 18.8831 1.83594 15.6748 1.83594Z" fill="#573CFF"/>
</svg>
