<svg width="22" height="22" viewBox="0 0 22 22" fill="none" xmlns="http://www.w3.org/2000/svg">
<path d="M20.1667 9.99232V3.75898C20.1667 2.38398 19.58 1.83398 18.1225 1.83398H14.4192C12.9617 1.83398 12.375 2.38398 12.375 3.75898V9.99232C12.375 11.3673 12.9617 11.9173 14.4192 11.9173H18.1225C19.58 11.9173 20.1667 11.3673 20.1667 9.99232Z" stroke="#573CFF" stroke-width="1.5" stroke-linecap="round" stroke-linejoin="round"/>
<path d="M20.1667 18.241V16.591C20.1667 15.216 19.58 14.666 18.1225 14.666H14.4192C12.9617 14.666 12.375 15.216 12.375 16.591V18.241C12.375 19.616 12.9617 20.166 14.4192 20.166H18.1225C19.58 20.166 20.1667 19.616 20.1667 18.241Z" stroke="#573CFF" stroke-width="1.5" stroke-linecap="round" stroke-linejoin="round"/>
<path d="M9.62565 12.009V18.2423C9.62565 19.6173 9.03898 20.1673 7.58148 20.1673H3.87815C2.42065 20.1673 1.83398 19.6173 1.83398 18.2423V12.009C1.83398 10.634 2.42065 10.084 3.87815 10.084H7.58148C9.03898 10.084 9.62565 10.634 9.62565 12.009Z" stroke="#573CFF" stroke-width="1.5" stroke-linecap="round" stroke-linejoin="round"/>
<path d="M9.62565 3.75898V5.40898C9.62565 6.78398 9.03898 7.33398 7.58148 7.33398H3.87815C2.42065 7.33398 1.83398 6.78398 1.83398 5.40898V3.75898C1.83398 2.38398 2.42065 1.83398 3.87815 1.83398H7.58148C9.03898 1.83398 9.62565 2.38398 9.62565 3.75898Z" stroke="#573CFF" stroke-width="1.5" stroke-linecap="round" stroke-linejoin="round"/>
</svg>
