<svg width="22" height="22" viewBox="0 0 22 22" fill="none" xmlns="http://www.w3.org/2000/svg">
<path d="M9.1665 3.4375H10.3123V7.79167C10.3123 8.1675 10.624 8.47917 10.9998 8.47917C11.3757 8.47917 11.6873 8.1675 11.6873 7.79167V3.4375H12.8332C13.209 3.4375 13.5207 3.12583 13.5207 2.75C13.5207 2.37417 13.209 2.0625 12.8332 2.0625H9.1665C8.79067 2.0625 8.479 2.37417 8.479 2.75C8.479 3.12583 8.79067 3.4375 9.1665 3.4375Z" fill="#573CFF"/>
<path d="M12.8332 18.5651H11.6873V14.2109C11.6873 13.8351 11.3757 13.5234 10.9998 13.5234C10.624 13.5234 10.3123 13.8351 10.3123 14.2109V18.5651H9.1665C8.79067 18.5651 8.479 18.8768 8.479 19.2526C8.479 19.6284 8.79067 19.9401 9.1665 19.9401H12.8332C13.209 19.9401 13.5207 19.6284 13.5207 19.2526C13.5207 18.8768 13.209 18.5651 12.8332 18.5651Z" fill="#573CFF"/>
<path d="M2.59418 9.05571C2.70418 9.11988 2.82334 9.14738 2.93334 9.14738C3.17168 9.14738 3.40084 9.02821 3.52918 8.79905L4.10668 7.80905L7.88334 9.99071C7.98418 10.0549 8.10334 10.0824 8.22251 10.0824C8.46084 10.0824 8.69001 9.96321 8.81834 9.73405C9.01084 9.41321 8.89168 8.99155 8.57084 8.79905L4.79418 6.61738L5.36251 5.62738C5.55501 5.29738 5.43584 4.87571 5.11501 4.69238C4.78501 4.49988 4.36334 4.60988 4.18001 4.93988L2.34668 8.11155C2.15418 8.45071 2.26418 8.86321 2.59418 9.05571Z" fill="#573CFF"/>
<path d="M19.4057 12.9418C19.0757 12.7493 18.6541 12.8593 18.4707 13.1893L17.8932 14.1793L14.1166 12.0068C13.7866 11.8143 13.3649 11.9334 13.1816 12.2543C12.9891 12.5843 13.1082 13.0059 13.4291 13.1893L17.1966 15.3709L16.6282 16.3609C16.4357 16.6909 16.5549 17.1126 16.8757 17.2959C16.9857 17.3601 17.1049 17.3876 17.2149 17.3876C17.4532 17.3876 17.6824 17.2684 17.8107 17.0393L19.6441 13.8676C19.8457 13.5468 19.7357 13.1343 19.4057 12.9418Z" fill="#573CFF"/>
<path d="M17.2058 6.61993L13.4291 8.8016C13.0991 8.9941 12.9891 9.41576 13.1816 9.7366C13.31 9.9566 13.5391 10.0849 13.7775 10.0849C13.8966 10.0849 14.0158 10.0574 14.1166 9.99326L17.8841 7.8116L18.4616 8.8016C18.59 9.0216 18.8191 9.14993 19.0575 9.14993C19.1766 9.14993 19.2958 9.12243 19.3966 9.05826C19.7266 8.86576 19.8366 8.4441 19.6441 8.12326L17.8108 4.9516C17.6183 4.6216 17.1966 4.5116 16.8758 4.7041C16.5458 4.8966 16.4358 5.31826 16.6283 5.6391L17.2058 6.61993Z" fill="#573CFF"/>
<path d="M4.79418 15.3808L8.56168 13.1991C8.89168 13.0066 9.00168 12.5849 8.80918 12.2641C8.61668 11.9341 8.19501 11.8241 7.87418 12.0166L4.10668 14.1983L3.52918 13.2083C3.33668 12.8783 2.91501 12.7683 2.59418 12.9608C2.26418 13.1533 2.15418 13.5749 2.34668 13.8958L4.18001 17.0674C4.30834 17.2874 4.53751 17.4158 4.77584 17.4158C4.89501 17.4158 5.01418 17.3883 5.11501 17.3241C5.44501 17.1316 5.55501 16.7099 5.36251 16.3891L4.79418 15.3808Z" fill="#573CFF"/>
<path d="M14.2082 10.9974C14.2082 11.5841 14.0523 12.1249 13.7773 12.6016C13.2182 13.5641 12.1823 14.2057 10.9998 14.2057C9.81734 14.2057 8.7815 13.5641 8.22234 12.6016C7.94734 12.1249 7.7915 11.5841 7.7915 10.9974C7.7915 10.4107 7.94734 9.8699 8.22234 9.39323C8.7815 8.43073 9.81734 7.78906 10.9998 7.78906C12.1823 7.78906 13.2182 8.43073 13.7773 9.39323C14.0523 9.8699 14.2082 10.4107 14.2082 10.9974Z" fill="#573CFF"/>
</svg>
