<svg width="40" height="40" viewBox="0 0 40 40" fill="none" xmlns="http://www.w3.org/2000/svg">
<path d="M20.0003 37.9154C13.3337 37.9154 7.91699 33.132 7.91699 27.2487V21.082C7.91699 20.3987 8.48366 19.832 9.16699 19.832C9.85033 19.832 10.417 20.3987 10.417 21.082C10.417 25.4487 14.5337 28.7487 20.0003 28.7487C25.467 28.7487 29.5837 25.4487 29.5837 21.082C29.5837 20.3987 30.1503 19.832 30.8337 19.832C31.517 19.832 32.0837 20.3987 32.0837 21.082V27.2487C32.0837 33.132 26.667 37.9154 20.0003 37.9154ZM10.417 27.432C10.5337 31.8487 14.7837 35.4154 20.0003 35.4154C25.217 35.4154 29.467 31.8487 29.5837 27.432C27.417 29.782 23.9837 31.2487 20.0003 31.2487C16.017 31.2487 12.6003 29.782 10.417 27.432Z" fill="#573CFF"/>
<path d="M20.0003 22.9154C15.4003 22.9154 11.267 20.8487 9.25031 17.5154C8.38364 16.0987 7.91699 14.4487 7.91699 12.7487C7.91699 9.88203 9.20033 7.18203 11.517 5.1487C13.7837 3.16536 16.8003 2.08203 20.0003 2.08203C23.2003 2.08203 26.2003 3.16537 28.4837 5.13203C30.8003 7.18203 32.0837 9.88203 32.0837 12.7487C32.0837 14.4487 31.617 16.082 30.7503 17.5154C28.7337 20.8487 24.6003 22.9154 20.0003 22.9154ZM20.0003 4.58203C17.4003 4.58203 14.967 5.4487 13.1503 7.0487C11.3837 8.58203 10.417 10.6154 10.417 12.7487C10.417 13.9987 10.7503 15.1654 11.3836 16.2154C12.967 18.8154 16.267 20.4154 20.0003 20.4154C23.7337 20.4154 27.0337 18.7987 28.617 16.2154C29.267 15.1654 29.5837 13.9987 29.5837 12.7487C29.5837 10.6154 28.617 8.58203 26.8337 7.01536C25.017 5.4487 22.6003 4.58203 20.0003 4.58203Z" fill="#573CFF"/>
<path d="M20.0003 31.2487C13.117 31.2487 7.91699 26.882 7.91699 21.082V12.7487C7.91699 6.86537 13.3337 2.08203 20.0003 2.08203C23.2003 2.08203 26.2003 3.16537 28.4837 5.13203C30.8003 7.18203 32.0837 9.88203 32.0837 12.7487V21.082C32.0837 26.882 26.8837 31.2487 20.0003 31.2487ZM20.0003 4.58203C14.717 4.58203 10.417 8.2487 10.417 12.7487V21.082C10.417 25.4487 14.5337 28.7487 20.0003 28.7487C25.467 28.7487 29.5837 25.4487 29.5837 21.082V12.7487C29.5837 10.6154 28.617 8.58203 26.8337 7.01536C25.017 5.4487 22.6003 4.58203 20.0003 4.58203Z" fill="#573CFF"/>
</svg>
