<svg width="6" height="22" viewBox="0 0 6 22" fill="none" xmlns="http://www.w3.org/2000/svg">
<path fill-rule="evenodd" clip-rule="evenodd" d="M3 1.75C2.30964 1.75 1.75 2.30964 1.75 3C1.75 3.69036 2.30964 4.25 3 4.25C3.69036 4.25 4.25 3.69036 4.25 3C4.25 2.30964 3.69036 1.75 3 1.75ZM0.25 3C0.25 1.48122 1.48122 0.25 3 0.25C4.51878 0.25 5.75 1.48122 5.75 3C5.75 4.51878 4.51878 5.75 3 5.75C1.48122 5.75 0.25 4.51878 0.25 3Z" fill="#6B6B75"/>
<path fill-rule="evenodd" clip-rule="evenodd" d="M3 9.75C2.30964 9.75 1.75 10.3096 1.75 11C1.75 11.6904 2.30964 12.25 3 12.25C3.69036 12.25 4.25 11.6904 4.25 11C4.25 10.3096 3.69036 9.75 3 9.75ZM0.25 11C0.25 9.48122 1.48122 8.25 3 8.25C4.51878 8.25 5.75 9.48122 5.75 11C5.75 12.5188 4.51878 13.75 3 13.75C1.48122 13.75 0.25 12.5188 0.25 11Z" fill="#6B6B75"/>
<path fill-rule="evenodd" clip-rule="evenodd" d="M3 17.75C2.30964 17.75 1.75 18.3096 1.75 19C1.75 19.6904 2.30964 20.25 3 20.25C3.69036 20.25 4.25 19.6904 4.25 19C4.25 18.3096 3.69036 17.75 3 17.75ZM0.25 19C0.25 17.4812 1.48122 16.25 3 16.25C4.51878 16.25 5.75 17.4812 5.75 19C5.75 20.5188 4.51878 21.75 3 21.75C1.48122 21.75 0.25 20.5188 0.25 19Z" fill="#6B6B75"/>
</svg>
