<svg width="22" height="22" viewBox="0 0 22 22" fill="none" xmlns="http://www.w3.org/2000/svg">
<path d="M9.00215 21.9448C8.81683 21.8653 8.66697 21.7407 8.52516 21.5978C7.91227 20.9784 7.29776 20.3602 6.67466 19.751C6.55703 19.6361 6.57153 19.5802 6.67305 19.469C7.68989 18.3571 8.70189 17.2398 9.71335 16.1226C9.98246 15.825 10.0147 15.5011 9.81003 15.2303C9.54844 14.8839 9.08864 14.8721 8.77118 15.2153C8.30063 15.724 7.83868 16.2402 7.37296 16.7532C6.83044 17.351 6.28576 17.9462 5.74807 18.5483C5.65461 18.6531 5.60358 18.681 5.48916 18.5645C4.79301 17.8565 4.09095 17.1539 3.38298 16.4583C3.26427 16.3417 3.30026 16.2896 3.40124 16.1978C4.49865 15.2072 5.59122 14.2114 6.68809 13.2198C6.88469 13.042 7.01844 12.8395 6.97332 12.565C6.93196 12.3141 6.78693 12.1342 6.54521 12.0466C6.29328 11.9559 6.06553 12.0171 5.87054 12.1922C5.41342 12.6026 4.96007 13.0167 4.5051 13.4298C3.82291 14.0491 3.13911 14.6663 2.46122 15.2905C2.36024 15.3834 2.30652 15.3813 2.20984 15.2835C1.5631 14.6271 0.907235 13.9793 0.258353 13.3256C-0.109061 12.9555 -0.0827406 12.5483 0.325497 12.2287C2.46821 10.5539 4.61306 8.88172 6.75309 7.20365C6.87824 7.10535 6.93733 7.1177 7.04476 7.22513C9.59678 9.78467 12.1526 12.3405 14.711 14.8935C14.8201 15.0026 14.8426 15.0676 14.7374 15.2013C13.0668 17.3295 11.4022 19.4615 9.73967 21.5962C9.61934 21.7509 9.47216 21.8588 9.30189 21.9437C9.20198 21.9448 9.10206 21.9448 9.00215 21.9448Z" fill="#8C8C89"/>
<path d="M21.9502 2.56627C21.9158 2.57164 21.9093 2.59742 21.9034 2.62643C21.7879 3.18937 21.4528 3.60888 21.0536 4.00423C19.5206 5.52223 17.9988 7.05151 16.4766 8.57971C16.3745 8.68177 16.3208 8.7183 16.1967 8.5926C15.254 7.63647 14.3027 6.68785 13.3498 5.74192C13.2477 5.6404 13.2348 5.58669 13.3444 5.47711C14.9494 3.87961 16.5453 2.27298 18.1525 0.677631C19.2816 -0.443411 21.1117 -0.128102 21.7455 1.28838C21.8304 1.47799 21.883 1.68211 21.9502 1.87978C21.9502 2.10861 21.9502 2.33744 21.9502 2.56627Z" fill="#8C8C89"/>
<path d="M15.6624 13.9916C15.6119 13.9433 15.5598 13.896 15.5109 13.8466C13.0422 11.3778 10.575 8.9069 8.10143 6.44298C7.95963 6.3017 7.97144 6.2453 8.124 6.13465C9.40887 5.20107 11.0477 5.30797 12.1865 6.42794C13.3065 7.52964 14.4173 8.63994 15.5185 9.75991C16.6878 10.9497 16.7469 12.8034 15.6624 13.9916Z" fill="#8C8C89"/>
</svg>
