<svg width="46" height="46" viewBox="0 0 46 46" fill="none" xmlns="http://www.w3.org/2000/svg">
<path d="M17.5029 19.3652C19.5604 19.3652 21.2284 17.6972 21.2284 15.6396C21.2284 13.582 19.5604 11.9141 17.5029 11.9141C15.4453 11.9141 13.7773 13.582 13.7773 15.6396C13.7773 17.6972 15.4453 19.3652 17.5029 19.3652Z" stroke="#7B6CD8" stroke-width="2" stroke-linecap="round" stroke-linejoin="round"/>
<path d="M24.9553 4.46289H17.5043C8.19039 4.46289 4.46484 8.18844 4.46484 17.5023V28.6789C4.46484 37.9928 8.19039 41.7183 17.5043 41.7183H28.6809C37.9948 41.7183 41.7203 37.9928 41.7203 28.6789V19.3651" stroke="#7B6CD8" stroke-width="2" stroke-linecap="round" stroke-linejoin="round"/>
<path d="M30.0781 10.0527H40.3234" stroke="#7B6CD8" stroke-width="2" stroke-linecap="round"/>
<path d="M35.1992 15.1749V4.92969" stroke="#7B6CD8" stroke-width="2" stroke-linecap="round"/>
<path d="M5.71094 36.0369L14.8944 29.8711C16.366 28.8838 18.4896 28.9956 19.8121 30.1319L20.4268 30.6721C21.8798 31.9201 24.2269 31.9201 25.6799 30.6721L33.429 24.022C34.882 22.7739 37.2291 22.7739 38.682 24.022L41.7183 26.6299" stroke="#7B6CD8" stroke-width="2" stroke-linecap="round" stroke-linejoin="round"/>
</svg>
