<svg width="46" height="46" viewBox="0 0 46 46" fill="none" xmlns="http://www.w3.org/2000/svg">
<path d="M17.5029 19.3661C19.5604 19.3661 21.2284 17.6981 21.2284 15.6406C21.2284 13.583 19.5604 11.915 17.5029 11.915C15.4453 11.915 13.7773 13.583 13.7773 15.6406C13.7773 17.6981 15.4453 19.3661 17.5029 19.3661Z" stroke="#7B6CD8" stroke-width="2" stroke-linecap="round" stroke-linejoin="round"/>
<path d="M24.9544 4.46387H17.5033C8.18941 4.46387 4.46387 8.18941 4.46387 17.5033V28.6799C4.46387 37.9938 8.18941 41.7193 17.5033 41.7193H28.6799C37.9938 41.7193 41.7193 37.9938 41.7193 28.6799V19.366" stroke="#7B6CD8" stroke-width="2" stroke-linecap="round" stroke-linejoin="round"/>
<path d="M30.0771 10.0518H40.3224" stroke="#7B6CD8" stroke-width="2" stroke-linecap="round"/>
<path d="M35.2002 15.1749V4.92969" stroke="#7B6CD8" stroke-width="2" stroke-linecap="round"/>
<path d="M5.71191 36.0378L14.8954 29.8721C16.367 28.8848 18.4905 28.9966 19.8131 30.1329L20.4278 30.6731C21.8808 31.9211 24.2279 31.9211 25.6808 30.6731L33.43 24.023C34.8829 22.7749 37.23 22.7749 38.683 24.023L41.7193 26.6308" stroke="#7B6CD8" stroke-width="2" stroke-linecap="round" stroke-linejoin="round"/>
</svg>
