<svg width="29" height="28" viewBox="0 0 29 28" fill="none" xmlns="http://www.w3.org/2000/svg">
<path d="M27.7873 13.822C27.805 15.5619 27.5107 17.248 26.8989 18.8772C26.3756 20.2705 25.6432 21.5485 24.7041 22.702C23.7104 23.9216 22.5415 24.9437 21.1974 25.7668C19.8433 26.596 18.3916 27.1724 16.8408 27.5005C15.0717 27.8748 13.2973 27.8948 11.5174 27.5712C10.181 27.3284 8.90682 26.8996 7.70181 26.2755C5.60995 25.1927 3.89773 23.6788 2.57514 21.7245C1.83969 20.6378 1.26946 19.4705 0.869074 18.224C0.527091 17.1588 0.321133 16.0645 0.246589 14.9448C0.12824 13.1672 0.340346 11.4327 0.890592 9.74202C1.32095 8.41943 1.94113 7.18983 2.74652 6.05245C3.78476 4.58538 5.05817 3.37039 6.56827 2.39977C7.74561 1.6428 9.01057 1.08333 10.3608 0.714448C11.3138 0.454695 12.2828 0.300995 13.2704 0.244894C14.2786 0.187257 15.2769 0.255653 16.2714 0.409353C16.8016 0.491583 17.2112 1.00494 17.1636 1.51061C17.1067 2.11773 16.6533 2.54194 16.0646 2.5112C15.7349 2.49429 15.4076 2.43281 15.0786 2.399C14.0304 2.29295 12.9891 2.34828 11.9516 2.52888C10.8396 2.72254 9.7806 3.07528 8.77387 3.57711C7.52429 4.20037 6.42226 5.02804 5.46624 6.04861C4.53328 7.04382 3.80013 8.17044 3.26142 9.42309C2.73884 10.6381 2.43758 11.9077 2.34229 13.2279C2.25929 14.3807 2.35151 15.5181 2.60973 16.6408C3.01242 18.3892 3.78784 19.9592 4.90831 21.3587C4.99746 21.4701 5.09967 21.5723 5.18728 21.6861C5.24338 21.7583 5.27873 21.7606 5.33022 21.6853C5.5892 21.3018 5.88507 20.9483 6.19709 20.6078C6.78883 19.9615 7.45282 19.4013 8.18827 18.9264C8.37502 18.8057 8.62401 18.8395 8.81537 19.0048C9.65149 19.7248 10.5975 20.2467 11.6511 20.5694C12.714 20.8945 13.7976 20.9967 14.905 20.8645C16.3782 20.6893 17.6954 20.1421 18.8697 19.2407C19.0088 19.1339 19.1279 18.9994 19.2885 18.9202C19.4714 18.8295 19.6451 18.8403 19.8172 18.9525C20.9154 19.6657 21.8384 20.561 22.5984 21.6253C22.6776 21.736 22.7245 21.766 22.829 21.6415C23.2732 21.1104 23.6812 20.5548 24.0355 19.9592C24.5489 19.0947 24.9454 18.1794 25.219 17.2126C25.5764 15.95 25.7247 14.6627 25.6424 13.3501C25.6156 12.9205 25.5618 12.4948 25.5041 12.0683C25.4457 11.6356 25.5779 11.2713 25.9506 11.0193C26.3195 10.7687 26.7076 10.7626 27.0895 10.9801C27.4138 11.1645 27.5683 11.4665 27.6183 11.8308C27.7097 12.4909 27.775 13.1542 27.7873 13.822Z" fill="#FCFCFC"/>
<path d="M14.0541 7.1212C17.2533 7.16654 19.8601 9.75639 19.8232 13.034C19.7871 16.2279 17.1926 18.8278 13.9219 18.7955C10.7226 18.764 8.11509 16.1634 8.15275 12.8857C8.18887 9.69183 10.7833 7.10199 14.0541 7.1212Z" fill="#FCFCFC"/>
<path d="M28.8538 2.30667C28.8461 2.63251 28.75 2.88458 28.5464 3.089C27.1116 4.52302 25.6783 5.95935 24.2366 7.38722C23.8662 7.75457 23.2284 7.75457 22.8549 7.38953C22.0994 6.65254 21.3532 5.90555 20.6155 5.15012C20.2474 4.77355 20.2789 4.11879 20.6547 3.74146C21.0643 3.32954 21.6998 3.28113 22.0987 3.65846C22.5521 4.08728 22.9878 4.53532 23.4236 4.98259C23.5204 5.08172 23.568 5.08019 23.6649 4.98259C24.7654 3.87057 25.8712 2.76393 26.9763 1.65729C27.3729 1.25997 27.8632 1.17006 28.2974 1.41521C28.6586 1.61732 28.8361 1.93395 28.8538 2.30667Z" fill="#FCFCFC"/>
</svg>
