<svg width="30" height="24" viewBox="0 0 30 24" fill="none" xmlns="http://www.w3.org/2000/svg">
<path d="M0.230469 11.2175C0.376681 10.7951 0.368986 10.3411 0.445939 9.89757C1.23856 5.28294 3.88577 1.87213 7.29482 1.10126C11.5042 0.150881 15.6674 3.99464 16.6601 9.76029C17.7374 15.98 15.0056 22.1575 10.4961 23.6781C5.8327 25.2515 1.04618 20.8586 0.338204 14.3327C0.315118 14.132 0.338204 13.9208 0.230469 13.7519C0.230469 12.9071 0.230469 12.0623 0.230469 11.2175Z" fill="#CBC5D5"/>
<path d="M29.767 15.0934C29.6516 15.4418 29.6824 15.822 29.6593 16.1916C29.5438 17.7861 29.413 19.3912 29.0283 20.9118C28.9513 21.2075 28.8666 21.5032 28.7358 21.7672C28.4588 22.3268 28.151 22.3268 27.8816 21.7566C27.6046 21.1652 27.4661 20.4894 27.3584 19.803C26.8966 16.9625 26.812 14.0902 26.8659 11.1968C26.9043 9.16933 27.0198 7.14185 27.3584 5.15661C27.4507 4.59694 27.5661 4.03727 27.7585 3.51984C27.8816 3.19249 28.0048 2.80177 28.3049 2.79121C28.6281 2.78065 28.7589 3.19249 28.8743 3.5304C29.1745 4.37518 29.313 5.29388 29.4284 6.21259C29.5823 7.43752 29.6747 8.66246 29.7208 9.90851C29.7208 9.98243 29.6977 10.0669 29.7747 10.1091C29.7747 11.3763 29.7747 12.6435 29.7747 13.9107C29.6977 14.0902 29.667 14.2803 29.7747 14.4598C29.767 14.671 29.767 14.8822 29.767 15.0934Z" fill="#CBC5D5"/>
<path d="M17.6995 12.4432C17.7226 9.84549 18.0073 7.33226 18.8615 4.97743C19.177 4.10096 19.5772 3.29842 20.1235 2.64371C21.224 1.31318 22.5399 1.31318 23.6249 2.66483C24.4714 3.72081 24.9947 5.06191 25.3333 6.54028C26.3491 10.9648 26.3029 15.3577 24.9716 19.6661C24.6792 20.6059 24.2714 21.4507 23.7327 22.1688C22.5707 23.6999 21.147 23.7105 19.9927 22.1688C19.0308 20.891 18.5306 19.2543 18.1766 17.533C17.838 15.8646 17.6918 14.1644 17.6995 12.4432Z" fill="#CBC5D5"/>
</svg>
