<svg width="34" height="28" viewBox="0 0 34 28" fill="none" xmlns="http://www.w3.org/2000/svg">
<path d="M0 13.499C0.10227 13.3608 0.187274 13.2048 0.310132 13.0886C0.630889 12.7851 1.01473 12.6708 1.43511 12.8428C1.88536 13.0268 2.11979 13.3781 2.12377 13.8702C2.13639 15.304 2.38277 16.6972 2.90873 18.0314C4.07753 20.9972 6.11364 23.1795 9.01374 24.4797C12.1011 25.8637 15.2469 25.8684 18.3848 24.584C18.4731 24.5481 18.5541 24.4937 18.6836 24.4233C18.3901 24.3483 18.1463 24.3908 17.9033 24.4107C15.6474 24.5946 13.5448 24.1125 11.5917 22.9689C9.83389 21.9396 8.50039 20.5032 7.55937 18.7081C6.94774 17.5406 6.56456 16.2908 6.43838 14.9739C6.18669 12.3561 6.70004 9.877 7.89009 7.54737C9.33781 4.71434 11.5207 2.60053 14.4161 1.29227C18.0474 -0.348704 21.7471 -0.436365 25.4487 1.08374C28.7851 2.45377 31.1918 4.81993 32.7252 8.06801C33.4291 9.55957 33.8422 11.1394 33.9338 12.7944C33.9365 12.8402 33.9398 12.8807 33.9889 12.9006C33.9889 13.321 33.9889 13.7414 33.9889 14.1617C33.8993 14.1843 33.892 14.2713 33.8548 14.3351C33.5998 14.7687 33.1449 14.9719 32.678 14.861C32.2125 14.7501 31.8725 14.3304 31.8665 13.8244C31.8512 12.5035 31.65 11.2145 31.2031 9.96998C30.5124 8.04477 29.4207 6.39383 27.868 5.04772C25.472 2.9711 22.6828 2.03074 19.5336 2.16688C18.0414 2.2313 16.607 2.59057 15.2542 3.24404C15.2947 3.39745 15.407 3.34631 15.476 3.33569C17.9491 2.95649 20.2509 3.44725 22.4019 4.69708C24.163 5.72044 25.4985 7.15953 26.4316 8.9579C27.3872 10.7994 27.7458 12.7724 27.5805 14.8411C27.3493 17.7445 26.32 20.3358 24.4818 22.5877C23.0865 24.2971 21.3639 25.5941 19.3291 26.4747C16.3008 27.7849 13.1975 27.9908 10.0305 27.1076C8.09264 26.567 6.35936 25.624 4.8253 24.3077C3.35301 23.0446 2.20479 21.5405 1.36139 19.8025C0.630224 18.2957 0.199228 16.7026 0.0544556 15.033C0.0484788 14.9626 0.0936371 14.875 0 14.8265C0 14.3842 0 13.9413 0 13.499ZM25.4912 13.9266C25.5198 9.32448 21.9164 5.41363 17.0984 5.34125C12.5069 5.27218 8.58274 8.89082 8.5057 13.7181C8.43132 18.3336 12.0785 22.2577 16.9071 22.3195C21.5166 22.3792 25.3903 18.7353 25.4912 13.9266Z" fill="#877DC5"/>
<path d="M21.2419 13.8197C21.2479 16.152 19.3366 18.0718 17.0023 18.0778C14.67 18.0838 12.7501 16.1725 12.7442 13.8383C12.7382 11.506 14.6494 9.58607 16.9837 9.58009C19.316 9.57478 21.2359 11.486 21.2419 13.8197Z" fill="#877DC5"/>
</svg>
