<svg width="26" height="26" viewBox="0 0 26 26" fill="none" xmlns="http://www.w3.org/2000/svg">
<path d="M25.5766 6.04722C25.5895 7.84784 25.3509 9.60449 24.6306 11.2715C24.2701 12.1061 23.7947 12.8728 23.1535 13.5211C21.8353 14.854 20.5053 16.1757 19.1771 17.4986C19.0529 17.6223 19.0019 17.7331 19.0148 17.9259C19.1595 20.0372 18.887 22.0664 17.7616 23.9133C17.4779 24.3787 17.1526 24.8125 16.7599 25.1929C16.2933 25.6454 15.5753 25.6635 15.0941 25.2333C15.0144 25.1618 14.9347 25.0897 14.859 25.0141C10.2356 20.3859 5.6174 15.7525 0.983967 11.1349C0.435341 10.588 0.380245 9.74634 1.00741 9.15903C2.2553 7.99085 3.74878 7.38713 5.41049 7.1433C6.34948 7.00555 7.29375 6.9868 8.23802 7.08703C8.39452 7.10344 8.46837 7.01786 8.55688 6.92936C9.74792 5.73187 10.9284 4.52384 12.1335 3.34043C13.7331 1.76958 15.6691 0.85344 17.8853 0.590264C20.0024 0.339396 22.1061 0.547476 24.1851 0.9947C24.6968 1.10489 25.0139 1.46303 25.1241 1.96535C25.4195 3.30819 25.5789 4.6692 25.5766 6.04722ZM15.7611 22.3272C15.7547 22.3348 15.7781 22.3173 15.7887 22.2938C16.4358 20.8033 16.6749 19.2518 16.4381 17.6422C16.3543 17.0742 16.4733 16.6188 16.8859 16.2126C18.2979 14.8223 19.6941 13.4156 21.1026 12.0217C21.7931 11.3383 22.269 10.5288 22.5609 9.60977C23.2016 7.59111 23.1131 5.53786 22.837 3.47641C22.8141 3.30409 22.735 3.23434 22.5597 3.21851C22.143 3.181 21.7298 3.10832 21.313 3.07667C19.6091 2.94596 17.9122 2.88969 16.284 3.56726C15.4804 3.90195 14.6908 4.27708 14.0695 4.88725C12.6288 6.30277 11.2244 7.75464 9.8077 9.19537C9.4654 9.54354 9.07034 9.71645 8.57388 9.64611C8.21751 9.59512 7.85879 9.55233 7.49949 9.53533C6.17071 9.47144 4.90289 9.72465 3.67903 10.2809C7.71577 14.3065 11.7379 18.3169 15.7611 22.3272Z" fill="#FCFCFC"/>
<path d="M7.99102 21.764C6.47351 23.1209 4.69868 23.9045 2.69643 24.1888C2.45611 24.2228 2.20993 24.2175 1.9702 24.2533C1.77267 24.2832 1.74571 24.2011 1.75568 24.0323C1.84653 22.5283 2.06047 21.0512 2.72984 19.6791C3.0317 19.0607 3.442 18.5244 4.0299 18.1451C4.15123 18.0666 4.25673 17.9998 4.4062 18.1516C5.57085 19.3321 6.74723 20.5014 7.91951 21.6743C7.94647 21.7018 7.96758 21.7346 7.99102 21.764Z" fill="#FCFCFC"/>
<path d="M20.164 8.37548C20.1652 9.75876 19.058 10.8765 17.68 10.8836C16.2932 10.8906 15.1684 9.76287 15.1719 8.36786C15.1754 6.99043 16.2979 5.87149 17.6729 5.87501C19.0533 5.8797 20.1634 6.99336 20.164 8.37548Z" fill="#FCFCFC"/>
</svg>
