<svg width="25" height="26" viewBox="0 0 25 26" fill="none" xmlns="http://www.w3.org/2000/svg">
<path d="M0.775377 25.9007C0.560217 25.8273 0.355008 25.7427 0.208252 25.5537C0.00117631 25.2857 -0.0523024 24.9903 0.0515462 24.6725C0.299041 23.917 0.608722 23.1875 0.986805 22.4867C1.34375 21.8251 1.75603 21.2007 2.21931 20.6106C2.723 19.9695 3.28764 19.3843 3.90389 18.8495C4.54502 18.293 5.23651 17.8054 5.9734 17.3851C6.64251 17.0039 7.3396 16.6818 8.06281 16.4318C5.3416 14.7603 3.79072 12.35 3.6309 9.13876C3.50715 6.64888 4.34789 4.4662 6.08782 2.67776C9.60126 -0.933927 15.2153 -0.823859 18.6131 2.59568C19.9127 3.90343 20.7242 5.47608 21.0358 7.2956C21.348 9.11886 21.1048 10.8756 20.3126 12.5446C19.5228 14.2093 18.3109 15.4947 16.6947 16.4256C17.0087 16.5325 17.2898 16.6507 17.5709 16.7694C18.1044 16.9958 18.6143 17.2669 19.1099 17.5654C19.6634 17.8987 20.1876 18.2743 20.6832 18.6885C21.7708 19.5989 22.6887 20.6566 23.433 21.8661C23.9641 22.7292 24.3776 23.6452 24.7084 24.601C24.9012 25.1575 24.6469 25.693 24.1052 25.8646C24.0629 25.8783 24.0107 25.8565 23.9778 25.9C16.2426 25.9007 8.50867 25.9007 0.775377 25.9007ZM22.4835 24.042C20.8424 20.3071 16.6511 17.1102 11.3343 17.5946C8.79908 17.826 6.59711 18.8489 4.74214 20.5944C3.69868 21.5763 2.88157 22.7243 2.2846 24.042C9.02792 24.042 15.7501 24.042 22.4835 24.042ZM12.3374 15.6862C12.4754 15.6862 12.5812 15.6893 12.6862 15.6856C13.466 15.6601 14.2141 15.4916 14.9404 15.2061C16.0641 14.7652 16.9981 14.0675 17.7611 13.1403C18.2344 12.5651 18.6037 11.924 18.8631 11.2257C19.21 10.2898 19.3624 9.32283 19.294 8.3229C19.2853 8.1979 19.2498 8.16184 19.1305 8.15189C18.3867 8.08784 17.6716 7.90066 16.9739 7.63824C16.0641 7.29622 15.2483 6.79937 14.502 6.18125C14.4405 6.13026 14.387 6.04258 14.3198 6.03201C14.2402 6.01957 14.1924 6.12466 14.1296 6.17628C13.4349 6.75335 12.6738 7.21974 11.838 7.56549C10.9606 7.92802 10.0477 8.13696 9.10316 8.19355C7.92351 8.26444 6.77247 8.10214 5.65875 7.70042C5.5636 7.66622 5.55179 7.68923 5.53997 7.7738C5.44918 8.42923 5.44545 9.08341 5.53686 9.73946C5.63076 10.4185 5.82167 11.069 6.10959 11.6883C6.50446 12.5384 7.05168 13.2796 7.75002 13.9108C8.38368 14.4835 9.09694 14.925 9.8898 15.231C10.6858 15.5388 11.5116 15.7098 12.3374 15.6862ZM12.4269 1.86066C11.8977 1.86563 11.4133 1.91289 10.9333 2.01674C9.88855 2.24309 8.94521 2.68585 8.10509 3.34501C7.27182 3.99857 6.63007 4.80884 6.15809 5.75653C6.10212 5.86846 6.13073 5.90266 6.23395 5.93997C7.1717 6.27515 8.13432 6.41071 9.12865 6.33049C10.0104 6.25898 10.8456 6.0233 11.6322 5.62283C12.3716 5.24662 13.0202 4.74852 13.5755 4.12978C13.8093 3.86922 14.0947 3.74112 14.451 3.78838C14.7191 3.82383 14.9106 3.9824 15.0841 4.17082C15.7563 4.90087 16.5485 5.45804 17.4645 5.84048C17.8662 6.00838 18.281 6.13213 18.707 6.22043C18.7362 6.22665 18.7779 6.24903 18.8002 6.21732C18.8164 6.19431 18.7953 6.1626 18.7835 6.13461C18.5615 5.60853 18.2872 5.11043 17.944 4.65524C17.2239 3.70132 16.3241 2.96879 15.2308 2.47566C14.3261 2.06711 13.3777 1.87061 12.4269 1.86066Z" fill="#877DC5"/>
<path d="M12.3778 14.0195C11.7273 14.0251 11.1018 13.9026 10.5154 13.6216C9.91278 13.333 9.41406 12.9151 9.05899 12.3412C8.75677 11.853 8.89544 11.2741 9.39852 10.998C9.80521 10.7754 10.3257 10.8972 10.5645 11.2704C10.9326 11.8449 11.473 12.0999 12.1241 12.1546C12.5494 12.1907 12.971 12.1584 13.3721 11.9849C13.7048 11.8406 13.9728 11.6292 14.1718 11.3201C14.5611 10.7157 15.4478 10.7561 15.7712 11.3929C15.9596 11.7635 15.8844 12.1161 15.6512 12.4463C15.0791 13.2565 14.2881 13.7235 13.3305 13.93C13.017 13.9972 12.6974 14.0164 12.3778 14.0195Z" fill="#877DC5"/>
</svg>
