<svg width="26" height="26" viewBox="0 0 26 26" fill="none" xmlns="http://www.w3.org/2000/svg">
<path d="M25.5746 6.04722C25.5875 7.84784 25.349 9.60449 24.6286 11.2715C24.2681 12.1061 23.7928 12.8728 23.1515 13.5211C21.8333 14.854 20.5034 16.1757 19.1752 17.4986C19.0509 17.6223 18.9999 17.7331 19.0128 17.9259C19.1576 20.0372 18.885 22.0664 17.7597 23.9133C17.476 24.3787 17.1507 24.8125 16.7579 25.1929C16.2914 25.6454 15.5734 25.6635 15.0921 25.2333C15.0124 25.1618 14.9327 25.0897 14.8571 25.0141C10.2336 20.3859 5.61544 15.7525 0.982014 11.1349C0.433388 10.588 0.378291 9.74634 1.00546 9.15903C2.25335 7.99085 3.74683 7.38713 5.40853 7.1433C6.34753 7.00555 7.2918 6.9868 8.23607 7.08703C8.39257 7.10344 8.46642 7.01786 8.55493 6.92936C9.74596 5.73187 10.9264 4.52384 12.1315 3.34043C13.7311 1.76958 15.6671 0.85344 17.8833 0.590264C20.0005 0.339396 22.1041 0.547476 24.1831 0.9947C24.6948 1.10489 25.0119 1.46303 25.1221 1.96535C25.4176 3.30819 25.577 4.6692 25.5746 6.04722ZM15.7592 22.3272C15.7527 22.3348 15.7762 22.3173 15.7867 22.2938C16.4338 20.8033 16.673 19.2518 16.4362 17.6422C16.3523 17.0742 16.4713 16.6188 16.884 16.2126C18.296 14.8223 19.6922 13.4156 21.1006 12.0217C21.7911 11.3383 22.2671 10.5288 22.559 9.60977C23.1996 7.59111 23.1111 5.53786 22.835 3.47641C22.8122 3.30409 22.733 3.23434 22.5578 3.21851C22.141 3.181 21.7278 3.10832 21.3111 3.07667C19.6072 2.94596 17.9103 2.88969 16.282 3.56726C15.4784 3.90195 14.6889 4.27708 14.0676 4.88725C12.6268 6.30277 11.2224 7.75464 9.80575 9.19537C9.46344 9.54354 9.06839 9.71645 8.57193 9.64611C8.21555 9.59512 7.85684 9.55233 7.49753 9.53533C6.16876 9.47144 4.90094 9.72465 3.67708 10.2809C7.71382 14.3065 11.7359 18.3169 15.7592 22.3272Z" fill="#877DC5"/>
<path d="M7.98907 21.764C6.47155 23.1209 4.69673 23.9045 2.69448 24.1888C2.45416 24.2228 2.20798 24.2175 1.96825 24.2533C1.77072 24.2832 1.74376 24.2011 1.75372 24.0323C1.84458 22.5283 2.05852 21.0512 2.72789 19.6791C3.02975 19.0607 3.44004 18.5244 4.02794 18.1451C4.14927 18.0666 4.25478 17.9998 4.40424 18.1516C5.5689 19.3321 6.74528 20.5014 7.91756 21.6743C7.94452 21.7018 7.96562 21.7346 7.98907 21.764Z" fill="#877DC5"/>
<path d="M20.1621 8.37548C20.1632 9.75876 19.056 10.8765 17.678 10.8836C16.2912 10.8906 15.1664 9.76287 15.1699 8.36786C15.1734 6.99043 16.2959 5.87149 17.671 5.87501C19.0513 5.8797 20.1615 6.99336 20.1621 8.37548Z" fill="#877DC5"/>
</svg>
