<svg width="29" height="28" viewBox="0 0 29 28" fill="none" xmlns="http://www.w3.org/2000/svg">
<path d="M27.7854 13.822C27.8031 15.5619 27.5087 17.248 26.897 18.8772C26.3736 20.2705 25.6413 21.5485 24.7022 22.702C23.7085 23.9216 22.5396 24.9437 21.1955 25.7668C19.8414 26.596 18.3897 27.1724 16.8389 27.5005C15.0698 27.8748 13.2953 27.8948 11.5155 27.5712C10.179 27.3284 8.90486 26.8996 7.69986 26.2755C5.608 25.1927 3.89578 23.6788 2.57319 21.7245C1.83774 20.6378 1.26751 19.4705 0.867121 18.224C0.525138 17.1588 0.31918 16.0645 0.244636 14.9448C0.126287 13.1672 0.338393 11.4327 0.888639 9.74202C1.319 8.41943 1.93918 7.18983 2.74457 6.05245C3.78281 4.58538 5.05622 3.37039 6.56632 2.39977C7.74366 1.6428 9.00861 1.08333 10.3589 0.714448C11.3118 0.454695 12.2809 0.300995 13.2684 0.244894C14.2767 0.187257 15.275 0.255653 16.2694 0.409353C16.7997 0.491583 17.2093 1.00494 17.1616 1.51061C17.1048 2.11773 16.6513 2.54194 16.0627 2.5112C15.733 2.49429 15.4056 2.43281 15.0767 2.399C14.0285 2.29295 12.9871 2.34828 11.9497 2.52888C10.8376 2.72254 9.77865 3.07528 8.77191 3.57711C7.52233 4.20037 6.4203 5.02804 5.46429 6.04861C4.53133 7.04382 3.79818 8.17044 3.25946 9.42309C2.73688 10.6381 2.43563 11.9077 2.34034 13.2279C2.25734 14.3807 2.34956 15.5181 2.60777 16.6408C3.01047 18.3892 3.78588 19.9592 4.90636 21.3587C4.9955 21.4701 5.09771 21.5723 5.18532 21.6861C5.24142 21.7583 5.27677 21.7606 5.32826 21.6853C5.58725 21.3018 5.88312 20.9483 6.19513 20.6078C6.78688 19.9615 7.45086 19.4013 8.18632 18.9264C8.37306 18.8057 8.62206 18.8395 8.81341 19.0048C9.64954 19.7248 10.5956 20.2467 11.6492 20.5694C12.712 20.8945 13.7956 20.9967 14.903 20.8645C16.3762 20.6893 17.6934 20.1421 18.8677 19.2407C19.0068 19.1339 19.1259 18.9994 19.2865 18.9202C19.4694 18.8295 19.6431 18.8403 19.8153 18.9525C20.9134 19.6657 21.8364 20.561 22.5965 21.6253C22.6756 21.736 22.7225 21.766 22.827 21.6415C23.2712 21.1104 23.6793 20.5548 24.0336 19.9592C24.5469 19.0947 24.9435 18.1794 25.2171 17.2126C25.5744 15.95 25.7227 14.6627 25.6405 13.3501C25.6136 12.9205 25.5598 12.4948 25.5022 12.0683C25.4438 11.6356 25.5759 11.2713 25.9487 11.0193C26.3175 10.7687 26.7056 10.7626 27.0876 10.9801C27.4119 11.1645 27.5664 11.4665 27.6163 11.8308C27.7078 12.4909 27.7731 13.1542 27.7854 13.822Z" fill="#877DC5"/>
<path d="M14.0541 7.1212C17.2533 7.16654 19.8601 9.75639 19.8232 13.034C19.7871 16.2279 17.1926 18.8278 13.9219 18.7955C10.7226 18.764 8.11509 16.1634 8.15275 12.8857C8.18887 9.69183 10.7833 7.10199 14.0541 7.1212Z" fill="#877DC5"/>
<path d="M28.8499 2.30667C28.8422 2.63251 28.7461 2.88458 28.5425 3.089C27.1077 4.52302 25.6744 5.95935 24.2327 7.38722C23.8623 7.75457 23.2245 7.75457 22.851 7.38953C22.0955 6.65254 21.3493 5.90555 20.6116 5.15012C20.2434 4.77355 20.275 4.11879 20.6508 3.74146C21.0604 3.32954 21.6959 3.28113 22.0948 3.65846C22.5482 4.08728 22.9839 4.53532 23.4197 4.98259C23.5165 5.08172 23.5641 5.08019 23.661 4.98259C24.7615 3.87057 25.8673 2.76393 26.9724 1.65729C27.369 1.25997 27.8593 1.17006 28.2935 1.41521C28.6547 1.61732 28.8322 1.93395 28.8499 2.30667Z" fill="#877DC5"/>
</svg>
