<svg width="20" height="20" viewBox="0 0 20 20" fill="none" xmlns="http://www.w3.org/2000/svg">
<path d="M9.81411 4.80079C12.5723 4.80443 14.8121 7.0525 14.8058 9.81124C14.7995 12.5716 12.5546 14.8076 9.79535 14.8024C7.03712 14.7967 4.79949 12.5507 4.8047 9.79196C4.80939 7.03269 7.0538 4.79662 9.81411 4.80079Z" fill="white"/>
<path d="M0 9.80085C0.0865039 9.65233 0.142263 9.48506 0.283483 9.36989C0.440336 9.2417 0.613344 9.16718 0.817097 9.16666C1.3825 9.16666 1.9479 9.15988 2.5133 9.16822C2.9797 9.175 3.32571 9.53039 3.32988 9.98532C3.33405 10.4507 2.98803 10.8149 2.51383 10.8227C1.96823 10.8316 1.4221 10.828 0.876504 10.8248C0.458575 10.8227 0.1975 10.6393 0.0401252 10.2516C0.0312663 10.2297 0.01407 10.211 0.000521219 10.1906C1.11332e-07 10.0614 0 9.93112 0 9.80085Z" fill="white"/>
<path d="M10.1583 0.000521617C10.3579 0.0724345 10.5466 0.15998 10.6742 0.341847C10.7785 0.490363 10.8321 0.652427 10.8321 0.833773C10.8311 1.38667 10.8373 1.93956 10.8306 2.49246C10.8243 2.9823 10.4658 3.33405 9.99211 3.32936C9.52885 3.32519 9.1797 2.97396 9.17397 2.49194C9.16772 1.95207 9.1698 1.4122 9.17293 0.871814C9.17553 0.445547 9.36365 0.18812 9.77012 0.036999C9.78471 0.0312668 9.79461 0.0125066 9.8066 0C9.92385 0.000521108 10.0411 0.000521617 10.1583 0.000521617Z" fill="white"/>
<path d="M19.9979 10.1954C19.939 10.3007 19.8911 10.4148 19.8186 10.5102C19.6602 10.7176 19.445 10.8281 19.1808 10.8286C18.6154 10.8301 18.05 10.8359 17.4846 10.827C17.0098 10.8197 16.6643 10.456 16.668 9.99011C16.6716 9.53467 17.0177 9.18031 17.4841 9.1725C17.9843 9.16416 18.4846 9.16989 18.9854 9.16989C19.5747 9.16989 19.7863 9.31059 19.9979 9.84368C19.9979 9.96093 19.9979 10.0782 19.9979 10.1954Z" fill="white"/>
<path d="M9.79794 19.9998C9.7771 19.9472 9.72134 19.9571 9.68278 19.9394C9.35709 19.7903 9.17001 19.5433 9.16584 19.1817C9.15906 18.6158 9.1575 18.0498 9.16584 17.4844C9.17313 17.0186 9.53009 16.6731 9.98606 16.6699C10.4525 16.6668 10.8131 17.0128 10.8209 17.4896C10.8297 18.0488 10.8266 18.6079 10.8219 19.1676C10.8183 19.6189 10.5473 19.8622 10.1497 19.9998C10.0324 19.9998 9.91519 19.9998 9.79794 19.9998Z" fill="white"/>
<path d="M3.60588 2.69144C3.76899 2.69561 3.96649 2.78212 4.1296 2.94522C4.51157 3.32615 4.89667 3.70448 5.27291 4.09062C5.61371 4.44028 5.61476 4.95357 5.2875 5.27927C4.96129 5.60392 4.44226 5.60392 4.09625 5.26728C3.7049 4.88635 3.31771 4.50125 2.93835 4.10834C2.68509 3.8457 2.6236 3.53303 2.76794 3.19171C2.89926 2.88217 3.20098 2.68832 3.60588 2.69144Z" fill="white"/>
<path d="M15.4188 5.51817C14.9597 5.51556 14.6924 5.35506 14.5465 5.02781C14.4037 4.70785 14.4527 4.3957 14.6945 4.14244C15.0942 3.72452 15.5022 3.31336 15.9212 2.91523C16.2495 2.60309 16.7487 2.62394 17.065 2.93712C17.3756 3.24458 17.4115 3.74067 17.1093 4.06532C16.7065 4.49784 16.2797 4.90847 15.856 5.32067C15.7112 5.46085 15.5246 5.52078 15.4188 5.51817Z" fill="white"/>
<path d="M3.51758 17.3129C3.17834 17.2983 2.91883 17.1498 2.77292 16.8387C2.62857 16.5296 2.6489 16.2133 2.88079 15.9648C3.29663 15.5182 3.72759 15.0836 4.17626 14.6698C4.48424 14.3858 4.97669 14.4301 5.27528 14.723C5.57283 15.0148 5.62807 15.5109 5.34563 15.8199C4.92979 16.2753 4.48268 16.7021 4.03973 17.1315C3.90164 17.2654 3.71508 17.3165 3.51758 17.3129Z" fill="white"/>
<path d="M15.3258 14.4845C15.5525 14.4813 15.7448 14.5673 15.9032 14.7242C16.2956 15.1129 16.6906 15.4996 17.0736 15.8972C17.4019 16.2375 17.3936 16.7502 17.0705 17.0712C16.7552 17.3844 16.2424 17.398 15.9095 17.0806C15.5004 16.6903 15.1007 16.2896 14.7099 15.8815C14.4618 15.6231 14.4186 15.3083 14.5546 14.9785C14.6833 14.6663 14.9824 14.4819 15.3258 14.4845Z" fill="white"/>
</svg>
