<svg width="55" height="55" viewBox="0 0 55 55" fill="none" xmlns="http://www.w3.org/2000/svg">
<path d="M41.2506 38.3847C40.884 38.3847 40.5402 38.2702 40.2194 38.041C39.4631 37.4681 39.3027 36.391 39.8756 35.6347C43.4735 30.8452 43.4735 24.1535 39.8756 19.3639C39.3027 18.6077 39.4631 17.5306 40.2194 16.9577C40.9756 16.3847 42.0527 16.5452 42.6256 17.3014C47.1173 23.3056 47.1173 31.6931 42.6256 37.6972C42.2819 38.1556 41.7777 38.3847 41.2506 38.3847Z" fill="#FCFCFC"/>
<path d="M45.442 44.1146C45.0754 44.1146 44.7316 44 44.4108 43.7708C43.6545 43.1979 43.4941 42.1208 44.067 41.3646C50.1858 33.2062 50.1858 21.7937 44.067 13.6354C43.4941 12.8791 43.6545 11.8021 44.4108 11.2291C45.167 10.6562 46.2441 10.8166 46.817 11.5729C53.8524 20.9458 53.8524 34.0541 46.817 43.4271C46.4962 43.8854 45.9691 44.1146 45.442 44.1146Z" fill="#FCFCFC"/>
<path d="M32.1279 8.6639C29.5612 7.24307 26.2841 7.60973 22.9383 9.69515L16.2466 13.8889C15.7883 14.1639 15.2612 14.3243 14.7341 14.3243H12.6029H11.457C5.9112 14.3243 2.86328 17.3722 2.86328 22.9181V32.0847C2.86328 37.6306 5.9112 40.6785 11.457 40.6785H12.6029H14.7341C15.2612 40.6785 15.7883 40.8389 16.2466 41.1139L22.9383 45.3077C24.9549 46.5681 26.9258 47.1868 28.7591 47.1868C29.9508 47.1868 31.0966 46.9118 32.1279 46.3389C34.6716 44.9181 36.0924 41.9618 36.0924 38.0202V16.9827C36.0924 13.041 34.6716 10.0847 32.1279 8.6639Z" fill="#FCFCFC"/>
</svg>
