<svg width="55" height="55" viewBox="0 0 55 55" fill="none" xmlns="http://www.w3.org/2000/svg">
<path d="M36.6667 4.58203H18.3333C10.3125 4.58203 6.875 9.16536 6.875 16.0404V38.957C6.875 45.832 10.3125 50.4154 18.3333 50.4154H36.6667C44.6875 50.4154 48.125 45.832 48.125 38.957V16.0404C48.125 9.16536 44.6875 4.58203 36.6667 4.58203ZM18.3333 28.0716H27.5C28.4396 28.0716 29.2188 28.8508 29.2188 29.7904C29.2188 30.7299 28.4396 31.5091 27.5 31.5091H18.3333C17.3938 31.5091 16.6146 30.7299 16.6146 29.7904C16.6146 28.8508 17.3938 28.0716 18.3333 28.0716ZM36.6667 40.6758H18.3333C17.3938 40.6758 16.6146 39.8966 16.6146 38.957C16.6146 38.0174 17.3938 37.2383 18.3333 37.2383H36.6667C37.6063 37.2383 38.3854 38.0174 38.3854 38.957C38.3854 39.8966 37.6063 40.6758 36.6667 40.6758ZM42.3958 21.1966H37.8125C34.3292 21.1966 31.5104 18.3779 31.5104 14.8945V10.3112C31.5104 9.37161 32.2896 8.59245 33.2292 8.59245C34.1688 8.59245 34.9479 9.37161 34.9479 10.3112V14.8945C34.9479 16.4758 36.2313 17.7591 37.8125 17.7591H42.3958C43.3354 17.7591 44.1146 18.5383 44.1146 19.4779C44.1146 20.4174 43.3354 21.1966 42.3958 21.1966Z" fill="#FCFCFC"/>
</svg>
