<svg width="55" height="55" viewBox="0 0 55 55" fill="none" xmlns="http://www.w3.org/2000/svg">
<path d="M16.0404 4.58203H13.7487C6.8737 4.58203 4.58203 8.68411 4.58203 13.7487V16.0404V48.1237C4.58203 50.0258 6.7362 51.1029 8.2487 49.957L12.1674 47.0237C13.0841 46.3362 14.3674 46.4279 15.1924 47.2529L18.9966 51.08C19.8904 51.9737 21.357 51.9737 22.2508 51.08L26.1008 47.2299C26.9029 46.4279 28.1862 46.3362 29.0799 47.0237L32.9987 49.957C34.5112 51.0799 36.6654 50.0029 36.6654 48.1237V9.16536C36.6654 6.64453 38.7279 4.58203 41.2487 4.58203H16.0404ZM13.6799 32.1049C12.4195 32.1049 11.3883 31.0737 11.3883 29.8133C11.3883 28.5529 12.4195 27.5216 13.6799 27.5216C14.9404 27.5216 15.9716 28.5529 15.9716 29.8133C15.9716 31.0737 14.9404 32.1049 13.6799 32.1049ZM13.6799 22.9383C12.4195 22.9383 11.3883 21.907 11.3883 20.6466C11.3883 19.3862 12.4195 18.3549 13.6799 18.3549C14.9404 18.3549 15.9716 19.3862 15.9716 20.6466C15.9716 21.907 14.9404 22.9383 13.6799 22.9383ZM27.4987 31.532H20.6237C19.6841 31.532 18.9049 30.7529 18.9049 29.8133C18.9049 28.8737 19.6841 28.0945 20.6237 28.0945H27.4987C28.4383 28.0945 29.2174 28.8737 29.2174 29.8133C29.2174 30.7529 28.4383 31.532 27.4987 31.532ZM27.4987 22.3654H20.6237C19.6841 22.3654 18.9049 21.5862 18.9049 20.6466C18.9049 19.707 19.6841 18.9279 20.6237 18.9279H27.4987C28.4383 18.9279 29.2174 19.707 29.2174 20.6466C29.2174 21.5862 28.4383 22.3654 27.4987 22.3654Z" fill="#FCFCFC"/>
<path d="M41.2742 4.58203V8.01953C42.7867 8.01953 44.2305 8.63828 45.2846 9.66953C46.3846 10.7924 46.9805 12.2362 46.9805 13.7487V19.2945C46.9805 20.9904 46.2242 21.7695 44.5055 21.7695H40.1055V9.18828C40.1055 8.54662 40.6326 8.01953 41.2742 8.01953V4.58203ZM41.2742 4.58203C38.7305 4.58203 36.668 6.64453 36.668 9.18828V25.207H44.5055C48.1263 25.207 50.418 22.9154 50.418 19.2945V13.7487C50.418 11.2279 49.3867 8.9362 47.7367 7.26328C46.0638 5.61328 43.7951 4.60495 41.2742 4.58203C41.2971 4.58203 41.2742 4.58203 41.2742 4.58203Z" fill="#FCFCFC"/>
</svg>
