<svg width="24" height="24" viewBox="0 0 24 24" fill="none" xmlns="http://www.w3.org/2000/svg">
<path d="M18.5398 4.12375L13.0398 2.06375C12.4698 1.85375 11.5398 1.85375 10.9698 2.06375L5.4698 4.12375C4.4098 4.52375 3.5498 5.76375 3.5498 6.89375V14.9937C3.5498 15.8038 4.0798 16.8738 4.7298 17.3538L10.2298 21.4637C11.1998 22.1937 12.7898 22.1937 13.7598 21.4637L19.2598 17.3538C19.9098 16.8638 20.4398 15.8038 20.4398 14.9937V6.89375C20.4498 5.76375 19.5898 4.52375 18.5398 4.12375ZM15.4798 9.72375L11.1798 14.0238C11.0298 14.1737 10.8398 14.2437 10.6498 14.2437C10.4598 14.2437 10.2698 14.1737 10.1198 14.0238L8.5198 12.4037C8.2298 12.1137 8.2298 11.6337 8.5198 11.3438C8.8098 11.0538 9.2898 11.0538 9.5798 11.3438L10.6598 12.4237L14.4298 8.65375C14.7198 8.36375 15.1998 8.36375 15.4898 8.65375C15.7798 8.94375 15.7798 9.43375 15.4798 9.72375Z" fill="#4568DC"/>
</svg>
