<svg width="40" height="40" viewBox="0 0 40 40" fill="none" xmlns="http://www.w3.org/2000/svg">
<path d="M18.3333 30V35C18.3333 35.9167 17.5833 36.6667 16.6667 36.6667C15.75 36.6667 15 35.9167 15 35V30H18.3333Z" fill="#573CFF"/>
<path d="M24.9998 30V35C24.9998 35.9167 24.2498 36.6667 23.3332 36.6667C22.4165 36.6667 21.6665 35.9167 21.6665 35V30H24.9998Z" fill="#573CFF"/>
<path d="M28.3332 18.3333V26.6667C28.3332 28.5 26.8332 30 24.9998 30H14.9998C13.1665 30 11.6665 28.5 11.6665 26.6667V18.3333C11.6665 16.5 13.1665 15 14.9998 15H24.9998C26.8332 15 28.3332 16.5 28.3332 18.3333Z" fill="#573CFF"/>
<path d="M8.33333 18.3346V25.0013C8.33333 25.918 7.58333 26.668 6.66667 26.668C5.75 26.668 5 25.918 5 25.0013V18.3346C5 17.418 5.75 16.668 6.66667 16.668C7.58333 16.668 8.33333 17.418 8.33333 18.3346Z" fill="#573CFF"/>
<path d="M35.0003 18.3346V25.0013C35.0003 25.918 34.2503 26.668 33.3337 26.668C32.417 26.668 31.667 25.918 31.667 25.0013V18.3346C31.667 17.418 32.417 16.668 33.3337 16.668C34.2503 16.668 35.0003 17.418 35.0003 18.3346Z" fill="#573CFF"/>
<path d="M15.9996 12.6654H23.9997C25.4664 12.6654 26.6663 11.4654 26.6663 9.9987C26.6663 6.31536 23.683 3.33203 19.9997 3.33203C16.3163 3.33203 13.333 6.31536 13.333 9.9987C13.333 11.4654 14.533 12.6654 15.9996 12.6654Z" fill="#573CFF"/>
</svg>
