<svg width="23" height="23" viewBox="0 0 23 23" fill="none" xmlns="http://www.w3.org/2000/svg">
<path d="M0.00116033 11.0204C0.00116033 8.1286 0.000546759 5.23623 0.00116033 2.34448C0.00116033 0.93756 0.935015 0.00493506 2.34316 0.00432149C3.69731 0.00370792 5.05146 0.00800246 6.40561 2.60485e-05C6.5774 -0.00120109 6.61729 0.0405224 6.61667 0.211708C6.60992 2.06285 6.61176 3.9146 6.61238 5.76636C6.61299 6.74316 7.22227 7.35059 8.20275 7.35059C10.0846 7.35121 11.9664 7.35121 13.8482 7.35059C14.8115 7.34998 15.4251 6.73764 15.4257 5.77617C15.4269 3.92442 15.4288 2.07328 15.4214 0.221524C15.4208 0.0386801 15.4705 -0.00549548 15.646 0.000640218C16.0509 0.0141388 16.4565 0.00738874 16.8621 0.00370732C17.0891 0.00186661 17.2781 0.0804046 17.4382 0.240546C18.893 1.69593 20.3484 3.15132 21.8038 4.6061C21.9639 4.76624 22.0381 4.95645 22.0381 5.18285C22.0369 10.0638 22.0406 14.9454 22.0351 19.8263C22.0338 21.0737 21.0693 22.0278 19.8238 22.0413C19.4108 22.0456 18.9973 22.0327 18.5844 22.0462C18.407 22.0523 18.3598 22.0063 18.3604 21.8247C18.3678 19.7134 18.3672 17.6015 18.3641 15.4902C18.3629 14.4238 17.7198 13.5734 16.7191 13.301C16.5191 13.2464 16.3148 13.2268 16.1068 13.2268C12.718 13.2274 9.32865 13.2255 5.93991 13.228C4.62687 13.2292 3.67645 14.1864 3.67461 15.5056C3.67215 17.6021 3.67031 19.6981 3.67951 21.7946C3.68074 22.0131 3.61448 22.0566 3.41568 22.0462C2.89721 22.0186 2.37384 22.0922 1.85844 22.0063C0.749103 21.8223 0.00300164 20.9295 0.0017745 19.7883C-0.00129335 17.072 0.000548032 14.3563 0.000548032 11.6401C0.0011616 11.4333 0.00116033 11.2271 0.00116033 11.0204Z" fill="#8C8C89"/>
<path d="M10.9989 22.0408C9.11707 22.0408 7.23525 22.0384 5.35404 22.0445C5.19022 22.0451 5.13806 22.0163 5.13868 21.8377C5.14604 19.7264 5.14297 17.6151 5.1442 15.5038C5.1442 14.9897 5.44055 14.6958 5.95718 14.6958C9.33059 14.6952 12.704 14.6952 16.0768 14.6958C16.6026 14.6958 16.8953 14.9915 16.8959 15.5222C16.8965 17.6262 16.8941 19.7295 16.9002 21.8334C16.9008 22.0028 16.8634 22.0463 16.6897 22.0457C14.7926 22.0384 12.896 22.0408 10.9989 22.0408Z" fill="#8C8C89"/>
<path d="M11.0425 0.0043026C11.9531 0.0043026 12.8636 0.00798417 13.7735 0.000621326C13.9233 -0.000605814 13.9613 0.0386625 13.9607 0.188374C13.9552 2.02479 13.9552 3.8612 13.9607 5.69701C13.9613 5.84672 13.9226 5.88476 13.7729 5.88414C11.9365 5.87862 10.1007 5.87862 8.26429 5.88414C8.11458 5.88476 8.07654 5.8461 8.07716 5.69639C8.08268 3.85998 8.08268 2.02356 8.07716 0.187759C8.07654 0.0380483 8.1152 -0.000606414 8.26491 7.15643e-06C9.1914 0.00798357 10.1167 0.0043026 11.0425 0.0043026Z" fill="#8C8C89"/>
</svg>
