<svg width="150" height="172" viewBox="0 0 150 172" fill="none" xmlns="http://www.w3.org/2000/svg">
<path d="M71.1536 3.47795C72.2579 -0.391753 77.7421 -0.391754 78.8464 3.47795L92.2716 50.5201C92.8641 52.596 94.9967 53.8273 97.0906 53.3024L144.543 41.4079C148.446 40.4294 151.188 45.1788 148.389 48.0701L114.362 83.2178C112.861 84.7687 112.861 87.2313 114.362 88.7822L148.389 123.93C151.188 126.821 148.446 131.571 144.543 130.592L97.0906 118.698C94.9967 118.173 92.8641 119.404 92.2716 121.48L78.8464 168.522C77.7421 172.392 72.2579 172.392 71.1536 168.522L57.7284 121.48C57.1359 119.404 55.0033 118.173 52.9094 118.698L5.45703 130.592C1.55358 131.571 -1.18849 126.821 1.6106 123.93L35.6377 88.7822C37.1392 87.2313 37.1392 84.7687 35.6377 83.2178L1.6106 48.0701C-1.18849 45.1788 1.55358 40.4294 5.45703 41.4079L52.9094 53.3024C55.0033 53.8273 57.1359 52.596 57.7284 50.5201L71.1536 3.47795Z" fill="url(#paint0_linear_943_2320)"/>
<defs>
<linearGradient id="paint0_linear_943_2320" x1="-21" y1="86" x2="171" y2="86" gradientUnits="userSpaceOnUse">
<stop stop-color="#4568DC"/>
<stop offset="1" stop-color="#B06AB3"/>
</linearGradient>
</defs>
</svg>
