<svg width="20" height="22" viewBox="0 0 20 22" fill="none" xmlns="http://www.w3.org/2000/svg">
<path d="M2.53064 21.9901C2.28745 21.9901 2.04383 21.9901 1.80063 21.9901C1.68677 21.8986 1.5394 21.8964 1.41006 21.8462C0.211714 21.3808 -0.339123 19.9943 0.228042 18.8307C0.397332 18.4836 0.495296 18.1304 0.406784 17.7548C0.0153547 16.0972 -0.0950705 14.4227 0.0819537 12.7298C0.221167 11.4004 0.507757 10.1097 1.12133 8.90964C1.18363 8.78848 1.16472 8.75711 1.04356 8.7034C0.638377 8.52466 0.404206 8.21014 0.376278 7.7607C0.36038 7.50118 0.456626 7.3899 0.720874 7.33447C0.965356 7.34006 1.07363 7.48357 1.11144 7.70914C1.14968 7.93902 1.26827 8.04472 1.49729 8.06749C1.54713 8.07264 1.5974 8.0705 1.64724 8.0705C6.90641 8.0705 12.1651 8.0705 17.4243 8.0705C17.46 8.0705 17.4961 8.07179 17.5317 8.06921C17.8132 8.05159 17.9494 7.91453 17.9515 7.63481C17.9545 7.22705 17.9528 6.8193 17.9524 6.41154C17.9524 5.95781 17.8716 5.87789 17.4136 5.87789C12.1617 5.87789 6.90984 5.87789 1.65798 5.87789C1.59353 5.87789 1.52908 5.8766 1.46463 5.87918C1.26527 5.88734 1.13508 5.98874 1.11531 6.18768C1.09125 6.43044 0.964067 6.56364 0.732474 6.61091C0.414948 6.50736 0.338037 6.3849 0.383153 6.05405C0.442877 5.61235 0.825283 5.21663 1.26956 5.15432C1.4453 5.12983 1.62619 5.12811 1.80407 5.13241C1.92309 5.13542 1.97981 5.09417 2.02406 4.98332C2.15898 4.64559 2.29862 4.30959 2.45201 3.98004C2.86235 3.09835 3.54939 2.61325 4.52861 2.57287C5.04593 2.55181 5.46744 2.35932 5.78454 1.94469C5.99679 1.66755 6.26706 1.4626 6.58115 1.30963C6.95883 1.12574 7.36014 1.08921 7.77133 1.1021C8.11464 1.11285 8.43303 1.03765 8.73293 0.860629C9.28034 0.536658 9.79852 0.152103 10.4331 0C10.7623 0 11.0918 0 11.421 0C11.8854 0.125464 12.3087 0.32526 12.6743 0.647513C13.2883 1.18847 13.9453 1.6495 14.7363 1.92191C15.2884 2.11183 15.6975 2.53248 15.9209 3.07386C16.1572 3.64704 16.5177 4.14632 16.7957 4.692C16.9633 5.02027 17.1635 5.21534 17.5519 5.13155C17.5988 5.12124 17.6516 5.13499 17.7014 5.14057C18.2656 5.20202 18.6734 5.63169 18.6858 6.20057C18.697 6.70844 18.6931 7.21674 18.6871 7.72504C18.6828 8.10315 18.5097 8.39748 18.1999 8.60801C18.101 8.67504 17.9872 8.72059 17.8763 8.77773C18.0757 9.1567 18.2501 9.53954 18.3816 9.94042C19.2006 12.4364 19.2556 14.9663 18.7013 17.5189C18.5999 17.9864 18.6274 18.4101 18.8396 18.8475C19.4485 20.1017 18.758 21.56 17.4084 21.9231C17.3457 21.9398 17.261 21.9119 17.2185 21.9901C16.9607 21.9901 16.7029 21.9901 16.4455 21.9901C16.0511 21.8187 15.6614 21.6356 15.2605 21.4801C15.0594 21.4019 14.8394 21.4165 14.6246 21.4616C13.5594 21.6842 12.4852 21.8427 11.4003 21.9299C11.2358 21.9433 11.0609 21.8977 10.9049 21.9901C9.97425 21.9901 9.04359 21.9901 8.11335 21.9901C8.09273 21.936 8.04417 21.9501 8.00464 21.9476C6.84024 21.8788 5.687 21.7258 4.54709 21.4784C4.22483 21.4083 3.9 21.3954 3.60224 21.5424C3.25421 21.7147 2.9079 21.8883 2.53064 21.9901ZM9.54544 8.8018C7.11952 8.8018 4.69317 8.80351 2.26726 8.79793C2.09367 8.7975 1.99485 8.85207 1.91106 9.00073C1.6915 9.3883 1.50459 9.79004 1.3671 10.2124C0.613886 12.5257 0.551154 14.8739 1.05645 17.2409C1.20039 17.9155 1.20812 18.5506 0.878562 19.1783C0.675758 19.565 0.68564 19.9805 0.864813 20.3818C1.23347 21.2072 2.18906 21.493 2.99984 21.022C3.48924 20.738 4.01043 20.6289 4.56814 20.7415C5.5074 20.9314 6.45182 21.0917 7.40697 21.1694C8.54861 21.2627 9.69153 21.2893 10.8366 21.224C11.7157 21.1737 12.5888 21.0835 13.4563 20.9344C13.8082 20.8738 14.1584 20.8021 14.5099 20.7376C15.0607 20.6366 15.575 20.735 16.0575 21.0173C16.7145 21.4014 17.4471 21.3078 17.9382 20.781C18.3584 20.3298 18.4456 19.6884 18.144 19.0855C17.8888 18.5755 17.8312 18.0466 17.958 17.5C18.3704 15.7234 18.4383 13.9342 18.1625 12.133C17.9962 11.0451 17.7122 9.99327 17.1656 9.02479C17.0754 8.86453 16.9753 8.79621 16.7807 8.79664C14.3694 8.80437 11.9572 8.8018 9.54544 8.8018ZM16.2096 5.12983C16.1031 4.9498 16.0176 4.81102 15.9372 4.66966C15.7572 4.35299 15.5183 4.06468 15.4036 3.71751C15.1883 3.06742 14.7561 2.66181 14.115 2.44525C13.7291 2.31506 13.3553 2.15394 13.0369 1.88453C12.7418 1.63532 12.4234 1.41319 12.1355 1.15624C11.6581 0.73044 11.1008 0.671575 10.507 0.763524C10.0675 0.831412 9.72461 1.11027 9.36799 1.34143C8.81973 1.69677 8.23795 1.87336 7.58443 1.84071C7.07011 1.81493 6.65548 2.0259 6.33623 2.42979C5.88078 3.00554 5.28053 3.28311 4.55053 3.30545C3.89528 3.32565 3.42909 3.64876 3.14507 4.23311C3.04195 4.44494 2.9586 4.66579 2.86622 4.88277C2.76138 5.1294 2.76138 5.12983 3.0252 5.12983C7.33436 5.12983 11.6435 5.12983 15.9527 5.12983C16.0232 5.12983 16.094 5.12983 16.2096 5.12983Z" fill="#747474"/>
<path d="M2.52954 21.9918C2.90679 21.8895 3.25268 21.7163 3.60157 21.544C3.89933 21.3971 4.22416 21.4104 4.54641 21.48C5.68633 21.7275 6.83956 21.88 8.00397 21.9492C8.0435 21.9514 8.09248 21.9376 8.11268 21.9918C6.2522 21.9918 4.39087 21.9918 2.52954 21.9918Z" fill="#FAFAFA"/>
<path d="M10.9055 21.9911C11.0615 21.8988 11.2364 21.9443 11.4009 21.931C12.4858 21.8433 13.56 21.6852 14.6252 21.4626C14.84 21.4179 15.06 21.4029 15.2611 21.4811C15.6615 21.6367 16.0517 21.8197 16.4461 21.9911C14.599 21.9911 12.7522 21.9911 10.9055 21.9911Z" fill="#FAFAFA"/>
<path d="M9.54454 8.80203C11.9563 8.80203 14.368 8.80461 16.7798 8.79688C16.9744 8.79645 17.0741 8.86476 17.1647 9.02503C17.7113 9.99351 17.9949 11.0453 18.1616 12.1333C18.437 13.9344 18.3695 15.7236 17.9571 17.5003C17.8303 18.0468 17.8879 18.5757 18.1431 19.0858C18.4447 19.6886 18.3575 20.3301 17.9373 20.7812C17.4466 21.308 16.7136 21.4017 16.0566 21.0176C15.5741 20.7353 15.0594 20.6369 14.5089 20.7378C14.1575 20.8023 13.8073 20.8741 13.4554 20.9346C12.5883 21.0837 11.7148 21.174 10.8357 21.2242C9.69063 21.2895 8.54727 21.2629 7.40607 21.1697C6.45048 21.0915 5.5065 20.9316 4.56724 20.7417C4.00953 20.6291 3.48834 20.7383 2.99894 21.0223C2.18815 21.4932 1.23257 21.2075 0.863909 20.3821C0.684737 19.9808 0.674854 19.5653 0.877659 19.1786C1.20722 18.5508 1.19948 17.9158 1.05554 17.2412C0.55025 14.8741 0.612982 12.5264 1.36619 10.2126C1.50369 9.79028 1.69102 9.38853 1.91016 9.00097C1.99437 8.8523 2.0932 8.79774 2.26635 8.79817C4.69227 8.80418 7.11862 8.80203 9.54454 8.80203ZM14.6516 13.9293C14.6516 14.3585 14.6503 14.7878 14.652 15.217C14.6529 15.4099 14.6413 15.6054 14.6684 15.7949C14.7087 16.0768 14.9919 16.2087 15.2166 16.0673C15.3588 15.9775 15.4022 15.8366 15.4035 15.6793C15.4057 15.3932 15.4039 15.107 15.4052 14.8209C15.4057 14.75 15.4009 14.6821 15.4993 14.6563C15.9728 14.5308 16.4717 14.8926 16.4889 15.3803C16.4936 15.5161 16.4811 15.6531 16.4957 15.7876C16.5172 15.9818 16.6302 16.0987 16.8317 16.1137C17.0234 16.1283 17.1909 16.0231 17.2094 15.8413C17.2597 15.3403 17.2399 14.8462 16.8683 14.4509C16.7544 14.3297 16.7617 14.2679 16.867 14.1415C17.2524 13.6788 17.3422 13.1529 17.0938 12.5986C16.8421 12.0366 16.3857 11.7552 15.7739 11.7285C15.5668 11.7195 15.3588 11.7259 15.1517 11.7268C14.7801 11.7281 14.6533 11.8548 14.652 12.2338C14.6503 12.7988 14.6516 13.3638 14.6516 13.9293ZM13.9203 14.3203C13.919 14.3203 13.9181 14.3203 13.9169 14.3203C13.9169 13.8481 13.9293 13.3754 13.9139 12.9037C13.8924 12.2566 13.3076 11.7264 12.6412 11.7277C11.9786 11.7289 11.387 12.2669 11.3767 12.9127C11.362 13.8567 11.3685 14.8015 11.3728 15.7459C11.3741 16.0239 11.6001 16.1842 11.854 16.0978C12.0358 16.036 12.0981 15.8864 12.1011 15.7098C12.1058 15.4164 12.1067 15.1229 12.1011 14.8299C12.0985 14.7027 12.1406 14.6486 12.2734 14.652C12.5166 14.6589 12.7602 14.6593 13.003 14.6516C13.1409 14.6473 13.1946 14.695 13.1907 14.8368C13.183 15.1229 13.1847 15.4091 13.1899 15.6952C13.195 15.9655 13.3398 16.1189 13.5727 16.1146C13.8004 16.1103 13.9181 15.9711 13.9199 15.6939C13.922 15.2359 13.9203 14.7779 13.9203 14.3203ZM4.76403 13.5353C4.76446 13.5353 4.76446 13.5353 4.76489 13.5353C4.76489 13.9791 4.75629 14.423 4.76703 14.8664C4.77864 15.3476 5.00335 15.7206 5.41841 15.9569C6.26057 16.4356 7.30767 15.8491 7.33045 14.8763C7.35193 13.968 7.3356 13.0588 7.3356 12.15C7.3356 12.1217 7.3356 12.0924 7.33131 12.0645C7.30037 11.8647 7.13237 11.7191 6.94761 11.7302C6.75082 11.7427 6.61676 11.8866 6.60602 12.1006C6.60258 12.1651 6.60473 12.2295 6.60473 12.294C6.60473 13.1168 6.60688 13.94 6.60344 14.7628C6.60216 15.1233 6.40794 15.3588 6.10889 15.3811C5.73981 15.4086 5.49876 15.1758 5.49704 14.7744C5.49318 13.9087 5.49661 13.0424 5.49533 12.1767C5.4949 11.9017 5.36041 11.7363 5.13999 11.7302C4.91871 11.7242 4.76575 11.9051 4.76446 12.1835C4.76274 12.6338 4.76403 13.0846 4.76403 13.5353ZM8.06862 13.9314C8.06862 14.2391 8.06518 14.5467 8.06948 14.8544C8.07807 15.5186 8.58551 16.0746 9.2124 16.112C9.95272 16.1563 10.507 15.7206 10.6148 15.0172C10.6509 14.7813 10.6441 14.5459 10.6346 14.3108C10.6256 14.0891 10.4872 13.9478 10.2733 13.9271C10.1456 13.9147 10.015 13.9151 9.88741 13.9284C9.69707 13.9482 9.56473 14.0535 9.53766 14.2494C9.51188 14.4359 9.60082 14.5742 9.77699 14.6331C9.88312 14.6688 9.9003 14.722 9.893 14.8226C9.86636 15.1831 9.65754 15.3923 9.32197 15.3824C9.01175 15.373 8.80336 15.1422 8.80121 14.7946C8.7982 14.2223 8.79906 13.65 8.80078 13.0777C8.80164 12.7425 8.96706 12.526 9.25881 12.4701C9.52134 12.4199 9.76711 12.5831 9.87925 12.8813C9.97593 13.1391 10.1555 13.2453 10.3691 13.1705C10.5745 13.0987 10.6514 12.8946 10.5714 12.6343C10.3871 12.0336 9.79031 11.6482 9.17889 11.7341C8.5477 11.823 8.07893 12.3503 8.06948 12.9875C8.06475 13.3015 8.06862 13.6165 8.06862 13.9314ZM2.72094 16.115C3.27608 16.1202 3.74829 15.8147 3.93863 15.3274C4.14186 14.8071 4.01081 14.2507 3.59232 13.8812C3.35857 13.6749 3.08444 13.5744 2.76993 13.5641C2.51255 13.5555 2.32006 13.4309 2.23155 13.1778C2.15421 12.9561 2.2221 12.7683 2.38408 12.6132C2.68958 12.3202 3.12397 12.4611 3.29026 12.9041C3.3749 13.1301 3.55364 13.2349 3.75344 13.1752C3.95367 13.1155 4.04691 12.9273 3.99234 12.694C3.86816 12.1646 3.36416 11.753 2.81289 11.7298C2.10652 11.7002 1.51013 12.2415 1.46545 12.9531C1.42162 13.6509 1.98965 14.2515 2.73942 14.3001C3.06038 14.3207 3.27522 14.5175 3.29928 14.8127C3.31905 15.0572 3.12655 15.321 2.8898 15.3734C2.58689 15.4404 2.33424 15.2926 2.22167 14.9816C2.12929 14.7268 1.96086 14.6146 1.76106 14.6752C1.53462 14.7439 1.44525 14.9463 1.52388 15.214C1.67856 15.7434 2.16495 16.1094 2.72094 16.115Z" fill="#747474"/>
<path d="M0.720459 7.33538C0.724326 7.09434 0.728623 6.85329 0.73249 6.61225C0.964082 6.56541 1.09126 6.43222 1.11533 6.18902C1.13509 5.99008 1.26485 5.88868 1.46465 5.88052C1.5291 5.87794 1.59355 5.87923 1.658 5.87923C6.90986 5.87923 12.1617 5.87923 17.4136 5.87923C17.872 5.87923 17.9524 5.95915 17.9524 6.41288C17.9524 6.82064 17.9545 7.22839 17.9515 7.63615C17.9494 7.91544 17.8132 8.05293 17.5317 8.07055C17.4961 8.0727 17.4604 8.07184 17.4243 8.07184C12.1652 8.07184 6.90642 8.07184 1.64726 8.07184C1.59699 8.07184 1.54671 8.07398 1.4973 8.06883C1.26829 8.04606 1.15013 7.94036 1.11146 7.71048C1.07322 7.48405 0.964941 7.34097 0.720459 7.33538Z" fill="#FBF4FF"/>
<path d="M16.209 5.13003C16.0939 5.13003 16.023 5.13003 15.9521 5.13003C11.6429 5.13003 7.33378 5.13003 3.02461 5.13003C2.7608 5.13003 2.76037 5.1296 2.86564 4.88297C2.95801 4.66599 3.0418 4.44514 3.14449 4.23331C3.4285 3.64853 3.8947 3.32584 4.54994 3.30565C5.27995 3.28331 5.8802 3.00531 6.33565 2.42998C6.6549 2.02609 7.06953 1.81512 7.58384 1.8409C8.2378 1.87399 8.81915 1.69696 9.36741 1.34163C9.7236 1.11046 10.0669 0.831609 10.5065 0.763721C11.1003 0.672201 11.6575 0.730636 12.1349 1.15644C12.4228 1.41338 12.7412 1.63552 13.0364 1.88473C13.3547 2.1537 13.7286 2.31483 14.1144 2.44545C14.7555 2.662 15.1877 3.06761 15.403 3.7177C15.5181 4.06488 15.7566 4.35319 15.9366 4.66985C16.017 4.81121 16.1021 4.95 16.209 5.13003ZM10.2598 4.39315C10.2598 4.39272 10.2598 4.39186 10.2598 4.39143C10.3952 4.39143 10.531 4.40088 10.665 4.38928C10.8618 4.37166 10.9765 4.25264 10.9907 4.05714C11.0049 3.86078 10.9061 3.7147 10.714 3.68376C10.4188 3.6365 10.1172 3.63993 9.82157 3.68161C9.62865 3.70911 9.53154 3.85391 9.53412 4.04898C9.53627 4.23546 9.67677 4.37596 9.87571 4.39143C10.0029 4.40131 10.1314 4.39315 10.2598 4.39315ZM6.23984 4.39443C6.23984 4.39529 6.23984 4.39615 6.23984 4.39701C6.30429 4.39701 6.36874 4.39744 6.43319 4.39701C6.49764 4.39615 6.56252 4.39873 6.62611 4.39186C6.81946 4.37123 6.94621 4.24362 6.9591 4.06187C6.97242 3.86895 6.85942 3.70224 6.66263 3.67817C6.37862 3.64294 6.09031 3.64509 5.8063 3.67731C5.61295 3.69923 5.48619 3.87539 5.49908 4.05671C5.5124 4.2419 5.65205 4.38025 5.85313 4.39357C5.9816 4.40131 6.11093 4.39443 6.23984 4.39443ZM13.1945 4.39143C13.3303 4.39143 13.4673 4.40174 13.6018 4.38885C13.7891 4.37123 13.9017 4.25866 13.9198 4.07003C13.9382 3.87281 13.8497 3.72071 13.6551 3.6872C13.3522 3.63521 13.0415 3.63778 12.7377 3.68634C12.5508 3.71641 12.4658 3.86422 12.4645 4.04683C12.4632 4.22428 12.602 4.37166 12.7872 4.38885C12.9216 4.40131 13.0587 4.39143 13.1945 4.39143ZM8.09086 2.5722C8.09086 2.57134 8.09086 2.57091 8.09086 2.57005C7.96926 2.57005 7.84766 2.57005 7.72564 2.57005C7.71146 2.57005 7.69685 2.57048 7.68267 2.57177C7.48932 2.58853 7.35655 2.71185 7.3385 2.89102C7.3196 3.08093 7.43088 3.26053 7.62251 3.28546C7.91297 3.3237 8.20901 3.32112 8.4999 3.28674C8.69153 3.26397 8.82086 3.07878 8.79465 2.89918C8.76673 2.70798 8.65587 2.58681 8.45565 2.57306C8.33448 2.56533 8.21245 2.5722 8.09086 2.5722ZM11.3628 2.56877C11.4844 2.56877 11.6064 2.5765 11.7276 2.56705C11.9484 2.55029 12.0997 2.39389 12.0975 2.19624C12.0954 1.9973 11.942 1.84563 11.7194 1.83919C11.4835 1.83231 11.2472 1.83231 11.0113 1.83919C10.7806 1.84563 10.6397 1.98527 10.6367 2.19409C10.6336 2.40033 10.7737 2.55029 10.998 2.56791C11.1192 2.57693 11.2412 2.56919 11.3628 2.56877Z" fill="#747474"/>
<path d="M14.6522 13.9282C14.6522 13.3632 14.6509 12.7977 14.6526 12.2327C14.6539 11.8533 14.7802 11.727 15.1523 11.7257C15.3599 11.7248 15.5674 11.7184 15.7745 11.7274C16.3863 11.754 16.8427 12.0355 17.0944 12.5975C17.3428 13.1518 17.253 13.6777 16.8676 14.1404C16.7623 14.2668 16.7546 14.3282 16.8689 14.4498C17.2405 14.8451 17.2603 15.3392 17.21 15.8402C17.1916 16.0224 17.024 16.1272 16.8323 16.1126C16.6308 16.0972 16.5178 15.9807 16.4963 15.7865C16.4813 15.652 16.4942 15.5149 16.4895 15.3792C16.4727 14.8915 15.9734 14.5297 15.4999 14.6552C15.4015 14.6814 15.4063 14.7493 15.4058 14.8197C15.4046 15.1059 15.4063 15.3921 15.4041 15.6782C15.4028 15.8355 15.3594 15.9764 15.2172 16.0662C14.9925 16.208 14.7089 16.0757 14.669 15.7938C14.6419 15.6043 14.6535 15.4088 14.6526 15.2159C14.6509 14.7867 14.6522 14.3574 14.6522 13.9282ZM15.4063 13.1844C15.4063 13.3773 15.4054 13.5703 15.4067 13.7636C15.4071 13.8272 15.4054 13.8882 15.4892 13.9157C15.9472 14.067 16.4744 13.7013 16.4895 13.2179C16.5041 12.7535 16.1444 12.4493 15.6039 12.4548C15.4591 12.4561 15.3942 12.4944 15.4028 12.6486C15.4136 12.8265 15.4058 13.0057 15.4063 13.1844Z" fill="#FBF4FF"/>
<path d="M13.921 14.3192C13.921 14.7772 13.9228 15.2348 13.9206 15.6929C13.9193 15.97 13.8012 16.1092 13.5734 16.1135C13.3406 16.1178 13.1958 15.9644 13.1906 15.6941C13.1854 15.408 13.1833 15.1218 13.1915 14.8357C13.1953 14.6939 13.1416 14.6462 13.0037 14.6505C12.7605 14.6578 12.5173 14.6573 12.2741 14.6509C12.1418 14.6475 12.0997 14.7016 12.1018 14.8288C12.1078 15.1218 12.1065 15.4153 12.1018 15.7087C12.0992 15.8853 12.0369 16.0349 11.8548 16.0967C11.6008 16.1831 11.3748 16.0228 11.3735 15.7448C11.3692 14.8004 11.3624 13.856 11.3774 12.9116C11.3877 12.2658 11.9794 11.7279 12.6419 11.7266C13.3083 11.7253 13.8931 12.2559 13.9146 12.9026C13.9301 13.3744 13.9176 13.847 13.9176 14.3192C13.9189 14.3192 13.9202 14.3192 13.921 14.3192ZM13.1867 13.3662C13.1867 13.2373 13.1932 13.1084 13.1854 12.9799C13.1678 12.68 12.9255 12.4536 12.6368 12.46C12.3532 12.4665 12.1237 12.6877 12.107 12.9786C12.0992 13.114 12.104 13.2502 12.104 13.3864C12.1035 13.92 12.104 13.92 12.6458 13.92C13.1893 13.92 13.1893 13.92 13.1867 13.3662Z" fill="#FBF4FF"/>
<path d="M4.76485 13.537C4.76485 13.0863 4.76313 12.6351 4.76528 12.1844C4.76656 11.9064 4.9191 11.7251 5.14081 11.7311C5.36123 11.7371 5.49572 11.903 5.49614 12.1775C5.49743 13.0433 5.494 13.9095 5.49786 14.7753C5.49958 15.1766 5.74063 15.4095 6.10971 15.382C6.40876 15.3597 6.60297 15.1242 6.60426 14.7637C6.6077 13.9409 6.60555 13.1177 6.60555 12.2948C6.60555 12.2304 6.60383 12.1659 6.60684 12.1015C6.61758 11.8879 6.75207 11.7436 6.94843 11.7311C7.13319 11.7195 7.30119 11.8652 7.33213 12.0654C7.33642 12.0933 7.33642 12.1225 7.33642 12.1509C7.33642 13.0597 7.35275 13.9688 7.33127 14.8772C7.30849 15.8499 6.26096 16.4364 5.41923 15.9578C5.00374 15.7219 4.77945 15.3489 4.76785 14.8673C4.75711 14.4239 4.76571 13.98 4.76571 13.5362C4.76528 13.537 4.76528 13.537 4.76485 13.537Z" fill="#FBF4FF"/>
<path d="M8.06961 13.9324C8.06961 13.6174 8.06574 13.3029 8.07046 12.988C8.07992 12.3508 8.54869 11.8235 9.17987 11.7346C9.79129 11.6487 10.3877 12.0341 10.5724 12.6348C10.6524 12.8951 10.5754 13.0992 10.3701 13.171C10.1565 13.2458 9.97691 13.1401 9.88023 12.8818C9.76809 12.5832 9.52232 12.4204 9.25979 12.4706C8.96805 12.5265 8.80262 12.743 8.80176 13.0782C8.80005 13.6505 8.79918 14.2228 8.80219 14.7951C8.80391 15.1428 9.01273 15.3735 9.32295 15.3829C9.65853 15.3928 9.86735 15.184 9.89398 14.8231C9.90129 14.7225 9.8841 14.6688 9.77797 14.6336C9.60138 14.5747 9.51287 14.4364 9.53865 14.2499C9.56572 14.054 9.69805 13.9487 9.8884 13.9289C10.0156 13.9156 10.1466 13.9152 10.2742 13.9276C10.4886 13.9483 10.627 14.0896 10.6356 14.3113C10.645 14.5464 10.6519 14.7823 10.6158 15.0177C10.508 15.7211 9.95371 16.1568 9.21339 16.1125C8.5865 16.0751 8.07949 15.5187 8.07046 14.8549C8.06617 14.5477 8.06961 14.24 8.06961 13.9324Z" fill="#FBF4FF"/>
<path d="M2.72118 16.1142C2.16475 16.109 1.6788 15.7425 1.52326 15.2119C1.44506 14.9442 1.534 14.7418 1.76043 14.6731C1.96023 14.6125 2.12866 14.7246 2.22104 14.9794C2.33404 15.2905 2.58626 15.4388 2.88918 15.3713C3.12593 15.3189 3.31885 15.0551 3.29865 14.8106C3.27459 14.5154 3.05976 14.319 2.73879 14.298C1.98902 14.2499 1.42056 13.6487 1.46482 12.951C1.50951 12.2394 2.10589 11.6985 2.81227 11.7277C3.36353 11.7509 3.86754 12.1629 3.99171 12.6919C4.04628 12.9252 3.95304 13.1134 3.75281 13.1731C3.55302 13.2328 3.37428 13.128 3.28963 12.902C3.12378 12.459 2.68938 12.3181 2.38346 12.6111C2.22147 12.7666 2.15315 12.9544 2.23092 13.1757C2.31944 13.4288 2.51193 13.5534 2.7693 13.562C3.08382 13.5723 3.35795 13.6728 3.59169 13.8791C4.01019 14.2486 4.14124 14.8054 3.938 15.3253C3.74852 15.8139 3.27631 16.1193 2.72118 16.1142Z" fill="#FBF4FF"/>
<path d="M10.2592 4.39225C10.1312 4.39225 10.0023 4.39999 9.87507 4.39053C9.6757 4.3755 9.53563 4.23456 9.53348 4.04809C9.53133 3.85302 9.62801 3.70822 9.82093 3.68072C10.1165 3.63904 10.4182 3.6356 10.7134 3.68287C10.9054 3.71337 11.0042 3.85989 10.9901 4.05625C10.9763 4.25175 10.8616 4.3712 10.6644 4.38839C10.5303 4.40042 10.3941 4.39053 10.2592 4.39053C10.2592 4.39139 10.2592 4.39182 10.2592 4.39225Z" fill="#FBF4FF"/>
<path d="M6.23976 4.39503C6.11086 4.39503 5.98153 4.4019 5.85348 4.39331C5.6524 4.37999 5.51232 4.24164 5.49943 4.05645C5.48654 3.87513 5.6133 3.69896 5.80665 3.67705C6.09066 3.64483 6.37897 3.64311 6.66298 3.67791C6.85977 3.7024 6.97277 3.86868 6.95945 4.06161C6.94656 4.24336 6.81981 4.37097 6.62646 4.39159C6.56287 4.39847 6.49799 4.39632 6.43354 4.39675C6.36909 4.39761 6.30464 4.39675 6.24019 4.39675C6.23976 4.39675 6.23976 4.39589 6.23976 4.39503Z" fill="#FBF4FF"/>
<path d="M13.1939 4.3908C13.0581 4.3908 12.921 4.40069 12.7866 4.38823C12.6014 4.37147 12.4626 4.22409 12.4639 4.04621C12.4652 3.8636 12.5507 3.71536 12.7371 3.68571C13.0409 3.63716 13.3511 3.63458 13.6545 3.68657C13.8491 3.72009 13.9376 3.87219 13.9192 4.06941C13.9016 4.25804 13.7885 4.37061 13.6012 4.38823C13.4667 4.40069 13.3297 4.3908 13.1939 4.3908Z" fill="#FBF4FF"/>
<path d="M8.0907 2.57292C8.21229 2.57292 8.33432 2.56604 8.45548 2.57463C8.65571 2.58838 8.767 2.70955 8.79449 2.90075C8.8207 3.08079 8.69137 3.26597 8.49974 3.28832C8.20885 3.32269 7.91281 3.32527 7.62235 3.28703C7.43072 3.26168 7.31901 3.08251 7.33834 2.89259C7.35639 2.71342 7.48916 2.5901 7.68251 2.57335C7.69669 2.57206 7.7113 2.57163 7.72548 2.57163C7.84707 2.57163 7.96867 2.57163 8.0907 2.57163C8.0907 2.57163 8.0907 2.57206 8.0907 2.57292Z" fill="#FBF4FF"/>
<path d="M11.3624 2.56763C11.2408 2.56763 11.1184 2.57536 10.9976 2.56591C10.7729 2.54829 10.6333 2.39877 10.6363 2.1921C10.6393 1.98328 10.7802 1.84406 11.011 1.83719C11.2468 1.83031 11.4832 1.83031 11.719 1.83719C11.9416 1.84363 12.0954 1.99531 12.0972 2.19424C12.0993 2.39189 11.9481 2.54829 11.7272 2.56505C11.6065 2.57493 11.484 2.5672 11.3624 2.56763Z" fill="#FBF4FF"/>
<path d="M15.4062 13.1871C15.4057 13.0084 15.4139 12.8292 15.4036 12.6509C15.395 12.4966 15.4599 12.4588 15.6047 12.4571C16.1452 12.4515 16.5044 12.7557 16.4902 13.2202C16.4752 13.7036 15.948 14.0692 15.4899 13.918C15.4062 13.8905 15.4079 13.829 15.4075 13.7659C15.4053 13.5734 15.4066 13.3805 15.4062 13.1871Z" fill="#747474"/>
<path d="M13.1859 13.3672C13.1885 13.9211 13.1885 13.9211 12.6446 13.9211C12.1027 13.9211 12.1027 13.9211 12.1027 13.3874C12.1027 13.2517 12.098 13.1155 12.1058 12.9797C12.1225 12.6888 12.352 12.4675 12.6355 12.4611C12.9243 12.4546 13.1666 12.6811 13.1842 12.981C13.1924 13.1094 13.1859 13.2388 13.1859 13.3672Z" fill="#747474"/>
</svg>
