<svg width="20" height="22" viewBox="0 0 20 22" fill="none" xmlns="http://www.w3.org/2000/svg">
<path d="M2.99939 21.9979C2.7562 21.9979 2.51258 21.9979 2.26938 21.9979C2.15552 21.9064 2.00815 21.9042 1.87881 21.854C0.680464 21.3886 0.129627 20.0021 0.696792 18.8385C0.866082 18.4914 0.964046 18.1382 0.875534 17.7626C0.484105 16.105 0.37368 14.4306 0.550704 12.7377C0.689917 11.4083 0.976507 10.1175 1.59008 8.91745C1.65238 8.79629 1.63347 8.76492 1.51231 8.71121C1.10713 8.53247 0.872956 8.21795 0.845028 7.76852C0.82913 7.509 0.925376 7.39771 1.18962 7.34228C1.43411 7.34787 1.54238 7.49138 1.58019 7.71696C1.61843 7.94683 1.73702 8.05253 1.96604 8.0753C2.01588 8.08046 2.06615 8.07831 2.11599 8.07831C7.37516 8.07831 12.6339 8.07831 17.8931 8.07831C17.9287 8.07831 17.9648 8.0796 18.0005 8.07702C18.2819 8.0594 18.4181 7.92234 18.4203 7.64262C18.4233 7.23487 18.4216 6.82711 18.4211 6.41935C18.4211 5.96562 18.3403 5.8857 17.8823 5.8857C12.6305 5.8857 7.37859 5.8857 2.12673 5.8857C2.06228 5.8857 1.99783 5.88441 1.93338 5.88699C1.73402 5.89515 1.60383 5.99656 1.58406 6.19549C1.56 6.43826 1.43282 6.57146 1.20122 6.61872C0.883698 6.51517 0.806787 6.39271 0.851903 6.06187C0.911627 5.62017 1.29403 5.22444 1.73831 5.16214C1.91405 5.13765 2.09494 5.13593 2.27282 5.14022C2.39184 5.14323 2.44856 5.10198 2.49281 4.99113C2.62773 4.65341 2.76737 4.31741 2.92076 3.98785C3.3311 3.10616 4.01814 2.62107 4.99736 2.58068C5.51468 2.55962 5.93619 2.36713 6.25329 1.9525C6.46554 1.67536 6.73581 1.47041 7.0499 1.31745C7.42758 1.13355 7.82889 1.09703 8.24008 1.10992C8.58339 1.12066 8.90178 1.04547 9.20168 0.868442C9.74909 0.544471 10.2673 0.159916 10.9019 0.0078125C11.231 0.0078125 11.5606 0.0078125 11.8897 0.0078125C12.3542 0.133276 12.7774 0.333073 13.1431 0.655325C13.7571 1.19628 14.414 1.65732 15.205 1.92973C15.7572 2.11964 16.1662 2.54029 16.3896 3.08167C16.626 3.65485 16.9865 4.15413 17.2644 4.69981C17.432 5.02808 17.6322 5.22315 18.0207 5.13936C18.0675 5.12905 18.1204 5.1428 18.1702 5.14839C18.7344 5.20983 19.1421 5.6395 19.1546 6.20838C19.1657 6.71625 19.1619 7.22455 19.1559 7.73285C19.1516 8.11096 18.9784 8.40529 18.6686 8.61583C18.5698 8.68286 18.4559 8.7284 18.3451 8.78555C18.5444 9.16451 18.7189 9.54735 18.8504 9.94823C19.6693 12.4442 19.7243 14.9741 19.17 17.5268C19.0686 17.9942 19.0961 18.4179 19.3084 18.8553C19.9172 20.1095 19.2268 21.5678 17.8772 21.9309C17.8144 21.9476 17.7298 21.9197 17.6872 21.9979C17.4294 21.9979 17.1716 21.9979 16.9143 21.9979C16.5198 21.8265 16.1301 21.6434 15.7292 21.4879C15.5282 21.4097 15.3082 21.4243 15.0933 21.4694C14.0282 21.692 12.954 21.8505 11.8691 21.9378C11.7045 21.9511 11.5296 21.9055 11.3737 21.9979C10.443 21.9979 9.51234 21.9979 8.5821 21.9979C8.56148 21.9438 8.51292 21.9579 8.47339 21.9554C7.30899 21.8866 6.15575 21.7337 5.01584 21.4862C4.69358 21.4161 4.36875 21.4032 4.07099 21.5502C3.72296 21.7225 3.37665 21.8961 2.99939 21.9979ZM10.0142 8.80961C7.58827 8.80961 5.16192 8.81133 2.73601 8.80574C2.56242 8.80531 2.4636 8.85988 2.37981 9.00854C2.16025 9.39611 1.97334 9.79785 1.83585 10.2202C1.08264 12.5336 1.0199 14.8817 1.5252 17.2488C1.66914 17.9233 1.67687 18.5584 1.34731 19.1861C1.14451 19.5728 1.15439 19.9883 1.33356 20.3897C1.70222 21.215 2.65781 21.5008 3.46859 21.0299C3.95799 20.7458 4.47918 20.6367 5.03689 20.7493C5.97615 20.9392 6.92057 21.0995 7.87572 21.1772C9.01736 21.2705 10.1603 21.2971 11.3054 21.2318C12.1845 21.1815 13.0575 21.0913 13.9251 20.9422C14.277 20.8816 14.6271 20.8099 14.9786 20.7454C15.5294 20.6444 16.0438 20.7428 16.5263 21.0251C17.1832 21.4093 17.9158 21.3156 18.4069 20.7888C18.8272 20.3377 18.9144 19.6962 18.6128 19.0933C18.3575 18.5833 18.3 18.0544 18.4267 17.5079C18.8392 15.7312 18.9071 13.942 18.6312 12.1408C18.4649 11.0529 18.1809 10.0011 17.6344 9.03261C17.5442 8.87234 17.444 8.80402 17.2494 8.80445C14.8381 8.81219 12.4259 8.80961 10.0142 8.80961ZM16.6784 5.13765C16.5718 4.95761 16.4863 4.81883 16.406 4.67747C16.2259 4.3608 15.987 4.07249 15.8723 3.72532C15.6571 3.07523 15.2248 2.66962 14.5837 2.45307C14.1979 2.32288 13.8241 2.16175 13.5057 1.89235C13.2105 1.64314 12.8921 1.421 12.6042 1.16406C12.1269 0.738252 11.5696 0.679387 10.9758 0.771337C10.5362 0.839225 10.1934 1.11808 9.83674 1.34924C9.28848 1.70458 8.7067 1.88117 8.05318 1.84852C7.53886 1.82274 7.12423 2.03371 6.80498 2.4376C6.34953 3.01336 5.74928 3.29092 5.01928 3.31327C4.36403 3.33346 3.89784 3.65657 3.61382 4.24092C3.5107 4.45275 3.42735 4.6736 3.33497 4.89059C3.23013 5.13722 3.23013 5.13765 3.49395 5.13765C7.80311 5.13765 12.1123 5.13765 16.4214 5.13765C16.4919 5.13765 16.5628 5.13765 16.6784 5.13765Z" fill="#573CFF"/>
<path d="M2.99829 21.9996C3.37554 21.8973 3.72143 21.7242 4.07032 21.5519C4.36808 21.4049 4.69291 21.4182 5.01516 21.4878C6.15508 21.7353 7.30831 21.8879 8.47272 21.957C8.51225 21.9592 8.56123 21.9454 8.58143 21.9996C6.72095 21.9996 4.85962 21.9996 2.99829 21.9996Z" fill="#FAFAFA"/>
<path d="M11.3743 21.9989C11.5302 21.9066 11.7051 21.9521 11.8697 21.9388C12.9546 21.8511 14.0288 21.693 15.0939 21.4704C15.3088 21.4258 15.5287 21.4107 15.7298 21.4889C16.1303 21.6445 16.5204 21.8275 16.9149 21.9989C15.0677 21.9989 13.221 21.9989 11.3743 21.9989Z" fill="#FAFAFA"/>
<path d="M10.0133 8.80985C12.425 8.80985 14.8368 8.81242 17.2485 8.80469C17.4431 8.80426 17.5428 8.87258 17.6335 9.03284C18.18 10.0013 18.4636 11.0532 18.6303 12.1411C18.9057 13.9423 18.8383 15.7314 18.4258 17.5081C18.299 18.0546 18.3566 18.5836 18.6118 19.0936C18.9135 19.6964 18.8263 20.3379 18.406 20.7891C17.9154 21.3158 17.1823 21.4095 16.5254 21.0254C16.0428 20.7431 15.5281 20.6447 14.9777 20.7457C14.6262 20.8101 14.276 20.8819 13.9241 20.9424C13.0571 21.0915 12.1836 21.1818 11.3044 21.232C10.1594 21.2974 9.01602 21.2707 7.87482 21.1775C6.91923 21.0993 5.97525 20.9394 5.03599 20.7495C4.47828 20.637 3.95709 20.7461 3.46769 21.0301C2.6569 21.501 1.70132 21.2153 1.33266 20.3899C1.15349 19.9886 1.1436 19.5731 1.34641 19.1864C1.67597 18.5586 1.66823 17.9236 1.52429 17.249C1.019 14.8819 1.08173 12.5342 1.83494 10.2205C1.97244 9.79809 2.15977 9.39635 2.37891 9.00878C2.46312 8.86012 2.56195 8.80555 2.7351 8.80598C5.16102 8.81199 7.58737 8.80985 10.0133 8.80985ZM15.1203 13.9371C15.1203 14.3663 15.1191 14.7956 15.1208 15.2248C15.1216 15.4177 15.11 15.6132 15.1371 15.8027C15.1775 16.0846 15.4606 16.2165 15.6854 16.0751C15.8276 15.9853 15.871 15.8444 15.8723 15.6871C15.8744 15.401 15.8727 15.1148 15.874 14.8287C15.8744 14.7578 15.8697 14.6899 15.9681 14.6641C16.4416 14.5386 16.9404 14.9004 16.9576 15.3881C16.9623 15.5239 16.9499 15.6609 16.9645 15.7954C16.986 15.9896 17.099 16.1065 17.3005 16.1215C17.4921 16.1362 17.6597 16.0309 17.6782 15.8491C17.7284 15.3481 17.7087 14.854 17.337 14.4587C17.2232 14.3376 17.2305 14.2757 17.3357 14.1494C17.7211 13.6866 17.8109 13.1607 17.5626 12.6064C17.3108 12.0444 16.8545 11.763 16.2426 11.7363C16.0355 11.7273 15.8276 11.7338 15.6205 11.7346C15.2488 11.7359 15.1221 11.8627 15.1208 12.2416C15.1191 12.8066 15.1203 13.3717 15.1203 13.9371ZM14.389 14.3281C14.3878 14.3281 14.3869 14.3281 14.3856 14.3281C14.3856 13.8559 14.3981 13.3833 14.3826 12.9115C14.3611 12.2644 13.7763 11.7342 13.1099 11.7355C12.4474 11.7368 11.8557 12.2747 11.8454 12.9205C11.8308 13.8645 11.8372 14.8093 11.8415 15.7537C11.8428 16.0317 12.0688 16.192 12.3228 16.1056C12.5045 16.0438 12.5668 15.8942 12.5698 15.7177C12.5746 15.4242 12.5754 15.1307 12.5698 14.8377C12.5672 14.7105 12.6094 14.6564 12.7421 14.6598C12.9853 14.6667 13.2289 14.6671 13.4717 14.6594C13.6096 14.6551 13.6633 14.7028 13.6595 14.8446C13.6517 15.1307 13.6535 15.4169 13.6586 15.703C13.6638 15.9733 13.8086 16.1267 14.0414 16.1224C14.2692 16.1181 14.3869 15.9789 14.3886 15.7018C14.3908 15.2437 14.389 14.7857 14.389 14.3281ZM5.23278 13.5431C5.23321 13.5431 5.23321 13.5431 5.23364 13.5431C5.23364 13.9869 5.22504 14.4308 5.23578 14.8742C5.24739 15.3554 5.4721 15.7284 5.88716 15.9647C6.72932 16.4434 7.77642 15.8569 7.7992 14.8841C7.82068 13.9758 7.80435 13.0666 7.80435 12.1578C7.80435 12.1295 7.80435 12.1003 7.80006 12.0723C7.76912 11.8725 7.60112 11.7269 7.41636 11.738C7.21957 11.7505 7.08551 11.8944 7.07477 12.1084C7.07133 12.1729 7.07348 12.2373 7.07348 12.3018C7.07348 13.1246 7.07563 13.9478 7.07219 14.7707C7.07091 15.1312 6.87669 15.3666 6.57764 15.389C6.20856 15.4165 5.96751 15.1836 5.96579 14.7823C5.96193 13.9165 5.96536 13.0503 5.96408 12.1845C5.96365 11.9095 5.82916 11.7441 5.60874 11.738C5.38746 11.732 5.2345 11.9129 5.23321 12.1914C5.23149 12.6416 5.23278 13.0924 5.23278 13.5431ZM8.53737 13.9392C8.53737 14.2469 8.53393 14.5545 8.53823 14.8622C8.54682 15.5265 9.05426 16.0824 9.68115 16.1198C10.4215 16.1641 10.9757 15.7284 11.0836 15.025C11.1197 14.7891 11.1128 14.5537 11.1034 14.3186C11.0943 14.0969 10.956 13.9556 10.742 13.935C10.6144 13.9225 10.4838 13.9229 10.3562 13.9362C10.1658 13.956 10.0335 14.0613 10.0064 14.2572C9.98063 14.4437 10.0696 14.582 10.2457 14.6409C10.3519 14.6766 10.3691 14.7298 10.3617 14.8304C10.3351 15.1909 10.1263 15.4001 9.79072 15.3902C9.4805 15.3808 9.27211 15.1501 9.26996 14.8025C9.26695 14.2301 9.26781 13.6578 9.26953 13.0855C9.27039 12.7504 9.43581 12.5338 9.72756 12.4779C9.99009 12.4277 10.2359 12.5909 10.348 12.8891C10.4447 13.1469 10.6243 13.2531 10.8378 13.1783C11.0432 13.1065 11.1201 12.9025 11.0402 12.6421C10.8559 12.0414 10.2591 11.656 9.64764 11.7419C9.01645 11.8309 8.54768 12.3581 8.53823 12.9953C8.5335 13.3094 8.53737 13.6243 8.53737 13.9392ZM3.18969 16.1228C3.74483 16.128 4.21704 15.8225 4.40738 15.3352C4.61061 14.8149 4.47956 14.2585 4.06107 13.889C3.82732 13.6827 3.55319 13.5822 3.23868 13.5719C2.9813 13.5633 2.78881 13.4387 2.7003 13.1856C2.62296 12.9639 2.69085 12.7761 2.85283 12.621C3.15833 12.328 3.59272 12.4689 3.75901 12.9119C3.84365 13.1379 4.02239 13.2428 4.22219 13.183C4.42242 13.1233 4.51566 12.9351 4.46109 12.7018C4.33691 12.1724 3.83291 11.7608 3.28164 11.7376C2.57527 11.708 1.97888 12.2494 1.9342 12.9609C1.89037 13.6587 2.4584 14.2594 3.20817 14.3079C3.52913 14.3285 3.74397 14.5253 3.76803 14.8205C3.7878 15.065 3.5953 15.3288 3.35855 15.3812C3.05564 15.4483 2.80299 15.3004 2.69042 14.9894C2.59804 14.7346 2.42961 14.6224 2.22981 14.683C2.00337 14.7518 1.914 14.9541 1.99263 15.2218C2.14731 15.7512 2.6337 16.1172 3.18969 16.1228Z" fill="#573CFF"/>
<path d="M1.18921 7.34319C1.19308 7.10215 1.19737 6.8611 1.20124 6.62006C1.43283 6.57322 1.56001 6.44003 1.58408 6.19683C1.60384 5.9979 1.7336 5.89649 1.9334 5.88833C1.99785 5.88575 2.0623 5.88704 2.12675 5.88704C7.37861 5.88704 12.6305 5.88704 17.8823 5.88704C18.3408 5.88704 18.4211 5.96696 18.4211 6.42069C18.4211 6.82845 18.4233 7.23621 18.4203 7.64396C18.4181 7.92325 18.2819 8.06074 18.0005 8.07836C17.9648 8.08051 17.9292 8.07965 17.8931 8.07965C12.6339 8.07965 7.37517 8.07965 2.11601 8.07965C2.06574 8.07965 2.01546 8.0818 1.96605 8.07664C1.73704 8.05387 1.61888 7.94817 1.58021 7.7183C1.54197 7.49186 1.43369 7.34878 1.18921 7.34319Z" fill="#FBF4FF"/>
<path d="M16.6778 5.13784C16.5626 5.13784 16.4917 5.13784 16.4209 5.13784C12.1117 5.13784 7.80253 5.13784 3.49336 5.13784C3.22955 5.13784 3.22912 5.13741 3.33439 4.89078C3.42676 4.6738 3.51055 4.45295 3.61324 4.24112C3.89725 3.65634 4.36345 3.33366 5.01869 3.31346C5.7487 3.29112 6.34895 3.01312 6.8044 2.43779C7.12365 2.0339 7.53828 1.82294 8.05259 1.84872C8.70655 1.8818 9.2879 1.70478 9.83616 1.34944C10.1924 1.11828 10.5357 0.839421 10.9752 0.771533C11.569 0.680013 12.1263 0.738449 12.6037 1.16425C12.8915 1.42119 13.2099 1.64333 13.5051 1.89254C13.8235 2.16152 14.1973 2.32264 14.5832 2.45326C15.2242 2.66982 15.6565 3.07543 15.8717 3.72552C15.9869 4.07269 16.2254 4.361 16.4054 4.67766C16.4857 4.81903 16.5708 4.95781 16.6778 5.13784ZM10.7286 4.40096C10.7286 4.40053 10.7286 4.39967 10.7286 4.39924C10.8639 4.39924 10.9997 4.40869 11.1338 4.39709C11.3306 4.37947 11.4453 4.26046 11.4595 4.06496C11.4736 3.8686 11.3748 3.72251 11.1827 3.69157C10.8876 3.64431 10.5859 3.64775 10.2903 3.68942C10.0974 3.71692 10.0003 3.86172 10.0029 4.05679C10.005 4.24327 10.1455 4.38377 10.3445 4.39924C10.4716 4.40912 10.6001 4.40096 10.7286 4.40096ZM6.70859 4.40225C6.70859 4.40311 6.70859 4.40397 6.70859 4.40482C6.77304 4.40482 6.83749 4.40525 6.90194 4.40482C6.96639 4.40397 7.03127 4.40654 7.09486 4.39967C7.28821 4.37904 7.41496 4.25143 7.42785 4.06968C7.44117 3.87676 7.32817 3.71005 7.13138 3.68599C6.84737 3.65075 6.55906 3.6529 6.27505 3.68513C6.0817 3.70704 5.95494 3.88321 5.96783 4.06453C5.98115 4.24971 6.1208 4.38807 6.32188 4.40139C6.45035 4.40912 6.57968 4.40225 6.70859 4.40225ZM13.6632 4.39924C13.799 4.39924 13.9361 4.40955 14.0706 4.39666C14.2579 4.37904 14.3705 4.26647 14.3885 4.07785C14.407 3.88063 14.3185 3.72852 14.1238 3.69501C13.8209 3.64302 13.5103 3.6456 13.2065 3.69415C13.0196 3.72423 12.9345 3.87203 12.9332 4.05464C12.9319 4.2321 13.0707 4.37947 13.2559 4.39666C13.3904 4.40912 13.5275 4.39924 13.6632 4.39924ZM8.55961 2.58002C8.55961 2.57916 8.55961 2.57873 8.55961 2.57787C8.43801 2.57787 8.31641 2.57787 8.19439 2.57787C8.18021 2.57787 8.1656 2.5783 8.15142 2.57959C7.95807 2.59634 7.8253 2.71966 7.80725 2.89883C7.78835 3.08874 7.89963 3.26835 8.09126 3.29327C8.38172 3.33151 8.67776 3.32893 8.96865 3.29456C9.16028 3.27178 9.28961 3.0866 9.2634 2.90699C9.23548 2.71579 9.12462 2.59462 8.9244 2.58087C8.80323 2.57314 8.6812 2.58002 8.55961 2.58002ZM11.8315 2.57658C11.9531 2.57658 12.0752 2.58431 12.1963 2.57486C12.4172 2.5581 12.5684 2.4017 12.5663 2.20405C12.5641 2.00512 12.4107 1.85344 12.1882 1.847C11.9523 1.84012 11.716 1.84012 11.4801 1.847C11.2493 1.85344 11.1084 1.99309 11.1054 2.20191C11.1024 2.40815 11.2425 2.5581 11.4668 2.57572C11.5879 2.58474 11.7099 2.57701 11.8315 2.57658Z" fill="#573CFF"/>
<path d="M15.1209 13.936C15.1209 13.371 15.1197 12.8055 15.1214 12.2405C15.1227 11.8611 15.249 11.7348 15.6211 11.7335C15.8286 11.7326 16.0361 11.7262 16.2432 11.7352C16.8551 11.7619 17.3114 12.0433 17.5632 12.6053C17.8115 13.1596 17.7217 13.6855 17.3363 14.1482C17.2311 14.2746 17.2233 14.336 17.3376 14.4576C17.7093 14.8529 17.729 15.347 17.6788 15.848C17.6603 16.0302 17.4927 16.135 17.3011 16.1204C17.0996 16.105 16.9866 15.9885 16.9651 15.7943C16.9501 15.6598 16.9629 15.5228 16.9582 15.387C16.9415 14.8993 16.4422 14.5375 15.9687 14.663C15.8703 14.6892 15.875 14.7571 15.8746 14.8276C15.8733 15.1137 15.875 15.3999 15.8729 15.686C15.8716 15.8433 15.8282 15.9842 15.686 16.074C15.4612 16.2158 15.1777 16.0835 15.1377 15.8016C15.1106 15.6121 15.1222 15.4166 15.1214 15.2237C15.1197 14.7945 15.1209 14.3652 15.1209 13.936ZM15.875 13.1922C15.875 13.3852 15.8742 13.5781 15.8754 13.7714C15.8759 13.835 15.8742 13.896 15.9579 13.9235C16.416 14.0748 16.9432 13.7091 16.9582 13.2257C16.9728 12.7613 16.6132 12.4571 16.0727 12.4627C15.9279 12.4639 15.863 12.5022 15.8716 12.6564C15.8823 12.8343 15.8746 13.0135 15.875 13.1922Z" fill="#FBF4FF"/>
<path d="M14.3898 14.327C14.3898 14.785 14.3915 15.2426 14.3894 15.7007C14.3881 15.9778 14.2699 16.117 14.0422 16.1213C13.8093 16.1256 13.6645 15.9722 13.6593 15.702C13.6542 15.4158 13.652 15.1296 13.6602 14.8435C13.6641 14.7017 13.6104 14.654 13.4724 14.6583C13.2292 14.6656 12.9861 14.6652 12.7429 14.6587C12.6105 14.6553 12.5684 14.7094 12.5706 14.8366C12.5766 15.1296 12.5753 15.4231 12.5706 15.7166C12.568 15.8932 12.5057 16.0427 12.3235 16.1046C12.0696 16.1909 11.8436 16.0307 11.8423 15.7527C11.838 14.8082 11.8311 13.8638 11.8461 12.9194C11.8565 12.2736 12.4481 11.7357 13.1107 11.7344C13.7771 11.7331 14.3619 12.2637 14.3833 12.9104C14.3988 13.3822 14.3864 13.8548 14.3864 14.327C14.3876 14.327 14.3889 14.327 14.3898 14.327ZM13.6555 13.374C13.6555 13.2451 13.6619 13.1162 13.6542 12.9877C13.6366 12.6878 13.3942 12.4614 13.1055 12.4678C12.8219 12.4743 12.5925 12.6956 12.5757 12.9864C12.568 13.1218 12.5727 13.258 12.5727 13.3942C12.5723 13.9278 12.5727 13.9278 13.1145 13.9278C13.6581 13.9278 13.6581 13.9278 13.6555 13.374Z" fill="#FBF4FF"/>
<path d="M5.2336 13.5448C5.2336 13.0941 5.23188 12.643 5.23403 12.1922C5.23531 11.9142 5.38785 11.7329 5.60956 11.7389C5.82998 11.7449 5.96447 11.9108 5.96489 12.1854C5.96618 13.0511 5.96275 13.9174 5.96661 14.7831C5.96833 15.1845 6.20938 15.4173 6.57846 15.3898C6.87751 15.3675 7.07172 15.132 7.07301 14.7715C7.07645 13.9487 7.0743 13.1255 7.0743 12.3027C7.0743 12.2382 7.07258 12.1738 7.07559 12.1093C7.08633 11.8958 7.22082 11.7514 7.41718 11.7389C7.60194 11.7273 7.76994 11.873 7.80088 12.0732C7.80517 12.1011 7.80517 12.1304 7.80517 12.1587C7.80517 13.0675 7.8215 13.9767 7.80002 14.885C7.77724 15.8577 6.72971 16.4442 5.88798 15.9656C5.47249 15.7297 5.2482 15.3568 5.2366 14.8751C5.22586 14.4317 5.23446 13.9878 5.23446 13.544C5.23403 13.5448 5.23403 13.5448 5.2336 13.5448Z" fill="#FBF4FF"/>
<path d="M8.53836 13.9402C8.53836 13.6252 8.53449 13.3107 8.53921 12.9958C8.54867 12.3586 9.01744 11.8314 9.64862 11.7424C10.26 11.6565 10.8564 12.0419 11.0412 12.6426C11.1211 12.903 11.0442 13.1071 10.8388 13.1788C10.6253 13.2536 10.4457 13.1479 10.349 12.8896C10.2368 12.591 9.99107 12.4282 9.72854 12.4784C9.4368 12.5343 9.27137 12.7509 9.27051 13.086C9.2688 13.6583 9.26793 14.2306 9.27094 14.803C9.27266 15.1506 9.48148 15.3813 9.7917 15.3908C10.1273 15.4006 10.3361 15.1918 10.3627 14.8309C10.37 14.7303 10.3529 14.6766 10.2467 14.6414C10.0701 14.5825 9.98162 14.4442 10.0074 14.2577C10.0345 14.0618 10.1668 13.9565 10.3571 13.9367C10.4843 13.9234 10.6154 13.923 10.743 13.9355C10.9574 13.9561 11.0958 14.0974 11.1043 14.3192C11.1138 14.5542 11.1207 14.7901 11.0846 15.0255C10.9767 15.7289 10.4225 16.1646 9.68214 16.1203C9.05525 16.083 8.54824 15.5265 8.53921 14.8627C8.53492 14.5555 8.53836 14.2478 8.53836 13.9402Z" fill="#FBF4FF"/>
<path d="M3.18993 16.122C2.6335 16.1169 2.14755 15.7503 1.99201 15.2197C1.91381 14.952 2.00275 14.7496 2.22918 14.6809C2.42898 14.6203 2.59741 14.7325 2.68979 14.9872C2.80279 15.2983 3.05501 15.4466 3.35793 15.3791C3.59468 15.3267 3.7876 15.0629 3.7674 14.8184C3.74334 14.5232 3.52851 14.3268 3.20754 14.3058C2.45777 14.2577 1.88931 13.6566 1.93357 12.9588C1.97826 12.2472 2.57464 11.7063 3.28102 11.7355C3.83228 11.7587 4.33629 12.1708 4.46046 12.6997C4.51503 12.933 4.42179 13.1212 4.22156 13.1809C4.02177 13.2406 3.84303 13.1358 3.75838 12.9098C3.59253 12.4668 3.15813 12.3259 2.85221 12.6189C2.69022 12.7744 2.6219 12.9622 2.69967 13.1835C2.78819 13.4366 2.98068 13.5612 3.23805 13.5698C3.55257 13.5801 3.8267 13.6806 4.06044 13.8869C4.47894 14.2564 4.60999 14.8132 4.40675 15.3331C4.21727 15.8217 3.74506 16.1272 3.18993 16.122Z" fill="#FBF4FF"/>
<path d="M10.7279 4.40007C10.5999 4.40007 10.471 4.4078 10.3438 4.39835C10.1445 4.38331 10.0044 4.24238 10.0022 4.0559C10.0001 3.86083 10.0968 3.71603 10.2897 3.68853C10.5853 3.64685 10.8869 3.64342 11.1821 3.69068C11.3742 3.72119 11.473 3.8677 11.4588 4.06406C11.4451 4.25956 11.3303 4.37901 11.1331 4.3962C10.9991 4.40823 10.8629 4.39835 10.7279 4.39835C10.7279 4.39921 10.7279 4.39964 10.7279 4.40007Z" fill="#FBF4FF"/>
<path d="M6.70851 4.40284C6.57961 4.40284 6.45028 4.40972 6.32223 4.40112C6.12115 4.3878 5.98107 4.24945 5.96818 4.06426C5.95529 3.88294 6.08205 3.70678 6.2754 3.68486C6.55941 3.65264 6.84772 3.65092 7.13173 3.68572C7.32852 3.71021 7.44152 3.8765 7.4282 4.06942C7.41531 4.25117 7.28856 4.37878 7.09521 4.39941C7.03162 4.40628 6.96674 4.40413 6.90229 4.40456C6.83784 4.40542 6.77339 4.40456 6.70894 4.40456C6.70851 4.40456 6.70851 4.4037 6.70851 4.40284Z" fill="#FBF4FF"/>
<path d="M13.6626 4.39862C13.5269 4.39862 13.3898 4.4085 13.2553 4.39604C13.0701 4.37928 12.9313 4.2319 12.9326 4.05402C12.9339 3.87141 13.0194 3.72317 13.2059 3.69353C13.5097 3.64497 13.8199 3.6424 14.1232 3.69439C14.3179 3.7279 14.4064 3.88 14.3879 4.07722C14.3703 4.26585 14.2573 4.37842 14.07 4.39604C13.9355 4.4085 13.7984 4.39862 13.6626 4.39862Z" fill="#FBF4FF"/>
<path d="M8.55945 2.58073C8.68104 2.58073 8.80307 2.57385 8.92423 2.58245C9.12446 2.5962 9.23575 2.71736 9.26324 2.90857C9.28945 3.0886 9.16012 3.27379 8.96849 3.29613C8.6776 3.3305 8.38156 3.33308 8.0911 3.29484C7.89947 3.26949 7.78776 3.09032 7.80709 2.9004C7.82514 2.72123 7.95791 2.59792 8.15126 2.58116C8.16544 2.57987 8.18005 2.57944 8.19423 2.57944C8.31582 2.57944 8.43742 2.57944 8.55945 2.57944C8.55945 2.57944 8.55945 2.57987 8.55945 2.58073Z" fill="#FBF4FF"/>
<path d="M11.8312 2.57544C11.7096 2.57544 11.5871 2.58317 11.4664 2.57372C11.2417 2.5561 11.102 2.40658 11.105 2.19991C11.108 1.99109 11.249 1.85187 11.4797 1.845C11.7156 1.83813 11.9519 1.83813 12.1878 1.845C12.4104 1.85144 12.5642 2.00312 12.5659 2.20206C12.5681 2.3997 12.4168 2.5561 12.196 2.57286C12.0752 2.58274 11.9528 2.57501 11.8312 2.57544Z" fill="#FBF4FF"/>
<path d="M15.8749 13.1949C15.8745 13.0162 15.8826 12.837 15.8723 12.6587C15.8637 12.5044 15.9286 12.4666 16.0734 12.4649C16.6139 12.4593 16.9732 12.7635 16.959 13.228C16.9439 13.7114 16.4167 14.077 15.9587 13.9258C15.8749 13.8983 15.8766 13.8369 15.8762 13.7737C15.8741 13.5812 15.8753 13.3883 15.8749 13.1949Z" fill="#573CFF"/>
<path d="M13.6547 13.3751C13.6573 13.9289 13.6573 13.9289 13.1133 13.9289C12.5715 13.9289 12.5715 13.9289 12.5715 13.3953C12.5715 13.2595 12.5668 13.1233 12.5745 12.9875C12.5913 12.6966 12.8207 12.4753 13.1043 12.4689C13.393 12.4624 13.6354 12.6889 13.653 12.9888C13.6611 13.1173 13.6547 13.2466 13.6547 13.3751Z" fill="#573CFF"/>
</svg>
