<svg width="55" height="55" viewBox="0 0 55 55" fill="none" xmlns="http://www.w3.org/2000/svg">
<path d="M16.0423 4.58203H13.7507C6.87565 4.58203 4.58398 8.68411 4.58398 13.7487V16.0404V48.1237C4.58398 50.0258 6.73815 51.1029 8.25065 49.957L12.1694 47.0237C13.0861 46.3362 14.3694 46.4279 15.1944 47.2529L18.9986 51.08C19.8923 51.9737 21.359 51.9737 22.2527 51.08L26.1027 47.2299C26.9048 46.4279 28.1882 46.3362 29.0819 47.0237L33.0007 49.957C34.5132 51.0799 36.6673 50.0029 36.6673 48.1237V9.16536C36.6673 6.64453 38.7298 4.58203 41.2507 4.58203H16.0423ZM13.6819 32.1049C12.4215 32.1049 11.3902 31.0737 11.3902 29.8133C11.3902 28.5529 12.4215 27.5216 13.6819 27.5216C14.9423 27.5216 15.9736 28.5529 15.9736 29.8133C15.9736 31.0737 14.9423 32.1049 13.6819 32.1049ZM13.6819 22.9383C12.4215 22.9383 11.3902 21.907 11.3902 20.6466C11.3902 19.3862 12.4215 18.3549 13.6819 18.3549C14.9423 18.3549 15.9736 19.3862 15.9736 20.6466C15.9736 21.907 14.9423 22.9383 13.6819 22.9383ZM27.5007 31.532H20.6257C19.6861 31.532 18.9069 30.7529 18.9069 29.8133C18.9069 28.8737 19.6861 28.0945 20.6257 28.0945H27.5007C28.4402 28.0945 29.2194 28.8737 29.2194 29.8133C29.2194 30.7529 28.4402 31.532 27.5007 31.532ZM27.5007 22.3654H20.6257C19.6861 22.3654 18.9069 21.5862 18.9069 20.6466C18.9069 19.707 19.6861 18.9279 20.6257 18.9279H27.5007C28.4402 18.9279 29.2194 19.707 29.2194 20.6466C29.2194 21.5862 28.4402 22.3654 27.5007 22.3654Z" fill="#6A57DE"/>
<path d="M41.2723 4.58203V8.01953C42.7848 8.01953 44.2285 8.63828 45.2827 9.66953C46.3827 10.7924 46.9785 12.2362 46.9785 13.7487V19.2945C46.9785 20.9904 46.2223 21.7695 44.5035 21.7695H40.1035V9.18828C40.1035 8.54662 40.6306 8.01953 41.2723 8.01953V4.58203ZM41.2723 4.58203C38.7285 4.58203 36.666 6.64453 36.666 9.18828V25.207H44.5035C48.1243 25.207 50.416 22.9154 50.416 19.2945V13.7487C50.416 11.2279 49.3848 8.9362 47.7348 7.26328C46.0618 5.61328 43.7931 4.60495 41.2723 4.58203C41.2952 4.58203 41.2723 4.58203 41.2723 4.58203Z" fill="#6A57DE"/>
</svg>
