<svg width="26" height="26" viewBox="0 0 26 26" fill="none" xmlns="http://www.w3.org/2000/svg">
<path d="M6.38393 16.716C4.65311 16.716 3.25 15.6328 3.25 14.0447C3.25 12.4566 4.65311 11.1691 6.38393 11.1691C6.50163 11.1691 6.61781 11.1751 6.73214 11.1867V11.1691H6.77525C6.7468 10.9598 6.73214 10.7465 6.73214 10.5301C6.73214 7.70675 9.22656 5.41797 12.3036 5.41797C14.3872 5.41797 16.2037 6.46752 17.1594 8.02188C17.393 7.99036 17.6319 7.97404 17.875 7.97404C20.5674 7.97404 22.75 9.97672 22.75 12.4472C22.75 14.4808 21.271 16.0311 19.2461 16.5421M12.8461 20.5846V13.2459M12.8461 13.2459L9.64844 16.2725M12.8461 13.2459L16.0469 16.2725" stroke="#575461" stroke-width="1.5" stroke-linecap="round" stroke-linejoin="round"/>
</svg>
