<svg width="60" height="60" viewBox="0 0 60 60" fill="none" xmlns="http://www.w3.org/2000/svg">
<path d="M14.7321 38.5723C10.7379 38.5723 7.5 36.0728 7.5 32.4078C7.5 28.7429 10.7379 25.7719 14.7321 25.7719C15.0038 25.7719 15.2719 25.7856 15.5357 25.8124V25.7719H15.6352C15.5695 25.2888 15.5357 24.7966 15.5357 24.2972C15.5357 17.7818 21.2921 12.5 28.3929 12.5C33.2013 12.5 37.3933 14.922 39.5987 18.509C40.1376 18.4363 40.689 18.3986 41.25 18.3986C47.4632 18.3986 52.5 23.0202 52.5 28.7212C52.5 33.4142 49.0869 36.9917 44.4141 38.171M29.6449 47.5V30.5645M29.6449 30.5645L22.2656 37.5489M29.6449 30.5645L37.0312 37.5489" stroke="#6C41EB" stroke-width="4" stroke-linecap="round" stroke-linejoin="round"/>
</svg>
