<svg width="56" height="56" viewBox="0 0 56 56" fill="none" xmlns="http://www.w3.org/2000/svg">
<path d="M40.7785 18.224C40.6167 18.2009 40.455 18.2009 40.2932 18.224C36.7114 18.1085 33.8691 15.1737 33.8691 11.5689C33.8691 7.89468 36.8501 4.89062 40.5474 4.89062C44.2216 4.89062 47.2256 7.87157 47.2256 11.5689C47.2025 15.1737 44.3602 18.1085 40.7785 18.224Z" fill="#6A57DE"/>
<path d="M48.3112 34.2382C45.7231 35.9713 42.0951 36.6184 38.7444 36.1793C39.6226 34.2844 40.0847 32.1816 40.1078 29.9632C40.1078 27.6524 39.5994 25.4571 38.6289 23.5392C42.0489 23.077 45.6769 23.724 48.2881 25.4571C51.9392 27.8604 51.9392 31.8119 48.3112 34.2382Z" fill="#6A57DE"/>
<path d="M15.1506 18.224C15.3124 18.2009 15.4741 18.2009 15.6359 18.224C19.2176 18.1085 22.0599 15.1737 22.0599 11.5689C22.0599 7.87157 19.079 4.89062 15.3817 4.89062C11.7075 4.89062 8.72656 7.87157 8.72656 11.5689C8.72656 15.1737 11.5689 18.1085 15.1506 18.224Z" fill="#6A57DE"/>
<path d="M15.4046 29.9637C15.4046 32.2051 15.8899 34.3311 16.768 36.2491C13.5098 36.5957 10.1129 35.9024 7.61722 34.2618C3.96614 31.8354 3.96614 27.8839 7.61722 25.4576C10.0898 23.7938 13.5791 23.1237 16.8605 23.4934C15.913 25.4345 15.4046 27.6297 15.4046 29.9637Z" fill="#6A57DE"/>
<path d="M28.2769 36.9417C28.0921 36.9186 27.8841 36.9186 27.6761 36.9417C23.4242 36.803 20.0273 33.3137 20.0273 29.0156C20.0505 24.6251 23.586 21.0664 27.9996 21.0664C32.3902 21.0664 35.9488 24.6251 35.9488 29.0156C35.9257 33.3137 32.5519 36.803 28.2769 36.9417Z" fill="#6A57DE"/>
<path d="M20.7674 41.7255C17.2781 44.0594 17.2781 47.8954 20.7674 50.2062C24.742 52.8636 31.2585 52.8636 35.2331 50.2062C38.7224 47.8723 38.7224 44.0363 35.2331 41.7255C31.2816 39.0681 24.7651 39.0681 20.7674 41.7255Z" fill="#6A57DE"/>
</svg>
