<svg width="38" height="40" viewBox="0 0 38 40" fill="none" xmlns="http://www.w3.org/2000/svg">
<path d="M37.069 20C37.069 25.3043 35.1539 30.3914 31.7451 34.1421C28.3362 37.8929 23.7128 40 18.8919 40C14.0711 40 9.44765 37.8929 6.03879 34.1421C2.62992 30.3914 0.714844 25.3043 0.714844 20C0.714844 14.6957 2.62992 9.60859 6.03879 5.85786C9.44765 2.10714 14.0711 0 18.8919 0C23.7128 0 28.3362 2.10714 31.7451 5.85786C35.1539 9.60859 37.069 14.6957 37.069 20ZM28.0486 12.425C27.8863 12.247 27.6931 12.1069 27.4804 12.013C27.2678 11.9191 27.0401 11.8734 26.8111 11.8785C26.582 11.8837 26.3562 11.9396 26.1472 12.0429C25.9382 12.1463 25.7503 12.2949 25.5947 12.48L17.7036 23.5425L12.948 18.3075C12.625 17.9763 12.1977 17.796 11.7562 17.8046C11.3148 17.8131 10.8935 18.0099 10.5813 18.3534C10.2691 18.697 10.0903 19.1604 10.0825 19.6462C10.0747 20.1319 10.2385 20.6021 10.5396 20.9575L16.5516 27.575C16.7136 27.7529 16.9065 27.893 17.1187 27.9871C17.331 28.0812 17.5583 28.1273 17.7871 28.1226C18.0159 28.118 18.2415 28.0627 18.4504 27.96C18.6594 27.8573 18.8474 27.7094 19.0033 27.525L28.0736 15.05C28.3829 14.6962 28.5537 14.2232 28.5494 13.7324C28.5452 13.2416 28.3662 12.7722 28.0509 12.425H28.0486Z" fill="white"/>
</svg>
