<svg width="30" height="24" viewBox="0 0 30 24" fill="none" xmlns="http://www.w3.org/2000/svg">
<path d="M0.228516 11.2175C0.374728 10.7951 0.367032 10.3411 0.443986 9.89757C1.23661 5.28294 3.88382 1.87213 7.29286 1.10126C11.5022 0.150881 15.6654 3.99464 16.6581 9.76029C17.7355 15.98 15.0036 22.1575 10.4941 23.6781C5.83074 25.2515 1.04422 20.8586 0.336251 14.3327C0.313165 14.132 0.336251 13.9208 0.228516 13.7519C0.228516 12.9071 0.228516 12.0623 0.228516 11.2175Z" fill="#9281AD"/>
<path d="M29.7631 15.0934C29.6477 15.4418 29.6785 15.822 29.6554 16.1916C29.5399 17.7861 29.4091 19.3912 29.0243 20.9118C28.9474 21.2075 28.8627 21.5032 28.7319 21.7672C28.4549 22.3268 28.1471 22.3268 27.8777 21.7566C27.6007 21.1652 27.4622 20.4894 27.3545 19.803C26.8927 16.9625 26.8081 14.0902 26.8619 11.1968C26.9004 9.16933 27.0159 7.14185 27.3545 5.15661C27.4468 4.59694 27.5622 4.03727 27.7546 3.51984C27.8777 3.19249 28.0009 2.80177 28.301 2.79121C28.6242 2.78065 28.755 3.19249 28.8704 3.5304C29.1706 4.37518 29.3091 5.29388 29.4245 6.21259C29.5784 7.43752 29.6708 8.66246 29.7169 9.90851C29.7169 9.98243 29.6938 10.0669 29.7708 10.1091C29.7708 11.3763 29.7708 12.6435 29.7708 13.9107C29.6938 14.0902 29.6631 14.2803 29.7708 14.4598C29.7631 14.671 29.7631 14.8822 29.7631 15.0934Z" fill="#9281AD"/>
<path d="M17.6976 12.4432C17.7206 9.84549 18.0054 7.33226 18.8596 4.97743C19.1751 4.10096 19.5752 3.29842 20.1216 2.64371C21.222 1.31318 22.5379 1.31318 23.623 2.66483C24.4695 3.72081 24.9928 5.06191 25.3314 6.54028C26.3471 10.9648 26.301 15.3577 24.9697 19.6661C24.6773 20.6059 24.2694 21.4507 23.7307 22.1688C22.5687 23.6999 21.1451 23.7105 19.9908 22.1688C19.0289 20.891 18.5287 19.2543 18.1747 17.533C17.8361 15.8646 17.6899 14.1644 17.6976 12.4432Z" fill="#9281AD"/>
</svg>
