<svg width="28" height="22" viewBox="0 0 28 22" fill="none" xmlns="http://www.w3.org/2000/svg">
<path d="M27.9927 17.0364C27.9927 17.1494 27.9927 17.2624 27.9927 17.3754C27.876 17.6088 27.9125 17.8574 27.8906 18.106C27.876 18.2566 27.8396 18.3621 27.7156 18.46C25.6594 19.9966 23.4281 21.1716 21.0073 21.9625C20.825 22.0227 20.7375 21.9851 20.6281 21.8269C20.1906 21.1565 19.7823 20.4711 19.3958 19.7631C19.2719 19.5296 19.3083 19.4467 19.5344 19.3639C20.1906 19.1153 20.8177 18.7914 21.4229 18.4374C21.4885 18.3997 21.6198 18.3771 21.5469 18.2416C21.4156 17.993 21.0365 17.8574 20.7958 17.9629C16.3115 19.9815 11.8198 19.989 7.32083 18.0156C7.01458 17.88 6.80312 17.8725 6.55521 18.1135C6.3875 18.2792 6.35833 18.3395 6.58437 18.46C7.20417 18.8065 7.84583 19.1304 8.50208 19.4015C8.67708 19.4693 8.69896 19.5371 8.61146 19.7103C8.23229 20.456 7.79479 21.1791 7.32812 21.8721C7.22604 22.0152 7.13854 22.0227 6.98542 21.97C4.56458 21.1791 2.33333 20.0041 0.277084 18.4675C0.160417 18.3847 0.116667 18.2943 0.102083 18.1512C0.0729168 17.8951 0.109375 17.6314 0 17.3904C0 16.3208 0 15.2437 0 14.1742C0.0729167 14.1516 0.0510419 14.0838 0.0583336 14.0386C0.13125 13.0971 0.240625 12.1706 0.415625 11.2441C1.03542 7.8923 2.34063 4.84176 4.15625 2.00965C4.22917 1.89667 4.30938 1.81381 4.43333 1.75356C6.17604 0.940077 7.98437 0.375162 9.85833 0.0136166C9.99687 -0.00898003 10.0771 0.0136168 10.1427 0.149197C10.3177 0.533339 10.5292 0.894885 10.6823 1.28656C10.7698 1.51253 10.8865 1.55019 11.0906 1.51253C11.8708 1.38448 12.6656 1.32422 13.4531 1.30162C14.6271 1.27149 15.801 1.33175 16.9677 1.52006C17.1354 1.54266 17.2229 1.51253 17.2958 1.33175C17.4563 0.932547 17.6604 0.555935 17.8354 0.164261C17.901 0.0211488 17.9813 -0.0165116 18.1344 0.00608507C19.7385 0.314905 21.2917 0.796967 22.8156 1.40708C23.45 1.65564 23.8875 2.03978 24.2521 2.63482C26.2792 6.00172 27.5625 9.61718 27.9052 13.5791C27.9198 13.79 27.8833 14.0235 28 14.2269C28 15.0931 28 15.9593 28 16.8255C27.9198 16.8858 27.8979 16.9611 27.9927 17.0364ZM21.175 11.907C21.1823 11.6885 21.124 11.327 20.9927 10.988C20.6281 10.0164 19.9865 9.35355 18.9583 9.21044C18.0323 9.08239 17.2885 9.46653 16.7271 10.2273C15.8812 11.3872 15.9542 13.0745 16.8802 14.1591C17.8135 15.2513 19.3448 15.2965 20.3365 14.2645C20.9198 13.6544 21.1677 12.9088 21.175 11.907ZM11.8708 12.0651C11.8708 11.5831 11.776 11.1387 11.5865 10.7244C10.8062 8.992 8.75729 8.64552 7.56146 10.039C6.54792 11.214 6.60625 13.1573 7.69271 14.2721C8.64062 15.2437 10.0698 15.2513 11.0104 14.2796C11.6083 13.6695 11.8635 12.9163 11.8708 12.0651Z" fill="#9281AD"/>
</svg>
