<svg width="28" height="24" viewBox="0 0 28 24" fill="none" xmlns="http://www.w3.org/2000/svg">
<path d="M0.00666961 9.16608C0.0133393 9.16608 0.0333486 9.16608 0.0333486 9.15941C0.273458 8.35904 0.900411 8.05224 1.63408 7.81213C9.41096 5.25763 17.1878 2.68979 24.9581 0.121949C25.6184 -0.098151 26.2253 -0.038123 26.7389 0.448766C27.2458 0.922315 27.3592 1.51592 27.1857 2.18289C27.0657 2.63643 26.9656 3.09664 26.8589 3.55018C25.4516 9.54625 24.0443 15.5423 22.6237 21.5317C22.5103 22.0119 22.4703 22.5122 22.1701 22.9324C21.6232 23.6927 20.6361 23.8928 19.8757 23.3259C19.1554 22.7856 18.4684 22.192 17.7681 21.6251C16.781 20.8181 15.7872 20.011 14.8068 19.1973C14.68 19.0906 14.6 19.0973 14.4733 19.1907C13.1593 20.1844 11.8387 21.1716 10.5181 22.1587C10.4714 22.192 10.4181 22.232 10.3714 22.2721C10.3047 22.2054 10.3447 22.1453 10.3647 22.0986C10.925 20.0577 11.4919 18.0235 12.0522 15.9825C12.0922 15.8291 12.1722 15.7157 12.2789 15.6023C15.1269 12.6277 17.9682 9.65297 20.8162 6.67828C21.0096 6.47818 21.1697 6.25808 21.1563 5.95795C21.1296 5.44438 20.6428 5.08421 20.1492 5.23095C20.0158 5.27097 19.8891 5.33766 19.7624 5.41103C15.1869 7.94552 10.6182 10.4867 6.04943 13.0278C5.88268 13.1212 5.74929 13.1346 5.56254 13.0545C4.10854 12.4076 2.65455 11.7673 1.18721 11.1403C0.633623 10.9002 0.22677 10.5534 0.0533579 9.95977C0.0466882 9.93976 0.0200091 9.92642 0 9.90641C0.00666971 9.65964 0.00666961 9.41286 0.00666961 9.16608Z" fill="#9281AD"/>
</svg>
