<svg width="29" height="30" viewBox="0 0 29 30" fill="none" xmlns="http://www.w3.org/2000/svg">
<path d="M0.0484023 29.993C-0.00691485 29.8604 0.117549 29.8116 0.172866 29.7488C3.80305 25.4849 7.43324 21.228 11.0773 16.971C11.2709 16.7477 11.2778 16.6151 11.1118 16.3709C7.46781 11.0323 3.83071 5.69368 0.19361 0.348105C0.131378 0.250405 0.0622318 0.152705 0 0.0550054C0.0553171 -0.0357159 0.145207 0.0131336 0.207439 0.0131336C2.93181 0.0131336 5.66309 0.0131343 8.38746 0.00615571C8.56724 0.00615571 8.65713 0.0689623 8.76085 0.208533C11.1533 3.73271 13.5527 7.2499 15.9452 10.7671C16.0005 10.8439 16.0558 10.9206 16.1319 11.0253C16.6297 10.4461 17.1137 9.88082 17.5908 9.31555C20.1562 6.30779 22.7284 3.29306 25.2868 0.278319C25.4597 0.0689623 25.6395 -0.000822846 25.9022 0.00615571C26.6145 0.0270914 27.3267 0.0131336 28.0873 0.0131336C27.4511 0.766818 26.8426 1.47165 26.2411 2.17649C23.3162 5.60994 20.3913 9.04339 17.4595 12.4699C17.2935 12.6653 17.3073 12.7769 17.4387 12.9793C21.2487 18.5691 25.0587 24.1589 28.8617 29.7488C28.917 29.8255 28.9931 29.8953 29 30C26.1166 30 23.2332 30 20.3498 30C20.329 29.9651 20.3152 29.9302 20.2945 29.8953C17.7222 26.1129 15.1431 22.3306 12.5777 18.5482C12.4533 18.3598 12.391 18.4086 12.2804 18.5482C10.3443 20.8302 8.39437 23.1052 6.45827 25.3802C5.15141 26.9155 3.84454 28.4577 2.53767 30C1.70792 29.993 0.878159 29.993 0.0484023 29.993ZM25.4943 28.1297C25.4597 28.053 25.4528 28.032 25.432 28.0041C19.4647 19.3856 13.4835 10.7601 7.5093 2.12764C7.41249 1.98807 7.30877 1.94619 7.14974 1.94619C6.00191 1.95317 4.84716 1.94619 3.69933 1.95317C3.63019 1.95317 3.54721 1.9113 3.47806 1.99504C3.53338 2.08577 3.59561 2.16951 3.65093 2.26023C8.15928 8.77122 12.6676 15.2752 17.1829 21.7862C18.5935 23.824 20.0041 25.8617 21.4146 27.8925C21.4838 27.9902 21.5184 28.1228 21.6843 28.1228C22.9497 28.1297 24.2012 28.1297 25.4943 28.1297Z" fill="#CBC5D5"/>
</svg>
