<svg width="55" height="55" viewBox="0 0 55 55" fill="none" xmlns="http://www.w3.org/2000/svg">
<path d="M41.2506 38.3847C40.884 38.3847 40.5402 38.2702 40.2194 38.041C39.4631 37.4681 39.3027 36.391 39.8756 35.6347C43.4735 30.8452 43.4735 24.1535 39.8756 19.3639C39.3027 18.6077 39.4631 17.5306 40.2194 16.9577C40.9756 16.3847 42.0527 16.5452 42.6256 17.3014C47.1173 23.3056 47.1173 31.6931 42.6256 37.6972C42.2819 38.1556 41.7777 38.3847 41.2506 38.3847Z" fill="#6A57DE"/>
<path d="M45.444 44.1146C45.0773 44.1146 44.7336 44 44.4127 43.7708C43.6565 43.1979 43.4961 42.1208 44.069 41.3646C50.1877 33.2062 50.1877 21.7937 44.069 13.6354C43.4961 12.8791 43.6565 11.8021 44.4127 11.2291C45.169 10.6562 46.2461 10.8166 46.819 11.5729C53.8544 20.9458 53.8544 34.0541 46.819 43.4271C46.4982 43.8854 45.9711 44.1146 45.444 44.1146Z" fill="#6A57DE"/>
<path d="M32.1298 8.6639C29.5632 7.24307 26.2861 7.60973 22.9402 9.69515L16.2486 13.8889C15.7902 14.1639 15.2632 14.3243 14.7361 14.3243H12.6048H11.459C5.91315 14.3243 2.86523 17.3722 2.86523 22.9181V32.0847C2.86523 37.6306 5.91315 40.6785 11.459 40.6785H12.6048H14.7361C15.2632 40.6785 15.7902 40.8389 16.2486 41.1139L22.9402 45.3077C24.9569 46.5681 26.9277 47.1868 28.7611 47.1868C29.9527 47.1868 31.0986 46.9118 32.1298 46.3389C34.6736 44.9181 36.0944 41.9618 36.0944 38.0202V16.9827C36.0944 13.041 34.6736 10.0847 32.1298 8.6639Z" fill="#6A57DE"/>
</svg>
